<?xml version="1.0" encoding="UTF-8"?>
<svg width="64px" height="64px" viewBox="0 0 64 64" version="1.1" xmlns="http://www.w3.org/2000/svg" xmlns:xlink="http://www.w3.org/1999/xlink">
    <!-- Generator: Sketch 46.2 (44496) - http://www.bohemiancoding.com/sketch -->
    <title>altcoin</title>
    <desc>Created with Sketch.</desc>
    <defs></defs>
    <g id="Icons" stroke="none" stroke-width="1" fill="none" fill-rule="evenodd">
        <g id="altcoin" fill-rule="nonzero" fill="#2980B9">
            <g id="code-fork-symbol" transform="translate(14.000000, 5.000000)">
                <path d="M34.0316664,6.46898153 C32.7186642,5.15668975 31.1250345,4.50035916 29.2497921,4.50035916 C27.3754116,4.50035916 25.7816587,5.15632033 24.469026,6.46898153 C23.1568858,7.7812733 22.5008157,9.37481444 22.5008157,11.2502206 C22.5008157,12.4689268 22.8045929,13.5998349 23.4139943,14.6426987 C24.0232727,15.6856856 24.8428677,16.5003728 25.8748729,17.0860217 C25.8748729,18.3047279 25.7757482,19.3773912 25.5768831,20.3030267 C25.3771561,21.2286622 25.0493673,22.0427338 24.5925317,22.7463497 C24.1344647,23.4495963 23.6608826,24.0468202 23.1683375,24.5392528 C22.6756692,25.0316855 21.984259,25.4941954 21.0937374,25.9280139 C20.203339,26.3615861 19.376602,26.7244766 18.6151272,27.0179167 C17.8536525,27.3103717 16.8279272,27.6560227 15.5389367,28.0546235 C13.1949144,28.7815127 11.3905985,29.4489258 10.1248807,30.0587099 L10.1248807,12.5855394 C11.156147,12.0000137 11.9764809,11.1854495 12.5857592,10.1424626 C13.1949144,9.09947575 13.4995536,7.9684445 13.4995536,6.74973833 C13.4995536,4.87494784 12.8436066,3.28103729 11.5309739,1.96874551 C10.2188336,0.656576874 8.62532704,0 6.75008463,0 C4.87471907,0 3.28121247,0.656084318 1.96857972,1.96874551 C0.656439512,3.28103729 0,4.87494784 0,6.74973833 C0,7.9684445 0.304639158,9.09947575 0.913794338,10.1424626 C1.52307265,11.1854495 2.34328342,12.0000137 3.3746729,12.5855394 L3.3746729,41.4144606 C2.34328342,41.99974 1.52307265,42.8151662 0.913794338,43.8577836 C0.304639158,44.9011399 0,46.0321712 0,47.2505079 C0,49.1252984 0.655946966,50.7190859 1.96857972,52.0312545 C3.28121247,53.3434231 4.87508848,54 6.75008463,54 C8.62495763,54 10.2188336,53.3434231 11.5309739,52.0312545 C12.8432372,50.7190859 13.4995536,49.1251753 13.4995536,47.2505079 C13.4995536,46.0321712 13.1949144,44.9011399 12.5857592,43.8577836 C11.9763578,42.8151662 11.156147,41.99974 10.1248807,41.4144606 L10.1248807,40.5004002 C10.1248807,38.8834627 10.6111458,37.7119187 11.5836762,36.9855221 C12.5562065,36.2581403 14.5425179,35.4263367 17.5428565,34.4891261 C20.7073358,33.4811107 23.086575,32.53134 24.6802047,31.6404297 C29.9298738,28.6645307 32.578412,23.812733 32.6250807,17.0858985 C33.6570858,16.5003728 34.4766809,15.6855624 35.0859592,14.6425755 C35.6948681,13.5995886 35.9999998,12.4688037 35.9999998,11.2500975 C36.0003693,9.37518385 35.3439297,7.78164272 34.0316664,6.46898153 Z M9.14114492,49.6419895 C8.48458227,50.2984432 7.6877674,50.6263622 6.75057717,50.6263622 C5.81277126,50.6263622 5.01595639,50.2984432 4.35964001,49.6419895 C3.70369305,48.9862746 3.37528859,48.1889499 3.37528859,47.2517393 C3.37528859,46.31379 3.70332364,45.5173272 4.35964001,44.8607504 C5.01595639,44.2046661 5.81277126,43.8763776 6.75057717,43.8763776 C7.6877674,43.8763776 8.48470541,44.2050355 9.14114492,44.8607504 C9.7974613,45.5173272 10.1253732,46.31379 10.1253732,47.2517393 C10.1252501,48.1889499 9.7974613,48.9861514 9.14114492,49.6419895 Z M9.14114492,9.14085043 C8.48458227,9.79718103 7.6877674,10.1252232 6.75057717,10.1252232 C5.81277126,10.1252232 5.01595639,9.79718103 4.35964001,9.14085043 C3.70369305,8.48451984 3.37528859,7.68805712 3.37528859,6.75023089 C3.37528859,5.81265093 3.70332364,5.01557252 4.35964001,4.35985761 C5.01595639,3.70365016 5.81277126,3.37548486 6.75057717,3.37548486 C7.6877674,3.37548486 8.48470541,3.7037733 9.14114492,4.35985761 C9.7974613,5.01557252 10.1253732,5.81265093 10.1253732,6.75023089 C10.1252501,7.68805712 9.7974613,8.48488925 9.14114492,9.14085043 Z M31.6407292,13.6412096 C30.9846591,14.2971708 30.1882137,14.6254592 29.250654,14.6254592 C28.3126018,14.6254592 27.5156638,14.2971708 26.8600863,13.6412096 C26.2040162,12.9852484 25.8757349,12.1882931 25.8757349,11.25059 C25.8757349,10.3130101 26.2040162,9.51642423 26.8600863,8.85997049 C27.5161564,8.20351676 28.3126018,7.87572088 29.250654,7.87572088 C30.1882137,7.87572088 30.9846591,8.2036399 31.6407292,8.85997049 C32.2967993,9.51580853 32.6250807,10.3128869 32.6250807,11.25059 C32.6250807,12.18817 32.2972919,12.9852484 31.6407292,13.6412096 Z" id="Shape"></path>
            </g>
        </g>
    </g>
</svg>