<?xml version="1.0" encoding="UTF-8"?>
<svg width="64px" height="64px" viewBox="0 0 64 64" version="1.1" xmlns="http://www.w3.org/2000/svg" xmlns:xlink="http://www.w3.org/1999/xlink">
    <!-- Generator: Sketch 46.2 (44496) - http://www.bohemiancoding.com/sketch -->
    <title>cash</title>
    <desc>Created with Sketch.</desc>
    <defs></defs>
    <g id="Icons" stroke="none" stroke-width="1" fill="none" fill-rule="evenodd">
        <g id="cash">
            <path d="M59.0833333,16 L5.91666667,16 C5.41005556,16 5,16.4056287 5,16.9054212 L5,47.0945788 C5,47.5943713 5.41005556,48 5.91666667,48 L59.0833333,48 C59.5899444,48 60,47.5943713 60,47.0945788 L60,16.9054212 C60,16.4056287 59.5899444,16 59.0833333,16 Z" id="Shape" fill="#000000" fill-rule="nonzero"></path>
            <polygon id="Path" fill="#27AE60" points="58.1666667 46.1891576 6.83333333 46.1891576 6.83333333 17.8108424 58.1666667 17.8108424"></polygon>
            <path d="M8.9203395,39.171653 C11.5408528,39.171653 13.6729727,41.3621685 13.6729727,44.0544538 C13.6729727,44.5763953 14.0846712,45 14.5933122,45 L49.4066878,45 C49.9153288,45 50.3270273,44.5763953 50.3270273,44.0544538 C50.3270273,41.3621685 52.4591472,39.171653 55.0796605,39.171653 C55.5883015,39.171653 56,38.7480483 56,38.2261068 L56,25.7738932 C56,25.2519517 55.5883015,24.828347 55.0796605,24.828347 C52.4591472,24.828347 50.3270273,22.6378315 50.3270273,19.9455462 C50.3270273,19.4236047 49.9153288,19 49.4066878,19 L14.5933122,19 C14.0846712,19 13.6729727,19.4236047 13.6729727,19.9455462 C13.6729727,22.6378315 11.5408528,24.828347 8.9203395,24.828347 C8.41169854,24.828347 8,25.2519517 8,25.7738932 L8,38.2261068 C8,38.7480483 8.4123121,39.171653 8.9203395,39.171653 Z" id="Shape" fill="#000000" fill-rule="nonzero"></path>
            <path d="M15.4418652,20.8910925 L48.5581348,20.8910925 C48.9655384,23.8695631 51.2602516,26.2264947 54.159321,26.6456869 L54.159321,37.3543131 C51.2608651,37.7728749 48.966152,40.1304369 48.5581348,43.1089075 L15.4418652,43.1089075 C15.0344616,40.1304369 12.7397484,37.7735053 9.84067901,37.3543131 L9.84067901,26.6456869 C12.7397484,26.2264947 15.0344616,23.8695631 15.4418652,20.8910925 Z" id="Path" fill="#2ECC71"></path>
            <path d="M32.5,41 C37.1870792,41 41,37.1868089 41,32.5 C41,27.8131911 37.1870792,24 32.5,24 C27.8129208,24 24,27.8131911 24,32.5 C24,37.1868089 27.8129208,41 32.5,41 Z" id="Shape" fill="#000000" fill-rule="nonzero"></path>
            <path d="M32.5,25.8074851 C36.1900206,25.8074851 39.192643,28.8097179 39.192643,32.5 C39.192643,36.1902821 36.1900206,39.1925149 32.5,39.1925149 C28.8099794,39.1925149 25.807357,36.1902821 25.807357,32.5 C25.807357,28.8097179 28.8099794,25.8074851 32.5,25.8074851 Z" id="Path" fill="#27AE60"></path>
        </g>
    </g>
</svg>