<?xml version="1.0" encoding="UTF-8"?>
<svg width="64px" height="64px" viewBox="0 0 64 64" version="1.1" xmlns="http://www.w3.org/2000/svg" xmlns:xlink="http://www.w3.org/1999/xlink">
    <!-- Generator: Sketch 46.2 (44496) - http://www.bohemiancoding.com/sketch -->
    <title>decentralised</title>
    <desc>Created with Sketch.</desc>
    <defs></defs>
    <g id="Icons" stroke="none" stroke-width="1" fill="none" fill-rule="evenodd">
        <g id="decentralised" fill-rule="nonzero" fill="#9B59B6">
            <path d="M31.5,26 C28.4624339,26 26,28.4624339 26,31.5 C26,34.5375661 28.4624339,37 31.5,37 C34.5375661,37 37,34.5375661 37,31.5 C36.9964469,28.4639068 34.5360932,26.0035531 31.5,26 Z" id="Shape"></path>
            <path d="M21.4027491,21 C15.532417,26.9071972 15.532417,36.4702232 21.4027491,42.3774205 C21.9333163,42.9125898 22.7079638,43.1229314 23.4348893,42.9292116 C24.1618148,42.7354918 24.7305811,42.1671412 24.9269394,41.438252 C25.1232977,40.7093628 24.9174165,39.9306706 24.3868492,39.3955013 C20.1431119,35.127232 20.1431119,28.2151894 24.3868492,23.9469201 L21.4027491,21 Z" id="Shape"></path>
            <path d="M16.4696011,45.5207784 C9.18387418,38.0260516 9.18387418,25.8819108 16.4696011,18.387184 C17.145947,17.5679197 17.0947171,16.3516446 16.3520151,15.5955147 C15.609313,14.8393849 14.4254498,14.7982367 13.6347396,15.501069 C4.78842015,24.6016963 4.78842015,39.3473983 13.6347396,48.4480257 C14.4231906,49.2031015 15.6518528,49.1808216 16.4138958,48.3976299 C17.1759388,47.6144381 17.1976171,46.3516772 16.4629308,45.5413445 L16.4696011,45.5207784 Z" id="Shape"></path>
            <path d="M51.3719931,15.5535923 C50.5819647,14.7963031 49.3508443,14.8186483 48.5872768,15.6041359 C47.8237092,16.3896234 47.8019875,17.6560859 48.5381437,18.4687939 C55.8384467,25.9854903 55.8384467,38.1652294 48.5381437,45.6819258 C47.9224735,46.5075664 48.0010459,47.6756685 48.7213926,48.4062081 C49.4417392,49.1367478 50.5782485,49.2009209 51.3719931,48.5558745 C60.2093356,39.4333244 60.2093356,24.6761424 51.3719931,15.5535923 Z" id="Shape"></path>
            <path d="M40.6189122,21.6140361 C40.2228048,22.0082347 40,22.5448345 40,23.1046154 C40,23.6643962 40.2228048,24.2009961 40.6189122,24.5951947 C44.8640417,28.8623753 44.8640417,35.7726548 40.6189122,40.0398355 L43.5900423,43 C49.4699859,37.0975006 49.4699859,27.5305315 43.5900423,21.6280321 C43.1990325,21.2287313 42.6652827,21.0026513 42.107383,21.0000232 C41.5494833,20.9973951 41.0136414,21.2184366 40.6189122,21.6140361 L40.6189122,21.6140361 Z" id="Shape"></path>
        </g>
    </g>
</svg>