<?xml version="1.0" encoding="UTF-8"?>
<svg width="64px" height="64px" viewBox="0 0 64 64" version="1.1" xmlns="http://www.w3.org/2000/svg" xmlns:xlink="http://www.w3.org/1999/xlink">
    <!-- Generator: Sketch 46.2 (44496) - http://www.bohemiancoding.com/sketch -->
    <title>popular</title>
    <desc>Created with Sketch.</desc>
    <defs></defs>
    <g id="Icons" stroke="none" stroke-width="1" fill="none" fill-rule="evenodd">
        <g id="popular" fill-rule="nonzero" fill="#F1C40F">
            <path d="M45.8473326,54.5319686 C45.6326738,54.5319686 45.4160635,54.4970799 45.207259,54.4234261 L32.501409,49.9344199 L19.7975105,54.4234261 C19.206223,54.6366345 18.5466351,54.5377833 18.0353568,54.1695143 C17.52603,53.8031835 17.231362,53.2081382 17.248925,52.584019 L17.6196993,39.196469 L9.3963155,28.5806284 C9.01188109,28.0863726 8.89869735,27.4351178 9.09384172,26.8400725 C9.28898609,26.243089 9.76513836,25.7817835 10.3700859,25.6073402 L23.3023034,21.8199836 L30.9246425,10.7719114 C31.6330166,9.74269621 33.3600443,9.74269621 34.0742727,10.7719114 L41.6985633,21.8199836 L54.6307807,25.6073402 C55.2357283,25.7837217 55.7118805,26.2450272 55.9070249,26.8400725 C56.1002178,27.4351178 55.9889856,28.0863726 55.6045511,28.5806284 L47.3811673,39.196469 L47.7519416,52.584019 C47.7695046,53.2081382 47.4748366,53.8031835 46.9655098,54.1695143 C46.6376673,54.4059818 46.2454271,54.5319686 45.8473326,54.5319686 Z" id="Shape"></path>
        </g>
    </g>
</svg>