<?xml version="1.0" encoding="UTF-8"?>
<svg width="64px" height="64px" viewBox="0 0 64 64" version="1.1" xmlns="http://www.w3.org/2000/svg" xmlns:xlink="http://www.w3.org/1999/xlink">
    <!-- Generator: Sketch 46.2 (44496) - http://www.bohemiancoding.com/sketch -->
    <title>trader</title>
    <desc>Created with Sketch.</desc>
    <defs></defs>
    <g id="Icons" stroke="none" stroke-width="1" fill="none" fill-rule="evenodd">
        <g id="trader" fill="#E74C3C">
            <path d="M54.0088988,12 C51.753059,12 49.9599555,13.7931034 49.9599555,16.0489433 C49.9599555,17.0901001 50.3648498,18.0734149 51.0011123,18.7675195 L41.0522803,36.0044494 C40.5895439,35.8309232 40.0689655,35.7152392 39.5483871,35.7152392 C38.5072303,35.7152392 37.5817575,36.1201335 36.8298109,36.756396 L26.1290323,29.8153504 C26.1868743,29.4682981 26.2447164,29.1212458 26.2447164,28.7741935 C26.2447164,26.5183537 24.4516129,24.7252503 22.1957731,24.7252503 C19.9399333,24.7252503 18.1468298,26.5183537 18.1468298,28.7741935 C18.1468298,29.6996663 18.4938821,30.567297 19.0144605,31.2614016 L11.1479422,44.5650723 C10.8008899,44.4493882 10.4538376,44.3915462 10.0489433,44.3915462 C7.79310345,44.3915462 6,46.1846496 6,48.4404894 C6,50.6963293 7.79310345,52.4894327 10.0489433,52.4894327 C12.3047831,52.4894327 14.0978865,50.6963293 14.0978865,48.4404894 C14.0978865,47.3993326 13.6929922,46.4738598 13.1145717,45.7797553 L20.9232481,32.5917686 C21.3281424,32.7074527 21.7908788,32.8231368 22.1957731,32.8231368 C23.2369299,32.8231368 24.1624027,32.4182425 24.9143493,31.78198 L35.6151279,38.7808676 C35.5572859,39.0700779 35.4994438,39.4171301 35.4994438,39.7641824 C35.4994438,42.0200222 37.2925473,43.8131257 39.5483871,43.8131257 C41.8042269,43.8131257 43.5973304,42.0200222 43.5973304,39.7641824 C43.5973304,38.8965517 43.3081201,38.0867631 42.8453838,37.4505006 L52.9677419,19.9822024 C53.3147942,20.0400445 53.6040044,20.0978865 53.9510567,20.0978865 C56.2068966,20.0978865 58,18.3047831 58,16.0489433 C58,13.7931034 56.2647386,12 54.0088988,12 Z" id="Shape" fill-rule="nonzero"></path>
            <path d="M10.0489433,50.1757508 C9.06562848,50.1757508 8.31368187,49.4238042 8.31368187,48.4404894 C8.31368187,47.4571746 9.06562848,46.705228 10.0489433,46.705228 C11.0322581,46.705228 11.7842047,47.4571746 11.7842047,48.4404894 C11.7842047,49.4238042 11.0322581,50.1757508 10.0489433,50.1757508 Z" id="Path"></path>
            <path d="M22.1957731,30.5094549 C21.2124583,30.5094549 20.4605117,29.7575083 20.4605117,28.7741935 C20.4605117,27.7908788 21.2124583,27.0389321 22.1957731,27.0389321 C23.1790879,27.0389321 23.9310345,27.7908788 23.9310345,28.7741935 C23.9310345,29.7575083 23.1790879,30.5094549 22.1957731,30.5094549 Z" id="Path"></path>
            <path d="M39.5483871,41.4994438 C38.5650723,41.4994438 37.8131257,40.7474972 37.8131257,39.7641824 C37.8131257,38.7808676 38.5650723,38.028921 39.5483871,38.028921 C40.5317019,38.028921 41.2836485,38.7808676 41.2836485,39.7641824 C41.2836485,40.7474972 40.5317019,41.4994438 39.5483871,41.4994438 Z" id="Path"></path>
            <path d="M54.0088988,17.7842047 C53.025584,17.7842047 52.2736374,17.0322581 52.2736374,16.0489433 C52.2736374,15.0656285 53.025584,14.3136819 54.0088988,14.3136819 C54.9922136,14.3136819 55.7441602,15.0656285 55.7441602,16.0489433 C55.7441602,17.0322581 54.9922136,17.7842047 54.0088988,17.7842047 Z" id="Path"></path>
        </g>
    </g>
</svg>