<?xml version="1.0" encoding="UTF-8"?>
<svg width="128px" height="128px" viewBox="0 0 128 128" version="1.1" xmlns="http://www.w3.org/2000/svg" xmlns:xlink="http://www.w3.org/1999/xlink">
    <!-- Generator: Sketch 46.2 (44496) - http://www.bohemiancoding.com/sketch -->
    <title>portfolio</title>
    <desc>Created with Sketch.</desc>
    <defs></defs>
    <g id="Icons" stroke="none" stroke-width="1" fill="none" fill-rule="evenodd">
        <g id="portfolio">
            <circle id="Oval-2" fill="#F6DB6A" cx="64" cy="64" r="64"></circle>
            <path d="M96.4820547,32 C93.0361974,32 90.2971826,34.7390148 90.2971826,38.1848721 C90.2971826,39.7752678 90.9156698,41.2773081 91.8875783,42.3375719 L76.690464,68.6674559 C75.9836215,68.40239 75.1884236,68.2256793 74.3932258,68.2256793 C72.8028301,68.2256793 71.3891451,68.8441665 70.240526,69.816075 L53.8947926,59.2134372 C53.9831479,58.6833053 54.0715033,58.1531734 54.0715033,57.6230415 C54.0715033,54.1771842 51.3324885,51.4381694 47.8866312,51.4381694 C44.4407739,51.4381694 41.7017591,54.1771842 41.7017591,57.6230415 C41.7017591,59.0367265 42.231891,60.3620563 43.0270888,61.42232 L31.0107659,81.7440426 C30.480634,81.567332 29.9505021,81.4789766 29.3320149,81.4789766 C25.8861576,81.4789766 23.1471429,84.2179914 23.1471429,87.6638487 C23.1471429,91.109706 25.8861576,93.8487208 29.3320149,93.8487208 C32.7778722,93.8487208 35.516887,91.109706 35.516887,87.6638487 C35.516887,86.073453 34.8983998,84.659768 34.0148467,83.5995042 L45.9428142,63.4544923 C46.5613014,63.6312029 47.268144,63.8079136 47.8866312,63.8079136 C49.4770269,63.8079136 50.8907119,63.1894263 52.039331,62.2175179 L68.3850644,72.908511 C68.296709,73.3502876 68.2083537,73.8804195 68.2083537,74.4105514 C68.2083537,77.8564087 70.9473685,80.5954235 74.3932258,80.5954235 C77.8390831,80.5954235 80.5780979,77.8564087 80.5780979,74.4105514 C80.5780979,73.0852217 80.1363213,71.8482473 79.4294788,70.8763388 L94.891659,44.1930335 C95.4217909,44.2813888 95.8635675,44.3697442 96.3936993,44.3697442 C99.8395567,44.3697442 102.578571,41.6307294 102.578571,38.1848721 C102.578571,34.7390148 99.927912,32 96.4820547,32 Z" id="Shape" fill="#FFFFFF" fill-rule="nonzero"></path>
        </g>
    </g>
</svg>