<?xml version="1.0" encoding="UTF-8"?>
<svg width="200px" height="200px" viewBox="0 0 200 200" version="1.1" xmlns="http://www.w3.org/2000/svg" xmlns:xlink="http://www.w3.org/1999/xlink">
    <!-- Generator: Sketch 46.2 (44496) - http://www.bohemiancoding.com/sketch -->
    <title>crypto101-bitcoin</title>
    <desc>Created with Sketch.</desc>
    <defs></defs>
    <g id="Icons" stroke="none" stroke-width="1" fill="none" fill-rule="evenodd">
        <g id="crypto101-bitcoin">
            <ellipse id="Oval" stroke="#333333" stroke-width="5" fill="#FDE3A7" cx="101" cy="99.5" rx="92" ry="91.5"></ellipse>
            <path d="M49.6005423,100 C13.3862413,100 22.5318473,100 9.13759797,100 C7.43912908,74.6550047 21.7283277,46.3166198 37.4240245,35 C54.5501745,51.5110441 64.0754997,60.7672742 66,62.7686903 C54.9969038,73.1189143 49.5304179,85.5293509 49.6005423,100 Z" id="Path-12" fill="#F1C40F"></path>
            <path d="M136.600542,64 C100.386241,64 109.531847,64 96.137598,64 C94.4391291,38.6550047 108.728328,10.3166198 124.424025,-1 C141.550175,15.5110441 151.0755,24.7672742 153,26.7686903 C141.996904,37.1189143 136.530418,49.5293509 136.600542,64 Z" id="Path-12" fill="#F1C40F" transform="translate(124.500000, 31.500000) scale(-1, 1) rotate(45.000000) translate(-124.500000, -31.500000) "></path>
            <path d="M180.600542,155 C144.386241,155 153.531847,155 140.137598,155 C138.439129,129.655005 152.728328,101.31662 168.424025,90 C185.550175,106.511044 195.0755,115.767274 197,117.76869 C185.996904,128.118914 180.530418,140.529351 180.600542,155 Z" id="Path-12" fill="#F1C40F" transform="translate(168.500000, 122.500000) scale(-1, 1) rotate(-45.000000) translate(-168.500000, -122.500000) "></path>
            <path d="M91.6005423,200 C55.3862413,200 64.5318473,200 51.137598,200 C49.4391291,174.655005 63.7283277,146.31662 79.4240245,135 C96.5501745,151.511044 106.0755,160.767274 108,162.76869 C96.9969038,173.118914 91.5304179,185.529351 91.6005423,200 Z" id="Path-12" fill="#F1C40F" transform="translate(79.500000, 167.500000) scale(-1, 1) rotate(-135.000000) translate(-79.500000, -167.500000) "></path>
            <ellipse id="Oval" stroke="#333333" stroke-width="5" cx="101" cy="99.5" rx="92" ry="91.5"></ellipse>
            <circle id="Oval" stroke="#333333" stroke-width="5" fill="#FFF3D8" cx="101.5" cy="100.5" r="51.5"></circle>
            <g id="Group" transform="translate(74.000000, 59.000000)">
                <path d="M0.354669127,11.6461665 C-0.118223042,15.7322288 -0.118223042,18.7985839 0.354669127,20.8452318 C0.519962774,21.5606125 10.1272509,19.6900319 11.0479729,22.9255858 C11.0479729,37.0003414 11.0479729,41.9381358 11.0479729,57.4815288 C10.3595261,58.8334629 7.77702116,59.1798745 3.30045815,58.5207636 C3.30045815,59.0148264 3.30045815,62.0377716 3.30045815,67.589599 C6.29427461,67.589599 10.6844256,67.589599 16.4709112,67.589599 L16.4709112,79.9731304 L24.3213992,79.9731304 L24.3213992,67.589599 L29.6210171,67.589599 L29.6210171,79.9731304 L37.484522,79.9731304 C37.484522,79.9731304 37.484522,75.8452866 37.484522,67.589599 C72.6461016,63.7572909 57.7141035,37.6251684 48.7503543,36.2237419 C55.7891021,22.4894943 51.6404082,14.2969692 36.3042728,11.6461665 L36.3042728,0 L29.1584351,0 L29.1584351,11.6461665 L22.9910439,11.6461665 L22.9910439,0 L15.3655202,0 L15.3655202,11.6461665 L0.354669127,11.6461665 Z" id="Path-7" stroke="#F1C40F" fill="#F1C40F"></path>
                <path d="M25.7079391,32.1923332 C25.7079391,24.4452206 25.7079391,20.5716642 25.7079391,20.5716642 C25.7079391,20.5716642 26.8234788,20.5716642 28.4096114,20.7104104 C32.3315498,21.05348 39.1306746,22.2448382 39.0569173,26.3819987 C38.9878596,30.2555551 34.5382002,32.1923332 25.7079391,32.1923332 Z" id="Path-15" fill="#FFF3D8"></path>
                <path d="M25.7079391,56.613194 C25.7079391,48.9219499 25.7079391,44.5851081 25.7079391,43.6026687 C25.7079391,43.1698091 25.7079391,43.6827977 25.7079391,43.6827977 C25.7079391,43.6827977 44.1005304,42.6936528 43.8706179,50.0211315 C43.7173429,54.9061173 37.6631166,57.1034715 25.7079391,56.613194 Z" id="Path-15" fill="#FFF3D8"></path>
            </g>
            <path d="M136.466667,138.45 L163.100906,164.133016" id="Line" stroke="#333333" stroke-width="5" stroke-linecap="square"></path>
            <path d="M102.5,153.5 L102.5,190.5" id="Line" stroke="#333333" stroke-width="5" stroke-linecap="square"></path>
            <path d="M101.5,8.46590909 L101.5,45.4659091" id="Line" stroke="#333333" stroke-width="5" stroke-linecap="square"></path>
            <path d="M166.53125,35.4677419 L139.915305,61.1697159" id="Line" stroke="#333333" stroke-width="5" stroke-linecap="square"></path>
            <path d="M65.53125,137.46875 L39.3682991,163.631701" id="Line" stroke="#333333" stroke-width="5" stroke-linecap="square"></path>
            <path d="M48.5357143,99.5 L11.5357143,99.5" id="Line" stroke="#333333" stroke-width="5" stroke-linecap="square"></path>
            <path d="M191.535714,100.5 L154.535714,100.5" id="Line" stroke="#333333" stroke-width="5" stroke-linecap="square"></path>
            <path d="M37.46875,34.46875 L63.6317009,60.6317009" id="Line" stroke="#333333" stroke-width="5" stroke-linecap="square"></path>
        </g>
    </g>
</svg>