<?xml version="1.0" encoding="UTF-8"?>
<svg width="200px" height="200px" viewBox="0 0 200 200" version="1.1" xmlns="http://www.w3.org/2000/svg" xmlns:xlink="http://www.w3.org/1999/xlink">
    <!-- Generator: Sketch 46.2 (44496) - http://www.bohemiancoding.com/sketch -->
    <title>crypto101-ethereum</title>
    <desc>Created with Sketch.</desc>
    <defs>
        <path d="M13,10 L187,10 L187,10 C194.179702,10 200,15.8202983 200,23 L200,151.545455 L200,151.545455 C200,158.725156 194.179702,164.545455 187,164.545455 L95.0204595,164.545455 L13,164.545455 L13,164.545455 C5.82029825,164.545455 2.65561672e-15,158.725156 1.77635684e-15,151.545455 L0,23 L1.77635684e-15,23 C8.97096963e-16,15.8202983 5.82029825,10 13,10 Z" id="path-1"></path>
        <path d="M200,99.6254464 L200,141.468531 L0,141.468531 L0,99.6254464 L0,17.4685315 C-8.79259876e-16,10.2888297 5.82029825,4.46853147 13,4.46853147 L13,4.46853147 L187,4.46853147 L187,4.46853147 C194.179702,4.46853147 200,10.2888297 200,17.4685315 L200,99.6254464 Z" id="path-2"></path>
    </defs>
    <g id="Icons" stroke="none" stroke-width="1" fill="none" fill-rule="evenodd">
        <g id="crypto101-ethereum">
            <g id="Rectangle-3">
                <use fill="#2980B9" fill-rule="evenodd" xlink:href="#path-1"></use>
                <path stroke="#333333" stroke-width="5" d="M13,12.5 C7.20101013,12.5 2.5,17.2010101 2.5,23 L2.5,151.545455 C2.5,157.344444 7.20101013,162.045455 13,162.045455 L187,162.045455 C192.79899,162.045455 197.5,157.344444 197.5,151.545455 L197.5,23 C197.5,17.2010101 192.79899,12.5 187,12.5 L13,12.5 Z"></path>
            </g>
            <g id="Combined-Shape">
                <use fill="#ECF0F1" fill-rule="evenodd" xlink:href="#path-2"></use>
                <path stroke="#333333" stroke-width="5" d="M2.5,138.968531 L197.5,138.968531 L197.5,17.4685315 C197.5,11.6695416 192.79899,6.96853147 187,6.96853147 L13,6.96853147 C7.20101013,6.96853147 2.5,11.6695416 2.5,17.4685315 L2.5,138.968531 Z"></path>
            </g>
            <rect id="Rectangle-6" fill="#333333" x="51.7482517" y="189.020979" width="96.5034965" height="10.4895105" rx="5.24475524"></rect>
            <g id="Ethereum_logo_2014" transform="translate(69.930070, 24.279720)" fill-rule="nonzero" fill="#141414">
                <polygon id="Shape" points="28.5998407 0 27.972028 2.09942233 27.972028 63.0197964 28.5998407 63.6363636 57.3426573 46.9209841"></polygon>
                <polygon id="Shape" points="29.3706294 0 0 46.9208211 29.3706294 63.6363636 29.3706294 34.0675393"></polygon>
                <polygon id="Shape" points="28.3289269 68.8659167 27.972028 69.282891 27.972028 90.6091734 28.3289269 91.6083916 57.3426573 52.4475524"></polygon>
                <polygon id="Shape" points="29.3706294 91.6083916 29.3706294 68.8659167 0 52.4475524"></polygon>
                <polygon id="Shape" points="29.3706294 63.6363636 58.7412587 46.6377366 29.3706294 33.5664336"></polygon>
                <polygon id="Shape" points="0 46.6377366 29.3706294 63.6363636 29.3706294 33.5664336"></polygon>
            </g>
            <path d="M71.2200871,190.705874 C74.7191414,181.824552 76.4686685,172.94323 76.4686685,164.061908 L123.444078,164.061908 C123.444078,175.865667 125.098258,184.746989 128.40662,190.705874 C71.2200871,190.705874 128.40662,190.705874 71.2200871,190.705874 Z" id="Path-18" stroke="#333333" stroke-width="5" fill="#336E7B"></path>
        </g>
    </g>
</svg>