<?xml version="1.0" encoding="UTF-8"?>
<svg width="400px" height="200px" viewBox="0 0 400 200" version="1.1" xmlns="http://www.w3.org/2000/svg" xmlns:xlink="http://www.w3.org/1999/xlink">
    <!-- Generator: Sketch 46.2 (44496) - http://www.bohemiancoding.com/sketch -->
    <title>bitcoin-satoshi</title>
    <desc>Created with Sketch.</desc>
    <defs></defs>
    <g id="Icons" stroke="none" stroke-width="1" fill="none" fill-rule="evenodd">
        <g id="bitcoin-satoshi">
            <g id="Group-2" transform="translate(44.000000, 34.000000)">
                <circle id="Oval" stroke="#333333" stroke-width="5" fill="#FDE3A7" cx="54.7651007" cy="66.0402685" r="54.7651007"></circle>
                <path d="M24.0935751,66.0402685 C2.60292667,66.0402685 8.03020256,66.0402685 0.0816547496,66.0402685 C-0.926267451,50.9667348 7.55337003,34.1129303 16.8676655,27.3825503 C27.0308347,37.2022317 32.6834473,42.7072276 33.8255034,43.8975381 C27.2959373,50.0531695 24.0519612,57.4340796 24.0935751,66.0402685 Z" id="Path-12" fill="#F1C40F"></path>
                <path d="M75.6371992,45.1006711 C54.1465508,45.1006711 59.5738267,45.1006711 51.6252789,45.1006711 C50.6173567,30.0271375 59.0969942,13.173333 68.4112897,6.44295302 C78.5744589,16.2626344 84.2270715,21.7676303 85.3691275,22.9579407 C78.8395614,29.1135722 75.5955853,36.4944823 75.6371992,45.1006711 Z" id="Path-12" fill="#F1C40F" transform="translate(68.456376, 25.771812) scale(-1, 1) rotate(45.000000) translate(-68.456376, -25.771812) "></path>
                <path d="M101.409011,99.0604027 C79.9183629,99.0604027 85.3456388,99.0604027 77.397091,99.0604027 C76.3891688,83.9868691 84.8688063,67.1330645 94.1831018,60.4026846 C104.346271,70.222366 109.998884,75.7273619 111.14094,76.9176723 C104.611374,83.0733037 101.367397,90.4542138 101.409011,99.0604027 Z" id="Path-12" fill="#F1C40F" transform="translate(94.228188, 79.731544) scale(-1, 1) rotate(-45.000000) translate(-94.228188, -79.731544) "></path>
                <path d="M49.060018,125.637584 C27.5693696,125.637584 32.9966455,125.637584 25.0480977,125.637584 C24.0401755,110.56405 32.519813,93.7102457 41.8341085,86.9798658 C51.9972777,96.7995472 57.6498903,102.304543 58.7919463,103.494853 C52.2623802,109.650485 49.0184041,117.031395 49.060018,125.637584 Z" id="Path-12" fill="#F1C40F" transform="translate(41.879195, 106.308725) scale(-1, 1) rotate(-135.000000) translate(-41.879195, -106.308725) "></path>
                <circle id="Oval" stroke="#333333" stroke-width="5" cx="54.7651007" cy="66.0402685" r="54.7651007"></circle>
                <circle id="Oval" stroke="#333333" stroke-width="5" fill="#FFF3D8" cx="54.7651007" cy="66.0402685" r="30.6040268"></circle>
                <g id="Group" transform="translate(38.657718, 41.879195)">
                    <path d="M0.209520727,7.03451664 C-0.0698402422,9.50257968 -0.0698402422,11.3547193 0.209520727,12.5909354 C0.307167921,13.0230396 5.98267174,11.8931716 6.52658811,13.8475107 C6.52658811,22.3489435 6.52658811,25.3314697 6.52658811,34.7199888 C6.11988828,35.5365839 4.59427394,35.7458234 1.94974509,35.3477073 C1.94974509,35.6461311 1.94974509,37.4720502 1.94974509,40.8254646 C3.71834166,40.8254646 6.31182263,40.8254646 9.73018799,40.8254646 L9.73018799,48.3053643 L14.3678624,48.3053643 L14.3678624,40.8254646 L17.4986109,40.8254646 L17.4986109,48.3053643 L22.1439751,48.3053643 C22.1439751,48.3053643 22.1439751,45.8120644 22.1439751,40.8254646 C42.9156722,38.5106741 34.0945969,22.7263514 28.7992636,21.8798619 C32.9574026,13.5841027 30.5065624,8.63565429 21.446743,7.03451664 L21.446743,0 L17.2253406,0 L17.2253406,7.03451664 L13.5819553,7.03451664 L13.5819553,0 L9.07717846,0 L9.07717846,7.03451664 L0.209520727,7.03451664 Z" id="Path-7" stroke="#F1C40F" fill="#F1C40F"></path>
                    <path d="M15.1869607,19.4448107 C15.1869607,14.7654003 15.1869607,12.4256951 15.1869607,12.4256951 C15.1869607,12.4256951 15.8459655,12.4256951 16.7829731,12.5095006 C19.0998576,12.7167215 23.1164394,13.4363255 23.0728673,15.9352529 C23.0320715,18.2749581 20.4034359,19.4448107 15.1869607,19.4448107 Z" id="Path-15" fill="#FFF3D8"></path>
                    <path d="M15.1869607,34.1954973 C15.1869607,29.5498326 15.1869607,26.9302937 15.1869607,26.3368807 C15.1869607,26.0754249 15.1869607,26.3852803 15.1869607,26.3852803 C15.1869607,26.3852803 26.0523809,25.787817 25.9165601,30.2137601 C25.8260129,33.1643889 22.2494798,34.4916346 15.1869607,34.1954973 Z" id="Path-15" fill="#FFF3D8"></path>
                </g>
                <path d="M75.9731544,89.6644295 L91.5436242,105.234899" id="Line" stroke="#333333" stroke-width="5" stroke-linecap="square"></path>
                <path d="M55.5704698,96.918853 L55.5704698,120.530811" id="Line" stroke="#333333" stroke-width="5" stroke-linecap="square"></path>
                <path d="M54.7651007,11.5497254 L54.7651007,35.161684" id="Line" stroke="#333333" stroke-width="5" stroke-linecap="square"></path>
                <path d="M93.1459732,27.6553367 L75.9815436,44.0225157" id="Line" stroke="#333333" stroke-width="5" stroke-linecap="square"></path>
                <path d="M32.7432886,88.0620805 L15.5788591,105.22651" id="Line" stroke="#333333" stroke-width="5" stroke-linecap="square"></path>
                <path d="M23.0776606,66.0402685 L0.278044104,66.0402685" id="Line" stroke="#333333" stroke-width="5" stroke-linecap="square"></path>
                <path d="M108.446788,66.8456376 L85.6471716,66.8456376" id="Line" stroke="#333333" stroke-width="5" stroke-linecap="square"></path>
                <path d="M16.3842282,26.8540268 L33.5486577,44.0184564" id="Line" stroke="#333333" stroke-width="5" stroke-linecap="square"></path>
            </g>
            <text id="=" font-family="Montserrat-Bold, Montserrat" font-size="60" font-weight="bold" fill="#333333">
                <tspan x="170" y="123">=</tspan>
            </text>
            <text id="100,000,000" font-family="Montserrat-Bold, Montserrat" font-size="28" font-weight="bold" fill="#333333">
                <tspan x="217" y="95">100,000,000</tspan>
            </text>
            <text id="1" font-family="Montserrat-Bold, Montserrat" font-size="50" font-weight="bold" fill="#333333">
                <tspan x="9" y="114">1</tspan>
            </text>
            <text id="Satoshis" font-family="Montserrat-Bold, Montserrat" font-size="28" font-weight="bold" fill="#333333">
                <tspan x="247" y="139">Satoshis</tspan>
            </text>
        </g>
    </g>
</svg>