<?xml version="1.0" encoding="UTF-8"?>
<svg width="150px" height="150px" viewBox="0 0 150 150" version="1.1" xmlns="http://www.w3.org/2000/svg" xmlns:xlink="http://www.w3.org/1999/xlink">
    <!-- Generator: Sketch 46.2 (44496) - http://www.bohemiancoding.com/sketch -->
    <title>commodity</title>
    <desc>Created with Sketch.</desc>
    <defs></defs>
    <g id="Icons" stroke="none" stroke-width="1" fill="none" fill-rule="evenodd">
        <g id="commodity" fill-rule="nonzero">
            <g id="wagon">
                <path d="M72.8287601,2.10288845 L35.9727681,46.0298916 C32.5371467,50.0799964 35.3481895,56.3106796 40.6578394,56.3106796 L114.681966,56.3106796 C119.991616,56.3106796 122.802659,50.0799964 119.367038,46.0298916 L82.5110457,2.10288845 C80.0124386,-0.700962817 75.3273672,-0.700962817 72.8287601,2.10288845 Z" id="Shape" fill="#FFD15C"></path>
                <path d="M118.928781,119.902913 L30.4118293,119.902913 C24.4898362,119.902913 19.5031714,115.852678 18.2563591,110.244795 L4.85436893,57.2815534 L144.174757,57.2815534 L130.772475,110.245087 C129.837439,115.85297 124.538998,119.902913 118.928781,119.902913 Z" id="Shape" fill="#40596B"></path>
                <g id="Group" transform="translate(0.000000, 46.601942)" fill="#334A5E">
                    <path d="M139.103216,21.3420554 L10.604386,21.3420554 C4.67836257,21.3420554 0,16.6771253 0,10.7681166 L0,10.7681166 C0,4.85910786 4.67836257,0.194177717 10.604386,0.194177717 L139.103509,0.194177717 C145.029532,0.194177717 149.707895,4.85910786 149.707895,10.7681166 L149.707895,10.7681166 C149.707602,16.6771253 145.02924,21.3420554 139.103216,21.3420554 Z" id="Shape"></path>
                    <ellipse id="Oval" cx="47.7192982" cy="73.2781805" rx="22.144152" ry="22.0805722"></ellipse>
                    <ellipse id="Oval" cx="101.988304" cy="73.2781805" rx="22.144152" ry="22.0805722"></ellipse>
                </g>
                <circle id="Oval" fill="#CDD6E0" cx="101.941748" cy="119.902913" r="10.1941748"></circle>
                <path d="M101.941748,112.902228 C107.193196,112.902228 111.209179,116.734656 112.135922,121.84466 C112.135922,121.206022 112.135922,120.886553 112.135922,120.247915 C112.135922,114.499273 107.502207,109.708738 101.941748,109.708738 C96.3812886,109.708738 91.7475728,114.499273 91.7475728,120.247915 C91.7475728,120.886553 91.7475728,121.206022 91.7475728,121.84466 C92.674316,116.734656 96.6902995,112.902228 101.941748,112.902228 Z" id="Shape" fill="#ACB3BA"></path>
                <circle id="Oval" fill="#CDD6E0" cx="47.5728155" cy="119.902913" r="10.1941748"></circle>
                <path d="M47.5728155,112.902228 C52.8242636,112.902228 56.8402471,116.734656 57.7669903,121.84466 C57.7669903,121.206022 57.7669903,120.886553 57.7669903,120.247915 C57.7669903,114.499273 53.1332745,109.708738 47.5728155,109.708738 C42.0123566,109.708738 37.3786408,114.499273 37.3786408,120.247915 C37.3786408,120.886553 37.3786408,121.206022 37.3786408,121.84466 C38.3053839,116.734656 42.3213675,112.902228 47.5728155,112.902228 Z" id="Shape" fill="#ACB3BA"></path>
            </g>
        </g>
    </g>
</svg>