<?xml version="1.0" encoding="UTF-8"?>
<svg width="150px" height="150px" viewBox="0 0 150 150" version="1.1" xmlns="http://www.w3.org/2000/svg" xmlns:xlink="http://www.w3.org/1999/xlink">
    <!-- Generator: Sketch 46.2 (44496) - http://www.bohemiancoding.com/sketch -->
    <title>compete</title>
    <desc>Created with Sketch.</desc>
    <defs></defs>
    <g id="Icons" stroke="none" stroke-width="1" fill="none" fill-rule="evenodd">
        <g id="compete" fill-rule="nonzero">
            <g id="boxing" transform="translate(17.000000, 0.000000)">
                <path d="M105.298927,5.50146034 C100.291389,1.76357297 94.0966947,0 87.8661931,0 L67.5,0 L43.5695854,0 C42.5008698,0 41.4431719,0.124781106 40.4102638,0.396526627 C35.1685996,1.78575628 20,7.37317693 20,25.5024852 L30.0871881,104.644339 C30.0871881,104.644339 36.2436641,108.307227 52.1476943,110.913766 L52.1476943,95.8620046 C52.1476943,86.9692711 59.6884604,80.2287056 68.5466802,80.4172637 C77.4462163,80.6058218 84.7013627,88.7165938 84.7013627,97.6758772 L84.7013627,112 C101.192085,109.435055 107.433353,104.644339 107.433353,104.644339 L115,25.4997123 C115,15.4589926 110.342273,9.26430393 105.298927,5.50146034 Z" id="Shape" fill="#E74C3C"></path>
                <path d="M86,110.774221 L86,147 C100.60525,144.511568 108,138.640205 108,138.640205 L108,104 C104.33425,105.903247 97.00275,109.052103 86,110.774221 Z" id="Shape" fill="#34495E"></path>
                <path d="M30,138.654267 C30,138.654267 38.79175,144.179142 52,147 L52,110.835156 C41.2695,109.068642 33.7565,105.883354 30,104 L30,138.654267 Z" id="Shape" fill="#34495E"></path>
                <path d="M53.0165,96.2251201 C53.0165,87.4561165 60.8045,81 69.5,81 L69.5,81 C78.1955,81 86,87.7750398 86,96.5440433 L86,147.557902 L86,147.557902 C72.2995,150.747135 65.91125,150.880251 53,147.557902 L53.0165,96.2251201 Z" id="Shape" fill="#ECF0F1"></path>
                <path d="M0.0147302349,46.3437627 L0.0147302349,67.3988373 C0.0147302349,69.5090219 0.797779264,71.5449235 2.21897145,73.1241229 L31,104 L21.8871567,36.1367423 C15.4834319,35.7323132 -0.55374664,35.5177182 0.0147302349,46.3437627 Z" id="Shape" fill="#C0392B"></path>
                <path d="M80.1936129,112.806412 C79.1184301,111.731196 77.3805387,111.731196 76.3053559,112.806412 L70,119.111965 L63.6946441,112.806412 C62.6194613,111.731196 60.8815699,111.731196 59.8063871,112.806412 C58.7312043,113.881629 58.7312043,115.619574 59.8063871,116.694791 L66.111743,123.000344 L59.8063871,129.305897 C58.7312043,130.381113 58.7312043,132.119059 59.8063871,133.194275 C60.3426036,133.730508 61.0465596,134 61.7505156,134 C62.4544716,134 63.1584276,133.730508 63.6946441,133.194275 L70,126.888722 L76.3053559,133.194275 C76.8415724,133.730508 77.5455284,134 78.2494844,134 C78.9534404,134 79.6573964,133.730508 80.1936129,133.194275 C81.2687957,132.119059 81.2687957,130.381113 80.1936129,129.305897 L73.888257,123.000344 L80.1936129,116.694791 C81.2660459,115.619574 81.2660459,113.881629 80.1936129,112.806412 Z" id="Shape" fill="#34495E"></path>
            </g>
        </g>
    </g>
</svg>