<?xml version="1.0" encoding="UTF-8"?>
<svg width="150px" height="150px" viewBox="0 0 150 150" version="1.1" xmlns="http://www.w3.org/2000/svg" xmlns:xlink="http://www.w3.org/1999/xlink">
    <!-- Generator: Sketch 46.2 (44496) - http://www.bohemiancoding.com/sketch -->
    <title>currency</title>
    <desc>Created with Sketch.</desc>
    <defs></defs>
    <g id="Icons" stroke="none" stroke-width="1" fill="none" fill-rule="evenodd">
        <g id="currency" fill-rule="nonzero">
            <g id="coins" transform="translate(0.000000, 22.000000)">
                <path d="M67.539267,87.8372936 C30.239408,87.8372936 0,80.1430125 0,72.2513089 L0,90.4245671 C0.0207813129,98.3110753 30.2497986,106.020942 67.539267,106.020942 C104.828735,106.020942 135.057753,98.3110753 135.078534,90.4245671 L135.078534,72.2513089 C135.078534,80.1430125 104.839126,87.8372936 67.539267,87.8372936" id="XMLID_147_" fill="#F4BF1A"></path>
                <path d="M82.460733,60.3503826 C45.1608739,60.3503826 14.921466,52.6561015 14.921466,44.7643979 L14.921466,62.9376561 C14.9422473,70.8241643 45.1712646,78.5340314 82.460733,78.5340314 C119.750201,78.5340314 149.979219,70.8241643 150,62.9376561 L150,44.7643979 C150,52.6561015 119.760592,60.3503826 82.460733,60.3503826" id="XMLID_146_" fill="#E4AF18"></path>
                <path d="M135.078534,12.8188958 C135.078534,20.407782 104.839126,27.486911 67.539267,27.486911 C30.239408,27.486911 0,20.407782 0,12.8188958 C0,5.22751071 30.239408,0 67.539267,0 C104.839126,0 135.078534,5.22751071 135.078534,12.8188958" id="XMLID_145_" fill="#FFD949"></path>
                <path d="M67.539267,28.93677 C30.239408,28.93677 0,21.2424889 0,13.3507853 L0,31.5240435 C0.0207813129,39.4105518 30.2497986,47.1204188 67.539267,47.1204188 C104.828735,47.1204188 135.057753,39.4105518 135.078534,31.5240435 L135.078534,13.3507853 C135.078534,21.2424889 104.839126,28.93677 67.539267,28.93677" id="XMLID_144_" fill="#F4BF1A"></path>
                <path d="M10.9947644,20.4188482 L10.9947644,38.3924625 C12.6659686,38.9680293 14.4965969,39.5230401 16.4921466,40.052356 L16.4921466,22.0761722 C14.4965969,21.5468563 12.6659686,20.9918455 10.9947644,20.4188482" id="XMLID_143_" fill="#DCA815"></path>
                <path d="M118.586387,22.0761722 L118.586387,40.052356 C120.581937,39.5230401 122.412565,38.9680293 124.08377,38.3924625 L124.08377,20.4188482 C122.412565,20.9944149 120.581937,21.5468563 118.586387,22.0761722" id="XMLID_142_" fill="#DCA815"></path>
                <path d="M23.5602094,25.1308901 L23.5602094,43.7580974 C25.3193717,44.1121661 27.1527487,44.4475996 29.0575916,44.7643979 L29.0575916,26.1371905 C27.1527487,25.8203922 25.3193717,25.4849587 23.5602094,25.1308901" id="XMLID_141_" fill="#DCA815"></path>
                <path d="M106.020942,26.1370541 L106.020942,44.7643979 C107.925785,44.4449807 109.759162,44.1095927 111.518325,43.7555721 L111.518325,25.1308901 C109.759162,25.4849107 107.925785,25.8202987 106.020942,26.1370541" id="XMLID_140_" fill="#DCA815"></path>
                <path d="M36.1256545,26.7015707 L36.1256545,44.9449284 C37.917801,45.1639113 39.7456806,45.3672525 41.6230366,45.5497382 L41.6230366,27.3063805 C39.7456806,27.1238948 37.917801,26.9179466 36.1256545,26.7015707" id="XMLID_139_" fill="#DCA815"></path>
                <path d="M93.4554974,27.3089034 L93.4554974,45.5497382 C95.3328534,45.3646712 97.160733,45.1613581 98.9528796,44.9450121 L98.9528796,26.7015707 C97.160733,26.9231298 95.3328534,27.1264429 93.4554974,27.3089034" id="XMLID_138_" fill="#DCA815"></path>
                <path d="M49.4764398,27.486911 L49.4764398,46.0173682 C51.2823298,46.1391571 53.1129581,46.2477082 54.973822,46.3350785 L54.973822,27.8019738 C53.1129581,27.7146034 51.2823298,27.6087 49.4764398,27.486911" id="XMLID_137_" fill="#DCA815"></path>
                <path d="M80.104712,27.8019738 L80.104712,46.3350785 C81.9655759,46.2477082 83.7962042,46.1391571 85.6020942,46.0173682 L85.6020942,27.486911 C83.7962042,27.6087 81.9655759,27.7146034 80.104712,27.8019738" id="XMLID_136_" fill="#DCA815"></path>
                <path d="M67.1465969,27.5030527 C66.2257853,27.5030527 65.3104712,27.4949819 64.3979058,27.486911 L64.3979058,46.3189368 C65.3104712,46.3270077 66.2257853,46.3350785 67.1465969,46.3350785 C68.0674084,46.3350785 68.9827225,46.3270077 69.895288,46.3189368 L69.895288,27.486911 C68.9827225,27.4949819 68.0674084,27.5030527 67.1465969,27.5030527" id="XMLID_135_" fill="#DCA815"></path>
                <path d="M25.9162304,51.8324607 L25.9162304,69.8060751 C27.5874346,70.3816419 29.4180628,70.9366527 31.4136126,71.4659686 L31.4136126,53.4897847 C29.4180628,52.9604688 27.5874346,52.405458 25.9162304,51.8324607" id="XMLID_134_" fill="#C49214"></path>
                <path d="M135.078534,53.4897847 L135.078534,71.4659686 C137.074084,70.9366527 138.904712,70.3816419 140.575916,69.8060751 L140.575916,51.8324607 C138.904712,52.4080275 137.074084,52.9604688 135.078534,53.4897847" id="XMLID_133_" fill="#C49214"></path>
                <path d="M39.2670157,55.7591623 L39.2670157,74.3863697 C41.026178,74.7404384 42.859555,75.0758719 44.7643979,75.3926702 L44.7643979,56.7654628 C42.859555,56.4486645 41.026178,56.113231 39.2670157,55.7591623" id="XMLID_132_" fill="#C49214"></path>
                <path d="M121.727749,56.7653263 L121.727749,75.3926702 C123.632592,75.073253 125.465969,74.737865 127.225131,74.3838443 L127.225131,55.7591623 C125.465969,56.113183 123.632592,56.448571 121.727749,56.7653263" id="XMLID_131_" fill="#C49214"></path>
                <path d="M51.8324607,58.9005236 L51.8324607,77.1438813 C53.6246073,77.3628642 55.4524869,77.5662054 57.3298429,77.7486911 L57.3298429,59.5053334 C55.4524869,59.3202407 53.6246073,59.1168995 51.8324607,58.9005236" id="XMLID_130_" fill="#C49214"></path>
                <path d="M109.162304,59.5027264 L109.162304,77.7486911 C111.03966,77.5635984 112.867539,77.3602572 114.659686,77.1438813 L114.659686,58.9005236 C112.867539,59.1195064 111.03966,59.3228476 109.162304,59.5027264" id="XMLID_129_" fill="#C49214"></path>
                <path d="M64.3979058,59.6858639 L64.3979058,78.216321 C66.2037958,78.33811 68.0344241,78.4466611 69.895288,78.5340314 L69.895288,60.0009267 C68.0344241,59.9135563 66.2037958,59.8076528 64.3979058,59.6858639" id="XMLID_128_" fill="#C49214"></path>
                <path d="M95.8115183,60.0009267 L95.8115183,78.5340314 C97.6723822,78.4466611 99.5030105,78.33811 101.308901,78.216321 L101.308901,59.6858639 C99.5030105,59.8076528 97.6723822,59.9135563 95.8115183,60.0009267" id="XMLID_127_" fill="#C49214"></path>
                <path d="M82.8534031,59.7020056 C81.9325916,59.7020056 81.0172775,59.6939347 80.104712,59.6858639 L80.104712,78.5178897 C81.0172775,78.5259605 81.9325916,78.5340314 82.8534031,78.5340314 C83.7742147,78.5340314 84.6895288,78.5259605 85.6020942,78.5178897 L85.6020942,59.6858639 C84.6895288,59.6939347 83.7742147,59.7020056 82.8534031,59.7020056" id="XMLID_126_" fill="#C49214"></path>
                <path d="M10.9947644,80.8900524 L10.9947644,98.8636667 C12.6659686,99.4392335 14.4965969,99.9916748 16.4921466,100.52356 L16.4921466,82.5473763 C14.4965969,82.0180605 12.6659686,81.4630496 10.9947644,80.8900524" id="XMLID_125_" fill="#DCA815"></path>
                <path d="M118.586387,82.5473763 L118.586387,100.52356 C120.581937,99.9942443 122.412565,99.4392335 124.08377,98.8636667 L124.08377,80.8900524 C122.412565,81.4656191 120.581937,82.0180605 118.586387,82.5473763" id="XMLID_124_" fill="#DCA815"></path>
                <path d="M23.5602094,83.2460733 L23.5602094,101.873281 C25.3193717,102.227349 27.1527487,102.562783 29.0575916,102.879581 L29.0575916,84.2523738 C27.1527487,83.9355755 25.3193717,83.600142 23.5602094,83.2460733" id="XMLID_123_" fill="#DCA815"></path>
                <path d="M106.020942,84.2522373 L106.020942,102.879581 C107.925785,102.560164 109.759162,102.224776 111.518325,101.870755 L111.518325,83.2460733 C109.759162,83.600094 107.925785,83.935482 106.020942,84.2522373" id="XMLID_122_" fill="#DCA815"></path>
                <path d="M36.1256545,86.3874346 L36.1256545,104.630792 C37.917801,104.849775 39.7456806,105.053116 41.6230366,105.235602 L41.6230366,86.9922444 C39.7456806,86.8071517 37.917801,86.6038105 36.1256545,86.3874346" id="XMLID_121_" fill="#DCA815"></path>
                <path d="M93.4554974,86.9896374 L93.4554974,105.235602 C95.3328534,105.050509 97.160733,104.847168 98.9528796,104.630792 L98.9528796,86.3874346 C97.160733,86.6064174 95.3328534,86.8097586 93.4554974,86.9896374" id="XMLID_120_" fill="#DCA815"></path>
                <path d="M49.4764398,87.1727749 L49.4764398,105.703232 C51.2823298,105.825021 53.1129581,105.933572 54.973822,106.020942 L54.973822,87.4878377 C53.1129581,87.4004673 51.2823298,87.2945638 49.4764398,87.1727749" id="XMLID_119_" fill="#DCA815"></path>
                <path d="M80.104712,87.4878377 L80.104712,106.020942 C81.9655759,105.933572 83.7962042,105.825021 85.6020942,105.703232 L85.6020942,87.1727749 C83.7962042,87.2945638 81.9655759,87.4004673 80.104712,87.4878377" id="XMLID_118_" fill="#DCA815"></path>
                <path d="M67.1465969,87.9742569 C66.2257853,87.9742569 65.3104712,87.9661861 64.3979058,87.9581152 L64.3979058,106.790141 C65.3104712,106.798212 66.2257853,106.806283 67.1465969,106.806283 C68.0674084,106.806283 68.9827225,106.798212 69.895288,106.790141 L69.895288,87.9581152 C68.9827225,87.9661861 68.0674084,87.9742569 67.1465969,87.9742569" id="XMLID_117_" fill="#DCA815"></path>
                <path d="M83.1252517,76.6823947 C48.8023157,76.6823947 20.4799839,70.0865682 16.1730568,62.8272251 C6.09671768,65.1324862 0,68.203545 0,71.778142 C0,79.7429631 30.239408,87.1727749 67.539267,87.1727749 C104.839126,87.1727749 135.078534,79.7429631 135.078534,71.778142 C135.078534,71.4267143 135.000604,71.0831543 134.883709,70.742217 C122.495449,74.2617395 103.91176,76.6823947 83.1252517,76.6823947" id="XMLID_106_" fill="#FFD949"></path>
                <path d="M131.798168,35.3403141 C123.716834,41.7752685 97.719412,47.1758439 66.8747483,47.1758439 C46.9558598,47.1758439 29.0553564,44.9209508 16.6930729,41.5917926 C15.547503,42.6288307 14.921466,43.7190502 14.921466,44.8624512 C14.921466,52.9407121 45.1608739,60.4712042 82.460733,60.4712042 C119.760592,60.4712042 150,52.9407121 150,44.8624512 C150,41.0014786 143.08242,37.7175246 131.798168,35.3403141" id="XMLID_105_" fill="#FCC62D"></path>
            </g>
        </g>
    </g>
</svg>