<?xml version="1.0" encoding="UTF-8"?>
<svg width="150px" height="150px" viewBox="0 0 150 150" version="1.1" xmlns="http://www.w3.org/2000/svg" xmlns:xlink="http://www.w3.org/1999/xlink">
    <!-- Generator: Sketch 46.2 (44496) - http://www.bohemiancoding.com/sketch -->
    <title>handshake</title>
    <desc>Created with Sketch.</desc>
    <defs></defs>
    <g id="Icons" stroke="none" stroke-width="1" fill="none" fill-rule="evenodd">
        <g id="handshake">
            <g id="Group" transform="translate(0.000000, 33.000000)">
                <path d="M118.925231,64.1690622 C115.976741,58.0394333 105.428435,49.5312779 95.2372472,41.3104535 C89.5530114,36.7286664 84.1818767,32.3967577 80.7577196,28.9824353 C79.8999931,28.1210278 78.6167778,27.8462785 77.4838041,28.2521115 C75.3742604,29.0137433 74.0719715,29.6004017 73.0455167,30.0559762 C71.4805986,30.7549921 70.9547532,30.9922888 68.8449161,31.2044221 C67.9120688,31.2980534 67.0734159,31.7975176 66.5537328,32.5714385 C62.1277699,39.1692236 57.5454032,38.6074361 54.484232,37.5839294 C53.507662,37.2594386 53.3324781,36.8410239 53.2385771,36.4416281 C52.5812704,33.7014508 55.8804218,27.3219435 60.1558498,23.0585027 C70.3285512,12.9088743 75.5743868,10.3682486 86.6546997,15.3058345 C99.22481,20.9111283 111.820156,25.2995083 111.945455,25.3431054 C113.59195,25.9110375 115.36345,25.0496299 115.933018,23.420446 C116.496424,21.7912621 115.638697,20.0122682 114.004821,19.4443361 C113.879521,19.4007391 101.534774,15.0998457 89.214968,9.60047231 C74.8607396,3.2022388 66.9853837,7.41564542 55.7360491,18.6391073 C51.4541655,22.9086927 45.6384684,31.5476392 47.1408837,37.8835494 C47.7855725,40.5801297 49.6888275,42.577694 52.5181807,43.5075695 C59.6109308,45.8422064 66.0836411,43.6073453 70.903988,37.2281306 C72.8946883,36.922366 73.9777771,36.472936 75.6051981,35.7426122 C76.1935463,35.4804447 76.8822511,35.1746801 77.7963182,34.8062996 C81.3771725,38.1582986 86.2098439,42.0595035 91.2992758,46.1605526 C100.50157,53.5822928 110.937194,61.996817 113.284718,66.8656424 C114.442927,69.2687472 113.196979,70.8356078 112.35187,71.5533499 C111.112378,72.6146017 109.415998,72.9516742 108.495769,72.3085445 C107.481638,71.6156732 106.160863,71.5720761 105.115334,72.196187 C104.063644,72.8202978 103.475295,74.0000517 103.606757,75.2111135 C103.819501,77.1960962 101.997823,78.332253 101.209055,78.7255042 C99.2057363,79.7367218 97.1149729,79.562041 96.3323671,78.8378618 C95.4558603,78.0264884 94.1975875,77.7891917 93.083394,78.2011692 C91.9692004,78.6192913 91.1927569,79.6430906 91.0800757,80.828989 C90.8922738,82.876295 89.3710783,84.8425514 87.3865403,85.6103277 C86.4287505,85.972271 85.0390164,86.1908415 83.7933615,85.0546847 C83.0172114,84.3556688 81.9402848,84.0870642 80.9326102,84.3305054 C79.9123176,84.5800913 79.0921514,85.3168522 78.7353278,86.2967619 C78.6164844,86.6089636 78.347106,87.3580137 75.4173962,87.3580137 C73.3327949,87.3580137 69.5829189,85.9535448 67.7489159,84.742483 C65.5516335,83.3005616 51.7731353,73.0511574 39.8729497,63.1136623 C38.2015127,61.7091935 35.3093632,58.7004115 32.7552572,56.0412838 C30.4890163,53.6817761 28.417033,51.5408388 27.3527243,50.6419787 C26.0193307,49.5184036 24.0474106,49.6869399 22.9393794,51.0103592 C21.8251858,52.3273414 21.9877519,54.300035 23.3088209,55.4110284 C24.2792286,56.2288389 26.1572478,58.2073844 28.2292311,60.3609033 C31.0213173,63.2696169 33.9070111,66.2783989 35.8478265,67.9014382 C47.5041631,77.6329445 61.5141858,88.1383717 64.3059786,89.9671072 C66.6097799,91.477789 71.5739126,93.6 75.4176896,93.6 C78.5038032,93.6 80.876563,92.894547 82.5227642,91.5152415 C84.7262088,92.3705045 87.23043,92.3766491 89.6404567,91.4403365 C92.4888835,90.3416322 94.8299518,88.12579 96.1571831,85.4417914 C98.6235504,85.9661265 101.447035,85.597746 104.013465,84.3120718 C106.523849,83.0512684 108.339072,81.1224645 109.240521,78.8688771 C111.732124,78.9999609 114.298554,78.119827 116.420716,76.3033806 C120.014482,73.2387125 121.003376,68.4699555 118.925231,64.1690622 Z" id="Shape" fill="#333333" fill-rule="nonzero"></path>
                <path d="M127.86127,57.742838 C126.879049,56.3570778 124.914906,55.9758165 123.464,56.9198922 L114.200479,62.862633 C112.749573,63.7945106 112.362863,65.6767048 113.338846,67.0624649 C113.953364,67.9279622 114.954593,68.4 115.974831,68.4 C116.576875,68.4 117.191394,68.2366023 117.736412,67.8856943 L126.999933,61.9429535 C128.450542,61.0107923 128.836955,59.1288818 127.86127,57.742838 Z" id="Shape" fill="#000000" fill-rule="nonzero"></path>
                <path d="M107.428783,72.9746461 C105.227583,71.1983429 95.3831458,60.8744662 89.2957641,54.3739523 C88.1212338,53.1140643 86.1722341,53.0700701 84.9484168,54.279468 C83.7185466,55.4826655 83.6816534,57.479235 84.8561837,58.7329224 C86.4365395,60.420942 100.375836,75.3054536 103.616387,77.9259142 C104.175838,78.3794384 104.85231,78.6 105.516388,78.6 C106.420272,78.6 107.324156,78.1842695 107.938947,77.3968026 C108.990692,76.0359346 108.76328,74.0517661 107.428783,72.9746461 Z" id="Shape" fill="#333333" fill-rule="nonzero"></path>
                <path d="M96.6124962,78.3542573 C92.8129852,75.31566 83.267082,65.1725318 81.1102894,62.8255656 C79.9177205,61.5315079 77.9196992,61.4553869 76.6257426,62.635263 C75.3380298,63.8213834 75.2494271,65.8323465 76.4354549,67.1201599 C76.5496275,67.2405857 87.9416192,79.540675 92.6479701,83.3086664 C93.2316183,83.7716369 93.9356829,84 94.6269626,84 C95.5531287,84 96.4789974,83.5875786 97.106947,82.8138796 C98.1984255,81.4434036 97.9763241,79.4452263 96.6124962,78.3542573 Z" id="Shape" fill="#333333" fill-rule="nonzero"></path>
                <path d="M82.8730496,85.0008169 C78.3507878,81.189853 69.0972608,71.3418658 67.2896643,69.4076998 C66.0909423,68.1268759 64.0802884,68.0570236 62.8054571,69.2555109 C61.5243825,70.4539983 61.4607598,72.4577193 62.6532384,73.7388405 C65.2537397,76.5225295 74.1076927,85.907708 78.7821731,89.8518371 C79.3782638,90.3526931 80.1013024,90.6 80.8243411,90.6 C81.724869,90.6 82.6256943,90.2132857 83.2535963,89.471365 C84.3824523,88.1269309 84.2112063,86.1294519 82.8730496,85.0008169 Z" id="Shape" fill="#333333" fill-rule="nonzero"></path>
                <path d="M36.2337607,7.02500223 C30.920123,2.00658493 9.67225646,0.38109631 3.28618401,0.00420080144 C2.40585754,-0.0389640185 1.59353913,0.251312153 0.973619565,0.838527523 C0.353409371,1.41936956 0,2.23515569 0,3.08802301 L0,58.7098045 C0,60.4155391 1.3889337,61.8 3.10017908,61.8 L21.7006723,61.8 C23.0399078,61.8 24.2303393,60.9410491 24.6456535,59.6678317 C25.0981686,58.2833708 35.7812456,25.6026772 37.1884892,9.53406602 C37.2692851,8.59457937 36.921979,7.66754968 36.2337607,7.02500223 Z" id="Shape" fill="#333333" fill-rule="nonzero"></path>
                <path d="M19.4375154,55.6198986 L6.20006752,55.6198986 L6.20006752,6.40070567 C16.1638286,7.18549424 26.9149136,8.89122887 30.8210172,10.7823694 C29.1780705,24.3170029 21.7439765,48.3641531 19.4375154,55.6198986 Z" id="Path" fill="#C0392B"></path>
                <path d="M146.863356,6.6 C122.235096,6.6 108.5723,12.8109097 108.001547,13.0704701 C107.186143,13.4473541 106.577457,14.1457918 106.326631,14.9925497 C106.075805,15.8393076 106.201071,16.747769 106.671553,17.501537 C110.548324,23.6507432 122.686759,57.8014766 125.020349,66.132033 C125.396735,67.4729986 126.632632,68.4 128.044078,68.4 L146.863356,68.4 C148.594729,68.4 150,67.0155813 150,65.3098986 L150,9.6898117 C150,7.97804559 148.594729,6.6 146.863356,6.6 Z" id="Shape" fill="#333333" fill-rule="nonzero"></path>
                <path d="M143.727005,62.2200869 L130.390312,62.2200869 C127.416866,52.6780554 118.634439,27.7973366 113.735251,17.5139936 C118.521523,15.9134677 128.803318,13.1631703 143.727005,12.8172828 L143.727005,62.2200869 Z" id="Path" fill="#27AE60"></path>
                <path d="M62.8908296,12 L34.9091704,12 C33.192962,12 31.8,13.4784569 31.8,15.3 C31.8,17.1215431 33.192962,18.6 34.9091704,18.6 L62.8908296,18.6 C64.607038,18.6 66,17.1215431 66,15.3 C66,13.4784569 64.607038,12 62.8908296,12 Z" id="Shape" fill="#333333" fill-rule="nonzero"></path>
            </g>
        </g>
    </g>
</svg>