<?xml version="1.0" encoding="UTF-8"?>
<svg width="150px" height="150px" viewBox="0 0 150 150" version="1.1" xmlns="http://www.w3.org/2000/svg" xmlns:xlink="http://www.w3.org/1999/xlink">
    <!-- Generator: Sketch 46.2 (44496) - http://www.bohemiancoding.com/sketch -->
    <title>key</title>
    <desc>Created with Sketch.</desc>
    <defs></defs>
    <g id="Icons" stroke="none" stroke-width="1" fill="none" fill-rule="evenodd">
        <g id="key" fill-rule="nonzero">
            <g id="Group" transform="translate(14.000000, 14.000000)">
                <path d="M114.479058,95.4461642 C113.766387,94.7903969 106.736823,95.2439875 106.736823,95.2439875 L106.656669,87.8048416 L103.218337,83.8737238 L95.0683634,83.7403917 L95.0605223,83.7290628 L95.0605223,83.7290628 C95.0261085,83.8397371 95.0566018,75.5465688 95.0566018,75.5465688 L91.2523513,72.7897319 C91.2523513,72.7897319 83.8533825,72.5723047 83.792396,72.5152246 L83.1977776,64.9122459 L76.3476873,56.8020823 C78.7148346,51.692762 80.0796252,46.0152554 80.0796252,40.0096472 C80.0796252,17.9135582 62.1552585,7.94719308e-07 40.0459113,7.94719308e-07 C17.9243667,-0.00435646288 0,17.909201 0,40.00529 C0,62.1053005 17.9243667,80.0223438 40.0376345,80.0223438 C46.1711335,80.0223438 51.9618013,78.6001349 57.1574151,76.1330556 L102.692111,121.953541 C102.692111,121.953541 121.969507,122.006699 121.969507,121.999292 L122,102.538037 C122,102.538037 118.973327,99.5868661 114.479058,95.4461642 Z M32.3986403,41.9882779 C27.1572866,41.9882779 22.9104484,37.7138082 22.9104484,32.4406551 C22.9104484,27.1675019 27.156851,22.8891107 32.3986403,22.8891107 C37.6404296,22.8891107 41.8907528,27.1670662 41.8907528,32.4406551 C41.8907528,37.7142439 37.639994,41.9882779 32.3986403,41.9882779 Z" id="Shape" fill="#F1C40F" transform="translate(61.000000, 61.000000) scale(1, -1) translate(-61.000000, -61.000000) "></path>
                <path d="M32.5,73 C25.0443222,73 19,79.0443222 19,86.5 C19,93.9556778 25.0443222,100 32.5,100 C39.9596448,100 46,93.9556778 46,86.5 C46,79.0443222 39.9596448,73 32.5,73 Z M32.5,92.2860291 C29.3061578,92.2860291 26.7144116,89.6938422 26.7144116,86.5004408 C26.7144116,83.3030724 29.3065985,80.7148524 32.5,80.7148524 C35.6938422,80.7148524 38.2855884,83.3030724 38.2855884,86.5004408 C38.2855884,89.6938422 35.6938422,92.2860291 32.5,92.2860291 Z" id="Shape" fill="#CA9F30" transform="translate(32.500000, 86.500000) scale(1, -1) translate(-32.500000, -86.500000) "></path>
                <path d="M66.4056071,0 C62.7836934,3.18059779 58.592727,5.69196391 54,7.40086359 L99.0370691,52 L118,52 L66.4056071,0 Z" id="Shape" fill="#CA9F30" transform="translate(86.000000, 26.000000) scale(1, -1) translate(-86.000000, -26.000000) "></path>
            </g>
        </g>
    </g>
</svg>