<?xml version="1.0" encoding="UTF-8"?>
<svg width="150px" height="150px" viewBox="0 0 150 150" version="1.1" xmlns="http://www.w3.org/2000/svg" xmlns:xlink="http://www.w3.org/1999/xlink">
    <!-- Generator: Sketch 46.2 (44496) - http://www.bohemiancoding.com/sketch -->
    <title>node-network</title>
    <desc>Created with Sketch.</desc>
    <defs></defs>
    <g id="Icons" stroke="none" stroke-width="1" fill="none" fill-rule="evenodd">
        <g id="node-network">
            <circle id="Oval-11" stroke="#F1C40F" stroke-width="3" cx="75" cy="76" r="60"></circle>
            <path d="M75,3.56853656 C67.2385409,3.56853656 60.9130435,9.91294301 60.9130435,17.6975688 C60.9130435,24.943957 66.4165357,30.9336619 73.4347826,31.7284828 L73.4347826,57.0429361 C69.4458417,57.3774802 65.8119861,58.9589899 62.9184783,61.4092781 L45.75,44.1895043 C47.3834452,42.0677161 48.3913043,39.4140013 48.3913043,36.5362785 C48.3913043,29.6186572 42.7666017,23.9771387 35.8695652,23.9771387 C28.97256,23.9771387 23.3478417,29.6186258 23.3478261,36.5362785 C23.3478417,43.4538684 28.972513,49.0953555 35.8695652,49.0953555 C38.7525235,49.0953555 41.4284348,48.0987877 43.548913,46.4461619 L60.6684783,63.6168609 C58.2123078,66.5235168 56.6497826,70.2002049 56.3152174,74.2136194 L31.076087,74.2136194 C30.283633,67.1745512 24.3117809,61.6544953 17.0869565,61.6544953 C9.3255287,61.6544953 3.0000313,67.9989017 3,75.7835118 C3.00004696,83.5682946 9.32549739,89.9127011 17.0869565,89.9127011 C24.3117339,89.9127011 30.2836017,84.3928022 31.076087,77.3534043 L56.3152174,77.3534043 C56.6487183,81.3544323 58.225487,84.9990946 60.6684783,87.9011978 L43.5,105.121034 C41.3845304,103.482695 38.7387339,102.471841 35.8695652,102.471841 C28.972513,102.471841 23.3478417,108.113406 23.3478261,115.030981 C23.3478417,121.948555 28.97256,127.59012 35.8695652,127.59012 C42.7666017,127.59012 48.3913043,121.948555 48.3913043,115.030981 C48.3913043,112.139396 47.397673,109.455508 45.75,107.328617 L62.8695652,90.1579183 C65.7675026,92.6215505 69.4331948,94.1886172 73.4347826,94.5242602 L73.4347826,119.838776 C66.41652,120.633613 60.9129965,126.623224 60.9130435,133.86969 C60.9130122,141.654316 67.2385409,147.998723 75,147.998723 C82.7614591,147.998723 89.0869565,141.654316 89.0869565,133.86969 C89.0869252,126.623381 83.5834487,120.633613 76.5652174,119.838776 L76.5652174,94.5242602 C80.5668052,94.1886172 84.2324974,92.6215505 87.1304348,90.1579183 L104.25,107.328617 C102.602327,109.455508 101.608696,112.139396 101.608696,115.030981 C101.608696,121.948555 107.233398,127.59012 114.130435,127.59012 C121.02744,127.59012 126.652158,121.948555 126.652174,115.030981 C126.652158,108.113406 121.027487,102.471841 114.130435,102.471841 C111.261266,102.471841 108.61547,103.482695 106.5,105.121034 L89.3315217,87.9011978 C91.774513,84.9990946 93.3512817,81.3544323 93.6847826,77.3534043 L118.923913,77.3534043 C119.716367,84.3928022 125.688219,89.9127011 132.913043,89.9127011 C140.674471,89.9127011 146.999969,83.5682946 147,75.7835118 C146.999969,67.9989017 140.674503,61.6544953 132.913043,61.6544953 C125.688266,61.6546523 119.716398,67.1745512 118.923913,74.2136194 L93.6847826,74.2136194 C93.3502174,70.2002049 91.7876922,66.5235168 89.3315217,63.6168609 L106.451087,46.4461619 C108.571565,48.0987877 111.247477,49.0953555 114.130435,49.0953555 C121.027487,49.0953555 126.652158,43.4538684 126.652174,36.5362785 C126.652158,29.6186258 121.02744,23.9771387 114.130435,23.9771387 C107.233398,23.9771387 101.608696,29.6186572 101.608696,36.5362785 C101.608696,39.4140013 102.616555,42.0677161 104.25,44.1895043 L87.0815217,61.4092781 C84.1880139,58.9589899 80.5541583,57.3774802 76.5652174,57.0429361 L76.5652174,31.7284828 C83.5834643,30.9336619 89.0869565,24.943957 89.0869565,17.6975688 C89.0869565,9.91294301 82.7614748,3.56853656 75,3.56853656 Z" id="Path" fill="#333333"></path>
            <path d="M75,6.70832151 C81.0696626,6.70832151 85.9565217,11.6098084 85.9565217,17.6975688 C85.9565217,23.7853135 81.0696626,28.6868161 75,28.6868161 C68.9303687,28.6868161 64.0434783,23.7853135 64.0434783,17.6975688 C64.0434783,11.6098084 68.930353,6.70832151 75,6.70832151 Z" id="Path" fill="#E74C3C"></path>
            <path d="M35.8695652,27.1169237 C41.0747896,27.1169237 45.2608696,31.3155226 45.2608696,36.5362785 C45.2608852,41.7570187 41.0747583,45.9557275 35.8695652,45.9555705 C30.6643252,45.9555705 26.4782765,41.757003 26.4782609,36.5362785 C26.4782765,31.3154912 30.6643722,27.1169237 35.8695652,27.1169237 Z" id="Path" fill="#3498DB"></path>
            <path d="M114.130435,27.1169237 C119.335628,27.1169237 123.521723,31.3154912 123.521739,36.5362785 C123.521723,41.757003 119.335675,45.9555705 114.130435,45.9555705 C108.925242,45.9557275 104.739115,41.7570187 104.73913,36.5362785 C104.73913,31.3155226 108.92521,27.1169237 114.130435,27.1169237 Z" id="Path" fill="#3498DB"></path>
            <path d="M75,60.0846028 C83.662993,60.0846028 90.6521739,67.0948006 90.6521739,75.7835118 C90.6521739,84.4723957 83.662993,91.4825935 75,91.4825935 C66.337007,91.4825935 59.3478261,84.4723957 59.3478261,75.7835118 C59.3478261,67.0948006 66.337007,60.0846028 75,60.0846028 Z" id="Path" fill="#2ECC71"></path>
            <path d="M17.0869565,64.7942802 C23.1565565,64.7942802 28.0434783,69.6957985 28.0434783,75.7835118 C28.043447,81.8713978 23.1565409,86.7729161 17.0869565,86.7729161 C11.0173096,86.7729161 6.13048174,81.8713978 6.13043478,75.7835118 C6.13046609,69.6957985 11.0173722,64.7942802 17.0869565,64.7942802 Z" id="Path" fill="#E74C3C"></path>
            <path d="M132.913043,64.7942802 C138.98269,64.7942802 143.869534,69.6957985 143.869565,75.7835118 C143.869534,81.8713978 138.982628,86.7729161 132.913043,86.7729161 C126.843443,86.7729161 121.956522,81.8713978 121.956522,75.7835118 C121.956553,69.6957985 126.843459,64.7944372 132.913043,64.7942802 Z" id="Path" fill="#E74C3C"></path>
            <path d="M35.8695652,105.611626 C41.0747583,105.611626 45.2608852,109.810146 45.2608696,115.030981 C45.2608696,120.251658 41.0747896,124.450335 35.8695652,124.450335 C30.6643722,124.450335 26.4782765,120.251815 26.4782609,115.030981 C26.4782765,109.810303 30.6643252,105.611626 35.8695652,105.611626 Z" id="Path" fill="#3498DB"></path>
            <path d="M114.130435,105.611626 C119.335675,105.611626 123.521723,109.810303 123.521739,115.030981 C123.521723,120.251815 119.335628,124.450335 114.130435,124.450335 C108.92521,124.450335 104.73913,120.251658 104.73913,115.030981 C104.739115,109.810146 108.925242,105.611626 114.130435,105.611626 Z" id="Path" fill="#3498DB"></path>
            <path d="M75,122.880443 C81.0696313,122.880443 85.9564904,127.781961 85.9565217,133.86969 C85.9565217,139.957419 81.0696783,144.858938 75,144.858938 C68.930353,144.858938 64.043447,139.957419 64.0434783,133.86969 C64.0434313,127.781961 68.9303217,122.880443 75,122.880443 Z" id="Path" fill="#E74C3C"></path>
        </g>
    </g>
</svg>