<?xml version="1.0" encoding="UTF-8"?>
<svg width="150px" height="150px" viewBox="0 0 150 150" version="1.1" xmlns="http://www.w3.org/2000/svg" xmlns:xlink="http://www.w3.org/1999/xlink">
    <!-- Generator: Sketch 46.2 (44496) - http://www.bohemiancoding.com/sketch -->
    <title>regulation</title>
    <desc>Created with Sketch.</desc>
    <defs></defs>
    <g id="Icons" stroke="none" stroke-width="1" fill="none" fill-rule="evenodd">
        <g id="regulation">
            <g id="trafficlight" transform="translate(48.000000, 0.000000)">
                <rect id="Rectangle-14" fill="#7F8C8D" x="20.610687" y="109.923664" width="11.4503817" height="40.0763359" rx="5.72519084"></rect>
                <path d="M33.3068727,0 L19.9371813,0 C15.2500027,0 11.4503817,3.80109292 11.4503817,8.49008719 L11.4503817,14.8854962 L41.7938931,14.8854962 L41.7938931,8.49008719 C41.7936722,3.80109292 37.9940512,0 33.3068727,0 Z" id="Shape" fill="#7F8C8D" fill-rule="nonzero"></path>
                <path d="M42.3183745,9.16030534 L11.4984194,9.16030534 C5.14802695,9.16030534 0,14.2981831 0,20.6355558 L0,103.028566 C0,109.366387 5.14825131,114.503817 11.4984194,114.503817 L42.3183745,114.503817 C48.6687669,114.503817 53.8167939,109.365939 53.8167939,103.028566 L53.8167939,20.6355558 C53.8167939,14.2981831 48.6687669,9.16030534 42.3183745,9.16030534 Z" id="Shape" fill="#2C3E50" fill-rule="nonzero"></path>
                <circle id="Oval" fill="#E74C3C" fill-rule="nonzero" cx="26.9083969" cy="29.7709924" r="10.8778626"></circle>
                <circle id="Oval" fill="#F1C40F" fill-rule="nonzero" cx="26.9083969" cy="61.8320611" r="10.8778626"></circle>
                <circle id="Oval" fill="#2ECC71" fill-rule="nonzero" cx="26.9083969" cy="93.8931298" r="10.8778626"></circle>
            </g>
        </g>
    </g>
</svg>