<?xml version="1.0" encoding="UTF-8"?>
<svg width="150px" height="150px" viewBox="0 0 150 150" version="1.1" xmlns="http://www.w3.org/2000/svg" xmlns:xlink="http://www.w3.org/1999/xlink">
    <!-- Generator: Sketch 46.2 (44496) - http://www.bohemiancoding.com/sketch -->
    <title>store-of-wealth</title>
    <desc>Created with Sketch.</desc>
    <defs></defs>
    <g id="Icons" stroke="none" stroke-width="1" fill="none" fill-rule="evenodd">
        <g id="store-of-wealth" fill-rule="nonzero">
            <g id="ingot" transform="translate(0.000000, 30.000000)">
                <g id="Group" transform="translate(5.314961, 0.590551)" fill="#FED322">
                    <polygon id="Shape" points="127.576476 39.635986 83.9433071 39.635986 70.5708661 79.1116297 140.948917 79.1116297"></polygon>
                    <polygon id="Shape" points="57.1984252 39.635986 13.5652559 39.635986 0.192814961 79.1116297 70.5708661 79.1116297"></polygon>
                    <polygon id="Shape" points="92.3873031 0.160638768 48.7544291 0.160638768 35.3819882 39.635986 105.759744 39.635986"></polygon>
                </g>
                <g id="Group" transform="translate(5.314961, 0.590551)" fill="#EEBF00">
                    <polygon id="Shape" points="70.1011536 0.160638768 48.482058 0.160638768 35.1843235 39.635986 70.1011536 39.635986"></polygon>
                    <polygon id="Shape" points="35.1088616 39.635986 13.4894724 39.635986 0.191737782 79.1116297 35.1088616 79.1116297"></polygon>
                    <polygon id="Shape" points="105.018277 39.635986 83.3988882 39.635986 70.1011536 79.1116297 105.018277 79.1116297"></polygon>
                </g>
                <path d="M146.401758,79.1338583 L133.133789,39.5669291 L111.487793,39.5669291 L98.2198242,0 L51.7801758,0 L38.512207,39.5669291 L16.8662109,39.5669291 L3.59824219,79.1338583 L0,79.1338583 L150,79.1338583 L146.401758,79.1338583 Z M141.760547,79.1338583 L78.0679688,79.1338583 L89.8417969,44.0229655 L112.982227,44.0229655 L129.986719,44.0229655 L141.760547,79.1338583 Z M75,74.4413549 L64.799707,44.0232625 L85.2,44.0232625 L75,74.4413549 Z M54.9272461,4.45603635 L95.0724609,4.45603635 L106.846289,39.5669291 L86.6944336,39.5669291 L63.3055664,39.5669291 L43.1537109,39.5669291 L54.9272461,4.45603635 Z M20.0135742,44.0229655 L37.0180664,44.0229655 L60.1584961,44.0229655 L71.9323242,79.1338583 L8.23974609,79.1338583 L20.0135742,44.0229655 Z" id="Shape" fill="#333333"></path>
                <rect id="Rectangle-path" fill="#333333" x="2.95275591" y="79.1338583" width="142.913386" height="7.67716535"></rect>
            </g>
        </g>
    </g>
</svg>