<?xml version="1.0" encoding="UTF-8"?>
<svg width="150px" height="150px" viewBox="0 0 150 150" version="1.1" xmlns="http://www.w3.org/2000/svg" xmlns:xlink="http://www.w3.org/1999/xlink">
    <!-- Generator: Sketch 46.2 (44496) - http://www.bohemiancoding.com/sketch -->
    <title>time</title>
    <desc>Created with Sketch.</desc>
    <defs></defs>
    <g id="Icons" stroke="none" stroke-width="1" fill="none" fill-rule="evenodd">
        <g id="time">
            <g id="Group" transform="translate(5.000000, 0.000000)">
                <path d="M105.289365,129.754601 C105.238888,110.597074 96.5933406,87.9778897 82.1589442,83.1618405 C79.4672519,82.2640491 77.6694734,79.7230675 77.7208859,76.8855828 L77.7756153,73.8195092 C77.8253693,71.1311043 79.5286152,68.752454 82.0561193,67.8347853 C96.4068363,62.640184 105.289587,38.2060123 105.289587,18.547362 C105.289587,18.4993252 105.299538,18.4529448 105.299538,18.404908 L36.8131329,18.404908 C36.8131329,18.4529448 36.8247422,18.4976687 36.8247422,18.5457055 C36.8247422,44.0515951 49.0410119,64.0465031 60.3567339,67.942454 C62.9870629,68.8468712 64.7500136,71.3232515 64.7400628,74.1027607 L64.730112,76.9170552 C64.7201612,79.7313497 62.8958472,82.2193252 60.2107888,83.077362 C45.6156406,87.7432284 36.8755739,110.438704 36.8249632,129.754602 L9.20245399,129.754601 L9.20245399,129.754601 C4.12007899,129.754601 -3.70104634e-13,133.87468 -3.69482223e-13,138.957055 L-3.69482223e-13,138.957055 L-3.69482223e-13,138.957055 C-3.68859811e-13,144.03943 4.12007899,148.159509 9.20245399,148.159509 L131.595092,148.159509 C136.677467,148.159509 140.797546,144.03943 140.797546,138.957055 C140.797546,133.87468 136.677467,129.754601 131.595092,129.754601 L105.289366,129.754601 Z M80.3114117,87.056135 C92.3867117,91.0862577 99.5927519,110.039264 99.5927519,126.037178 C99.5927519,126.078589 99.6027027,126.118344 99.6027027,126.158098 L42.5099679,126.158098 C42.5116263,126.118344 42.5215771,126.078589 42.5215771,126.037178 C42.5215771,109.903436 49.8121991,90.8874847 62.0152011,86.9882209 L80.3114117,87.056135 Z" id="Shape"></path>
                <path d="M42.3216499,126.340123 C42.3216499,126.381534 42.3116991,126.421288 42.3100406,126.461043 L99.4027754,126.461043 C99.4027754,126.421288 99.3928246,126.381534 99.3928246,126.340123 C99.3928246,110.342209 92.1867845,91.387546 80.1114845,87.3590798 L61.8152738,87.2911656 C49.6122719,91.1920859 42.3216499,110.20638 42.3216499,126.340123 Z" id="Shape" fill="#F1C40F" fill-rule="nonzero"></path>
                <path d="M138.028478,9.61730061 C138.028478,4.59828221 133.950307,0.528404908 128.928468,0.528404908 L12.7909821,0.528404908 C7.76582638,0.528404908 3.69097236,4.59828221 3.69097236,9.61730061 C3.69097236,14.636319 7.76582638,18.7061963 12.7909821,18.7061963 L23.6373579,18.7061963 C23.6373579,18.7542331 23.6257486,18.8006135 23.6257486,18.8486503 C23.6257486,35.6996319 30.1435249,63.3174847 47.0200876,75.798773 C35.5766636,84.2035583 23.6257486,102.086503 23.6257486,130.224479 C23.6257486,130.274172 23.6373579,130.320552 23.6406748,130.370245 L12.7909821,130.370245 C7.76582638,130.370245 3.69097236,134.441779 3.69097236,139.459141 C3.69097236,144.47816 7.76582638,148.548037 12.7909821,148.548037 L128.928468,148.548037 C133.950307,148.548037 138.028478,144.47816 138.028478,139.459141 C138.028478,134.441779 133.950307,130.370245 128.928468,130.370245 L118.077117,130.370245 C118.077117,130.320552 118.092043,130.274172 118.092043,130.224479 C118.092043,113.439755 111.745089,87.4766871 94.9199385,75.6331288 C111.637288,63.0640491 118.092043,35.5505521 118.092043,18.8469939 C118.092043,18.7989571 118.077117,18.7525767 118.077117,18.7045399 L128.928468,18.7045399 C133.950307,18.7061963 138.028478,14.636319 138.028478,9.61730061 Z M105.091318,18.8486503 C105.091318,38.5073006 96.210226,62.9414724 81.8578505,68.1360736 C79.3303464,69.0537423 77.6271005,71.4323926 77.5773465,74.1207975 L77.5226171,77.1868712 C77.4712046,80.0243558 79.2689831,82.5653374 81.9606754,83.4631288 C96.437436,88.2933129 105.091318,111.032945 105.091318,130.224479 C105.091318,130.274172 105.101269,130.320552 105.107903,130.370245 L36.6098887,130.370245 C36.6115471,130.320552 36.6248149,130.274172 36.6248149,130.224479 C36.6248149,110.870613 45.3715711,88.0580982 60.0108615,83.3786503 C62.6959199,82.5206135 64.5202339,80.032638 64.5301847,77.2183436 L64.5401355,74.4040491 C64.5500863,71.6245399 62.7887941,69.149816 60.1568066,68.2437423 C48.8394261,64.3477914 36.6248149,44.3545399 36.6248149,18.8469939 C36.6248149,18.7989571 36.6132056,18.7525767 36.6132056,18.7045399 L105.101269,18.7045399 C105.09961,18.7558896 105.091318,18.8006135 105.091318,18.8486503 Z" id="Shape" fill="#9A5800" fill-rule="nonzero"></path>
                <rect id="Rectangle-10" fill="#513004" x="4.60122699" y="130.674847" width="135.276074" height="18.404908" rx="9.20245399"></rect>
                <rect id="Rectangle-10" fill="#513004" x="3.6809816" y="0.920245399" width="135.276074" height="18.404908" rx="9.20245399"></rect>
            </g>
        </g>
    </g>
</svg>