<?xml version="1.0" encoding="UTF-8"?>
<svg width="150px" height="150px" viewBox="0 0 150 150" version="1.1" xmlns="http://www.w3.org/2000/svg" xmlns:xlink="http://www.w3.org/1999/xlink">
    <!-- Generator: Sketch 46.2 (44496) - http://www.bohemiancoding.com/sketch -->
    <title>unit-of-account</title>
    <desc>Created with Sketch.</desc>
    <defs></defs>
    <g id="Icons" stroke="none" stroke-width="1" fill="none" fill-rule="evenodd">
        <g id="unit-of-account" fill-rule="nonzero">
            <g id="Group" transform="translate(26.725490, 1.960784)" fill="#BFAB92">
                <path d="M80.8302342,4.30960706 C81.0118164,3.93825104 80.6953697,3.52465548 80.2866628,3.59006812 C75.2846312,4.39203284 73.9342237,0.146665092 67.9323146,0.146665092 C61.5481426,0.146665092 61.5481426,3.66662729 55.1639706,3.66662729 C48.7800924,3.66662729 48.7800924,0.146665092 42.3962143,0.146665092 C36.0114546,0.146665092 36.0114546,3.66662729 29.626695,3.66662729 C23.970321,3.66662729 23.3250871,1.82480707 18.811682,1.40475825 C17.916993,1.32145248 17.2611815,2.22989605 17.6255212,3.05004725 L32.7879297,36.0100933 L64.769317,36.0100933 L80.8302342,4.30960706 Z" id="Shape"></path>
                <path d="M33.3664659,45.8615875 L64.1904869,45.8615875 C83.4634701,52.2943185 97.3550969,70.4584967 97.3550969,91.8630936 L97.3550969,123.721685 C97.3550969,135.987873 87.3945193,145.931766 75.1077501,145.931766 L22.4492027,145.931766 C10.1624336,145.931766 0.201855953,135.987873 0.201855953,123.721685 L0.201855953,91.8630936 C0.201855953,70.4584967 14.0931889,52.2943185 33.3664659,45.8615875 Z" id="Shape"></path>
            </g>
            <g id="Group" transform="translate(43.882353, 1.960784)" fill="#B39A7C">
                <path d="M31.5284942,45.8615875 L46.6726963,45.8615875 C65.8708253,52.2943185 79.7084985,70.4584967 79.7084985,91.8630936 L79.7084985,123.721685 C79.7084985,135.987873 69.7866067,145.931766 57.547558,145.931766 L31.5284942,145.931766 L31.5284942,45.8615875 Z" id="Shape"></path>
                <path d="M31.6162986,2.06885778 C29.9222599,1.13812111 28.3385621,0.146665092 24.9633628,0.146665092 C18.6034008,0.146665092 18.6034008,3.66662729 12.2434389,3.66662729 C6.60903361,3.66662729 5.96630575,1.82480707 1.47043022,1.40475825 C0.579216045,1.32145248 -0.0740483373,2.22989605 0.28887632,3.05004725 L15.3923957,36.0100933 L31.6165913,36.0100933 L31.6165913,2.06885778 L31.6162986,2.06885778 Z" id="Shape"></path>
            </g>
            <g id="Group" transform="translate(60.549020, 12.745098)" fill="#5E4C36">
                <rect id="Rectangle-path" transform="translate(6.086092, 13.015117) rotate(-106.894624) translate(-6.086092, -13.015117) " x="-6.66262802" y="10.8124937" width="25.4974406" height="4.40524599"></rect>
                <rect id="Rectangle-path" transform="translate(21.274045, 15.476520) rotate(-165.161954) translate(-21.274045, -15.476520) " x="19.0679091" y="5.42893973" width="4.41227082" height="20.0951604"></rect>
            </g>
            <polygon id="Shape" fill="#F1C40F" points="59.5686275 38.2352941 59.5686275 48.0392157 60.1453102 48.0392157 90.8549826 48.0392157 91.4313725 48.0392157 91.4313725 38.2352941"></polygon>
            <circle id="Oval" fill="#2ECC71" cx="75.254902" cy="96.0784314" r="24.5098039"></circle>
            <path d="M74.7647059,71.5686275 C61.4562879,71.8253436 50.745098,82.696408 50.745098,96.0784314 C50.745098,109.460455 61.4562879,120.331519 74.7647059,120.588235 L74.7647059,71.5686275 Z" id="Shape" fill="#27AE60"></path>
            <path d="M93.6786805,46.5183662 L93.6786805,38.5405497 L109.488462,7.34676299 L109.502847,7.31775915 C109.914421,6.47547563 109.863635,5.4990127 109.366634,4.70565487 C108.867285,3.90819549 108.007148,3.4321222 107.065989,3.4321222 C106.921263,3.4321222 106.775362,3.44384093 106.631517,3.46669245 C106.329735,3.51532517 106.037641,3.53964152 105.762867,3.53964152 C104.468846,3.53964152 103.505962,2.99970117 102.173778,2.25204638 C100.385985,1.24863037 98.1604916,0 94.637454,0 C90.880741,0 88.9223888,1.07929477 87.1944829,2.03173431 C85.6902712,2.86083426 84.5019321,3.51561813 81.8804234,3.51561813 C79.2589147,3.51561813 78.0708693,2.86083426 76.5666576,2.03173431 C74.8390451,1.07929477 72.880693,0 69.12398,0 C65.3669734,0 63.4083277,1.07929477 61.6807153,2.03173431 C60.1759165,2.86083426 58.9875775,3.51561813 56.3654816,3.51561813 C53.5684228,3.51561813 52.2608977,3.03515032 50.7469984,2.47909672 C49.4664809,2.00858983 48.0151104,1.47538774 45.764664,1.2659155 C44.4823852,1.14697042 43.3016788,1.73671536 42.6179729,2.7858344 C41.9929794,3.74471925 41.8972781,4.94178722 42.3740228,6.01405075 L57.3219067,38.4968975 L57.3219067,46.5186591 C37.7583474,53.9972578 24.7647059,72.7255416 24.7647059,93.8010863 L24.7647059,125.620067 C24.7647059,139.063205 35.7236691,150 49.1940554,150 L101.805945,150 C115.276331,150 126.235294,139.063205 126.235294,125.620067 L126.235294,93.8005004 C126.235588,72.7249556 113.241946,53.9969648 93.6786805,46.5183662 Z M61.7256303,40.213398 L89.2752504,40.213398 L89.2752504,45.6585046 L61.7256303,45.6585046 L61.7256303,40.213398 L61.7256303,40.213398 Z M49.2257601,6.60291679 C50.8934858,7.21551325 52.783438,7.9101408 56.3654816,7.9101408 C60.1224882,7.9101408 62.0811339,6.83084603 63.8090399,5.87840649 C65.3135452,5.04930654 66.5018842,4.39452267 69.1236864,4.39452267 C71.7451952,4.39452267 72.9335342,5.04930654 74.4377459,5.87840649 C76.1656518,6.83055307 78.1237104,7.9101408 81.8804234,7.9101408 C85.63743,7.9101408 87.5957821,6.83084603 89.3233945,5.87840649 C90.8276063,5.04930654 92.0156517,4.39452267 94.637454,4.39452267 C97.0073801,4.39452267 98.401506,5.1767477 100.015804,6.08260531 C101.239664,6.76932272 102.592397,7.52869623 104.316193,7.81580505 L90.1230574,35.8188754 L60.9353614,35.8188754 L47.1869719,5.94285949 C47.9191156,6.12274195 48.5455769,6.35301494 49.2257601,6.60291679 Z M121.832158,125.619774 C121.832158,136.639772 112.848573,145.605184 101.806238,145.605184 L49.1946425,145.605184 C38.1523076,145.605184 29.1687231,136.639772 29.1687231,125.619774 L29.1687231,93.8005004 C29.1687231,73.9964375 41.7302414,56.4608272 60.4647815,50.0530272 L90.5366863,50.0530272 C109.270933,56.4611202 121.832451,73.9964375 121.832451,93.8005004 L121.832158,125.619774 L121.832158,125.619774 Z" id="Shape" fill="#333333"></path>
            <path d="M75.5,69.1176471 C60.7687893,69.1176471 48.7843137,81.1024154 48.7843137,95.8333333 C48.7843137,110.564251 60.769082,122.54902 75.5,122.54902 C90.2312107,122.54902 102.215686,110.564251 102.215686,95.8333333 C102.215686,81.1024154 90.2312107,69.1176471 75.5,69.1176471 Z M75.5,118.158751 C63.1897447,118.158751 53.1748748,108.143589 53.1748748,95.833626 C53.1748748,83.5236635 63.1900374,73.5085009 75.5,73.5085009 C87.8099626,73.5085009 97.8251252,83.5236635 97.8251252,95.833626 C97.8251252,108.143589 87.8102553,118.158751 75.5,118.158751 Z" id="Shape" fill="#333333"></path>
            <rect id="Rectangle-path" fill="#2ECC71" transform="translate(25.990196, 47.794118) rotate(-135.000000) translate(-25.990196, -47.794118) " x="20.8431373" y="45.5882353" width="10.2941176" height="4.41176471" rx="2.20588235"></rect>
            <rect id="Rectangle-path" fill="#2ECC71" transform="translate(38.245098, 40.441176) rotate(-110.176471) translate(-38.245098, -40.441176) " x="33.0980392" y="38.2352941" width="10.2941176" height="4.41176471" rx="2.20588235"></rect>
            <rect id="Rectangle-path" fill="#2ECC71" transform="translate(18.637255, 60.049020) rotate(20.176471) translate(-18.637255, -60.049020) " x="13.4901961" y="57.8431373" width="10.2941176" height="4.41176471" rx="2.20588235"></rect>
            <g id="Group-2" transform="translate(121.268988, 50.536247) rotate(93.000000) translate(-121.268988, -50.536247) translate(106.268988, 35.536247)" fill="#2ECC71">
                <rect id="Rectangle-path" transform="translate(13.087661, 13.225488) rotate(-135.000000) translate(-13.087661, -13.225488) " x="7.94060267" y="11.0196056" width="10.2941176" height="4.41176471" rx="2.20588235"></rect>
                <rect id="Rectangle-path" transform="translate(25.459641, 5.775081) rotate(-110.176471) translate(-25.459641, -5.775081) " x="20.3125824" y="3.56919899" width="10.2941176" height="4.41176471" rx="2.20588235"></rect>
                <rect id="Rectangle-path" transform="translate(5.637255, 25.597468) rotate(20.176471) translate(-5.637255, -25.597468) " x="0.490196078" y="23.3915853" width="10.2941176" height="4.41176471" rx="2.20588235"></rect>
            </g>
            <path d="M74.0000703,87.8890738 L80.9999531,87.8890738 C82.1054445,87.8890738 83,87.0069427 83,85.9168053 C83,84.826668 82.1054445,83.9445369 80.9999531,83.9445369 L77.0000469,83.9445369 L77.0000469,81.9722684 C77.0000469,80.8821311 76.1054914,80 75,80 C73.8945086,80 72.9999531,80.8821311 72.9999531,81.9722684 L72.9999531,84.044195 C69.6163546,84.5276938 67,87.3789502 67,90.8471991 C67,94.6528803 70.1406005,97.7498613 73.9998828,97.7498613 L75.9999297,97.7498613 C77.6542293,97.7498613 78.9999063,99.0768484 78.9999063,100.708172 C78.9999063,102.339495 77.6542293,103.666482 75.9999297,103.666482 L69.0000469,103.666482 C67.8945555,103.666482 67,104.548613 67,105.63875 C67,106.728888 67.8945555,107.611019 69.0000469,107.611019 L72.9999531,107.611019 L72.9999531,109.583287 C72.9999531,110.673424 73.8945086,111.555556 75,111.555556 C76.1054914,111.555556 77.0000469,110.673424 77.0000469,109.583287 L77.0000469,107.511361 C80.3836454,107.027862 83,104.176605 83,100.708356 C83,96.9026752 79.8593995,93.8056942 76.0001172,93.8056942 L74.0000703,93.8056942 C72.3457707,93.8056942 71.0000937,92.4787072 71.0000937,90.847384 C71.0000937,89.2160608 72.3457707,87.8890738 74.0000703,87.8890738 Z" id="Shape" fill="#333333"></path>
        </g>
    </g>
</svg>