<?xml version="1.0" encoding="UTF-8"?>
<svg width="150px" height="150px" viewBox="0 0 150 150" version="1.1" xmlns="http://www.w3.org/2000/svg" xmlns:xlink="http://www.w3.org/1999/xlink">
    <!-- Generator: Sketch 46.2 (44496) - http://www.bohemiancoding.com/sketch -->
    <title>wallet-hot</title>
    <desc>Created with Sketch.</desc>
    <defs></defs>
    <g id="Icons" stroke="none" stroke-width="1" fill="none" fill-rule="evenodd">
        <g id="wallet-hot">
            <g id="Group" transform="translate(9.000000, 15.000000)">
                <path d="M5.86732329,5.93662918 C3.77425312,9.01101412 3.77425312,15.6047014 5.86732329,25.717691 C64.2140546,29.0176361 104.517233,29.8355736 126.77686,28.1715036 C126.669552,20.4157865 126.159274,13.3881778 125.246027,7.08867768 L110.69083,3.2231405 L14.3525597,3.2231405 C9.56520669,3.7550189 6.73679455,4.65951513 5.86732329,5.93662918 Z" id="Path-6" fill="#C0392B"></path>
                <path d="M114.523558,0 L83.5713342,0 L83.5713342,6.17078202 L114.523558,6.17078202 C119.642973,6.17078202 123.809555,10.3234715 123.809555,15.4272842 L123.809555,27.8491506 C121.215841,25.8896394 118.021242,24.6837863 114.523558,24.6837863 L15.476442,24.6837863 C10.3570268,24.6837863 6.19044475,20.5310968 6.19044475,15.4272842 C6.19044475,10.3234715 10.3570268,6.17078202 15.476442,6.17078202 L83.5713342,6.17078202 L83.5713342,0 L15.476442,0 C6.94320283,0 0,6.9204909 0,15.4272842 L0,104.903294 C0,113.409429 6.94254251,120.330579 15.476442,120.330579 L114.523558,120.330579 C123.056797,120.330579 130,113.410088 130,104.903294 L130,95.6467922 L130,52.4513181 L130,40.109754 L130,15.4266259 C129.99934,6.9204909 123.056797,0 114.523558,0 Z" id="Shape" fill="#333333" fill-rule="nonzero"></path>
                <path d="M123.553719,90.2479339 L86.3930382,90.2479339 C77.8556608,90.2479339 70.9090909,83.2596039 70.9090909,74.6694215 C70.9090909,66.0792391 77.8550002,59.0909091 86.3930382,59.0909091 L123.553719,59.0909091 L123.553719,90.2479339 Z" id="Path" fill="#C0392B"></path>
                <path d="M123.553719,52.4958224 L86.5726304,52.4958224 C74.6768825,52.4958224 65,62.136596 65,73.9821161 C65,85.8276363 74.6768825,95.4684098 86.5726304,95.4684098 L123.553719,95.4684098 L123.553719,104.675699 C123.553719,109.752444 119.40592,113.884298 114.308118,113.884298 L15.6918819,113.884298 C10.5947373,113.884298 6.44628099,109.753099 6.44628099,104.675699 L6.44628099,27.9338843 C9.02279452,29.8642654 12.224535,31.0095288 15.6918819,31.0095288 L114.308118,31.0095288 C119.405263,31.0095288 123.553719,35.1407276 123.553719,40.2181274 L123.553719,52.4958224 Z" id="Path" fill="#EFC3BF"></path>
                <rect id="Rectangle-path" fill="#333333" fill-rule="nonzero" x="15.0413223" y="11.8181818" width="98.8429752" height="6.44628099"></rect>
                <path d="M77.3553719,73.4628099 C77.3553719,78.4245535 81.3929883,82.4628099 86.3553719,82.4628099 C91.3177555,82.4628099 95.3553719,78.4251935 95.3553719,73.4628099 C95.3553719,68.5004264 91.3177555,64.4628099 86.3553719,64.4628099 C81.3929883,64.4628099 77.3553719,68.5010663 77.3553719,73.4628099 Z" id="Shape" fill="#333333" fill-rule="nonzero"></path>
                <path d="M89.8016529,73.4090909 C89.8016529,75.3405116 88.2300872,76.9090909 86.3016529,76.9090909 C84.3732186,76.9090909 82.8016529,75.3412581 82.8016529,73.4090909 C82.8016529,71.4769237 84.3732186,69.9090909 86.3016529,69.9090909 C88.2300872,69.9090909 89.8016529,71.4776703 89.8016529,73.4090909 Z" id="Path" fill="#EC9990"></path>
            </g>
            <path d="M36.0011445,103.886698 C39.3601034,105.994976 46.8632212,106.421674 50.2339268,103.886698 C72.3059981,91.4078658 55.724191,72.7356912 52.8373564,70.6323759 C53.7996602,72.7356145 53.982178,76.2962093 52.0382368,78.0241845 C48.7475461,65.5553947 40.6111958,63 40.6111958,63 C41.5734996,69.4302295 37.1230267,76.4616472 32.8314418,81.7156423 C32.6806862,79.1515848 32.5204941,77.3822884 31.1711359,74.928625 C30.8682439,79.5864917 27.3058862,83.3833607 26.3412041,88.0502736 C25.0345025,94.3703389 27.3200028,98.9978472 36.0011445,103.886698 Z" id="Shape" fill="#E74C3C" fill-rule="nonzero"></path>
        </g>
    </g>
</svg>