<?xml version="1.0" encoding="UTF-8"?>
<svg width="128px" height="128px" viewBox="0 0 128 128" version="1.1" xmlns="http://www.w3.org/2000/svg" xmlns:xlink="http://www.w3.org/1999/xlink">
    <!-- Generator: Sketch 46.2 (44496) - http://www.bohemiancoding.com/sketch -->
    <title>light-bulb</title>
    <desc>Created with Sketch.</desc>
    <defs></defs>
    <g id="Icons" stroke="none" stroke-width="1" fill="none" fill-rule="evenodd">
        <g id="light-bulb">
            <circle id="Oval-2" fill="#2ECC71" cx="64" cy="64" r="64"></circle>
            <g id="Group" transform="translate(18.000000, 16.000000)" fill-rule="nonzero" fill="#FFFFFF">
                <path d="M46.5,24 C35.715408,24.0042121 26.3170657,31.4431257 23.703147,42.0440138 C21.0892283,52.6449019 25.9303473,63.6880532 35.4458857,68.8305565 L35.4458857,77.553149 C35.4458857,82.7705007 39.6203806,87 44.7698809,87 L48.2301191,87 C53.3796194,87 57.5541143,82.7705007 57.5541143,77.553149 L57.5541143,68.8305565 C67.0696527,63.6880532 71.9107717,52.6449019 69.296853,42.0440138 C66.6829343,31.4431257 57.284592,24.0042121 46.5,24 Z" id="Shape"></path>
                <path d="M45.5,14 C46.8807119,14 48,13.1360422 48,12.0702963 L48,1.92970365 C48,0.863957754 46.8807119,0 45.5,0 C44.1192881,0 43,0.863957754 43,1.92970365 L43,12.0702963 C43,13.1360422 44.1192881,14 45.5,14 Z" id="Shape"></path>
                <path d="M88.0689655,44 L77.9310345,44 C76.8645536,44 76,45.1192881 76,46.5 C76,47.8807119 76.8645536,49 77.9310345,49 L88.0689655,49 C89.1354464,49 90,47.8807119 90,46.5 C90,45.1192881 89.1354464,44 88.0689655,44 Z" id="Shape"></path>
                <path d="M12.0689655,44 L1.93103448,44 C0.864553587,44 0,45.1192881 0,46.5 C0,47.8807119 0.864553587,49 1.93103448,49 L12.0689655,49 C13.1354464,49 14,47.8807119 14,46.5 C14,45.1192881 13.1354464,44 12.0689655,44 Z" id="Shape"></path>
                <path d="M23.4049162,24.4049162 C23.7859191,24.0243369 24,23.5079063 24,22.9693862 C24,22.4308662 23.7859191,21.9144355 23.4049162,21.5338562 L16.4656759,14.5946159 C15.6728546,13.8017947 14.3874373,13.8017947 13.594616,14.594616 C12.8017947,15.3874373 12.8017947,16.6728546 13.5946159,17.4656759 L20.5338562,24.4049162 C20.9144355,24.7859191 21.4308662,25 21.9693862,25 C22.5079063,25 23.0243369,24.7859191 23.4049162,24.4049162 Z" id="Shape"></path>
                <path d="M77.4049187,14.5950813 C77.024341,14.21408 76.5079126,14 75.9693948,14 C75.430877,14 74.9144485,14.21408 74.5338709,14.5950813 L67.5946598,21.5342924 C67.0817964,22.0471557 66.8815005,22.7946702 67.0692215,23.4952546 C67.2569425,24.1958389 67.8041611,24.7430575 68.5047454,24.9307785 C69.2053298,25.1184995 69.9528443,24.9182036 70.4657076,24.4053402 L77.4049187,17.4661291 C77.78592,17.0855515 78,16.569123 78,16.0306052 C78,15.4920874 77.78592,14.975659 77.4049187,14.5950813 Z" id="Shape"></path>
            </g>
        </g>
    </g>
</svg>