<?xml version="1.0" encoding="UTF-8"?>
<svg width="128px" height="128px" viewBox="0 0 128 128" version="1.1" xmlns="http://www.w3.org/2000/svg" xmlns:xlink="http://www.w3.org/1999/xlink">
    <!-- Generator: Sketch 46.2 (44496) - http://www.bohemiancoding.com/sketch -->
    <title>star</title>
    <desc>Created with Sketch.</desc>
    <defs></defs>
    <g id="Icons" stroke="none" stroke-width="1" fill="none" fill-rule="evenodd">
        <g id="star">
            <circle id="Oval-6" fill="#2ECC71" cx="64" cy="64" r="64"></circle>
            <g id="Group" transform="translate(20.000000, 22.000000)" fill="#FFFFFF">
                <path d="M68.9907504,83.995336 C68.588836,83.995336 68.1832679,83.9295297 67.7923148,83.7906053 L44.0026382,75.3235288 L20.2166154,83.7906053 C19.109524,84.1927549 17.8745508,84.0063037 16.9172638,83.3116817 C15.9636306,82.6207156 15.4119118,81.4983527 15.4447957,80.3211513 L16.1390115,55.069814 L0.742037528,35.0464212 C0.022245439,34.1141654 -0.189673044,32.8857813 0.175703651,31.7634184 C0.541080346,30.6373996 1.43259948,29.7672941 2.56526724,29.4382627 L26.7787808,22.2946239 L41.0503945,1.45596425 C42.3767119,-0.485321415 45.6102957,-0.485321415 46.9475744,1.45596425 L61.2228418,22.2946239 L85.4363554,29.4382627 C86.5690232,29.77095 87.4605423,30.6410555 87.825919,31.7634184 C88.1876419,32.8857813 87.9793772,34.1141654 87.2595851,35.0464212 L71.8626112,55.069814 L72.5568269,80.3211513 C72.5897108,81.4983527 72.037992,82.6207156 71.0843588,83.3116817 C70.470526,83.7577021 69.7361188,83.995336 68.9907504,83.995336 Z" id="Shape" fill-rule="nonzero"></path>
                <path d="M44.4926736,67.7072286 C44.8992886,67.7072286 45.3059036,67.7761652 45.6942026,67.9104103 L65.8198131,75 L65.2337014,53.8582194 C65.2117222,53.0418644 65.4718093,52.2436506 65.9773306,51.5978231 L79,34.8317053 L58.5153961,28.8487301 C57.7241453,28.6201507 57.0391272,28.1230812 56.573901,27.451856 L44.5,10 L32.426099,27.451856 C31.9608728,28.1230812 31.2758547,28.6201507 30.4846039,28.8487301 L10,34.8317053 L23.0226694,51.5978231 C23.5245275,52.2436506 23.7882778,53.0418644 23.7626354,53.8582194 L23.1765237,75 L43.298471,67.9104103 C43.6794436,67.7761652 44.0860586,67.7072286 44.4926736,67.7072286 Z" id="Path"></path>
            </g>
        </g>
    </g>
</svg>