<?xml version="1.0" encoding="UTF-8"?>
<svg width="150px" height="150px" viewBox="0 0 150 150" version="1.1" xmlns="http://www.w3.org/2000/svg" xmlns:xlink="http://www.w3.org/1999/xlink">
    <!-- Generator: Sketch 46.2 (44496) - http://www.bohemiancoding.com/sketch -->
    <title>2fa</title>
    <desc>Created with Sketch.</desc>
    <defs></defs>
    <g id="Icons" stroke="none" stroke-width="1" fill="none" fill-rule="evenodd">
        <g id="2fa">
            <path d="M108.235088,0 L41.1616066,0 C35.5735827,0 31,4.55571429 31,10.1314286 L31,139.864286 C31,145.44 35.5735827,150 41.1616066,150 L108.235088,150 C113.823112,150 118.396694,145.448571 118.396694,139.868571 L118.396694,10.1314286 C118.396694,4.55571429 113.823112,0 108.235088,0 Z M63.9693412,7.30285714 L85.427353,7.30285714 C86.1065129,7.30285714 86.6567183,7.85142857 86.6567183,8.53285714 C86.6567183,9.21 86.1065129,9.75857143 85.427353,9.75857143 L63.9693412,9.75857143 C63.2901813,9.75857143 62.7399759,9.21 62.7399759,8.53285714 C62.7399759,7.85142857 63.2901813,7.30285714 63.9693412,7.30285714 Z M74.6983471,144.934286 C71.8914397,144.934286 69.6175438,142.667143 69.6175438,139.864286 C69.6175438,137.061429 71.8914397,134.798571 74.6983471,134.798571 C77.5052545,134.798571 79.7791504,137.061429 79.7791504,139.864286 C79.7791504,142.667143 77.5052545,144.934286 74.6983471,144.934286 Z M111.325695,131.25 L38.0709995,131.25 L38.0709995,16.0671429 L111.325695,16.0671429 L111.325695,131.25 Z" id="Shape" fill="#333333" fill-rule="nonzero"></path>
            <polygon id="Path-9" stroke="#333333" stroke-width="5" fill="#2980B9" points="58.2727273 53.3057851 58.2727273 88.9182238 74.9663656 101.652893 91.7238043 88.9182238 91.7238043 53.3057851"></polygon>
        </g>
    </g>
</svg>