<?xml version="1.0" encoding="UTF-8"?>
<svg width="150px" height="150px" viewBox="0 0 150 150" version="1.1" xmlns="http://www.w3.org/2000/svg" xmlns:xlink="http://www.w3.org/1999/xlink">
    <!-- Generator: Sketch 46.2 (44496) - http://www.bohemiancoding.com/sketch -->
    <title>accessible</title>
    <desc>Created with Sketch.</desc>
    <defs></defs>
    <g id="Icons" stroke="none" stroke-width="1" fill="none" fill-rule="evenodd">
        <g id="accessible">
            <g id="Group" transform="translate(0.000000, 8.000000)">
                <path d="M80.151913,73.2401483 C84.2128303,73.2401483 87.5048542,69.9481244 87.5048542,65.8872071 C82.6028934,65.8872071 80.151913,65.8872071 80.151913,65.8872071 C80.151913,65.8872071 77.7009326,65.8872071 72.7989719,65.8872071 C72.7989719,69.9481244 76.0909957,73.2401483 80.151913,73.2401483 Z" id="Oval" fill="#0D6331" transform="translate(80.151913, 69.563678) rotate(225.000000) translate(-80.151913, -69.563678) "></path>
                <rect id="Rectangle-2" fill="#0D6331" transform="translate(10.319218, 108.044537) rotate(170.000000) translate(-10.319218, -108.044537) " x="4.43686485" y="105.691596" width="11.7647059" height="4.70588235" rx="2.35294118"></rect>
                <rect id="Rectangle-2" fill="#0D6331" x="0" y="82.3529412" width="11.7647059" height="4.70588235" rx="2.35294118"></rect>
                <rect id="Rectangle-2" fill="#0D6331" transform="translate(11.495688, 60.397478) rotate(10.000000) translate(-11.495688, -60.397478) " x="5.61333544" y="58.0445369" width="11.7647059" height="4.70588235" rx="2.35294118"></rect>
                <rect id="Rectangle-2" fill="#2ECC71" transform="translate(140.319218, 108.044537) scale(-1, 1) rotate(170.000000) translate(-140.319218, -108.044537) " x="134.436865" y="105.691596" width="11.7647059" height="4.70588235" rx="2.35294118"></rect>
                <rect id="Rectangle-2" fill="#2ECC71" transform="translate(144.117647, 82.941176) scale(-1, 1) translate(-144.117647, -82.941176) " x="138.235294" y="80.5882353" width="11.7647059" height="4.70588235" rx="2.35294118"></rect>
                <rect id="Rectangle-2" fill="#2ECC71" transform="translate(140.319218, 57.456302) scale(-1, 1) rotate(10.000000) translate(-140.319218, -57.456302) " x="134.436865" y="55.1033605" width="11.7647059" height="4.70588235" rx="2.35294118"></rect>
                <rect id="Rectangle" fill="#565659" x="7.64705882" y="0" width="71.1764706" height="8.82352941"></rect>
                <path d="M75.4460307,77.9460307 C79.506948,77.9460307 82.7989719,74.6540068 82.7989719,70.5930895 C77.8970111,70.5930895 75.4460307,70.5930895 75.4460307,70.5930895 C75.4460307,70.5930895 72.9950503,70.5930895 68.0930895,70.5930895 C68.0930895,74.6540068 71.3851134,77.9460307 75.4460307,77.9460307 Z" id="Oval" fill="#084120" transform="translate(75.446031, 74.269560) rotate(45.000000) translate(-75.446031, -74.269560) "></path>
                <rect id="Rectangle-9" fill="#565659" x="74.1176471" y="20.5882353" width="8.23529412" height="18.8235294"></rect>
                <rect id="Rectangle" fill="#565659" x="25.2941176" y="119.411765" width="38.2352941" height="14.7058824"></rect>
                <polygon id="Path-2" fill="#2ECC71" points="16.4705882 8.23529412 19.2806731 22.1345915 78.2957405 22.1345915 78.2957405 8.23529412"></polygon>
                <polyline id="Path-3" fill="#2ECC71" points="39.289294 22.3529412 31.7647059 119.776152 49.4826961 119.776152 54.3395653 22.3529412"></polyline>
                <rect id="Rectangle" fill="#29292A" transform="translate(114.411765, 4.411765) scale(-1, 1) translate(-114.411765, -4.411765) " x="78.8235294" y="0" width="71.1764706" height="8.82352941"></rect>
                <rect id="Rectangle" fill="#29292A" transform="translate(110.882353, 126.764706) scale(-1, 1) translate(-110.882353, -126.764706) " x="91.7647059" y="119.411765" width="38.2352941" height="14.7058824"></rect>
                <polygon id="Path-2" fill="#27AE60" transform="translate(109.147870, 15.184943) scale(-1, 1) translate(-109.147870, -15.184943) " points="78.2352941 8.23529412 81.045379 22.1345915 140.060446 22.1345915 140.060446 8.23529412"></polygon>
                <polyline id="Path-3" fill="#27AE60" transform="translate(113.640371, 71.064547) scale(-1, 1) translate(-113.640371, -71.064547) " points="109.877529 22.3529412 102.352941 119.776152 120.070931 119.776152 124.927801 22.3529412"></polyline>
                <polygon id="Path-19" fill="#27AE60" transform="translate(104.226247, 42.585143) scale(-1, 1) translate(-104.226247, -42.585143) " points="78.2352941 35.2941176 81.0175815 49.8761688 130.217199 49.8761688 130.217199 35.2941176"></polygon>
                <polygon id="Path-19" fill="#2ECC71" points="26.4705882 35.2941176 29.2528756 49.8761688 78.452493 49.8761688 78.452493 35.2941176"></polygon>
                <path d="M71.3739467,117.797888 C71.3739467,117.797888 71.3739467,112.509385 71.3739467,101.932379 C66.938899,101.932379 65.2941176,102.364427 65.2941176,100.37821 C65.2941176,90.3662155 65.2941176,85.3602182 65.2941176,85.3602182 C66.1535496,81.4828333 68.3787664,79.3039371 71.9697679,78.8235294 C75.6913443,78.8235294 77.5504273,78.8235294 77.5470168,78.8235294 L77.5470168,117.797888 L71.3739467,117.797888 Z M83.8201336,117.797888 L77.6470635,117.797888 L77.6470635,78.8235294 C77.6436531,78.8235294 79.5027361,78.8235294 83.2243125,78.8235294 C86.815314,79.3039371 89.0405307,81.4828333 89.8999627,85.3602182 C89.8999627,85.3602182 89.8999627,90.3662155 89.8999627,100.37821 C89.8999627,102.364427 88.2551813,101.932379 83.8201336,101.932379 C83.8201336,112.509385 83.8201336,117.797888 83.8201336,117.797888 Z" id="Combined-Shape" fill="#084120"></path>
            </g>
        </g>
    </g>
</svg>