<?xml version="1.0" encoding="UTF-8"?>
<svg width="150px" height="150px" viewBox="0 0 150 150" version="1.1" xmlns="http://www.w3.org/2000/svg" xmlns:xlink="http://www.w3.org/1999/xlink">
    <!-- Generator: Sketch 46.2 (44496) - http://www.bohemiancoding.com/sketch -->
    <title>atm</title>
    <desc>Created with Sketch.</desc>
    <defs></defs>
    <g id="Icons" stroke="none" stroke-width="1" fill="none" fill-rule="evenodd">
        <g id="atm">
            <polyline id="Shape" stroke="#333333" stroke-width="4" fill="#7F8C8D" points="37.0824789 87 8 87 8 27 143.529999 27 143.529999 87 114.729874 87"></polyline>
            <path d="M36.9500008,57 L36.9500008,142.993079 C36.9500008,147.278448 40.3375606,150.421053 44.5720103,150.421053 L106.95957,150.421053 C111.19402,150.421053 114.58158,146.992757 114.58158,142.993079 L114.58158,57 L36.9500008,57 Z" id="Shape" fill="#F1C40F"></path>
            <rect id="Rectangle-path" fill="#ECF0F1" x="94.9473684" y="63.5789474" width="14" height="30" rx="7"></rect>
            <rect id="Rectangle-7" fill="#34495E" x="49.4473684" y="56.5789474" width="21.0526316" height="93.4210526"></rect>
            <path d="M23.7894737,57 L128.394737,57" id="Shape" stroke="#333333" stroke-width="4"></path>
            <rect id="Rectangle-17" fill="#F9EAB0" x="76" y="95" width="4" height="22" rx="2"></rect>
            <rect id="Rectangle-17" fill="#F9EAB0" x="76" y="122" width="4" height="22" rx="2"></rect>
            <rect id="Rectangle-17" fill="#F9EAB0" x="85" y="136" width="4" height="8" rx="2"></rect>
            <rect id="Rectangle-17" fill="#F9EAB0" x="85" y="105.5" width="4" height="8" rx="2"></rect>
            <rect id="Rectangle-17" fill="#F9EAB0" x="85" y="116.5" width="4" height="9" rx="2"></rect>
            <rect id="Rectangle-17" fill="#F9EAB0" x="85" y="127.5" width="4" height="6" rx="2"></rect>
            <rect id="Rectangle-17" fill="#F9EAB0" x="85" y="95" width="4" height="8" rx="2"></rect>
        </g>
    </g>
</svg>