<?xml version="1.0" encoding="UTF-8"?>
<svg width="150px" height="150px" viewBox="0 0 150 150" version="1.1" xmlns="http://www.w3.org/2000/svg" xmlns:xlink="http://www.w3.org/1999/xlink">
    <!-- Generator: Sketch 46.2 (44496) - http://www.bohemiancoding.com/sketch -->
    <title>back-up</title>
    <desc>Created with Sketch.</desc>
    <defs></defs>
    <g id="Icons" stroke="none" stroke-width="1" fill="none" fill-rule="evenodd">
        <g id="back-up" fill-rule="nonzero">
            <g id="Group" transform="translate(17.000000, 17.000000)">
                <path d="M7.31260445,0 L109.687396,0 C113.72391,0 117,3.27232991 117,7.31260445 L117,109.687396 C117,113.72767 113.72391,117 109.687396,117 L7.31260445,117 C3.27609025,116.999582 0,113.727252 0,109.687396 L0,7.31260445 C0,3.27609025 3.27609025,0 7.31260445,0 Z" id="Shape" fill="#22313F"></path>
                <path d="M21.3334381,74 L94.6665619,74 C98.7145762,74 102,77.2107398 102,81.1667349 L102,117 L14,117 L14,81.1667349 C14,77.2107398 17.2854238,74 21.3334381,74 Z" id="Shape" fill="#BDC3C7"></path>
                <path d="M21.3334381,66 L94.6665619,66 C98.7145762,66 102,69.2256428 102,73.2 L102,84 L14,84 L14,73.2 C14,69.2256428 17.2854238,66 21.3334381,66 Z" id="Shape" fill="#ECF0F1"></path>
                <path d="M102,0 L102,43.7141668 C102,47.73965 98.7145762,51 94.6665619,51 L21.3334381,51 C17.2854238,51 14,47.73965 14,43.7141668 L14,0 L102,0 Z" id="Shape" fill="#34495E"></path>
                <path d="M51,0 L51,39.4165984 C51,41.3944101 52.6051652,43 54.5833675,43 L90.4166325,43 C92.3981107,43 94,41.3948195 94,39.4165984 L94,0 L51,0 Z M86.8332651,29.307627 C86.8332651,30.9123438 85.2313758,32.2150549 83.2498976,32.2150549 L79.6665302,32.2150549 C77.685052,32.2150549 76.0831627,30.9126761 76.0831627,29.307627 L76.0831627,11.8633919 C76.0831627,10.2586751 77.685052,8.955964 79.6665302,8.955964 L83.2498976,8.955964 C85.2313758,8.955964 86.8332651,10.2583429 86.8332651,11.8633919 L86.8332651,29.307627 Z" id="Shape" fill="#BDC3C7"></path>
            </g>
        </g>
    </g>
</svg>