<?xml version="1.0" encoding="UTF-8"?>
<svg width="150px" height="150px" viewBox="0 0 150 150" version="1.1" xmlns="http://www.w3.org/2000/svg" xmlns:xlink="http://www.w3.org/1999/xlink">
    <!-- Generator: Sketch 46.2 (44496) - http://www.bohemiancoding.com/sketch -->
    <title>bank-account</title>
    <desc>Created with Sketch.</desc>
    <defs></defs>
    <g id="Icons" stroke="none" stroke-width="1" fill="none" fill-rule="evenodd">
        <g id="bank-account" fill-rule="nonzero">
            <path d="M120.215385,13.257874 L108.207358,13.257874 L103.704348,2.53937008 C103.056856,1.00393701 101.555853,0 99.8782609,0 L50.9043478,0 C49.2267559,0 47.7257525,1.00393701 47.0782609,2.53937008 L42.5752508,13.257874 L30.5672241,13.257874 C23.709699,13.257874 18.1177258,18.8681102 18.1177258,25.7480315 L18.1177258,137.480315 C18.1177258,144.360236 23.709699,149.970472 30.5672241,149.970472 L120.215385,149.970472 C127.07291,149.970472 132.664883,144.360236 132.664883,137.480315 L132.664883,25.7480315 C132.664883,18.8681102 127.102341,13.257874 120.215385,13.257874 Z M53.670903,8.32677165 L97.1117057,8.32677165 L101.90903,19.753937 L48.8735786,19.753937 L53.670903,8.32677165 Z M124.365217,137.509843 C124.365217,139.812992 122.511037,141.673228 120.215385,141.673228 L30.5672241,141.673228 C28.2715719,141.673228 26.4173913,139.812992 26.4173913,137.509843 L26.4173913,25.7480315 C26.4173913,23.4448819 28.2715719,21.5846457 30.5672241,21.5846457 L39.0729097,21.5846457 L38.7785953,22.2933071 C37.6896321,25.6003937 39.9264214,28.0807087 42.6046823,28.0807087 L108.177926,28.0807087 C111.385953,28.0807087 113.122408,24.9212598 112.004013,22.2933071 L111.709699,21.5846457 L120.215385,21.5846457 C122.511037,21.5846457 124.365217,23.4448819 124.365217,25.7480315 L124.365217,137.509843 Z" id="Shape" fill="#333333"></path>
            <path d="M113.740468,38.3858268 L92.0789298,38.3858268 C89.7832776,38.3858268 87.929097,40.246063 87.929097,42.5492126 C87.929097,44.8523622 89.7832776,46.7125984 92.0789298,46.7125984 L113.740468,46.7125984 C116.03612,46.7125984 117.890301,44.8523622 117.890301,42.5492126 C117.919732,40.246063 116.03612,38.3858268 113.740468,38.3858268 Z" id="Shape" fill="#333333"></path>
            <path d="M113.740468,59.3208661 L92.0789298,59.3208661 C89.7832776,59.3208661 87.929097,61.1811024 87.929097,63.484252 C87.929097,65.7874016 89.7832776,67.6476378 92.0789298,67.6476378 L113.740468,67.6476378 C116.03612,67.6476378 117.890301,65.7874016 117.890301,63.484252 C117.919732,61.2106299 116.03612,59.3208661 113.740468,59.3208661 Z" id="Shape" fill="#333333"></path>
            <path d="M113.740468,80.2854331 L92.0789298,80.2854331 C89.7832776,80.2854331 87.929097,82.1456693 87.929097,84.4488189 C87.929097,86.7519685 89.7832776,88.6122047 92.0789298,88.6122047 L113.740468,88.6122047 C116.03612,88.6122047 117.890301,86.7519685 117.890301,84.4488189 C117.919732,82.1456693 116.03612,80.2854331 113.740468,80.2854331 Z" id="Shape" fill="#333333"></path>
            <path d="M113.740468,101.25 L37.0421405,101.25 C34.7464883,101.25 32.8923077,103.110236 32.8923077,105.413386 C32.8923077,107.716535 34.7464883,109.576772 37.0421405,109.576772 L113.7699,109.576772 C116.065552,109.576772 117.919732,107.716535 117.919732,105.413386 C117.919732,103.110236 116.03612,101.25 113.740468,101.25 Z" id="Shape" fill="#333333"></path>
            <path d="M113.740468,122.214567 L37.0421405,122.214567 C34.7464883,122.214567 32.8923077,124.074803 32.8923077,126.377953 C32.8923077,128.681102 34.7464883,130.541339 37.0421405,130.541339 L113.7699,130.541339 C116.065552,130.541339 117.919732,128.681102 117.919732,126.377953 C117.919732,124.074803 116.03612,122.214567 113.740468,122.214567 Z" id="Shape" fill="#333333"></path>
            <path d="M56.2718423,54.1255709 L66.5434095,54.1255709 C68.1655979,54.1255709 69.4782609,52.8311393 69.4782609,51.2314813 C69.4782609,49.6318233 68.1655979,48.3373917 66.5434095,48.3373917 L60.6739818,48.3373917 L60.6739818,45.4433022 C60.6739818,43.8436441 59.3613188,42.5492126 57.7391304,42.5492126 C56.116942,42.5492126 54.804279,43.8436441 54.804279,45.4433022 L54.804279,48.4836291 C49.8392159,49.1931111 46,53.3770199 46,58.4662982 C46,64.0507218 50.6084898,68.5952048 56.2715672,68.5952048 L59.2064186,68.5952048 C61.6339234,68.5952048 63.6085581,70.542414 63.6085581,72.9362035 C63.6085581,75.3299929 61.6339234,77.2772022 59.2064186,77.2772022 L48.9348514,77.2772022 C47.312663,77.2772022 46,78.5716337 46,80.1712917 C46,81.7709497 47.312663,83.0653813 48.9348514,83.0653813 L54.804279,83.0653813 L54.804279,85.9594709 C54.804279,87.5591289 56.116942,88.8535604 57.7391304,88.8535604 C59.3613188,88.8535604 60.6739818,87.5591289 60.6739818,85.9594709 L60.6739818,82.9191439 C65.6390449,82.2096619 69.4782609,78.0257531 69.4782609,72.9364748 C69.4782609,67.3520513 64.8697711,62.8075683 59.2066937,62.8075683 L56.2718423,62.8075683 C53.8443375,62.8075683 51.8697028,60.860359 51.8697028,58.4665696 C51.8697028,56.0727801 53.8443375,54.1255709 56.2718423,54.1255709 Z" id="Shape" fill="#27AE60"></path>
        </g>
    </g>
</svg>