<?xml version="1.0" encoding="UTF-8"?>
<svg width="150px" height="150px" viewBox="0 0 150 150" version="1.1" xmlns="http://www.w3.org/2000/svg" xmlns:xlink="http://www.w3.org/1999/xlink">
    <!-- Generator: Sketch 46.2 (44496) - http://www.bohemiancoding.com/sketch -->
    <title>bitcoin-transaction</title>
    <desc>Created with Sketch.</desc>
    <defs></defs>
    <g id="Icons" stroke="none" stroke-width="1" fill="none" fill-rule="evenodd">
        <g id="bitcoin-transaction">
            <circle id="Oval-10" stroke="#333333" stroke-width="3" fill="#F39C12" cx="49" cy="95" r="40"></circle>
            <circle id="Oval-10" stroke="#333333" stroke-width="3" fill="#F1C40F" cx="98" cy="55" r="40"></circle>
            <g id="Group-2" transform="translate(74.500000, 73.000000) rotate(90.000000) translate(-74.500000, -73.000000) translate(8.500000, 7.500000)" fill-rule="nonzero" fill="#333333">
                <path d="M34.1516393,105.135246 C32.7397541,103.723361 30.4754098,103.723361 29.0635246,105.135246 C27.6516393,106.547131 27.6516393,108.811475 29.0635246,110.223361 L32.4467213,113.606557 C18.1946721,111.608607 7.19262295,99.3811475 7.19262295,84.5963115 C7.19262295,82.5983607 5.56762295,81 3.59631148,81 C1.625,81 -5.32907052e-15,82.625 -5.32907052e-15,84.5963115 C-5.32907052e-15,103.536885 14.4918033,119.147541 32.9528689,120.959016 L29.0635246,124.848361 C27.6516393,126.260246 27.6516393,128.52459 29.0635246,129.936475 C30.5819672,131.454918 33.1659836,131.081967 34.1516393,129.936475 L44.0081967,120.079918 C45.420082,118.668033 45.420082,116.403689 44.0081967,114.991803 L34.1516393,105.135246 Z" id="Shape"></path>
                <path d="M96.9154713,25.8601434 C98.2207992,27.1654713 100.804816,27.0855533 102.003586,25.8601434 C103.415471,24.4482582 103.415471,22.1839139 102.003586,20.7720287 L98.6203893,17.388832 C112.872439,19.3867828 123.874488,31.6142418 123.874488,46.3990779 C123.874488,48.3970287 125.499488,49.9953893 127.470799,49.9953893 C129.442111,49.9953893 131.067111,48.3703893 131.067111,46.3990779 C131.067111,27.4585041 116.575307,11.8478484 98.1142418,10.036373 L102.003586,6.14702869 C103.415471,4.73514344 103.415471,2.47079918 102.003586,1.05891393 C100.591701,-0.352971311 98.3007172,-0.352971311 96.9154713,1.05891393 L87.0589139,10.9154713 C85.6470287,12.3273566 85.6470287,14.5917008 87.0589139,16.0035861 L96.9154713,25.8601434 Z" id="Shape"></path>
            </g>
            <path d="M99.347076,74 C100.795746,74 101.969579,72.8258181 101.969579,71.3774973 L101.969579,68.0266383 L103.418599,68.0266383 C108.523388,68.0266383 112.676033,63.8739927 112.676033,58.7692039 L112.676033,58.6352814 C112.676033,55.1298695 110.717548,52.0734301 107.837341,50.5023761 C108.822353,49.0316767 109.397905,47.2648092 109.397905,45.3654179 L109.397905,45.2311458 C109.397905,40.7529602 106.200899,37.0076768 101.969928,36.1562376 L101.969928,32.6225027 C101.969928,31.1741819 100.796096,30 99.3474256,30 C97.8987552,30 96.724923,31.1741819 96.724923,32.6225027 L96.724923,35.9733617 L91.9187498,35.9733617 C90.4700793,35.9733617 89.2962471,37.1475436 89.2962471,38.5958644 L89.2962471,51.9996503 L89.2962471,65.4034363 C89.2962471,66.8517571 90.4700793,68.0259389 91.9187498,68.0259389 L96.7245733,68.0259389 L96.7245733,71.376798 C96.7245733,72.8258181 97.8984055,74 99.347076,74 Z M94.5412524,41.2187167 L100.14047,41.2187167 C102.352814,41.2187167 104.1529,43.0184529 104.1529,45.2311458 L104.1529,45.3654179 C104.1529,47.5777612 102.353163,49.377847 100.14047,49.377847 L94.5412524,49.377847 L94.5412524,41.2187167 Z M94.5412524,54.6225027 L100.14047,54.6225027 L103.418599,54.6225027 C105.630942,54.6225027 107.431028,56.4222388 107.431028,58.6349317 L107.431028,58.7688542 C107.431028,60.9815471 105.631292,62.7812833 103.418599,62.7812833 L94.5412524,62.7812833 L94.5412524,54.6225027 Z" id="Shape" fill="#333333" fill-rule="nonzero"></path>
            <path d="M47.0508289,118 C48.4994993,118 49.6733315,116.825818 49.6733315,115.377497 L49.6733315,112.026638 L51.1223517,112.026638 C56.2271405,112.026638 60.3797861,107.873993 60.3797861,102.769204 L60.3797861,102.635281 C60.3797861,99.1298695 58.4213011,96.0734301 55.5410938,94.5023761 C56.5261058,93.0316767 57.1016577,91.2648092 57.1016577,89.3654179 L57.1016577,89.2311458 C57.1016577,84.7529602 53.9046522,81.0076768 49.6736812,80.1562376 L49.6736812,76.6225027 C49.6736812,75.1741819 48.499849,74 47.0511785,74 C45.6025081,74 44.4286759,75.1741819 44.4286759,76.6225027 L44.4286759,79.9733617 L39.6225027,79.9733617 C38.1738322,79.9733617 37,81.1475436 37,82.5958644 L37,95.9996503 L37,109.403436 C37,110.851757 38.1738322,112.025939 39.6225027,112.025939 L44.4283262,112.025939 L44.4283262,115.376798 C44.4283262,116.825818 45.6021584,118 47.0508289,118 Z M42.2450053,85.2187167 L47.8442233,85.2187167 C50.0565666,85.2187167 51.8566524,87.0184529 51.8566524,89.2311458 L51.8566524,89.3654179 C51.8566524,91.5777612 50.0569163,93.377847 47.8442233,93.377847 L42.2450053,93.377847 L42.2450053,85.2187167 Z M42.2450053,98.6225027 L47.8442233,98.6225027 L51.1223517,98.6225027 C53.3346949,98.6225027 55.1347807,100.422239 55.1347807,102.634932 L55.1347807,102.768854 C55.1347807,104.981547 53.3350446,106.781283 51.1223517,106.781283 L42.2450053,106.781283 L42.2450053,98.6225027 Z" id="Shape" fill="#333333" fill-rule="nonzero"></path>
        </g>
    </g>
</svg>