<?xml version="1.0" encoding="UTF-8"?>
<svg width="150px" height="150px" viewBox="0 0 150 150" version="1.1" xmlns="http://www.w3.org/2000/svg" xmlns:xlink="http://www.w3.org/1999/xlink">
    <!-- Generator: Sketch 46.2 (44496) - http://www.bohemiancoding.com/sketch -->
    <title>blockchain</title>
    <desc>Created with Sketch.</desc>
    <defs>
        <rect id="path-1" x="0" y="100.93617" width="49.4680851" height="48.6702128" rx="12"></rect>
        <rect id="path-2" x="2.39361702" y="2" width="49.4680851" height="48.6702128" rx="12"></rect>
        <rect id="path-3" x="100.531915" y="100.93617" width="49.4680851" height="48.6702128" rx="12"></rect>
        <rect id="path-4" x="100.531915" y="2" width="49.4680851" height="48.6702128" rx="12"></rect>
    </defs>
    <g id="Icons" stroke="none" stroke-width="1" fill="none" fill-rule="evenodd">
        <g id="blockchain">
            <g id="Rectangle">
                <use fill="#ECF0F1" fill-rule="evenodd" xlink:href="#path-1"></use>
                <rect stroke="#333333" stroke-width="3" x="1.5" y="102.43617" width="46.4680851" height="45.6702128" rx="12"></rect>
            </g>
            <g id="Rectangle">
                <use fill="#ECF0F1" fill-rule="evenodd" xlink:href="#path-2"></use>
                <rect stroke="#333333" stroke-width="3" x="3.89361702" y="3.5" width="46.4680851" height="45.6702128" rx="12"></rect>
            </g>
            <g id="Rectangle">
                <use fill="#ECF0F1" fill-rule="evenodd" xlink:href="#path-3"></use>
                <rect stroke="#333333" stroke-width="3" x="102.031915" y="102.43617" width="46.4680851" height="45.6702128" rx="12"></rect>
            </g>
            <g id="Rectangle">
                <use fill="#ECF0F1" fill-rule="evenodd" xlink:href="#path-4"></use>
                <rect stroke="#333333" stroke-width="3" x="102.031915" y="3.5" width="46.4680851" height="45.6702128" rx="12"></rect>
            </g>
            <g id="Group" transform="translate(13.000000, 8.000000)" fill-rule="nonzero" fill="#333333">
                <path d="M56.563335,125.549202 L47.1465858,125.549202 C42.6655121,125.549202 38.9637556,121.93531 38.9637556,117.417944 L38.9637556,114.836593 C38.9637556,110.383761 42.600569,106.705335 47.1465858,106.705335 L57.8621969,106.705335 C62.3432707,106.705335 66.0450272,110.319227 66.0450272,114.836593 L66.0450272,118.70862 C66.0450272,119.805695 66.8892875,120.644634 67.9933201,120.644634 C69.0973528,120.644634 69.9416131,119.805695 69.9416131,118.70862 L69.9416131,114.836593 C69.9416131,108.254146 64.551336,102.833307 57.8621969,102.833307 L47.1465858,102.833307 C40.5223899,102.833307 35.0671697,108.189612 35.0671697,114.836593 L35.0671697,117.417944 C35.0671697,124.000391 40.4574468,129.42123 47.1465858,129.42123 L56.563335,129.42123 C57.6673676,129.42123 58.5116279,128.58229 58.5116279,127.485216 C58.5116279,126.388141 57.6024245,125.549202 56.563335,125.549202 Z" id="Shape"></path>
                <path d="M78.6439881,102.833307 L70.5261009,102.833307 C69.4220683,102.833307 68.577808,103.672247 68.577808,104.769321 C68.577808,105.866395 69.4220683,106.705335 70.5261009,106.705335 L78.6439881,106.705335 C83.1250619,106.705335 86.8268184,110.319227 86.8268184,114.836593 L86.8268184,117.417944 C86.8268184,121.870776 83.1900049,125.549202 78.6439881,125.549202 L69.227239,125.549202 C64.7461653,125.549202 61.0444087,121.93531 61.0444087,117.417944 L61.0444087,113.545917 C61.0444087,112.448842 60.2001484,111.609903 59.0961158,111.609903 C57.9920831,111.609903 57.1478229,112.448842 57.1478229,113.545917 L57.1478229,117.417944 C57.1478229,124.000391 62.5381,129.42123 69.227239,129.42123 L78.6439881,129.42123 C85.2681841,129.42123 90.7234043,124.064925 90.7234043,117.417944 L90.7234043,114.836593 C90.7234043,108.254146 85.3331272,102.833307 78.6439881,102.833307 Z" id="Shape"></path>
                <path d="M116.031775,67.0045776 L106.615026,67.0045776 C102.133952,67.0045776 98.4321956,63.3906852 98.4321956,58.8733197 L98.4321956,56.2919681 C98.4321956,51.8391364 102.069009,48.1607102 106.615026,48.1607102 L117.330637,48.1607102 C121.811711,48.1607102 125.513467,51.7746026 125.513467,56.2919681 L125.513467,60.1639956 C125.513467,61.2610701 126.357727,62.1000094 127.46176,62.1000094 C128.565793,62.1000094 129.410053,61.2610701 129.410053,60.1639956 L129.410053,56.2919681 C129.410053,49.7095212 124.019776,44.2886827 117.330637,44.2886827 L106.615026,44.2886827 C99.9908299,44.2886827 94.5356097,49.6449875 94.5356097,56.2919681 L94.5356097,58.8733197 C94.5356097,65.4557666 99.9258868,70.8766051 106.615026,70.8766051 L116.031775,70.8766051 C117.135808,70.8766051 117.980068,70.0376658 117.980068,68.9405913 C117.980068,67.8435169 117.070865,67.0045776 116.031775,67.0045776 Z" id="Shape" transform="translate(111.972831, 57.582644) rotate(90.000000) translate(-111.972831, -57.582644) "></path>
                <path d="M116.681206,65.7199049 L108.563319,65.7199049 C107.459286,65.7199049 106.615026,66.5588442 106.615026,67.6559186 C106.615026,68.7529931 107.459286,69.5919324 108.563319,69.5919324 L116.681206,69.5919324 C121.16228,69.5919324 124.864036,73.2058248 124.864036,77.7231902 L124.864036,80.3045419 C124.864036,84.7573736 121.227223,88.4357997 116.681206,88.4357997 L107.264457,88.4357997 C102.783383,88.4357997 99.0816265,84.8219074 99.0816265,80.3045419 L99.0816265,76.4325144 C99.0816265,75.3354399 98.2373663,74.4965006 97.1333336,74.4965006 C96.029301,74.4965006 95.1850407,75.3354399 95.1850407,76.4325144 L95.1850407,80.3045419 C95.1850407,86.8869887 100.575318,92.3078273 107.264457,92.3078273 L116.681206,92.3078273 C123.305402,92.3078273 128.760622,86.9515225 128.760622,80.3045419 L128.760622,77.7231902 C128.760622,71.1407434 123.370345,65.7199049 116.681206,65.7199049 Z" id="Shape" transform="translate(111.972831, 79.013866) rotate(90.000000) translate(-111.972831, -79.013866) "></path>
                <path d="M77.2826317,22.9444693 L67.8658826,22.9444693 C63.3848089,22.9444693 59.6830523,19.330577 59.6830523,14.8132115 L59.6830523,12.2318598 C59.6830523,7.77902815 63.3198658,4.10060199 67.8658826,4.10060199 L78.5814937,4.10060199 C83.0625674,4.10060199 86.764324,7.71449436 86.764324,12.2318598 L86.764324,16.1038873 C86.764324,17.2009618 87.6085842,18.0399011 88.7126169,18.0399011 C89.8166495,18.0399011 90.6609098,17.2009618 90.6609098,16.1038873 L90.6609098,12.2318598 C90.6609098,5.649413 85.2706327,0.228574456 78.5814937,0.228574456 L67.8658826,0.228574456 C61.2416867,0.228574456 55.7864665,5.58487921 55.7864665,12.2318598 L55.7864665,14.8132115 C55.7864665,21.3956583 61.1767436,26.8164969 67.8658826,26.8164969 L77.2826317,26.8164969 C78.3866644,26.8164969 79.2309247,25.9775576 79.2309247,24.8804831 C79.2309247,23.7834086 78.3217213,22.9444693 77.2826317,22.9444693 Z" id="Shape" transform="translate(73.223688, 13.522536) rotate(180.000000) translate(-73.223688, -13.522536) "></path>
                <path d="M56.5008405,0.228574456 L48.3829534,0.228574456 C47.2789207,0.228574456 46.4346604,1.06751376 46.4346604,2.16458822 C46.4346604,3.26166269 47.2789207,4.10060199 48.3829534,4.10060199 L56.5008405,4.10060199 C60.9819143,4.10060199 64.6836708,7.71449436 64.6836708,12.2318598 L64.6836708,14.8132115 C64.6836708,19.2660432 61.0468574,22.9444693 56.5008405,22.9444693 L47.0840914,22.9444693 C42.6030177,22.9444693 38.9012611,19.330577 38.9012611,14.8132115 L38.9012611,10.941184 C38.9012611,9.8441095 38.0570009,9.0051702 36.9529682,9.0051702 C35.8489355,9.0051702 35.0046753,9.8441095 35.0046753,10.941184 L35.0046753,14.8132115 C35.0046753,21.3956583 40.3949524,26.8164969 47.0840914,26.8164969 L56.5008405,26.8164969 C63.1250365,26.8164969 68.5802567,21.4601921 68.5802567,14.8132115 L68.5802567,12.2318598 C68.5802567,5.649413 63.1899796,0.228574456 56.5008405,0.228574456 Z" id="Shape" transform="translate(51.792466, 13.522536) rotate(180.000000) translate(-51.792466, -13.522536) "></path>
                <path d="M17.7618566,67.232025 L8.34510744,67.232025 C3.86403372,67.232025 0.162277163,63.6181326 0.162277163,59.1007672 L0.162277163,56.5194155 C0.162277163,52.0665838 3.79909062,48.3881577 8.34510744,48.3881577 L19.0607185,48.3881577 C23.5417923,48.3881577 27.2435488,52.00205 27.2435488,56.5194155 L27.2435488,60.391443 C27.2435488,61.4885175 28.0878091,62.3274568 29.1918417,62.3274568 C30.2958744,62.3274568 31.1401347,61.4885175 31.1401347,60.391443 L31.1401347,56.5194155 C31.1401347,49.9369687 25.7498576,44.5161301 19.0607185,44.5161301 L8.34510744,44.5161301 C1.7209115,44.5161301 -3.73430869,49.8724349 -3.73430869,56.5194155 L-3.73430869,59.1007672 C-3.73430869,65.683214 1.6559684,71.1040525 8.34510744,71.1040525 L17.7618566,71.1040525 C18.8658892,71.1040525 19.7101495,70.2651132 19.7101495,69.1680388 C19.7101495,68.0709643 18.8009461,67.232025 17.7618566,67.232025 Z" id="Shape" transform="translate(13.702913, 57.810091) rotate(90.000000) translate(-13.702913, -57.810091) "></path>
                <path d="M18.4112876,65.9473523 L10.2934004,65.9473523 C9.18936771,65.9473523 8.34510744,66.7862916 8.34510744,67.8833661 C8.34510744,68.9804405 9.18936771,69.8193798 10.2934004,69.8193798 L18.4112876,69.8193798 C22.8923613,69.8193798 26.5941178,73.4332722 26.5941178,77.9506377 L26.5941178,80.5319893 C26.5941178,84.984821 22.9573044,88.6632472 18.4112876,88.6632472 L8.99453842,88.6632472 C4.51346469,88.6632472 0.811708137,85.0493548 0.811708137,80.5319893 L0.811708137,76.6599618 C0.811708137,75.5628873 -0.0325521297,74.723948 -1.13658479,74.723948 C-2.24061744,74.723948 -3.08487771,75.5628873 -3.08487771,76.6599618 L-3.08487771,80.5319893 C-3.08487771,87.1144362 2.30539938,92.5352747 8.99453842,92.5352747 L18.4112876,92.5352747 C25.0354835,92.5352747 30.4907037,87.1789699 30.4907037,80.5319893 L30.4907037,77.9506377 C30.4907037,71.3681909 25.1004266,65.9473523 18.4112876,65.9473523 Z" id="Shape" transform="translate(13.702913, 79.241314) rotate(90.000000) translate(-13.702913, -79.241314) "></path>
            </g>
            <g id="Group-2" transform="translate(57.000000, 51.000000)">
                <path d="M39,43.000432 C39,45.2133909 37.2050209,47 34.9816946,47 L4.01830544,47 C1.79497908,47 0,45.2133909 0,43.000432 L0,24.4643629 C0,22.2514039 1.79497908,20.4647948 4.01830544,20.4647948 L4.36506276,20.4647948 L4.36506276,15.5516199 C4.36506276,7.32915767 10.7698745,0.324838013 19.0308577,0.0203023758 C19.2348326,0.0203023758 19.41841,0 19.6223849,0 C28.0261506,0 34.8797071,6.8012959 34.8797071,15.1861771 L34.8797071,20.4647948 L34.9816946,20.4647948 C37.2050209,20.4647948 39,22.2514039 39,24.4643629 L39,43.000432 L39,43.000432 Z" id="Path" fill="#34495E"></path>
                <path d="M19.5,7 C19.2375297,7 18.9548694,7.020558 18.672209,7.04111601 C14.2707838,7.47283407 11,11.3994126 11,15.9016153 L11,21 L27.97981,21 L28,21 L27.97981,15.6549192 C28,10.8854626 24.1840855,7 19.5,7 Z" id="Shape" fill="#FFFFFF" fill-rule="nonzero"></path>
                <path d="M19,43 C16.8,43 15,41.2 15,39 L15,31 C15,28.8 16.8,27 19,27 C21.2,27 23,28.8 23,31 L23,39 C23,41.2 21.2,43 19,43 Z" id="Path" fill="#FFFFFF"></path>
            </g>
        </g>
    </g>
</svg>