<?xml version="1.0" encoding="UTF-8"?>
<svg width="150px" height="150px" viewBox="0 0 150 150" version="1.1" xmlns="http://www.w3.org/2000/svg" xmlns:xlink="http://www.w3.org/1999/xlink">
    <!-- Generator: Sketch 46.2 (44496) - http://www.bohemiancoding.com/sketch -->
    <title>cheap</title>
    <desc>Created with Sketch.</desc>
    <defs></defs>
    <g id="Icons" stroke="none" stroke-width="1" fill="none" fill-rule="evenodd">
        <g id="cheap">
            <path d="M59.6735632,142.220353 C56.2965517,142.220353 52.9195402,140.92094 50.3218391,138.322115 L5.90114943,93.6223291 C3.56321839,91.2833868 2.0045977,87.9049145 2.0045977,84.2665598 C2.0045977,80.8880876 3.30344828,77.5096154 5.90114943,74.9107906 L56.816092,24.2337073 C57.5954023,23.4540598 59.4137931,22.4145299 64.3494253,21.375 C76.8183908,18.7761752 103.574713,15.9174679 118.641379,14.3581731 C122.018391,14.0982906 124.616092,14.877938 126.434483,16.9569979 C128.252874,18.7761752 129.032184,21.375 128.772414,24.4935897 C124.616092,83.2270299 121.498851,86.0857372 120.2,87.3851496 L69.0252874,138.322115 C66.6873563,140.661058 63.3103448,142.220353 59.6735632,142.220353 Z" id="Shape" fill="#000000" fill-rule="nonzero"></path>
            <path d="M119.68046,19.5558226 C119.42069,19.5558226 119.16092,19.5558226 118.901149,19.5558226 C106.951724,20.5953526 77.8574713,23.7139423 65.3885057,26.3127671 C61.2321839,27.0924145 60.4528736,27.6121795 60.4528736,27.872062 L9.53793103,78.8090278 C6.42068966,81.9276175 6.42068966,86.8653846 9.53793103,89.9839744 L54.2183908,134.683761 C57.0758621,137.542468 62.5310345,137.542468 65.3885057,134.683761 L116.303448,83.7467949 C117.602299,81.667735 120.45977,64.7753739 123.317241,24.2337073 C123.317241,23.1941774 123.317241,21.6348825 122.537931,20.5953526 C121.758621,20.0755876 120.71954,19.5558226 119.68046,19.5558226 Z" id="Path" fill="#2ECC71"></path>
            <path d="M106.691954,48.6626603 C103.834483,48.6626603 100.977011,47.6231303 98.8988506,45.5440705 C96.8206897,43.4650107 95.7816092,40.6063034 95.7816092,37.7475962 C95.7816092,34.8888889 96.8206897,32.0301816 98.8988506,29.9511218 C100.977011,27.872062 103.834483,26.8325321 106.691954,26.8325321 C109.549425,26.8325321 112.406897,27.872062 114.485057,29.9511218 C116.563218,32.0301816 117.602299,34.8888889 117.602299,37.7475962 C117.602299,40.6063034 116.563218,43.4650107 114.485057,45.5440705 C112.406897,47.3632479 109.549425,48.6626603 106.691954,48.6626603 Z" id="Shape" fill="#000000" fill-rule="nonzero"></path>
            <path d="M106.691954,31.7702991 C105.133333,31.7702991 103.574713,32.2900641 102.535632,33.5894765 C101.496552,34.6290064 100.717241,36.1883013 100.717241,37.7475962 C100.717241,39.306891 101.236782,40.8661859 102.535632,41.9057158 C104.873563,43.9847756 108.510345,44.2446581 110.848276,41.9057158 C111.887356,40.8661859 112.666667,39.306891 112.666667,37.7475962 C112.666667,36.1883013 112.147126,34.6290064 110.848276,33.5894765 C109.549425,32.2900641 108.250575,31.7702991 106.691954,31.7702991 Z" id="Path" fill="#FFFFFF"></path>
            <path d="M124.875862,51.5213675 C120.71954,51.5213675 116.563218,50.4818376 112.926437,48.1428953 C109.549425,46.0638355 106.951724,43.4650107 104.873563,40.0865385 C104.094253,38.7871261 104.613793,37.2278312 105.912644,36.4481838 C107.211494,35.6685363 108.770115,36.1883013 109.549425,37.4877137 C111.108046,40.0865385 113.186207,42.1655983 115.783908,43.7248932 C119.94023,46.3237179 124.616092,46.8434829 129.291954,45.803953 C133.967816,44.7644231 137.864368,41.9057158 140.462069,37.7475962 C143.05977,33.5894765 143.57931,28.9115919 142.54023,24.2337073 C141.501149,19.5558226 138.643678,15.6575855 134.487356,13.0587607 C129.811494,10.2000534 124.096552,9.68028846 118.901149,11.4994658 C117.602299,12.0192308 116.043678,11.2395833 115.524138,9.94017094 C115.004598,8.64075855 115.783908,7.08146368 117.082759,6.56169872 C123.836782,3.96287393 131.110345,4.74252137 137.344828,8.38087607 C142.54023,11.4994658 146.436782,16.6971154 147.735632,22.6744124 C149.294253,28.6517094 148.255172,34.8888889 145.137931,40.0865385 C142.02069,45.284188 136.825287,49.1824252 130.850575,50.4818376 C128.512644,51.261485 126.694253,51.5213675 124.875862,51.5213675 Z" id="Shape" fill="#000000" fill-rule="nonzero"></path>
            <path d="M46.4101641,103.999412 L69.2758741,103.999412 C71.711136,103.999412 73.6854502,102.025098 73.6854502,99.5898359 C73.6854502,97.154574 71.711136,95.1802598 69.2758741,95.1802598 L57.0560567,95.1802598 L80.7084352,71.5278814 C82.4305216,69.8057949 82.4305216,67.0136513 80.7084352,65.2915648 C78.9863487,63.5694784 76.1942051,63.5694784 74.4721186,65.2915648 L50.8197402,88.9445312 L50.8191523,76.7247138 C50.8191523,74.2894519 48.844838,72.3151377 46.4095761,72.3151377 C43.9743142,72.3151377 42,74.2894519 42,76.7247138 L42,99.5898359 C42.0005879,102.025686 43.9749022,103.999412 46.4101641,103.999412 Z" id="Shape" fill="#ECF0F1" fill-rule="nonzero" transform="translate(62.000000, 83.999706) rotate(-45.000000) translate(-62.000000, -83.999706) "></path>
        </g>
    </g>
</svg>