<?xml version="1.0" encoding="UTF-8"?>
<svg width="150px" height="150px" viewBox="0 0 150 150" version="1.1" xmlns="http://www.w3.org/2000/svg" xmlns:xlink="http://www.w3.org/1999/xlink">
    <!-- Generator: Sketch 46.2 (44496) - http://www.bohemiancoding.com/sketch -->
    <title>dapp</title>
    <desc>Created with Sketch.</desc>
    <defs></defs>
    <g id="Icons" stroke="none" stroke-width="1" fill="none" fill-rule="evenodd">
        <g id="dapp">
            <circle id="Oval-2" stroke="#333333" stroke-width="3" cx="75" cy="76" r="60"></circle>
            <circle id="Oval" stroke="#333333" stroke-width="3" fill="#E74C3C" cx="31" cy="35" r="5"></circle>
            <circle id="Oval" stroke="#333333" stroke-width="3" fill="#3498DB" cx="31" cy="117" r="5"></circle>
            <circle id="Oval" stroke="#333333" stroke-width="3" fill="#3498DB" cx="119" cy="35" r="5"></circle>
            <circle id="Oval" stroke="#333333" stroke-width="3" fill="#E74C3C" cx="119" cy="117" r="5"></circle>
            <circle id="Oval" stroke="#333333" stroke-width="3" fill="#F1C40F" cx="75" cy="134" r="10"></circle>
            <circle id="Oval" stroke="#333333" stroke-width="3" fill="#F1C40F" cx="75" cy="17" r="10"></circle>
            <circle id="Oval" stroke="#333333" stroke-width="3" fill="#F1C40F" cx="135" cy="75" r="10"></circle>
            <circle id="Oval" stroke="#333333" stroke-width="3" fill="#F1C40F" cx="15" cy="76" r="10"></circle>
            <path d="M89.8597169,40 L60.1402831,40 C57.2960103,40 55,42.3181984 55,45.1719627 L55,105.833212 C55,108.684389 57.2960103,111 60.1402831,111 L89.8597169,111 C92.6988417,111 95,108.684389 95,105.833212 L95,45.1719627 C95,42.3181984 92.6988417,40 89.8597169,40 Z M67.6666667,43.1409518 L82.3384813,43.1409518 C82.7091377,43.1409518 83.010296,43.6972159 83.010296,44.3854311 C83.010296,45.0736462 82.7091377,45.6324976 82.3384813,45.6324976 L67.6666667,45.6324976 C67.2934363,45.6324976 66.997426,45.0736462 66.997426,44.3854311 C66.997426,43.6972159 67.2934363,43.1409518 67.6666667,43.1409518 Z M75.002574,105.895306 C73.1930502,105.895306 71.7207207,104.415385 71.7207207,102.593944 C71.7207207,100.772502 73.1930502,99.2977553 75.002574,99.2977553 C76.8069498,99.2977553 78.2792793,100.772502 78.2792793,102.593944 C78.2792793,104.415385 76.8069498,105.895306 75.002574,105.895306 Z M91.1492921,94.5915021 L58.8532819,94.5915021 L58.8532819,48.7268785 L91.1492921,48.7268785 L91.1492921,94.5915021 Z" id="Shape" fill="#333333" fill-rule="nonzero"></path>
        </g>
    </g>
</svg>