<?xml version="1.0" encoding="UTF-8"?>
<svg width="150px" height="150px" viewBox="0 0 150 150" version="1.1" xmlns="http://www.w3.org/2000/svg" xmlns:xlink="http://www.w3.org/1999/xlink">
    <!-- Generator: Sketch 46.2 (44496) - http://www.bohemiancoding.com/sketch -->
    <title>decentralised-eco</title>
    <desc>Created with Sketch.</desc>
    <defs></defs>
    <g id="Icons" stroke="none" stroke-width="1" fill="none" fill-rule="evenodd">
        <g id="decentralised-eco">
            <path d="M75.5,138.5 L75.5,12.5" id="Line-2" stroke="#333333" stroke-width="3" stroke-linecap="square"></path>
            <path d="M22.5,107.5 L125.5,43.5" id="Line" stroke="#333333" stroke-width="3" stroke-linecap="square"></path>
            <path d="M26.5,106.5 L126.5,44.5" id="Line" stroke="#333333" stroke-width="3" stroke-linecap="square" transform="translate(76.500000, 75.500000) scale(-1, 1) translate(-76.500000, -75.500000) "></path>
            <path d="M19.5,52.5 L19.5,102.5" id="Line-3" stroke="#333333" stroke-width="3" stroke-linecap="square"></path>
            <path d="M129.5,50.5 L129.5,100.5" id="Line-3" stroke="#333333" stroke-width="3" stroke-linecap="square"></path>
            <path d="M26.5,42.5 L66.5,18.5" id="Line-4" stroke="#333333" stroke-width="3" stroke-linecap="square"></path>
            <path d="M81.5,133.5 L125.5,107.5" id="Line-4" stroke="#333333" stroke-width="3" stroke-linecap="square"></path>
            <path d="M23.5,132.5 L66.5,109.5" id="Line-4" stroke="#333333" stroke-width="3" stroke-linecap="square" transform="translate(45.000000, 121.000000) scale(1, -1) translate(-45.000000, -121.000000) "></path>
            <path d="M82.5,43.5 L124.5,19.5" id="Line-4" stroke="#333333" stroke-width="3" stroke-linecap="square" transform="translate(103.500000, 31.500000) scale(1, -1) translate(-103.500000, -31.500000) "></path>
            <path d="M22.5,100.5 L70.5,22.5" id="Line-5" stroke="#333333" stroke-width="3" stroke-linecap="square"></path>
            <path d="M80.5,99.5 L127.5,21.5" id="Line-5" stroke="#333333" stroke-width="3" stroke-linecap="square" transform="translate(104.000000, 60.500000) scale(-1, 1) translate(-104.000000, -60.500000) "></path>
            <circle id="Oval-2" stroke="#333333" stroke-width="2" fill="#3498DB" cx="75" cy="16" r="10"></circle>
            <circle id="Oval-2" stroke="#333333" stroke-width="2" fill="#F1C40F" cx="75" cy="137" r="10"></circle>
            <circle id="Oval-2" stroke="#333333" stroke-width="2" fill="#F1C40F" cx="130" cy="46" r="10"></circle>
            <circle id="Oval-2" stroke="#333333" stroke-width="2" fill="#3498DB" cx="130" cy="105" r="10"></circle>
            <circle id="Oval-2" stroke="#333333" stroke-width="2" fill="#F1C40F" cx="20" cy="46" r="10"></circle>
            <circle id="Oval-2" stroke="#333333" stroke-width="2" fill="#3498DB" cx="20" cy="105" r="10"></circle>
            <circle id="Oval-9" stroke="#333333" stroke-width="3" fill="#2ECC71" cx="76" cy="76" r="25"></circle>
            <path d="M78.0900431,68.0027631 C77.6439002,68.0339377 77.2588707,68.3315866 77.1108311,68.7597474 L71.8883675,83.1424222 C71.7488451,83.5227347 71.8198891,83.9496815 72.0747378,84.2624359 C72.3295865,84.5751903 72.7295224,84.7262374 73.1238934,84.6586793 C73.5182645,84.5911212 73.8471564,84.3152216 73.9866788,83.9349091 L79.2091424,69.5522153 C79.3501132,69.1895293 79.2978576,68.7788241 79.0707296,68.4643535 C78.8436016,68.1498828 78.4733589,67.9756166 78.0900431,68.0027631 L78.0900431,68.0027631 Z M69.4986427,70.6640474 C69.3249553,70.6797906 69.1572964,70.7364948 69.0090367,70.8296377 L61.5483744,75.3715433 C61.2093729,75.5763016 61.0016601,75.9470294 61.0016601,76.3473245 C61.0016601,76.7476195 61.2093729,77.1183474 61.5483744,77.3231056 L69.0090367,81.8650113 C69.3533281,82.0889565 69.7905925,82.1045362 70.149518,81.9056465 C70.5084435,81.7067567 70.7318757,81.3250683 70.7322783,80.9101193 C70.7326808,80.4951704 70.5099896,80.1130364 70.1514507,79.9134301 L64.2994936,76.3532195 L70.1514507,72.7812188 C70.6078124,72.5165377 70.8211382,71.9652855 70.6641869,71.4562646 C70.5072355,70.9472437 70.0223065,70.6176387 69.4986427,70.6640474 L69.4986427,70.6640474 Z M81.4473411,70.6640474 C80.9524962,70.690492 80.5336968,71.043948 80.4179545,71.5328233 C80.3022123,72.0216986 80.5170836,72.5296004 80.9460965,72.7812188 L86.7980536,76.3532195 L80.9460965,79.9134301 C80.5875576,80.1130364 80.3648663,80.4951704 80.3652689,80.9101193 C80.3656714,81.3250683 80.5891037,81.7067567 80.9480292,81.9056465 C81.3069547,82.1045362 81.7442191,82.0889565 82.0885104,81.8650113 L89.5491728,77.3231056 C89.8881743,77.1183474 90.0958871,76.7476195 90.0958871,76.3473245 C90.0958871,75.9470294 89.8881743,75.5763016 89.5491728,75.3715433 L82.0885104,70.8296377 C81.8961176,70.7101427 81.6726273,70.6524234 81.4473411,70.6640474 L81.4473411,70.6640474 Z" id="Shape" fill="#333333" fill-rule="nonzero"></path>
        </g>
    </g>
</svg>