<?xml version="1.0" encoding="UTF-8"?>
<svg width="150px" height="150px" viewBox="0 0 150 150" version="1.1" xmlns="http://www.w3.org/2000/svg" xmlns:xlink="http://www.w3.org/1999/xlink">
    <!-- Generator: Sketch 46.2 (44496) - http://www.bohemiancoding.com/sketch -->
    <title>energy</title>
    <desc>Created with Sketch.</desc>
    <defs></defs>
    <g id="Icons" stroke="none" stroke-width="1" fill="none" fill-rule="evenodd">
        <g id="energy">
            <g id="Group" transform="translate(3.000000, 1.000000)">
                <path d="M95.8559008,70.1233848 C95.591602,69.5967695 95.1952311,69.3333848 94.6667883,69.3333848 L79.076254,69.3333848 L94.5347163,44.975 C94.7990151,44.58 94.7990151,44.0533848 94.5347163,43.6583848 C94.2704175,43.2633848 93.8740466,43 93.3456038,43 L72.205878,43 C71.6774351,43 71.2810643,43.2633848 71.0167655,43.6583848 L51.1982241,83.1583848 C50.9339253,83.5533848 50.9339253,84.08 51.1982241,84.475 C51.462523,84.87 51.9909658,85.1333848 52.3873366,85.1333848 L65.9960167,85.1333848 L51.1982241,120.288385 C50.9339253,120.815 51.1982241,121.473385 51.7266669,121.868385 C51.8587389,122 52.1230378,122 52.3873366,122 C52.7837074,122 53.1800783,121.868385 53.4443771,121.605 L95.7239836,71.5716152 C95.9881276,71.1766152 96.1201996,70.65 95.8559008,70.1233848 Z" id="Shape" fill="#333333" fill-rule="nonzero"></path>
                <path d="M56.5511773,114 L68.9045525,84.8382584 C69.0387753,84.4405976 69.0387753,84.0429368 68.7703297,83.645276 C68.5017268,83.380117 68.098901,83.1151133 67.6960753,83.1151133 L54,83.1151133 L72.7985871,46 L91.0599684,46 L75.2155416,70.5223136 C74.9469386,70.9199744 74.9469386,71.4501371 75.2155416,71.8477979 C75.4841445,72.2454587 75.8869703,72.5106177 76.4240188,72.5106177 L92,72.5106177 L56.5511773,114 Z" id="Path" fill="#F0C41B"></path>
                <path d="M109.738321,41.2891844 C109.041122,40.5922162 107.907516,40.5922162 107.211071,41.2891844 C106.50935,41.9906734 106.50935,43.1231525 107.211071,43.8201206 C117.01481,53.6258976 122.416024,66.6595791 122.416024,80.5251014 C122.416024,109.146005 99.1243244,132.426249 70.4932164,132.426249 C41.8673846,132.426249 18.5749314,109.142238 18.5749314,80.5251014 C18.5749314,52.0526333 41.6329753,28.8808906 70.056808,28.6420377 L59.6372735,39.0551188 C58.9355529,39.752087 58.9355529,40.8853196 59.6372735,41.5860551 C59.9832346,41.9364229 60.4467773,42.1119835 60.9012752,42.1119835 C61.3557731,42.1119835 61.8140397,41.9364229 62.1652769,41.5860551 L76.2019515,27.5540139 L62.1645232,13.5227261 C61.4628025,12.825758 60.3337181,12.825758 59.6372735,13.5227261 C58.9355529,14.2242152 58.9355529,15.3566942 59.6372735,16.0536624 L68.7129112,25.1217834 C38.9353831,26.0794553 15,50.5238242 15,80.5160597 C15,111.111078 39.8933713,136 70.4977388,136 C101.107382,136 126,111.110325 126,80.5205805 C126.000754,65.6973863 120.221168,51.7693251 109.738321,41.2891844 Z" id="Shape" fill="#333333" fill-rule="nonzero" transform="translate(70.500000, 74.500000) rotate(-15.000000) translate(-70.500000, -74.500000) "></path>
            </g>
        </g>
    </g>
</svg>