<?xml version="1.0" encoding="UTF-8"?>
<svg width="150px" height="150px" viewBox="0 0 150 150" version="1.1" xmlns="http://www.w3.org/2000/svg" xmlns:xlink="http://www.w3.org/1999/xlink">
    <!-- Generator: Sketch 46.2 (44496) - http://www.bohemiancoding.com/sketch -->
    <title>fiat-economy</title>
    <desc>Created with Sketch.</desc>
    <defs>
        <rect id="path-1" x="31" y="0" width="88" height="62" rx="8"></rect>
        <rect id="path-2" x="0" y="48" width="150" height="80" rx="18"></rect>
        <path d="M150,95 L150,110 C150,119.941125 141.941125,128 132,128 L18,128 C8.0588745,128 1.21743675e-15,119.941125 0,110 L0,95 L0,71 L150,71 L150,95 Z" id="path-3"></path>
        <rect id="path-4" x="31" y="85" width="88" height="62" rx="4"></rect>
    </defs>
    <g id="Icons" stroke="none" stroke-width="1" fill="none" fill-rule="evenodd">
        <g id="fiat-economy">
            <g id="Rectangle-15">
                <use fill="#ECF0F1" fill-rule="evenodd" xlink:href="#path-1"></use>
                <rect stroke="#333333" stroke-width="4" x="33" y="2" width="84" height="58" rx="8"></rect>
            </g>
            <g id="Rectangle-15">
                <use fill="#ECF0F1" fill-rule="evenodd" xlink:href="#path-2"></use>
                <rect stroke="#333333" stroke-width="4" x="2" y="50" width="146" height="76" rx="18"></rect>
            </g>
            <circle id="Oval" fill="#333333" cx="130.5" cy="62.5" r="3.5"></circle>
            <g id="Combined-Shape">
                <use fill="#34495E" fill-rule="evenodd" xlink:href="#path-3"></use>
                <path stroke="#333333" stroke-width="4" d="M148,73 L2,73 L2,110 C2,118.836556 9.163444,126 18,126 L132,126 C140.836556,126 148,118.836556 148,110 L148,73 Z"></path>
            </g>
            <g id="Rectangle-16">
                <use fill="#ECF0F1" fill-rule="evenodd" xlink:href="#path-4"></use>
                <rect stroke="#333333" stroke-width="4" x="33" y="87" width="84" height="58" rx="4"></rect>
            </g>
            <circle id="Oval-14" stroke="#333333" stroke-width="4" fill="#E74C3C" cx="75" cy="117" r="20"></circle>
            <path d="M74.435031,110.170559 L80.8698896,110.170559 C81.8861467,110.170559 82.7084945,109.36877 82.7084945,108.377919 C82.7084945,107.387069 81.8861467,106.58528 80.8698896,106.58528 L77.1928521,106.58528 L77.1928521,104.79264 C77.1928521,103.801789 76.3705043,103 75.3542472,103 C74.3379901,103 73.5156423,103.801789 73.5156423,104.79264 L73.5156423,106.675861 C70.4051648,107.115324 68,109.706896 68,112.859267 C68,116.318337 70.887094,119.133254 74.4348586,119.133254 L76.2734635,119.133254 C77.7942295,119.133254 79.0312847,120.339383 79.0312847,121.822129 C79.0312847,123.304876 77.7942295,124.511005 76.2734635,124.511005 L69.8386049,124.511005 C68.8223478,124.511005 68,125.312794 68,126.303645 C68,127.294496 68.8223478,128.096285 69.8386049,128.096285 L73.5156423,128.096285 L73.5156423,129.888924 C73.5156423,130.879775 74.3379901,131.681564 75.3542472,131.681564 C76.3705043,131.681564 77.1928521,130.879775 77.1928521,129.888924 L77.1928521,128.005703 C80.3033297,127.56624 82.7084945,124.974668 82.7084945,121.822298 C82.7084945,118.363227 79.8214004,115.54831 76.2736359,115.54831 L74.435031,115.54831 C72.914265,115.54831 71.6772098,114.342182 71.6772098,112.859435 C71.6772098,111.376688 72.914265,110.170559 74.435031,110.170559 Z" id="Path" fill="#FFFFFF"></path>
        </g>
    </g>
</svg>