<?xml version="1.0" encoding="UTF-8"?>
<svg width="150px" height="150px" viewBox="0 0 150 150" version="1.1" xmlns="http://www.w3.org/2000/svg" xmlns:xlink="http://www.w3.org/1999/xlink">
    <!-- Generator: Sketch 46.2 (44496) - http://www.bohemiancoding.com/sketch -->
    <title>fundamentals</title>
    <desc>Created with Sketch.</desc>
    <defs></defs>
    <g id="Icons" stroke="none" stroke-width="1" fill="none" fill-rule="evenodd">
        <g id="fundamentals" fill-rule="nonzero">
            <path d="M118.853949,149 L30.7720053,149 C26.3678787,149 23,145.650754 23,141.270992 C23,136.891231 26.3678787,133.541985 30.7720053,133.541985 L118.853949,133.541985 C123.258075,133.541985 126.625954,136.891231 126.625954,141.270992 C126.625954,145.650754 123.258075,149 118.853949,149" id="Shape" fill="#C0392B"></path>
            <g id="Group" transform="translate(33.305344, 0.000000)" fill="#E74C3C">
                <polygon id="Shape" points="82.793406 134.259447 63.4406179 51.6383837 41.5076336 51.6383837 19.3165419 51.6383837 0.221861225 134.259447"></polygon>
                <path d="M52.3452183,3.87305426 C51.8290036,1.5492802 49.7647296,0 47.4423483,0 L35.0567043,0 C32.7343229,0 30.6700489,1.5492802 30.1541266,3.87276178 L24.9934416,25.8188994 L41.5076336,25.8188994 L57.5059033,25.8188994 L52.3452183,3.87305426 Z" id="Shape"></path>
            </g>
            <polygon id="Shape" fill="#ECF0F1" points="96.8291555 51.6672982 90.8719299 25.8440965 74.8129771 25.8440965 58.2358516 25.8440965 52.5377123 51.6672982 74.8129771 51.6672982"></polygon>
            <polygon id="Shape" fill="#ECF0F1" points="74.8129771 80.0726445 45.8032276 80.0726445 39.8460019 105.895846 74.8129771 105.895846 109.779952 105.895846 103.822727 80.0726445"></polygon>
        </g>
    </g>
</svg>