<?xml version="1.0" encoding="UTF-8"?>
<svg width="150px" height="150px" viewBox="0 0 150 150" version="1.1" xmlns="http://www.w3.org/2000/svg" xmlns:xlink="http://www.w3.org/1999/xlink">
    <!-- Generator: Sketch 46.2 (44496) - http://www.bohemiancoding.com/sketch -->
    <title>global</title>
    <desc>Created with Sketch.</desc>
    <defs></defs>
    <g id="Icons" stroke="none" stroke-width="1" fill="none" fill-rule="evenodd">
        <g id="global" fill-rule="nonzero">
            <g id="global-(2)">
                <path d="M129.012346,74.9997082 C129.012346,104.488506 104.968483,128.395062 75.3089355,128.395062 C45.6490948,128.395062 21.6049383,104.488506 21.6049383,74.9997082 C21.6049383,45.5112018 45.6490948,21.6049383 75.3089355,21.6049383 C104.968483,21.6049383 129.012346,45.5112018 129.012346,74.9997082 Z" id="Shape" fill="#ABEBFF"></path>
                <path d="M113.580247,74.9997082 C113.580247,104.488506 96.3066513,128.395062 75.0001466,128.395062 C53.6927625,128.395062 36.4197531,104.488506 36.4197531,74.9997082 C36.4197531,45.5112018 53.6927625,21.6049383 75.0001466,21.6049383 C96.3066513,21.6049383 113.580247,45.5112018 113.580247,74.9997082 Z" id="Shape" fill="#00A9FF"></path>
                <g id="Group" transform="translate(29.012346, 21.604938)" fill="#2ECC71">
                    <path d="M45.6798908,35.4149312 C62.4833254,35.4149312 78.1313153,31.7125818 91.2663739,25.3381451 C81.8234093,10.1371838 64.9397436,0.00846151251 45.6798908,0.00846151251 C26.420038,0.00846151251 9.53666508,10.1374755 0.0939933523,25.3381451 C13.2281735,31.7125818 28.8764562,35.4149312 45.6798908,35.4149312 Z" id="Shape"></path>
                    <path d="M45.6798908,71.3760676 C28.8764562,71.3760676 13.2278807,75.0790005 0.0939933523,81.4525619 C9.53637227,96.653815 26.420038,106.782537 45.6798908,106.782537 C64.9394508,106.782537 81.8228237,96.6535232 91.2663739,81.4525619 C78.1316081,75.0790005 62.4833254,71.3760676 45.6798908,71.3760676 Z" id="Shape"></path>
                </g>
                <path d="M93.2098765,74.9997082 C93.2098765,104.488506 84.919201,128.395062 74.6917944,128.395062 C64.463515,128.395062 56.1728395,104.488506 56.1728395,74.9997082 C56.1728395,45.5112018 64.463515,21.6049383 74.6917944,21.6049383 C84.919201,21.6049383 93.2098765,45.5112018 93.2098765,74.9997082 Z" id="Shape" fill="#0079F1"></path>
                <g id="Group" opacity="0.1" transform="translate(21.604938, 46.296296)" fill="#000000">
                    <path d="M13.4149222,54.1663612 C9.17404724,46.5204786 6.76178207,37.7373298 6.76178207,28.3950617 C6.76178207,19.0530864 9.17404724,10.2696449 13.4146269,2.62434772 C11.5901503,1.87905053 9.80582394,1.08633066 8.06548578,0.246188113 C2.95931294,8.42601502 0.00885668277,18.068334 0.00885668277,28.3950617 C0.00885668277,38.7217895 2.95901771,48.3644012 8.065781,56.5442281 C9.80582394,55.7040855 11.5907407,54.9116584 13.4149222,54.1663612 Z" id="Shape"></path>
                </g>
                <path d="M119.57418,121.626903 C119.077426,122.103941 118.567791,122.577465 118.05962,123.035762 C118.059328,123.036055 118.058742,123.03664 118.058449,123.036933 C107.077157,132.928526 93.1182637,138.68842 78.4383884,139.454786 L80.5375207,137.486893 C81.4622396,136.620375 81.5093684,135.168176 80.6431945,134.243383 C79.7770207,133.318297 78.3253965,133.271736 77.4006777,134.137667 L72.1731913,139.03778 C71.419424,139.744699 70.9876543,140.736259 70.9876543,141.759154 C70.9876543,142.781756 71.4200094,143.773609 72.173484,144.479356 L77.4006777,149.379762 C77.8432781,149.794718 78.4067741,150 78.9688065,150 C79.5808948,150 80.1915196,149.756356 80.6431945,149.274339 C81.5093684,148.349547 81.4622396,146.897054 80.5381062,146.030537 L78.4284358,144.052687 C94.2481829,143.283686 109.300112,137.102392 121.128258,126.448241 C121.128844,126.447656 121.129429,126.44707 121.130308,126.446484 C121.674484,125.955975 122.219831,125.449067 122.751127,124.938645 C123.665308,124.060999 123.695166,122.608507 122.817868,121.693963 C121.940278,120.778834 120.487776,120.749257 119.57418,121.626903 Z" id="Shape" fill="#000000"></path>
                <path d="M26.9673088,118.0711 C17.0785228,107.087612 11.3202095,93.1255452 10.5521997,78.442134 L12.506547,80.5284534 C13.3728315,81.4528497 14.8272977,81.5028092 15.7560674,80.6403509 C16.6842504,79.7778926 16.7347078,78.3290678 15.8684233,77.4043792 L10.9696474,72.1755796 C10.2623626,71.4206364 9.2687609,70.9876543 8.24347663,70.9876543 C7.21819237,70.9876543 6.22459071,71.4206364 5.51730591,72.1755796 L0.618236602,77.4043792 C-0.248047928,78.3287756 -0.197883805,79.7776004 0.730592503,80.6406431 C1.17356224,81.0525896 1.73651518,81.2565178 2.29858804,81.2565178 C2.91346524,81.2565178 3.52716901,81.0119793 3.97981955,80.5290377 L5.94619449,78.4304475 C6.71596442,94.248903 12.8946589,109.300145 23.5441208,121.12827 C24.033441,121.671396 24.5403627,122.21686 25.0513914,122.749177 C25.5031618,123.219848 26.1077715,123.45679 26.7135546,123.45679 C27.2844282,123.45679 27.8561819,123.246142 28.3017918,122.822509 C29.2197073,121.949241 29.2525633,120.49954 28.3754246,119.585369 C27.898132,119.087819 27.4243597,118.578291 26.9673088,118.0711 Z" id="Shape" fill="#000000"></path>
                <path d="M28.8696795,23.5538322 C28.3255064,24.044337 27.7801624,24.5512408 27.2488692,25.0616587 C26.3346935,25.9392963 26.3048357,27.3917763 27.1821282,28.3063116 C27.6326298,28.775732 28.2344694,29.0123457 28.8374799,29.0123457 C29.4088763,29.0123457 29.9808581,28.8003305 30.4255052,28.3730788 C30.922257,27.8960445 31.4318887,27.4222315 31.9400568,26.9642318 C31.9406423,26.9639389 31.940935,26.9633532 31.9412277,26.9630604 C42.922459,17.0718473 56.8812743,11.3125885 71.560775,10.5453511 L69.4619471,12.5132272 C68.5375261,13.3797369 68.4901049,14.8319241 69.3568593,15.7570015 C69.8085318,16.2393069 70.4191531,16.4829487 71.031238,16.4829487 C71.59356,16.4829487 72.1567601,16.2773759 72.5993581,15.8627163 L77.8268153,10.9623534 C78.5802857,10.2554407 79.0123457,9.26418171 79.0123457,8.24158894 C79.0123457,7.21899617 78.5802857,6.22744431 77.8265226,5.5208245 L72.5993581,0.620461559 C71.6749371,-0.246341017 70.2230283,-0.199193985 69.3568593,0.725883494 C68.4903976,1.65066813 68.5378188,3.10314813 69.4622398,3.96965787 L71.5724839,5.94778334 C55.7522396,6.71648495 40.6998091,12.8980172 28.8717285,23.5520751 C28.8711431,23.5529536 28.8702649,23.5532465 28.8696795,23.5538322 Z" id="Shape" fill="#000000"></path>
                <path d="M146.020697,69.4710641 L144.054235,71.5696318 C143.284431,55.7516372 137.105465,40.7005562 126.455827,28.8722652 C125.966485,28.3291443 125.459541,27.7836861 124.94849,27.2510829 C124.071019,26.3369219 122.615609,26.3036159 121.698239,27.1777513 C120.780284,28.0510103 120.747426,29.5006961 121.624604,30.4148571 C122.101917,30.9124014 122.575417,31.4219242 123.032488,31.9294019 C132.92171,42.9127732 138.680277,56.8746909 139.448027,71.5579455 L137.4933,69.4716484 C136.626977,68.5469697 135.172154,68.4973029 134.24393,69.359752 C133.315706,70.2222012 133.265246,71.6710105 134.131569,72.5956892 L139.029681,77.8238487 C139.73729,78.579076 140.730936,79.0123457 141.756558,79.0123457 C142.781888,79.0123457 143.775827,78.579076 144.482556,77.824433 L149.381841,72.5959813 C150.248164,71.6715948 150.197704,70.2227855 149.26948,69.359752 C148.342136,68.4964265 146.887313,68.5469697 146.020697,69.4710641 Z" id="Shape" fill="#000000"></path>
                <path d="M75.0004392,130.864198 C105.803853,130.864198 130.864198,105.803429 130.864198,74.9995608 C130.864198,70.6919438 130.37175,66.3995512 129.400031,62.2418356 C129.111941,61.0083693 127.878188,60.2427594 126.643557,60.5296801 C125.409512,60.8180647 124.643028,62.0521166 124.931411,63.2864613 C125.650758,66.3638325 126.078502,69.5228883 126.219327,72.7053661 L115.794497,72.7053661 C115.591019,65.7466602 114.463251,59.0098786 112.490827,52.7681817 C114.938424,51.8725791 117.335078,50.8859231 119.672884,49.8114343 C120.475379,51.2325702 121.215221,52.6990865 121.886554,54.2106903 C122.400666,55.3686203 123.756213,55.891226 124.91443,55.3765253 C126.072646,54.8618247 126.594664,53.5065634 126.080259,52.3486333 C117.120181,32.1722507 97.0700902,19.1358025 75.0001464,19.1358025 C44.19644,19.1358025 19.1358025,44.1962786 19.1358025,74.9998536 C19.1360952,105.803429 44.1967328,130.864198 75.0004392,130.864198 Z M23.7792095,77.2937555 L34.2063811,77.2937555 C34.4101523,84.2530471 35.5376277,90.9898286 37.5103438,97.2315256 C35.0694809,98.1247859 32.6795609,99.1085141 30.3479031,100.17949 C26.4885467,93.3630729 24.1457634,85.5813729 23.7792095,77.2937555 Z M32.8072107,104.099764 C34.841995,103.181617 36.9230377,102.334323 39.0444833,101.556416 C40.8555877,106.145684 43.147721,110.408214 45.8889706,114.218989 C47.5188475,116.484785 49.2667126,118.532755 51.1117788,120.358507 C43.7812854,116.48215 37.4992183,110.881633 32.8072107,104.099764 Z M41.9608122,72.7047806 L38.7967959,72.7047806 C39.0014454,66.1626952 40.0765142,59.9359299 41.8621472,54.2502151 C46.1428063,55.6002064 50.5581418,56.6846496 55.0692147,57.4938832 C54.4959618,62.3568967 54.1630769,67.4673062 54.0878338,72.7050733 L51.1384213,72.7050733 C49.8712924,72.7050733 48.8439459,73.7321324 48.8439459,74.9995608 C48.8439459,76.2669892 49.8712924,77.2940483 51.1384213,77.2940483 L54.0875411,77.2940483 C54.1627842,82.532401 54.4959618,87.6428105 55.0689219,92.5064096 C50.5581418,93.3156432 46.1428063,94.4000864 41.8621472,95.7500777 C40.0765142,90.0637773 39.0014454,83.837012 38.7965031,77.2943411 L41.9608122,77.2943411 C43.2279412,77.2943411 44.2552877,76.267282 44.2552877,74.9998536 C44.2552877,73.7321324 43.2279412,72.7047806 41.9608122,72.7047806 Z M43.3983361,100.074969 C47.3824145,98.8256922 51.4903365,97.8182492 55.686091,97.0579092 C56.6261906,103.151754 57.9618289,108.764568 59.6555306,113.633144 C61.1466323,117.919974 62.8745887,121.459932 64.7796738,124.195633 C55.6377832,120.387492 47.9878726,111.607425 43.3983361,100.074969 Z M72.7059637,77.2937555 L72.7059637,90.7728814 C68.2868221,90.8610071 63.9072051,91.2009203 59.600489,91.7899861 C59.0755439,87.2806463 58.7514423,82.4281727 58.676492,77.2934628 L72.7059637,77.2934628 L72.7059637,77.2937555 Z M58.676492,72.7047806 C58.7514423,67.5703634 59.0755439,62.7181826 59.6001962,58.2091355 C63.9069123,58.7982014 68.2868221,59.1381146 72.7059637,59.2262402 L72.7059637,72.7047806 L58.676492,72.7047806 Z M85.2314517,124.180994 C87.1324379,121.447342 88.8565882,117.911776 90.3447621,113.633144 C92.0384639,108.764568 93.3741021,103.151754 94.3142018,97.0576165 C98.5114201,97.8182492 102.620513,98.8262778 106.605763,100.07614 C101.952401,111.788654 94.2369092,120.415599 85.2314517,124.180994 Z M98.8495749,120.379294 C103.817962,115.500178 107.982097,109.096283 110.951418,101.554367 C113.07462,102.332566 115.157419,103.180739 117.193375,104.099471 C112.49317,110.893929 106.196756,116.502351 98.8495749,120.379294 Z M112.869971,85.2347258 C114.128902,85.3696957 115.260769,84.4576977 115.395738,83.1978815 C115.604194,81.2532616 115.735357,79.275558 115.793912,77.2940483 L126.221376,77.2940483 C125.854529,85.5813729 123.511746,93.3627802 119.652975,100.17949 C117.318682,99.1079286 114.926713,98.123322 112.483801,97.2294761 C112.920035,95.8472794 113.318209,94.4334629 113.675979,92.9891977 C113.980465,91.7589518 113.230376,90.5152383 112.000137,90.210751 C110.769605,89.9068493 109.526191,90.6563565 109.221705,91.8866023 C108.895847,93.2029243 108.533977,94.4908471 108.139024,95.7500777 C103.857779,94.4000864 99.4421509,93.3156432 94.9310781,92.5064096 C95.504331,87.6431033 95.8372158,82.5326938 95.9124589,77.2940483 L111.202033,77.2940483 C111.144942,79.1121889 111.024026,80.9259377 110.832844,82.7092379 C110.698168,83.9687613 111.610161,85.099756 112.869971,85.2347258 Z M94.9310781,57.4938832 C99.4421509,56.6846496 103.857779,55.6004991 108.138731,54.2502151 C109.924071,59.9359299 110.999433,66.162988 111.204082,72.7047806 L95.9127517,72.7047806 C95.8372158,67.4667206 95.504331,62.3566039 94.9310781,57.4938832 Z M117.218553,45.8879397 C115.176157,46.8104777 113.086624,47.6618711 110.956395,48.4429981 C109.145291,43.8537303 106.853157,39.5909081 104.111615,35.7801324 C102.479396,33.5111165 100.729189,31.4602188 98.880609,29.6324167 C106.152255,33.46193 112.472675,39.0156028 117.218553,45.8879397 Z M106.602542,49.9244459 C102.618464,51.1737222 98.510249,52.1814581 94.313909,52.941798 C93.3738094,46.8479531 92.0381711,41.2348468 90.3444694,36.3662705 C88.8530749,32.0794406 87.1257041,28.5391901 85.2203262,25.8034888 C94.3628024,29.6116296 102.013299,38.3916966 106.602542,49.9244459 Z M77.2949146,24.3255543 C82.3247843,26.9160386 87.3329886,37.7537371 89.7858552,53.6623203 C85.6826175,54.2235724 81.5082356,54.5494324 77.2949146,54.6369725 L77.2949146,24.3255543 Z M77.2949146,59.226533 C81.7140562,59.1384074 86.0933804,58.7984941 90.3998038,58.2097211 C90.9247488,62.7187682 91.2485577,67.570949 91.323508,72.7050733 L77.2949146,72.7050733 L77.2949146,59.226533 L77.2949146,59.226533 Z M77.2949146,77.2937555 L91.323508,77.2937555 C91.2485577,82.4284655 90.9244561,87.2809391 90.3998038,91.7902789 C86.0930877,91.2012131 81.7134707,90.8612999 77.2949146,90.7731742 L77.2949146,77.2937555 L77.2949146,77.2937555 Z M75.0004392,106.662434 C76.2675681,106.662434 77.2949146,105.635375 77.2949146,104.367947 L77.2949146,95.3621492 C81.5082356,95.4493965 85.6826175,95.7755492 89.7858552,96.3365085 C87.3329886,112.245385 82.3244915,123.08279 77.2949146,125.673567 L77.2949146,113.851555 C77.2949146,112.584127 76.2675681,111.557068 75.0004392,111.557068 C73.7333102,111.557068 72.7059637,112.584127 72.7059637,113.851555 L72.7059637,125.67386 C67.6758013,123.083669 62.6673042,112.24597 60.2141448,96.3370941 C64.3176753,95.775842 68.49235,95.4496893 72.7059637,95.362442 L72.7059637,104.367947 C72.7059637,105.635375 73.7333102,106.662434 75.0004392,106.662434 Z M72.7059637,24.3255543 L72.7059637,54.6366797 C68.49235,54.5494324 64.3176753,54.2232796 60.2141448,53.6620276 C62.6673042,37.7534444 67.6758013,26.9157458 72.7059637,24.3255543 Z M64.7796738,25.8037816 C62.8745887,28.5397757 61.1466323,32.0797334 59.6555306,36.3662705 C57.9618289,41.234554 56.6261906,46.8476603 55.686091,52.941798 C51.489751,52.1814581 47.3818289,51.174015 43.3983361,49.9244459 C47.9875798,38.3919894 55.6374904,29.6119223 64.7796738,25.8037816 Z M51.1111933,29.6409072 C49.266127,31.4666599 47.5185547,33.514337 45.8889706,35.7801324 C43.147721,39.5909081 40.8555877,43.8540231 39.0441905,48.4429981 C36.9227449,47.6650916 34.8414094,46.8172116 32.8072107,45.8996508 C37.4989255,39.1171961 43.7812854,33.5172648 51.1111933,29.6409072 Z M30.3476103,49.819632 C32.6792681,50.8906076 35.0691882,51.8746286 37.510051,52.7678889 C35.5379205,59.0095858 34.4098595,65.7463674 34.2063811,72.7050733 L23.7792095,72.7050733 C24.1457634,64.4177487 26.4885467,56.6360487 30.3476103,49.819632 Z" id="Shape" fill="#000000"></path>
            </g>
        </g>
    </g>
</svg>