<?xml version="1.0" encoding="UTF-8"?>
<svg width="150px" height="150px" viewBox="0 0 150 150" version="1.1" xmlns="http://www.w3.org/2000/svg" xmlns:xlink="http://www.w3.org/1999/xlink">
    <!-- Generator: Sketch 46.2 (44496) - http://www.bohemiancoding.com/sketch -->
    <title>hardware</title>
    <desc>Created with Sketch.</desc>
    <defs></defs>
    <g id="Icons" stroke="none" stroke-width="1" fill="none" fill-rule="evenodd">
        <g id="hardware" fill-rule="nonzero">
            <rect id="Rectangle-path" fill="#333333" x="71.6174901" y="45.3541154" width="6.56584368" height="72.2242805"></rect>
            <path d="M125.457408,116.593566 L125.457408,119.876395 C125.457408,120.782868 124.681806,121.517902 123.725303,121.517902 L26.7321055,121.517902 C25.7756018,121.517902 25,120.782868 25,119.876395 L25,116.593566 C25,115.687092 25.7756018,114.952058 26.7321055,114.952058 L123.725499,114.952058 C124.681806,114.952058 125.457408,115.687092 125.457408,116.593566 Z" id="Shape" fill="#333333"></path>
            <path d="M77.432979,124.14424 L72.3678449,124.14424 C70.5028703,124.14424 68.9911527,122.632522 68.9911527,120.767547 L68.9911527,115.702413 C68.9911527,113.837439 70.5028703,112.325721 72.3678449,112.325721 L77.432979,112.325721 C79.2979536,112.325721 80.8096713,113.837439 80.8096713,115.702413 L80.8096713,120.767547 C80.8098625,122.632522 79.2981449,124.14424 77.432979,124.14424 Z" id="Shape" fill="#7F8C8D"></path>
            <path d="M121.993394,49.2936216 L28.4640147,49.2936216 C26.5508112,49.2936216 25,47.7399118 25,45.8231323 L25,28.4704893 C25,26.5537098 26.5508112,25 28.4640147,25 L121.993394,25 C123.906597,25 125.457408,26.5537098 125.457408,28.4704893 L125.457408,45.8231323 C125.457408,47.7399118 123.906597,49.2936216 121.993394,49.2936216 Z" id="Shape" fill="#BDC3C7"></path>
            <circle id="Oval" fill="#2ECC71" cx="117.578396" cy="32.8790124" r="2.62633747"></circle>
            <circle id="Oval" fill="#E74C3C" cx="117.578396" cy="41.4146092" r="2.62633747"></circle>
            <path d="M107.979684,44.0409467 L75.3069432,44.0409467 C74.3572901,44.0409467 73.5872432,43.2691502 73.5872432,42.3173395 L73.5872432,31.9762821 C73.5872432,31.0244714 74.3572901,30.2526749 75.3069432,30.2526749 L107.979684,30.2526749 C108.929337,30.2526749 109.699383,31.0244714 109.699383,31.9762821 L109.699383,42.3175347 C109.699383,43.2693455 108.929337,44.0409467 107.979684,44.0409467 Z" id="Shape" fill="#7F8C8D"></path>
            <path d="M104.678375,39.4448561 L78.608252,39.4448561 C77.6484453,39.4448561 76.8701651,38.5628405 76.8701651,37.475103 L76.8701651,37.475103 C76.8701651,36.3873655 77.6484453,35.5053499 78.608252,35.5053499 L104.678375,35.5053499 C105.638181,35.5053499 106.416462,36.3873655 106.416462,37.475103 L106.416462,37.475103 C106.416462,38.5628405 105.638181,39.4448561 104.678375,39.4448561 Z" id="Shape" fill="#34495E"></path>
            <path d="M121.993394,76.8701651 L28.4640147,76.8701651 C26.5508112,76.8701651 25,75.3164552 25,73.3996758 L25,56.0470327 C25,54.1302533 26.5508112,52.5765435 28.4640147,52.5765435 L121.993394,52.5765435 C123.906597,52.5765435 125.457408,54.1302533 125.457408,56.0470327 L125.457408,73.3996758 C125.457408,75.3164552 123.906597,76.8701651 121.993394,76.8701651 Z" id="Shape" fill="#BDC3C7"></path>
            <circle id="Oval" fill="#2ECC71" cx="117.578396" cy="60.4555559" r="2.62633747"></circle>
            <circle id="Oval" fill="#E74C3C" cx="117.578396" cy="68.9911527" r="2.62633747"></circle>
            <path d="M107.979684,71.6174901 L75.3069432,71.6174901 C74.3572901,71.6174901 73.5872432,70.8457046 73.5872432,69.8939074 L73.5872432,59.5528012 C73.5872432,58.6010039 74.3572901,57.8292184 75.3069432,57.8292184 L107.979684,57.8292184 C108.929337,57.8292184 109.699383,58.6010039 109.699383,59.5528012 L109.699383,69.8939074 C109.699383,70.8457046 108.929337,71.6174901 107.979684,71.6174901 Z" id="Shape" fill="#7F8C8D"></path>
            <path d="M104.678375,66.3648152 L78.608252,66.3648152 C77.6484453,66.3648152 76.8701651,65.4827996 76.8701651,64.3950621 L76.8701651,64.3950621 C76.8701651,63.3073246 77.6484453,62.425309 78.608252,62.425309 L104.678375,62.425309 C105.638181,62.425309 106.416462,63.3073246 106.416462,64.3950621 L106.416462,64.3950621 C106.416462,65.4827996 105.638181,66.3648152 104.678375,66.3648152 Z" id="Shape" fill="#34495E"></path>
            <path d="M121.993394,104.446709 L28.4640147,104.446709 C26.5508112,104.446709 25,102.892999 25,100.976219 L25,83.6235762 C25,81.7067968 26.5508112,80.1530869 28.4640147,80.1530869 L121.993394,80.1530869 C123.906597,80.1530869 125.457408,81.7067968 125.457408,83.6235762 L125.457408,100.976219 C125.457408,102.892999 123.906597,104.446709 121.993394,104.446709 Z" id="Shape" fill="#BDC3C7"></path>
            <circle id="Oval" fill="#2ECC71" cx="117.578396" cy="88.0320993" r="2.62633747"></circle>
            <circle id="Oval" fill="#E74C3C" cx="117.578396" cy="96.5676961" r="2.62633747"></circle>
            <g id="Group" transform="translate(36.818519, 29.405762)" fill="#34495E">
                <path d="M2.14826998,69.7480721 C1.19622264,69.7480721 0.424234312,68.9803955 0.424234312,68.0336656 L0.424234312,57.7478091 C0.424234312,56.8010792 1.19622264,56.0334026 2.14826998,56.0334026 C3.10031731,56.0334026 3.87230564,56.8010792 3.87230564,57.7478091 L3.87230564,68.0338598 C3.87211035,68.9805897 3.10031731,69.7480721 2.14826998,69.7480721 Z" id="Shape"></path>
                <path d="M9.04402205,69.7480721 C8.09197471,69.7480721 7.31998638,68.9803955 7.31998638,68.0336656 L7.31998638,57.7478091 C7.31998638,56.8010792 8.09197471,56.0334026 9.04402205,56.0334026 C9.99606938,56.0334026 10.7680577,56.8010792 10.7680577,57.7478091 L10.7680577,68.0338598 C10.7680577,68.9805897 9.99606938,69.7480721 9.04402205,69.7480721 Z" id="Shape"></path>
                <path d="M2.14826998,42.1259346 C1.19622264,42.1259346 0.424234312,41.3689202 0.424234312,40.4353393 L0.424234312,30.2921504 C0.424234312,29.3585695 1.19622264,28.6015551 2.14826998,28.6015551 C3.10031731,28.6015551 3.87230564,29.3585695 3.87230564,30.2921504 L3.87230564,40.4353393 C3.87211035,41.3689202 3.10031731,42.1259346 2.14826998,42.1259346 Z" id="Shape"></path>
                <path d="M9.04402205,42.1259346 C8.09197471,42.1259346 7.31998638,41.3689202 7.31998638,40.4353393 L7.31998638,30.2921504 C7.31998638,29.3585695 8.09197471,28.6015551 9.04402205,28.6015551 C9.99606938,28.6015551 10.7680577,29.3585695 10.7680577,30.2921504 L10.7680577,40.4353393 C10.7680577,41.3689202 9.99606938,42.1259346 9.04402205,42.1259346 Z" id="Shape"></path>
                <path d="M2.14826998,14.5030472 C1.19622264,14.5030472 0.424234312,13.7460328 0.424234312,12.8124519 L0.424234312,2.6694545 C0.424234312,1.7358736 1.19622264,0.978859186 2.14826998,0.978859186 C3.10031731,0.978859186 3.87230564,1.7358736 3.87230564,2.6694545 L3.87230564,12.8126434 C3.87211035,13.7462243 3.10031731,14.5030472 2.14826998,14.5030472 Z" id="Shape"></path>
                <path d="M9.04402205,14.5030472 C8.09197471,14.5030472 7.31998638,13.7460328 7.31998638,12.8124519 L7.31998638,2.6694545 C7.31998638,1.7358736 8.09197471,0.978859186 9.04402205,0.978859186 C9.99606938,0.978859186 10.7680577,1.7358736 10.7680577,2.6694545 L10.7680577,12.8126434 C10.7680577,13.7462243 9.99606938,14.5030472 9.04402205,14.5030472 Z" id="Shape"></path>
                <path d="M15.9397741,14.5030472 C14.9877268,14.5030472 14.2157385,13.7460328 14.2157385,12.8124519 L14.2157385,2.6694545 C14.2157385,1.7358736 14.9877268,0.978859186 15.9397741,0.978859186 C16.8918215,0.978859186 17.6638098,1.7358736 17.6638098,2.6694545 L17.6638098,12.8126434 C17.6638098,13.7462243 16.8918215,14.5030472 15.9397741,14.5030472 Z" id="Shape"></path>
                <path d="M22.8357215,14.5030472 C21.8836741,14.5030472 21.1116858,13.7460328 21.1116858,12.8124519 L21.1116858,2.6694545 C21.1116858,1.7358736 21.8836741,0.978859186 22.8357215,0.978859186 C23.7877688,0.978859186 24.5597571,1.7358736 24.5597571,2.6694545 L24.5597571,12.8126434 C24.5595619,13.7462243 23.7877688,14.5030472 22.8357215,14.5030472 Z" id="Shape"></path>
                <path d="M15.9397741,42.1259346 C14.9877268,42.1259346 14.2157385,41.3689202 14.2157385,40.4353393 L14.2157385,30.2921504 C14.2157385,29.3585695 14.9877268,28.6015551 15.9397741,28.6015551 C16.8918215,28.6015551 17.6638098,29.3585695 17.6638098,30.2921504 L17.6638098,40.4353393 C17.6638098,41.3689202 16.8918215,42.1259346 15.9397741,42.1259346 Z" id="Shape"></path>
                <path d="M22.8357215,42.1259346 C21.8836741,42.1259346 21.1116858,41.3689202 21.1116858,40.4353393 L21.1116858,30.2921504 C21.1116858,29.3585695 21.8836741,28.6015551 22.8357215,28.6015551 C23.7877688,28.6015551 24.5597571,29.3585695 24.5597571,30.2921504 L24.5597571,40.4353393 C24.5595619,41.3689202 23.7877688,42.1259346 22.8357215,42.1259346 Z" id="Shape"></path>
                <path d="M15.9397741,69.7480721 C14.9877268,69.7480721 14.2157385,68.9803955 14.2157385,68.0336656 L14.2157385,57.7478091 C14.2157385,56.8010792 14.9877268,56.0334026 15.9397741,56.0334026 C16.8918215,56.0334026 17.6638098,56.8010792 17.6638098,57.7478091 L17.6638098,68.0338598 C17.6638098,68.9805897 16.8918215,69.7480721 15.9397741,69.7480721 Z" id="Shape"></path>
                <path d="M22.8357215,69.7480721 C21.8836741,69.7480721 21.1116858,68.9803955 21.1116858,68.0336656 L21.1116858,57.7478091 C21.1116858,56.8010792 21.8836741,56.0334026 22.8357215,56.0334026 C23.7877688,56.0334026 24.5597571,56.8010792 24.5597571,57.7478091 L24.5597571,68.0338598 C24.5595619,68.9805897 23.7877688,69.7480721 22.8357215,69.7480721 Z" id="Shape"></path>
            </g>
            <path d="M107.979684,99.1940336 L75.3069432,99.1940336 C74.3572901,99.1940336 73.5872432,98.4222371 73.5872432,97.4704264 L73.5872432,87.129369 C73.5872432,86.1775583 74.3572901,85.4057619 75.3069432,85.4057619 L107.979684,85.4057619 C108.929337,85.4057619 109.699383,86.1775583 109.699383,87.129369 L109.699383,97.4706216 C109.699383,98.4224324 108.929337,99.1940336 107.979684,99.1940336 Z" id="Shape" fill="#7F8C8D"></path>
            <path d="M104.678375,94.597943 L78.608252,94.597943 C77.6484453,94.597943 76.8701651,93.7159274 76.8701651,92.6281899 L76.8701651,92.6281899 C76.8701651,91.5404524 77.6484453,90.6584368 78.608252,90.6584368 L104.678375,90.6584368 C105.638181,90.6584368 106.416462,91.5404524 106.416462,92.6281899 L106.416462,92.6281899 C106.416462,93.7161505 105.638181,94.597943 104.678375,94.597943 Z" id="Shape" fill="#34495E"></path>
        </g>
    </g>
</svg>