<?xml version="1.0" encoding="UTF-8"?>
<svg width="150px" height="150px" viewBox="0 0 150 150" version="1.1" xmlns="http://www.w3.org/2000/svg" xmlns:xlink="http://www.w3.org/1999/xlink">
    <!-- Generator: Sketch 46.2 (44496) - http://www.bohemiancoding.com/sketch -->
    <title>index</title>
    <desc>Created with Sketch.</desc>
    <defs></defs>
    <g id="Icons" stroke="none" stroke-width="1" fill="none" fill-rule="evenodd">
        <g id="index" fill-rule="nonzero">
            <g id="percentage">
                <circle id="Oval" fill="#34495E" cx="75" cy="75" r="75"></circle>
                <polygon id="Shape" fill="#F1C40F" points="108.287659 88.7621801 122.049689 75.0001493 108.287659 61.2381185 108.287659 41.7123414 88.7621801 41.7123414 75.0001493 27.9503106 61.2381185 41.7123414 41.7123414 41.7123414 41.7123414 61.2381185 27.9503106 75.0001493 41.7123414 88.7621801 41.7123414 108.287659 61.2381185 108.287659 75.0001493 122.049689 88.7621801 108.287659 108.287659 108.287659"></polygon>
                <polygon id="Shape" fill="#FFFFFF" points="63.9020651 101.634836 48.3651639 101.634836 48.3651639 86.0979349 37.2670807 75.0001483 48.3651639 63.9020651 48.3651639 48.3651639 63.9020651 48.3651639 75.0001483 37.2670807 86.0979349 48.3651639 101.634836 48.3651639 101.634836 63.9020651 112.732919 75.0001483 101.634836 86.0979349 101.634836 101.634836 86.0979349 101.634836 75.0001483 112.732919"></polygon>
                <path d="M70.0785562,57.5612881 C71.6018178,59.328809 72.4220584,61.33178 72.4220584,63.8062494 C72.4220584,66.2807189 71.6018178,68.2836898 70.0785562,70.0512107 C68.438075,71.8187316 66.5634518,72.6435548 64.1027299,72.6435548 C61.7592277,72.6435548 59.7673848,71.8187316 58.2441233,70.0512107 C56.7208617,68.2836898 55.9006211,66.2807189 55.9006211,63.8062494 C55.9006211,61.33178 56.7208617,59.328809 58.2441233,57.5612881 C59.8846045,55.7937672 61.7592277,54.9689441 64.2199496,54.9689441 C66.446232,55.0871179 68.438075,55.9116419 70.0785562,57.5612881 Z M92.3416779,56.0295165 L64.2199496,94.5595574 L57.1894432,94.5595574 L85.3111714,56.0295165 L92.3416779,56.0295165 L92.3416779,56.0295165 Z M66.3290123,66.7519182 C66.9148135,66.0449696 67.2664727,65.1022719 67.2664727,63.9241241 C67.2664727,62.8635517 66.9148135,61.9211531 66.3290123,61.0963299 C65.7432111,60.3893814 64.9229705,59.9181821 64.1027299,59.9181821 C63.1652695,59.9181821 62.4622486,60.271806 61.8764475,61.0963299 C61.2906463,61.8032785 60.9389871,62.7459762 60.9389871,63.9241241 C60.9389871,64.9846964 61.2906463,65.927095 61.8764475,66.7519182 C62.4622486,67.4588667 63.2824893,67.930066 64.1027299,67.930066 C65.0401902,67.8124905 65.7432111,67.4588667 66.3290123,66.7519182 Z M91.7558767,79.9487893 C93.2791383,81.7163102 94.0993789,83.7192811 94.0993789,86.1937506 C94.0993789,88.66822 93.2791383,90.671191 91.7558767,92.4387119 C90.1153955,94.2062328 88.2407723,95.0310559 85.7800504,95.0310559 C83.4365482,95.0310559 81.4447053,94.2062328 79.9214438,92.4387119 C78.3981822,90.671191 77.5779416,88.66822 77.5779416,86.1937506 C77.5779416,83.7192811 78.3981822,81.7163102 79.9214438,79.9487893 C81.561925,78.1812684 83.4365482,77.3564452 85.8972701,77.3564452 C88.2404748,77.3564452 90.2326152,78.1812684 91.7558767,79.9487893 Z M88.2404748,89.1394193 C88.8262759,88.4324708 89.0607154,87.489773 89.0607154,86.3116252 C89.0607154,85.2510528 88.7090562,84.3086542 88.123255,83.4838311 C87.5374539,82.7768825 86.7172132,82.3056833 85.8969726,82.3056833 C84.9595122,82.3056833 84.2564913,82.6593071 83.6706902,83.4838311 C83.084889,84.1907796 82.7332298,85.1334774 82.7332298,86.3116252 C82.7332298,87.3721976 83.084889,88.3145961 83.6706902,89.1394193 C84.2564913,89.8463678 85.076732,90.3175671 85.8969726,90.3175671 C86.7172132,90.3178663 87.6546736,89.8463678 88.2404748,89.1394193 Z" id="Shape" fill="#34495E"></path>
            </g>
        </g>
    </g>
</svg>