<?xml version="1.0" encoding="UTF-8"?>
<svg width="150px" height="150px" viewBox="0 0 150 150" version="1.1" xmlns="http://www.w3.org/2000/svg" xmlns:xlink="http://www.w3.org/1999/xlink">
    <!-- Generator: Sketch 46.2 (44496) - http://www.bohemiancoding.com/sketch -->
    <title>liquid</title>
    <desc>Created with Sketch.</desc>
    <defs></defs>
    <g id="Icons" stroke="none" stroke-width="1" fill="none" fill-rule="evenodd">
        <g id="liquid">
            <path d="M3.32913541,0.000383635413 C1.46388447,0.0284574534 -0.025981519,1.5661059 0.000343554581,3.43593534 L0.000343554581,145.732026 C0.000512078778,147.603002 1.51350742,149.119683 3.37992674,149.119841 L145.312435,149.119841 C146.53066,149.136253 147.663419,148.494153 148.277307,147.439213 C148.891195,146.384274 148.891195,145.079778 148.277307,144.024839 C147.663419,142.969899 146.53066,142.327799 145.312435,142.344211 L6.7594932,142.344211 L6.7594932,3.43593534 C6.77238442,2.52031607 6.4150097,1.63845511 5.7687828,0.991249754 C5.12255589,0.344044394 4.24251234,-0.0133864962 3.32913541,0.000383635413 Z" id="Shape" fill="#333333"></path>
            <path d="M17.0141494,123.097507 C84.0231193,110.766501 123.478934,85.5118502 135.381593,47.3335545" id="Path-2" stroke="#F1C40F" stroke-width="5"></path>
            <path d="M21.7776913,110.809425 C88.7866611,98.4784194 128.242476,73.2237686 140.145135,35.0454729" id="Path-2" stroke="#27AE60" stroke-width="5" transform="translate(80.961413, 72.927449) rotate(72.000000) translate(-80.961413, -72.927449) "></path>
        </g>
    </g>
</svg>