<?xml version="1.0" encoding="UTF-8"?>
<svg width="150px" height="150px" viewBox="0 0 150 150" version="1.1" xmlns="http://www.w3.org/2000/svg" xmlns:xlink="http://www.w3.org/1999/xlink">
    <!-- Generator: Sketch 46.2 (44496) - http://www.bohemiancoding.com/sketch -->
    <title>mining-rewards</title>
    <desc>Created with Sketch.</desc>
    <defs></defs>
    <g id="Icons" stroke="none" stroke-width="1" fill="none" fill-rule="evenodd">
        <g id="mining-rewards">
            <path d="M136.706691,14.4650673 C134.63969,12.0310782 131.62535,10.6356653 128.436639,10.6356653 L117.970563,10.6356653 L117.970563,7.35733859 C117.970563,3.30059238 114.674186,0 110.623274,0 L39.648341,0 C35.5968436,0 32.3013448,3.30059238 32.3013448,7.35704562 L32.3013448,10.6353723 L21.8340986,10.6353723 C18.6453876,10.6353723 15.6307552,12.0310782 13.5640467,14.4647743 C11.5184033,16.8732751 10.6342594,20.0367579 11.1389411,23.1436975 C13.8890911,40.0773244 24.5312935,55.0372169 39.6351754,63.2429946 C41.0152241,66.5655597 42.5781284,69.7126362 44.3186222,72.6446731 C49.878021,82.0123672 56.7893818,88.4864033 64.3967646,91.6173664 C65.1676843,99.4232411 59.980726,106.81808 52.16913,108.58029 C52.1524535,108.584099 52.1407508,108.589958 52.1243669,108.593767 C50.5997891,108.958514 49.4649134,110.328438 49.4649134,111.966723 L49.4649134,127.893414 L43.0324883,127.893414 C37.297548,127.893414 32.6319479,132.565396 32.6319479,138.30818 L32.6319479,146.528314 C32.6319479,148.445798 34.1840272,150 36.0988922,150 L114.503618,150 C116.418484,150 117.970563,148.445798 117.970563,146.528314 L117.970563,138.30818 C117.970563,132.565396 113.304963,127.893414 107.570022,127.893414 L101.137012,127.893414 L101.137012,111.967016 C101.137012,110.325508 99.9980405,108.953533 98.4693667,108.592009 C98.4550309,108.588493 98.4412801,108.583806 98.4269442,108.58029 C90.5562492,106.806361 85.3596361,99.3371081 86.2115975,91.4726396 C93.6861539,88.2909928 100.476391,81.8746716 105.95387,72.6452591 C107.694364,69.7129291 109.256976,66.5655597 110.637317,63.2424087 C125.740321,55.036338 136.381939,40.0767384 139.132089,23.1436975 C139.63677,20.0367579 138.752627,16.8735681 136.706691,14.4650673 Z" id="Path" fill="#000000"></path>
            <path d="M17.9827185,22.0289493 C17.8024959,20.9194745 18.1088158,19.8305075 18.8455049,18.9627323 C19.593019,18.0826525 20.6819614,17.5781593 21.8338061,17.5781593 L32.3010522,17.5781593 L32.3010522,23.9654765 C32.3010522,33.9809257 33.5775314,43.6823119 35.9967856,52.5543019 C26.4894588,45.0311426 19.9435169,34.102508 17.9827185,22.0289493 Z" id="Path" fill="#F9EAB0"></path>
            <path d="M107.570022,134.83708 C109.481669,134.83708 111.036967,136.394505 111.036967,138.308766 L111.036967,143.057213 L39.565544,143.057213 L39.565544,138.308766 C39.565544,136.394505 41.1208415,134.83708 43.0324883,134.83708 L107.570022,134.83708 L107.570022,134.83708 Z" id="Path" fill="#D08A4B"></path>
            <polygon id="Path" fill="#F1C40F" points="94.2031235 115.438702 94.2031235 127.893707 56.3993872 127.893707 56.3993872 115.438702"></polygon>
            <path d="M65.4915584,108.495622 C66.3484934,107.551089 67.1319935,106.527161 67.8326966,105.431163 C70.1431151,101.816214 71.3558142,97.7093705 71.4102321,93.5149287 C72.6416556,93.6828002 73.8844893,93.7727417 75.1378555,93.7727417 C76.5015203,93.7727417 77.8526045,93.6678587 79.1905232,93.4692255 C79.2695169,99.1056623 81.4602746,104.440927 85.1440127,108.495329 L65.4915584,108.495329 L65.4915584,108.495622 Z" id="Path" fill="#F9EAB0"></path>
            <path d="M111.036382,23.9657695 C111.036382,41.0690255 107.1142,57.0973771 99.9927743,69.0974006 C93.2075107,80.5319932 84.3801146,86.8293688 75.1372704,86.8293688 C65.8929632,86.8293688 57.064982,80.5322862 50.2788408,69.0979865 C43.1571227,57.0976701 39.2349408,41.0693185 39.2349408,23.9663554 L39.2349408,7.35704562 C39.2349408,7.12852955 39.4204297,6.94307997 39.6480485,6.94307997 L110.622689,6.94307997 C110.850893,6.94307997 111.036382,7.12882252 111.036382,7.35704562 L111.036382,23.9657695 L111.036382,23.9657695 Z" id="Path" fill="#F1C40F"></path>
            <path d="M132.288311,22.0289493 C130.327513,34.1016291 123.782156,45.0299708 114.275122,52.5537159 C116.694084,43.6817259 117.970563,33.9809257 117.970563,23.9657695 L117.970563,17.5784523 L128.436639,17.5784523 C129.588776,17.5784523 130.677718,18.0832384 131.42494,18.9630253 C132.161629,19.8305075 132.468241,20.9194745 132.288311,22.0289493 Z" id="Path" fill="#F9EAB0"></path>
        </g>
    </g>
</svg>