<?xml version="1.0" encoding="UTF-8"?>
<svg width="150px" height="150px" viewBox="0 0 150 150" version="1.1" xmlns="http://www.w3.org/2000/svg" xmlns:xlink="http://www.w3.org/1999/xlink">
    <!-- Generator: Sketch 46.2 (44496) - http://www.bohemiancoding.com/sketch -->
    <title>mining</title>
    <desc>Created with Sketch.</desc>
    <defs></defs>
    <g id="Icons" stroke="none" stroke-width="1" fill="none" fill-rule="evenodd">
        <g id="mining" fill-rule="nonzero">
            <g id="Group-2">
                <g id="pickaxe" transform="translate(74.744557, 71.484763) rotate(50.000000) translate(-74.744557, -71.484763) translate(35.732460, 6.767021)">
                    <rect id="Rectangle-path" fill="#CBD0D8" x="32.0564516" y="2.41935484" width="13.3064516" height="29.0322581"></rect>
                    <rect id="Rectangle-path" fill="#CC7400" x="32.0564516" y="31.4516129" width="13.3064516" height="95.5645161"></rect>
                    <g id="Group" transform="translate(1.814516, 10.887097)" fill="#A9B1BC">
                        <path d="M30.3851776,20.3110176 L30.3851776,0.128083491 C13.117552,2.69842564 0.039741005,14.8587968 0.039741005,29.4745464 C0.039741005,29.6715637 0.0443509615,29.8679139 0.0489609181,30.0638194 C5.01531483,25.2442333 16.4624729,21.5002372 30.3851776,20.5585122 L30.3851776,20.3110176 L30.3851776,20.3110176 Z" id="Shape"></path>
                        <path d="M44.0096658,0.128083491 L44.0096658,20.3112399 L44.0096658,20.5587346 C57.9323705,21.5004596 69.3793696,25.2442333 74.3458824,30.0640417 C74.3506514,29.8679139 74.3551024,29.6717861 74.3551024,29.4747687 C74.3552613,14.8587968 61.2776093,2.69842564 44.0096658,0.128083491 Z" id="Shape"></path>
                    </g>
                    <path d="M67.8906162,18.556014 C62.4528955,13.4037692 55.7162048,10.2552269 47.6122758,8.76939756 L47.6122758,2.45893051 C47.6122758,1.10100706 46.8182758,0 45.8389986,0 L32.1848763,0 C31.2054398,0 30.4115992,1.10100706 30.4115992,2.45893051 L30.4115992,8.76939756 C22.3076701,10.255006 14.9268482,13.8589043 9.48928686,19.0109282 C3.37003902,24.8091088 0,32.3003309 0,40.1054636 C0,40.3290228 0.00493860308,40.5514775 0.0105144453,40.7745949 C0.0324991945,41.6741336 0.40719579,42.485088 0.987242687,42.8889084 C1.23847421,43.0636469 1.51105323,43.150243 1.78251709,43.150243 C2.1377779,43.150243 2.49128629,43.0022344 2.79349694,42.711519 C7.3390828,38.3386389 18.0537805,34.9249426 30.4115992,33.84934 L31.0369984,129.385866 L46.7767117,129.184775 L47.6122758,33.84934 C59.9699352,34.9249426 70.6847921,38.338418 75.2305373,42.71174 C75.5329073,43.0024553 75.8862563,43.150243 76.2415171,43.150243 C76.5131403,43.150243 76.7858787,43.0636469 77.0374288,42.8886875 C77.617635,42.4844253 77.9921723,41.6732499 78.0138384,40.7730485 C78.0190956,40.5510357 78.0241935,40.3288019 78.0241935,40.1056845 C78.0235563,32.3005518 74.0095454,24.3541946 67.8906162,18.556014 Z M44.0654029,4.91786101 L44.0654029,10.9517509 L44.0654029,28.789214 L33.9578348,28.789214 L33.9578348,10.9517509 L33.9578348,4.91786101 L44.0654029,4.91786101 Z M11.489899,23.071444 C16.3752927,18.4425311 23.0361937,15.1653561 30.4114399,13.732103 L30.4114399,28.9199917 C19.4319693,29.8469231 9.81316363,32.5404582 3.91647155,36.2559152 C4.83568897,31.4812028 7.44550173,26.9037615 11.489899,23.071444 Z M40.9097665,126.591879 L40.7849477,60.5084525 C40.7849477,58.4906256 39.9911196,56.8539729 39.0116985,56.8539729 C38.0322774,56.8539729 37.2384493,58.4902973 37.2384493,60.5084525 L37.3632682,126.591879 L34.082813,126.591879 L33.9579941,33.707075 L44.0654029,33.707075 L44.1902218,126.591879 L40.9097665,126.591879 Z M47.6119571,28.9197708 L47.6119571,13.732103 C54.9872033,15.1653561 61.6481043,18.4425311 66.533498,23.071444 C70.5778953,26.9037615 73.1875487,31.4809819 74.1069254,36.2556943 C68.2102334,32.5402373 58.591587,29.8467021 47.6119571,28.9197708 Z" id="Shape" fill="#000000"></path>
                </g>
                <polygon id="Shape" fill="#FECD57" points="103.363415 104.637097 83.7269585 117.448518 78.6290323 132.459677 112.615207 132.459677 114.314516 123.01845"></polygon>
                <polygon id="Shape" fill="#F5BA45" points="131.25 131.954751 124.797622 117.11306 106.451613 105.846774 115.815911 123.062193 114.170175 133.064516"></polygon>
            </g>
        </g>
    </g>
</svg>