<?xml version="1.0" encoding="UTF-8"?>
<svg width="150px" height="150px" viewBox="0 0 150 150" version="1.1" xmlns="http://www.w3.org/2000/svg" xmlns:xlink="http://www.w3.org/1999/xlink">
    <!-- Generator: Sketch 46.2 (44496) - http://www.bohemiancoding.com/sketch -->
    <title>multi-sig</title>
    <desc>Created with Sketch.</desc>
    <defs></defs>
    <g id="Icons" stroke="none" stroke-width="1" fill="none" fill-rule="evenodd">
        <g id="multi-sig" fill-rule="nonzero">
            <g id="Group" transform="translate(5.000000, 87.000000)">
                <path d="M56.3011762,46.9407365 C55.9506823,46.618228 52.4935193,46.8413053 52.4935193,46.8413053 L52.4540994,43.182709 L50.7631167,41.2493723 L46.7549328,41.1837992 L46.7510765,41.1782276 L46.7510765,41.1782276 C46.7341517,41.2326576 46.7491484,37.1540502 46.7491484,37.1540502 L44.8782055,35.7982288 C44.8782055,35.7982288 41.2393684,35.6912974 41.2093751,35.6632252 L40.9169398,31.9240553 L37.5480429,27.9354503 C38.7122137,25.4226699 39.3834222,22.6304535 39.3834222,19.6768757 C39.3834222,8.80994667 30.5681599,3.90845561e-07 19.6947105,3.90845561e-07 C8.81526233,-0.00214252273 0,8.80780376 0,19.6747328 C0,30.5435904 8.81526233,39.355251 19.6906399,39.355251 C22.7071149,39.355251 25.5549843,38.655804 28.1102042,37.4424864 L50.5043169,59.9771512 C50.5043169,59.9771512 59.9850033,60.0032948 59.9850033,59.9996518 L60,50.4285426 C60,50.4285426 58.5114725,48.9771473 56.3011762,46.9407365 Z M15.9337575,20.6499727 C13.3560426,20.6499727 11.2674336,18.5477745 11.2674336,15.9544205 C11.2674336,13.3610665 13.3558284,11.2569397 15.9337575,11.2569397 C18.5116867,11.2569397 20.6020096,13.3608522 20.6020096,15.9544205 C20.6020096,18.5479888 18.5114725,20.6499727 15.9337575,20.6499727 Z" id="Shape" fill="#EFC75E" transform="translate(30.000000, 30.000000) scale(1, -1) translate(-30.000000, -30.000000) "></path>
                <path d="M16.1538462,35.3846154 C12.3304216,35.3846154 9.23076923,38.4842678 9.23076923,42.3076923 C9.23076923,46.1311168 12.3304216,49.2307692 16.1538462,49.2307692 C19.979305,49.2307692 23.0769231,46.1311168 23.0769231,42.3076923 C23.0769231,38.4842678 19.979305,35.3846154 16.1538462,35.3846154 Z M16.1538462,45.2748867 C14.5159783,45.2748867 13.1868778,43.9455601 13.1868778,42.3079183 C13.1868778,40.6682422 14.5162044,39.34095 16.1538462,39.34095 C17.791714,39.34095 19.1208145,40.6682422 19.1208145,42.3079183 C19.1208145,43.9455601 17.791714,45.2748867 16.1538462,45.2748867 Z" id="Shape" fill="#CA9F30" transform="translate(16.153846, 42.307692) scale(1, -1) translate(-16.153846, -42.307692) "></path>
                <path d="M32.1180803,0 C30.3767757,1.59970895 28.361888,2.86282209 26.1538462,3.72232784 L47.8062832,26.1538462 L56.9230769,26.1538462 L32.1180803,0 Z" id="Shape" fill="#CA9F30" transform="translate(41.538462, 13.076923) scale(1, -1) translate(-41.538462, -13.076923) "></path>
            </g>
            <g id="Group" transform="translate(113.000000, 117.000000) scale(-1, 1) translate(-113.000000, -117.000000) translate(83.000000, 87.000000)">
                <path d="M56.3011762,46.9407365 C55.9506823,46.618228 52.4935193,46.8413053 52.4935193,46.8413053 L52.4540994,43.182709 L50.7631167,41.2493723 L46.7549328,41.1837992 L46.7510765,41.1782276 L46.7510765,41.1782276 C46.7341517,41.2326576 46.7491484,37.1540502 46.7491484,37.1540502 L44.8782055,35.7982288 C44.8782055,35.7982288 41.2393684,35.6912974 41.2093751,35.6632252 L40.9169398,31.9240553 L37.5480429,27.9354503 C38.7122137,25.4226699 39.3834222,22.6304535 39.3834222,19.6768757 C39.3834222,8.80994667 30.5681599,3.90845561e-07 19.6947105,3.90845561e-07 C8.81526233,-0.00214252273 0,8.80780376 0,19.6747328 C0,30.5435904 8.81526233,39.355251 19.6906399,39.355251 C22.7071149,39.355251 25.5549843,38.655804 28.1102042,37.4424864 L50.5043169,59.9771512 C50.5043169,59.9771512 59.9850033,60.0032948 59.9850033,59.9996518 L60,50.4285426 C60,50.4285426 58.5114725,48.9771473 56.3011762,46.9407365 Z M15.9337575,20.6499727 C13.3560426,20.6499727 11.2674336,18.5477745 11.2674336,15.9544205 C11.2674336,13.3610665 13.3558284,11.2569397 15.9337575,11.2569397 C18.5116867,11.2569397 20.6020096,13.3608522 20.6020096,15.9544205 C20.6020096,18.5479888 18.5114725,20.6499727 15.9337575,20.6499727 Z" id="Shape" fill="#EFC75E" transform="translate(30.000000, 30.000000) scale(1, -1) translate(-30.000000, -30.000000) "></path>
                <path d="M16.1538462,35.3846154 C12.3304216,35.3846154 9.23076923,38.4842678 9.23076923,42.3076923 C9.23076923,46.1311168 12.3304216,49.2307692 16.1538462,49.2307692 C19.979305,49.2307692 23.0769231,46.1311168 23.0769231,42.3076923 C23.0769231,38.4842678 19.979305,35.3846154 16.1538462,35.3846154 Z M16.1538462,45.2748867 C14.5159783,45.2748867 13.1868778,43.9455601 13.1868778,42.3079183 C13.1868778,40.6682422 14.5162044,39.34095 16.1538462,39.34095 C17.791714,39.34095 19.1208145,40.6682422 19.1208145,42.3079183 C19.1208145,43.9455601 17.791714,45.2748867 16.1538462,45.2748867 Z" id="Shape" fill="#CA9F30" transform="translate(16.153846, 42.307692) scale(1, -1) translate(-16.153846, -42.307692) "></path>
                <path d="M32.1180803,0 C30.3767757,1.59970895 28.361888,2.86282209 26.1538462,3.72232784 L47.8062832,26.1538462 L56.9230769,26.1538462 L32.1180803,0 Z" id="Shape" fill="#CA9F30" transform="translate(41.538462, 13.076923) scale(1, -1) translate(-41.538462, -13.076923) "></path>
            </g>
            <g id="Group" transform="translate(74.419945, 37.419945) scale(-1, 1) rotate(-224.000000) translate(-74.419945, -37.419945) translate(44.419945, 7.419945)">
                <path d="M56.3011762,46.9407365 C55.9506823,46.618228 52.4935193,46.8413053 52.4935193,46.8413053 L52.4540994,43.182709 L50.7631167,41.2493723 L46.7549328,41.1837992 L46.7510765,41.1782276 L46.7510765,41.1782276 C46.7341517,41.2326576 46.7491484,37.1540502 46.7491484,37.1540502 L44.8782055,35.7982288 C44.8782055,35.7982288 41.2393684,35.6912974 41.2093751,35.6632252 L40.9169398,31.9240553 L37.5480429,27.9354503 C38.7122137,25.4226699 39.3834222,22.6304535 39.3834222,19.6768757 C39.3834222,8.80994667 30.5681599,3.90845561e-07 19.6947105,3.90845561e-07 C8.81526233,-0.00214252273 0,8.80780376 0,19.6747328 C0,30.5435904 8.81526233,39.355251 19.6906399,39.355251 C22.7071149,39.355251 25.5549843,38.655804 28.1102042,37.4424864 L50.5043169,59.9771512 C50.5043169,59.9771512 59.9850033,60.0032948 59.9850033,59.9996518 L60,50.4285426 C60,50.4285426 58.5114725,48.9771473 56.3011762,46.9407365 Z M15.9337575,20.6499727 C13.3560426,20.6499727 11.2674336,18.5477745 11.2674336,15.9544205 C11.2674336,13.3610665 13.3558284,11.2569397 15.9337575,11.2569397 C18.5116867,11.2569397 20.6020096,13.3608522 20.6020096,15.9544205 C20.6020096,18.5479888 18.5114725,20.6499727 15.9337575,20.6499727 Z" id="Shape" fill="#EFC75E" transform="translate(30.000000, 30.000000) scale(1, -1) translate(-30.000000, -30.000000) "></path>
                <path d="M16.1538462,35.3846154 C12.3304216,35.3846154 9.23076923,38.4842678 9.23076923,42.3076923 C9.23076923,46.1311168 12.3304216,49.2307692 16.1538462,49.2307692 C19.979305,49.2307692 23.0769231,46.1311168 23.0769231,42.3076923 C23.0769231,38.4842678 19.979305,35.3846154 16.1538462,35.3846154 Z M16.1538462,45.2748867 C14.5159783,45.2748867 13.1868778,43.9455601 13.1868778,42.3079183 C13.1868778,40.6682422 14.5162044,39.34095 16.1538462,39.34095 C17.791714,39.34095 19.1208145,40.6682422 19.1208145,42.3079183 C19.1208145,43.9455601 17.791714,45.2748867 16.1538462,45.2748867 Z" id="Shape" fill="#CA9F30" transform="translate(16.153846, 42.307692) scale(1, -1) translate(-16.153846, -42.307692) "></path>
                <path d="M32.1180803,0 C30.3767757,1.59970895 28.361888,2.86282209 26.1538462,3.72232784 L47.8062832,26.1538462 L56.9230769,26.1538462 L32.1180803,0 Z" id="Shape" fill="#CA9F30" transform="translate(41.538462, 13.076923) scale(1, -1) translate(-41.538462, -13.076923) "></path>
            </g>
        </g>
    </g>
</svg>