<?xml version="1.0" encoding="UTF-8"?>
<svg width="80px" height="80px" viewBox="0 0 80 80" version="1.1" xmlns="http://www.w3.org/2000/svg" xmlns:xlink="http://www.w3.org/1999/xlink">
    <!-- Generator: Sketch 46.2 (44496) - http://www.bohemiancoding.com/sketch -->
    <title>no</title>
    <desc>Created with Sketch.</desc>
    <defs></defs>
    <g id="Icons" stroke="none" stroke-width="1" fill="none" fill-rule="evenodd">
        <g id="no">
            <g id="Group">
                <circle id="Oval-12" fill="#E74C3C" cx="40" cy="40" r="40"></circle>
                <path d="M55.1635424,29.6312421 L44.5774747,40.2173098 L55.1635424,50.8033775 C56.8868557,52.7728784 56.8868557,54.6192856 55.0404486,56.2195051 C53.1940414,57.9428185 51.3476342,57.9428185 49.7474147,56.2195051 L39.161347,45.6334374 L28.5752793,56.2195051 C26.6057784,57.9428185 24.7593712,57.9428185 23.1591517,56.2195051 C21.5589321,54.4961918 21.4358383,52.7728784 23.1591517,50.8033775 L33.7452194,40.2173098 L23.1591517,29.6312421 C21.4358383,27.6617411 21.4358383,25.815334 23.1591517,24.2151144 C24.882465,22.6148949 26.6057784,22.4918011 28.5752793,24.2151144 L39.161347,34.8011821 L49.7474147,24.2151144 C51.4707281,22.4918011 53.1940414,22.4918011 55.0404486,24.2151144 C57.0099495,25.815334 57.0099495,27.6617411 55.1635424,29.6312421 L55.1635424,29.6312421 Z" id="Shape" fill="#FFFFFF" fill-rule="nonzero"></path>
            </g>
        </g>
    </g>
</svg>