<?xml version="1.0" encoding="UTF-8"?>
<svg width="150px" height="150px" viewBox="0 0 150 150" version="1.1" xmlns="http://www.w3.org/2000/svg" xmlns:xlink="http://www.w3.org/1999/xlink">
    <!-- Generator: Sketch 46.2 (44496) - http://www.bohemiancoding.com/sketch -->
    <title>over-the-counter</title>
    <desc>Created with Sketch.</desc>
    <defs></defs>
    <g id="Icons" stroke="none" stroke-width="1" fill="none" fill-rule="evenodd">
        <g id="over-the-counter">
            <g id="Group" transform="translate(5.000000, 9.000000)">
                <path d="M134.4125,0.863636364 L1.9325,0.863636364 C0.8975,0.863636364 0.2075,1.55454545 0.2075,2.59090909 L0.2075,13.6454545 L0.2075,36.4454545 C0.2075,37.4818182 0.8975,38.1727273 1.9325,38.1727273 L6.4175,38.1727273 L6.4175,130.754545 C6.4175,131.790909 7.1075,132.481818 8.1425,132.481818 L8.315,132.481818 L128.2025,132.481818 C129.2375,132.481818 129.9275,131.790909 129.9275,130.754545 L129.9275,82.0454545 L129.9275,38.1727273 L134.4125,38.1727273 C135.4475,38.1727273 136.1375,37.4818182 136.1375,36.4454545 L136.1375,13.6454545 L136.1375,2.59090909 C136.1375,1.72727273 135.275,0.863636364 134.4125,0.863636364 Z" id="Path" fill="#333333"></path>
                <polygon id="Path" fill="#E74C3C" points="3.6575 15.3727273 14.6975 15.3727273 14.6975 34.7181818 8.1425 34.7181818 3.6575 34.7181818 3.6575 15.3727273"></polygon>
                <polygon id="Path" fill="#ECF0F1" points="116.99 34.7181818 105.4325 34.7181818 105.4325 15.3727273 116.99 15.3727273"></polygon>
                <polygon id="Path" fill="#E74C3C" points="101.81 34.7181818 90.77 34.7181818 90.77 15.3727273 101.81 15.3727273"></polygon>
                <polygon id="Path" fill="#ECF0F1" points="87.4925 34.7181818 75.935 34.7181818 75.935 15.3727273 87.4925 15.3727273"></polygon>
                <polygon id="Path" fill="#E74C3C" points="72.485 34.7181818 61.445 34.7181818 61.445 15.3727273 72.485 15.3727273"></polygon>
                <polygon id="Path" fill="#ECF0F1" points="58.1675 34.7181818 47.4725 34.7181818 47.4725 15.3727273 58.1675 15.3727273"></polygon>
                <polygon id="Path" fill="#E74C3C" points="44.0225 34.7181818 32.465 34.7181818 32.465 15.3727273 44.0225 15.3727273"></polygon>
                <polygon id="Path" fill="#ECF0F1" points="29.015 34.7181818 17.975 34.7181818 17.975 15.3727273 29.015 15.3727273"></polygon>
                <polygon id="Path" fill="#F3D39D" points="126.4375 129.254545 10 129.254545 10 84 126.4375 84"></polygon>
                <polygon id="Path" fill="#FFFFFF" points="126.4775 80.3181818 9.8675 80.3181818 9.8675 38.1727273 126.4775 38.1727273"></polygon>
                <polygon id="Path" fill="#E74C3C" points="132.6875 34.7181818 128.2025 34.7181818 120.44 34.7181818 120.44 15.3727273 132.6875 15.3727273"></polygon>
                <polygon id="Path" fill="#F9BA48" points="132.6875 11.9181818 3.6575 11.9181818 3.6575 4.31818182 132.6875 4.31818182"></polygon>
            </g>
            <path d="M79.1117444,123.999056 C79.0295346,123.999056 78.9465775,123.985738 78.8666098,123.957622 L74.0005396,122.244048 L69.1352168,123.957622 C68.9087663,124.03901 68.6561581,124.001276 68.4603494,123.860697 C68.2652881,123.720859 68.1524365,123.493714 68.1591628,123.255471 L68.3011614,118.145081 L65.1517804,114.092728 C65.0045502,113.904057 64.9612032,113.655456 65.0359394,113.428311 C65.1106755,113.200426 65.2930317,113.024333 65.5247138,112.957744 L70.4774779,111.512007 L73.3966716,107.294659 C73.6679638,106.90178 74.3293787,106.90178 74.6029129,107.294659 L77.522854,111.512007 L82.4756182,112.957744 C82.7073002,113.025073 82.8896564,113.201166 82.9643925,113.428311 C83.0383813,113.655456 82.9957817,113.904057 82.8485515,114.092728 L79.6991705,118.145081 L79.8411691,123.255471 C79.8478954,123.493714 79.7350438,123.720859 79.5399825,123.860697 C79.4144258,123.950964 79.2642061,123.999056 79.1117444,123.999056 Z" id="Shape" fill="#F5A623" fill-rule="nonzero"></path>
            <path d="M73.9985135,120.541446 C74.0810151,120.541446 74.1635167,120.555233 74.242302,120.582082 L78.3257592,122 L78.206838,117.771644 C78.2023784,117.608373 78.2551497,117.44873 78.3577193,117.319565 L81,113.966341 L76.8437035,112.769746 C76.6831599,112.72403 76.5441707,112.624616 76.449777,112.490371 L74,109 L71.550223,112.490371 C71.4558293,112.624616 71.3168401,112.72403 71.1562965,112.769746 L67,113.966341 L69.6422807,117.319565 C69.744107,117.44873 69.7976216,117.608373 69.7924188,117.771644 L69.6734976,122 L73.7562115,120.582082 C73.8335103,120.555233 73.9160119,120.541446 73.9985135,120.541446 Z" id="Path" fill="#F5A623"></path>
            <path d="M50.1117444,123.999056 C50.0295346,123.999056 49.9465775,123.985738 49.8666098,123.957622 L45.0005396,122.244048 L40.1352168,123.957622 C39.9087663,124.03901 39.6561581,124.001276 39.4603494,123.860697 C39.2652881,123.720859 39.1524365,123.493714 39.1591628,123.255471 L39.3011614,118.145081 L36.1517804,114.092728 C36.0045502,113.904057 35.9612032,113.655456 36.0359394,113.428311 C36.1106755,113.200426 36.2930317,113.024333 36.5247138,112.957744 L41.4774779,111.512007 L44.3966716,107.294659 C44.6679638,106.90178 45.3293787,106.90178 45.6029129,107.294659 L48.522854,111.512007 L53.4756182,112.957744 C53.7073002,113.025073 53.8896564,113.201166 53.9643925,113.428311 C54.0383813,113.655456 53.9957817,113.904057 53.8485515,114.092728 L50.6991705,118.145081 L50.8411691,123.255471 C50.8478954,123.493714 50.7350438,123.720859 50.5399825,123.860697 C50.4144258,123.950964 50.2642061,123.999056 50.1117444,123.999056 Z" id="Shape" fill="#F5A623" fill-rule="nonzero"></path>
            <path d="M44.9985135,120.541446 C45.0810151,120.541446 45.1635167,120.555233 45.242302,120.582082 L49.3257592,122 L49.206838,117.771644 C49.2023784,117.608373 49.2551497,117.44873 49.3577193,117.319565 L52,113.966341 L47.8437035,112.769746 C47.6831599,112.72403 47.5441707,112.624616 47.449777,112.490371 L45,109 L42.550223,112.490371 C42.4558293,112.624616 42.3168401,112.72403 42.1562965,112.769746 L38,113.966341 L40.6422807,117.319565 C40.744107,117.44873 40.7976216,117.608373 40.7924188,117.771644 L40.6734976,122 L44.7562115,120.582082 C44.8335103,120.555233 44.9160119,120.541446 44.9985135,120.541446 Z" id="Path" fill="#F5A623"></path>
            <path d="M108.111744,123.999056 C108.029535,123.999056 107.946578,123.985738 107.86661,123.957622 L103.00054,122.244048 L98.1352168,123.957622 C97.9087663,124.03901 97.6561581,124.001276 97.4603494,123.860697 C97.2652881,123.720859 97.1524365,123.493714 97.1591628,123.255471 L97.3011614,118.145081 L94.1517804,114.092728 C94.0045502,113.904057 93.9612032,113.655456 94.0359394,113.428311 C94.1106755,113.200426 94.2930317,113.024333 94.5247138,112.957744 L99.4774779,111.512007 L102.396672,107.294659 C102.667964,106.90178 103.329379,106.90178 103.602913,107.294659 L106.522854,111.512007 L111.475618,112.957744 C111.7073,113.025073 111.889656,113.201166 111.964393,113.428311 C112.038381,113.655456 111.995782,113.904057 111.848552,114.092728 L108.69917,118.145081 L108.841169,123.255471 C108.847895,123.493714 108.735044,123.720859 108.539982,123.860697 C108.414426,123.950964 108.264206,123.999056 108.111744,123.999056 Z" id="Shape" fill="#F5A623" fill-rule="nonzero"></path>
            <path d="M102.998513,120.541446 C103.081015,120.541446 103.163517,120.555233 103.242302,120.582082 L107.325759,122 L107.206838,117.771644 C107.202378,117.608373 107.25515,117.44873 107.357719,117.319565 L110,113.966341 L105.843704,112.769746 C105.68316,112.72403 105.544171,112.624616 105.449777,112.490371 L103,109 L100.550223,112.490371 C100.455829,112.624616 100.31684,112.72403 100.156296,112.769746 L96,113.966341 L98.6422807,117.319565 C98.744107,117.44873 98.7976216,117.608373 98.7924188,117.771644 L98.6734976,122 L102.756212,120.582082 C102.83351,120.555233 102.916012,120.541446 102.998513,120.541446 Z" id="Path" fill="#F5A623"></path>
        </g>
    </g>
</svg>