<?xml version="1.0" encoding="UTF-8"?>
<svg width="150px" height="150px" viewBox="0 0 150 150" version="1.1" xmlns="http://www.w3.org/2000/svg" xmlns:xlink="http://www.w3.org/1999/xlink">
    <!-- Generator: Sketch 46.2 (44496) - http://www.bohemiancoding.com/sketch -->
    <title>signature</title>
    <desc>Created with Sketch.</desc>
    <defs></defs>
    <g id="Icons" stroke="none" stroke-width="1" fill="none" fill-rule="evenodd">
        <g id="signature">
            <path d="M145.015308,52.6326774 C139.231122,46.8503532 129.819704,46.8503532 124.023979,52.6445426 L119.059653,57.6414542 L119.059653,28.5834953 C119.059653,24.6218253 117.516522,20.8974601 114.714425,18.096276 L100.728997,4.11276771 C100.270772,3.65463783 98.9955046,1.59002822 98.4904679,1.20012343 L5.32782942,1.20012343 C2.59693911,1.20012343 0.382953192,5.47905838 0.382953192,8.20938064 L0.382953192,143.469945 C0.382953192,146.200268 2.59693911,148.413793 5.32782942,148.413793 L114.115106,148.413793 C116.845997,148.413793 119.059983,146.200268 119.059983,143.469945 L119.059983,99.7340324 L145.015308,73.607775 C150.799495,67.8251212 150.799495,58.4156608 145.015308,52.6326774 Z" id="Path" fill="#333333"></path>
            <path d="M89.391055,9.65646888 L90.2392661,9.65646888 C91.5602073,9.65646888 92.8020306,10.170629 93.7359529,11.1043571 L107.722041,25.0878654 C108.655963,26.0215934 109.17056,27.2631583 109.17056,28.5834953 L109.17056,29.4318595 L89.391055,29.4318595 L89.391055,9.65646888 L89.391055,9.65646888 Z" id="Path" fill="#FFFFFF"></path>
            <path d="M109.17056,138.526098 L109.17056,138.526098 L10.2727057,138.526098 L10.2727057,9.65646888 L79.5009729,9.65646888 L79.5009729,34.3757072 C79.5009729,37.1060294 81.7149588,39.3195548 84.4458491,39.3195548 L109.17023,39.3195548 L109.17023,67.5960563 L75.4023298,101.586327 C74.7614738,102.231664 74.3105011,103.041137 74.100179,103.925756 L69.745721,122.220299 C68.8919057,125.807226 72.1275031,129.014135 75.6881436,128.177636 L94.0290192,123.866271 C94.929646,123.654345 95.7531327,123.193908 96.4055267,122.537694 C97.7505331,121.183739 107.825554,111.042589 109.17056,109.688964 L109.17056,138.526098 L109.17056,138.526098 Z" id="Path" fill="#FFFFFF"></path>
            <path d="M92.2894118,112.64934 L90.3862937,114.564916 L81.2204712,116.719445 L83.3991836,107.567724 L85.2891153,105.665331 C86.8048847,106.388451 88.1993398,107.365685 89.4002854,108.566051 C90.5939785,109.759496 91.5671302,111.144433 92.2894118,112.64934 Z" id="Path" fill="#F9EAB0"></path>
            <path d="M99.5092607,105.382214 C98.6030297,104.0187 97.5603202,102.74154 96.3933294,101.574462 C95.2026032,100.383984 93.8964965,99.3240226 92.5017118,98.4054557 C94.2950536,96.6002921 118.780432,71.9538932 120.575093,70.1474113 L127.568137,77.1390006 L99.5092607,105.382214 Z" id="Path" fill="#C0392B"></path>
            <path d="M138.010726,66.6280509 L134.537775,70.1236808 L127.544731,63.1320914 L131.02955,59.6245963 C132.957393,57.6968253 136.095411,57.6974845 138.022594,59.6242667 C139.950766,61.5520377 139.950766,64.6884147 138.010726,66.6280509 Z" id="Path" fill="#C0392B"></path>
            <path d="M64.2672414,19.75 L24.9568966,19.75 C22.2431724,19.75 20.0431034,21.9211207 20.0431034,24.5991379 C20.0431034,27.2771552 22.2431724,29.4482759 24.9568966,29.4482759 L64.2672414,29.4482759 C66.9809655,29.4482759 69.1810345,27.2771552 69.1810345,24.5991379 C69.1810345,21.9211207 66.9809655,19.75 64.2672414,19.75 Z" id="Shape" fill="#333333" fill-rule="nonzero"></path>
            <path d="M64.2672414,39.1465517 L24.9568966,39.1465517 C22.2431724,39.1465517 20.0431034,41.3176724 20.0431034,43.9956897 C20.0431034,46.6737069 22.2431724,48.8448276 24.9568966,48.8448276 L64.2672414,48.8448276 C66.9809655,48.8448276 69.1810345,46.6737069 69.1810345,43.9956897 C69.1810345,41.3176724 66.9809655,39.1465517 64.2672414,39.1465517 Z" id="Shape" fill="#333333" fill-rule="nonzero"></path>
            <path d="M93.9924569,59.1896552 L24.9730603,59.1896552 C22.2504095,59.1896552 20.0431034,61.3607759 20.0431034,64.0387931 C20.0431034,66.7168103 22.2504095,68.887931 24.9730603,68.887931 L93.9924569,68.887931 C96.7151078,68.887931 98.9224138,66.7168103 98.9224138,64.0387931 C98.9224138,61.3607759 96.7151078,59.1896552 93.9924569,59.1896552 Z" id="Shape" fill="#333333" fill-rule="nonzero"></path>
            <path d="M67.7417845,90.3752563 C65.8231121,88.4496272 62.7116983,88.4496272 60.7930259,90.3752563 L34.7846466,116.468698 L28.4314397,110.094961 C26.5127672,108.16966 23.4013534,108.16966 21.4823534,110.094961 C19.5633534,112.020261 19.5633534,115.141562 21.4823534,117.066862 L31.3099397,126.926714 C33.2286121,128.852015 36.3403534,128.852015 38.2590259,126.926714 L67.7417845,97.3471578 C69.6607845,95.4218573 69.6607845,92.3005568 67.7417845,90.3752563 Z" id="Shape" fill="#27AE60" fill-rule="nonzero"></path>
        </g>
    </g>
</svg>