<?xml version="1.0" encoding="UTF-8"?>
<svg width="150px" height="150px" viewBox="0 0 150 150" version="1.1" xmlns="http://www.w3.org/2000/svg" xmlns:xlink="http://www.w3.org/1999/xlink">
    <!-- Generator: Sketch 46.2 (44496) - http://www.bohemiancoding.com/sketch -->
    <title>smart-contract</title>
    <desc>Created with Sketch.</desc>
    <defs></defs>
    <g id="Icons" stroke="none" stroke-width="1" fill="none" fill-rule="evenodd">
        <g id="smart-contract">
            <path d="M119.038493,93.2471429 C120.741955,93.2471429 122.119756,91.8665306 122.119756,90.1595918 C122.119756,88.4526531 120.741955,87.0720408 119.038493,87.0720408 L106.813646,87.0720408 L106.813646,78.8385714 L128.53279,78.8385714 L128.507739,72.6885714 L106.813646,72.6885714 L106.813646,64.455102 L119.038493,64.455102 C120.741955,64.455102 122.119756,63.0744898 122.119756,61.367551 C122.119756,59.6606122 120.741955,58.28 119.038493,58.28 L106.813646,58.28 L106.813646,46.9589796 C106.813646,45.2520408 105.435845,43.8714286 103.732383,43.8714286 L92.4344196,43.8714286 L92.4344196,31.9981633 C92.4344196,30.2912245 91.0566191,28.9106122 89.3531568,28.9106122 C87.6496945,28.9106122 86.2718941,30.2912245 86.2718941,31.9981633 L86.2718941,43.9467347 L78.0551935,43.9467347 L78.0551935,22.4844898 C78.0551935,17.7904082 74.2474542,14 69.5879837,14 L60.6448065,14 C58.9413442,14 57.5635438,15.3806122 57.5635438,17.087551 C57.5635438,18.7944898 58.9413442,20.15 60.6448065,20.15 L69.5879837,20.15 C70.8655804,20.15 71.9177189,21.2042857 71.9177189,22.4844898 L71.9177189,43.9216327 L63.7010183,43.9216327 L63.7010183,31.9981633 C63.7010183,30.2912245 62.3232179,28.9106122 60.6197556,28.9106122 C58.9162933,28.9106122 57.5384929,30.2912245 57.5384929,31.9981633 L57.5384929,43.9467347 L46.2405295,43.9467347 C44.5370672,43.9467347 43.1592668,45.3273469 43.1592668,47.0342857 L43.1592668,58.3553061 L31.9615071,58.3553061 C30.2580448,58.3553061 28.8802444,59.7359184 28.8802444,61.4428571 C28.8802444,63.1497959 30.2580448,64.5304082 31.9615071,64.5304082 L43.2594705,64.5304082 L43.2594705,72.7136735 L22.4672098,72.7136735 L22.4672098,78.8887755 L43.2344196,78.8887755 L43.2344196,87.1222449 L31.9615071,87.1222449 C30.2580448,87.1222449 28.8802444,88.5028571 28.8802444,90.2097959 C28.8802444,91.9167347 30.2580448,93.2973469 31.9615071,93.2973469 L43.2594705,93.2973469 L43.2594705,104.618367 C43.2594705,106.325306 44.6372709,107.705918 46.3407332,107.705918 L57.6386965,107.705918 L57.6386965,119.026939 C57.6386965,120.733878 59.0164969,122.11449 60.7199593,122.11449 C62.4234216,122.11449 63.801222,120.733878 63.801222,119.026939 L63.801222,107.705918 L72.0179226,107.705918 L72.0179226,128.51551 C72.0179226,133.209592 75.8256619,137 80.4851324,137 L89.4283096,137 C91.1317719,137 92.5095723,135.619388 92.5095723,133.912449 C92.5095723,132.20551 91.1317719,130.824898 89.4283096,130.824898 L80.4851324,130.824898 C79.2075356,130.824898 78.1553971,129.770612 78.1553971,128.490408 L78.1553971,107.680816 L86.3720978,107.680816 L86.3720978,119.001837 C86.3720978,120.708776 87.7498982,122.089388 89.4533605,122.089388 C91.1568228,122.089388 92.5346232,120.708776 92.5346232,119.001837 L92.5346232,107.680816 L103.832587,107.680816 C105.536049,107.680816 106.913849,106.300204 106.913849,104.593265 L106.913849,93.2471429" id="Shape" fill="#333333" fill-rule="nonzero"></path>
            <polygon id="Path" fill="#ECF0F1" points="100.676171 101.480612 49.3718941 101.480612 49.3718941 50.0967347 100.676171 50.0967347"></polygon>
            <polygon id="Path-2" fill="#333333" points="22.4664491 78.9024895 16.5397028 78.9024895 16.5397028 82.4349079 6.01296189 75.6869173 16.5397028 68.9389267 16.5397028 72.6084637 22.4664491 72.705855"></polygon>
            <polygon id="Path-2" fill="#333333" transform="translate(136.226744, 75.747991) scale(-1, 1) translate(-136.226744, -75.747991) " points="144.453487 78.8454103 138.526741 78.8454103 138.526741 82.4959813 128 75.7479906 138.526741 69 138.526741 72.669537 144.453487 72.669537"></polygon>
            <g id="Group" transform="translate(56.000000, 57.000000)" fill-rule="nonzero">
                <path d="M20,10 C15.4108119,10.0018052 11.4115173,13.189911 10.2992115,17.7331488 C9.18690567,22.2763865 11.2469563,27.0091657 15.2961216,29.2130956 L15.2961216,32.9513496 C15.2961216,35.1873575 17.0725024,37 19.2637791,37 L20.7362209,37 C22.9274976,37 24.7038784,35.1873575 24.7038784,32.9513496 L24.7038784,29.2130956 C28.7530437,27.0091657 30.8130943,22.2763865 29.7007885,17.7331488 C28.5884827,13.189911 24.5891881,10.0018052 20,10 Z" id="Shape" fill="#F9E597"></path>
                <path d="M19,6 C19.5522847,6 20,5.62973239 20,5.17298415 L20,0.827015851 C20,0.370267609 19.5522847,0 19,0 C18.4477153,0 18,0.370267609 18,0.827015851 L18,5.17298415 C18,5.62973239 18.4477153,6 19,6 Z" id="Shape" fill="#F1C40F"></path>
                <path d="M37.1724138,19 L32.8275862,19 C32.370523,19 32,19.4477153 32,20 C32,20.5522847 32.370523,21 32.8275862,21 L37.1724138,21 C37.629477,21 38,20.5522847 38,20 C38,19.4477153 37.629477,19 37.1724138,19 Z" id="Shape" fill="#F1C40F"></path>
                <path d="M5.17241379,19 L0.827586207,19 C0.370522966,19 0,19.4477153 0,20 C0,20.5522847 0.370522966,21 0.827586207,21 L5.17241379,21 C5.62947703,21 6,20.5522847 6,20 C6,19.4477153 5.62947703,19 5.17241379,19 Z" id="Shape" fill="#F1C40F"></path>
                <path d="M9.72950736,10.7295074 C9.90269052,10.5565168 10,10.3217756 10,10.0769937 C10,9.8322119 9.90269052,9.5974707 9.72950736,9.42448011 L6.57530722,6.27027997 C6.21493389,5.90990667 5.63065331,5.90990668 5.27027999,6.27027999 C4.90990668,6.63065331 4.90990667,7.21493389 5.27027997,7.57530722 L8.42448011,10.7295074 C8.5974707,10.9026905 8.8322119,11 9.07699374,11 C9.32177558,11 9.55651677,10.9026905 9.72950736,10.7295074 Z" id="Shape" fill="#F1C40F"></path>
                <path d="M33.7295085,6.2704915 C33.5565186,6.09730907 33.3217784,6 33.0769976,6 C32.8322168,6 32.5974766,6.09730907 32.4244868,6.2704915 L29.2702999,9.42467835 C29.0371802,9.65779803 28.9461366,9.99757738 29.0314643,10.3160248 C29.116792,10.6344722 29.3655278,10.883208 29.6839752,10.9685357 C30.0024226,11.0538634 30.342202,10.9628198 30.5753217,10.7297001 L33.7295085,7.57551325 C33.9026909,7.40252339 34,7.16778318 34,6.92300237 C34,6.67822157 33.9026909,6.44348136 33.7295085,6.2704915 Z" id="Shape" fill="#F1C40F"></path>
            </g>
        </g>
    </g>
</svg>