<?xml version="1.0" encoding="UTF-8"?>
<svg width="150px" height="150px" viewBox="0 0 150 150" version="1.1" xmlns="http://www.w3.org/2000/svg" xmlns:xlink="http://www.w3.org/1999/xlink">
    <!-- Generator: Sketch 46.2 (44496) - http://www.bohemiancoding.com/sketch -->
    <title>soft-fork</title>
    <desc>Created with Sketch.</desc>
    <defs></defs>
    <g id="Icons" stroke="none" stroke-width="1" fill="none" fill-rule="evenodd">
        <g id="soft-fork">
            <circle id="Oval-13" fill="#F1C40F" opacity="0.883491848" cx="76" cy="76" r="75"></circle>
            <circle id="Oval-13" fill="#ECF0F1" cx="75" cy="74" r="40"></circle>
            <path d="M87,43 L87,55.1667682 C87,59.7068357 83.2439644,63.5676269 78,65 L78,43 L87,43 Z" id="Shape" fill="#74C8EE" fill-rule="nonzero"></path>
            <path d="M77.9997858,65.3671029 L77.9997858,125.465836 C77.9997858,127.416764 76.4319023,129 74.4998929,129 C72.5678835,129 71,127.416548 71,125.465836 L71,65.3671029 C66.921361,63.9110448 64,59.9856143 64,55.3697889 L64,43 L78,43 L78,65.3671029 L77.9997858,65.3671029 Z" id="Shape" fill="#AEE6FF" fill-rule="nonzero"></path>
            <path d="M86.2134739,21 C85.227322,21 84.4278221,21.7928262 84.4278221,22.7712305 L84.4278221,42.2551992 L80.8565184,42.2551992 L80.8565184,22.7712305 C80.8565184,21.7928262 80.0570185,21 79.0708666,21 C78.0847146,21 77.2852147,21.7928262 77.2852147,22.7712305 L77.2852147,42.2551992 L73.713911,42.2551992 L73.713911,22.7712305 C73.713911,21.7928262 72.9144111,21 71.9282592,21 C70.9421073,21 70.1426074,21.7928262 70.1426074,22.7712305 L70.1426074,42.2551992 L66.5713037,42.2551992 L66.5713037,22.7712305 C66.5713037,21.7928262 65.7718037,21 64.7856518,21 C63.7994999,21 63,21.7928262 63,22.7712305 L63,56.4254766 C63,61.240752 65.8225101,65.5951172 70.1428259,67.6288887 L70.1428259,126.686092 C70.1428259,129.616102 72.5459155,132 75.5,132 C78.4540845,132 80.8571741,129.616102 80.8571741,126.686092 L80.8571741,67.6288887 C85.1772713,65.595334 88,61.240752 88,56.4254766 L88,22.7712305 C87.9991258,21.7928262 87.1996258,21 86.2134739,21 Z M78.475285,64.7760586 C77.76168,65.026459 77.2847776,65.6954941 77.2847776,66.4460449 L77.2847776,126.686309 C77.2847776,127.663195 76.4837477,128.457539 75.4991258,128.457539 C74.5145038,128.457539 73.7134739,127.662979 73.7134739,126.686309 L73.7134739,66.4462617 C73.7134739,65.6954941 73.2365715,65.026459 72.5229665,64.7762754 C68.9628095,63.527959 66.570648,60.1719434 66.570648,56.4256934 L66.570648,45.7980938 L70.1419517,45.7980938 L70.1419517,46.3884316 C70.1419517,47.3668359 70.9414516,48.1596621 71.9276035,48.1596621 C72.9137554,48.1596621 73.7132554,47.3668359 73.7132554,46.3884316 L73.7132554,45.797877 L77.284559,45.797877 L77.284559,46.3882148 C77.284559,47.3666191 78.084059,48.1594453 79.0702109,48.1594453 C80.0563628,48.1594453 80.8558627,47.3666191 80.8558627,46.3882148 L80.8558627,45.797877 L84.4271664,45.797877 L84.4271664,56.4254766 C84.4276035,60.1717266 82.035442,63.5273086 78.475285,64.7760586 Z" id="Shape" fill="#000000" fill-rule="nonzero"></path>
        </g>
    </g>
</svg>