<?xml version="1.0" encoding="UTF-8"?>
<svg width="150px" height="150px" viewBox="0 0 150 150" version="1.1" xmlns="http://www.w3.org/2000/svg" xmlns:xlink="http://www.w3.org/1999/xlink">
    <!-- Generator: Sketch 46.2 (44496) - http://www.bohemiancoding.com/sketch -->
    <title>transaction-fees</title>
    <desc>Created with Sketch.</desc>
    <defs></defs>
    <g id="Icons" stroke="none" stroke-width="1" fill="none" fill-rule="evenodd">
        <g id="transaction-fees">
            <path d="M137.673828,84.0213195 C139.155766,81.7504004 141,78.9247998 141,75.5025585 C141,72.0762236 139.155766,69.250623 137.673828,66.9776571 C136.842797,65.7086442 135.983109,64.3935784 135.810148,63.5073161 C135.618766,62.5381587 135.916586,60.9447287 136.205195,59.4034921 C136.721008,56.6413421 137.308461,53.5087223 136.032234,50.4282958 C134.734516,47.2997695 132.077672,45.4852857 129.734,43.8857154 C128.463914,43.0178743 127.148797,42.1183079 126.627867,41.3415492 C126.093633,40.5443225 125.762039,38.9713605 125.438633,37.4495684 C124.856297,34.6894653 124.194133,31.560939 121.820781,29.18461 C119.446406,26.8103277 116.314687,26.1481895 113.554477,25.5648529 C112.034672,25.2435061 110.462672,24.9109019 109.665414,24.3797586 C108.886578,23.8557791 107.990047,22.5407133 107.123195,21.2717003 C105.523562,18.9270966 103.709008,16.2703566 100.578312,14.973712 C99.3358594,14.4579196 97.9869687,14.2061638 96.4518125,14.2061638 C94.7631406,14.2061638 93.1563437,14.5080661 91.6037891,14.7976876 C90.3531484,15.0320456 89.1721016,15.2510527 88.2264453,15.2510527 C87.9460234,15.2510527 87.7014219,15.2305847 87.5008281,15.192719 C86.6145312,15.0146479 85.2994141,14.1570407 84.0262578,13.3280887 C81.75525,11.8472325 78.9295391,10 75.5040937,10 C72.0786484,10 69.2529375,11.8472325 66.9819297,13.3280887 C65.7097969,14.1580641 64.3946797,15.0146479 63.5094062,15.192719 C63.3088125,15.2305847 63.0621641,15.2510527 62.7817422,15.2510527 C61.8360859,15.2510527 60.6550391,15.0310222 59.4043984,14.7976876 C57.8487734,14.5080661 56.2450469,14.2061638 54.556375,14.2061638 C53.0212187,14.2061638 51.6702812,14.4599664 50.4319219,14.973712 C47.3012266,16.27138 45.4876953,18.9270966 43.8860156,21.2696535 C43.0171172,22.5407133 42.1185391,23.8557791 41.3427734,24.3777118 C40.5465391,24.9109019 38.9745391,25.2435061 37.4537109,25.5648529 C34.6914531,26.1481895 31.5617812,26.8103277 29.1874062,29.18461 C26.8140547,31.5588922 26.1498437,34.6894653 25.5675078,37.4495684 C25.2461484,38.9703371 24.9125078,40.5412523 24.3782734,41.3395024 C23.8573437,42.1172845 22.5442734,43.0168509 21.2721406,43.8836686 C18.9274453,45.4842623 16.2695781,47.3007929 14.9739062,50.4272724 C13.6956328,53.5076989 14.2810391,56.6392953 14.7968516,59.4024687 C15.0854609,60.9457521 15.3822578,62.5381587 15.1918984,63.5062927 C15.0168906,64.3935784 14.15925,65.7086442 13.3282188,66.9807273 C11.8462812,69.250623 10,72.0762236 10,75.5025585 C10,78.9247998 11.8462812,81.7504004 13.3282187,84.0213195 C14.15925,85.294426 15.0168906,86.6094918 15.1918984,87.4967775 C15.3843047,88.4638881 15.0854609,90.0593649 14.7988984,91.6006015 C14.2830859,94.3647983 13.6976797,97.4953713 14.9739062,100.573751 C16.271625,103.704324 18.9284687,105.516761 21.2721406,107.118378 C22.5422266,107.986219 23.8573437,108.883739 24.3782734,109.662544 C24.9125078,110.459771 25.2441016,112.030686 25.5675078,113.550432 C26.1498437,116.312582 26.8120078,119.443155 29.1853594,121.817437 C31.5597344,124.189672 34.6914531,124.853857 37.4537109,125.437194 C38.9735156,125.758541 40.5444922,126.089098 41.3386797,126.622288 C42.1195625,127.144221 43.0160937,128.459287 43.8860156,129.732393 C45.484625,132.07495 47.2971328,134.73169 50.4257812,136.030382 C51.6682344,136.544127 53.0191719,136.793836 54.5522812,136.793836 C56.2409531,136.793836 57.84775,136.493981 59.4003047,136.204359 C60.6529922,135.970001 61.8340391,135.748947 62.7796953,135.748947 C63.0601172,135.748947 63.3067656,135.769415 63.5073594,135.811375 C64.3916094,135.985352 65.7067266,136.842959 66.9798828,137.673958 C69.2508906,139.156861 72.0766016,141 75.5020469,141 C78.9274922,141 81.7532031,139.156861 84.0242109,137.673958 C85.2963437,136.842959 86.6114609,135.985352 87.4987812,135.811375 C87.699375,135.769415 87.9439766,135.748947 88.2243984,135.748947 C89.1700547,135.748947 90.3511016,135.971025 91.6017422,136.204359 C93.1553203,136.496027 94.7610937,136.793836 96.4497656,136.793836 C97.9849219,136.793836 99.3338125,136.544127 100.576266,136.030382 C103.704914,134.730667 105.518445,132.076997 107.118078,129.732393 C107.986977,128.459287 108.885555,127.142174 109.66132,126.622288 C110.457555,126.089098 112.029555,125.758541 113.548336,125.437194 C116.310594,124.853857 119.444359,124.189672 121.818734,121.81539 C124.190039,119.441108 124.85425,116.312582 125.434539,113.548385 C125.757945,112.03171 126.089539,110.456701 126.623773,109.660498 C127.144703,108.880669 128.45982,107.983149 129.731953,107.114285 C132.073578,105.515738 134.731445,103.702277 136.028141,100.575798 C137.304367,97.4953713 136.718961,94.3637749 136.203148,91.6006015 C135.914539,90.0593649 135.617742,88.4649115 135.808102,87.4947307 C135.983109,86.6094918 136.842797,85.294426 137.673828,84.0213195 Z" id="Shape" fill="#F1C40F" fill-rule="nonzero"></path>
            <path d="M40.2272266,56.2197024 C40.2272266,47.3693606 47.4301797,40.1666888 56.2829141,40.1666888 C65.1336016,40.1666888 72.3375781,47.3683372 72.3375781,56.2197024 C72.3375781,65.0720909 65.134625,72.2757861 56.2829141,72.2757861 C47.4301797,72.2768095 40.2272266,65.0731143 40.2272266,56.2197024 Z" id="Path" fill="#E74C3C"></path>
            <path d="M51.4021406,105.573048 C50.5915781,106.384602 49.5241328,106.791914 48.4587344,106.791914 C47.3933359,106.791914 46.3279375,106.384602 45.5153281,105.573048 C43.8890859,103.947893 43.8890859,101.311621 45.5153281,99.6844186 L99.76775,45.4341159 C101.392969,43.8069138 104.029344,43.8069138 105.655586,45.4341159 C107.281828,47.0592711 107.281828,49.6955431 105.655586,51.3206984 L51.4021406,105.573048 Z" id="Path" fill="#E74C3C"></path>
            <path d="M94.8010078,110.787258 C85.9482734,110.787258 78.7453203,103.58561 78.7453203,94.7342448 C78.7453203,85.8818562 85.9482734,78.678161 94.8010078,78.678161 C103.651695,78.678161 110.855672,85.8818562 110.855672,94.7342448 C110.855672,103.58561 103.652719,110.787258 94.8010078,110.787258 Z" id="Path" fill="#E74C3C"></path>
            <path d="M94.5004966,88 C90.3658876,88 87,91.3656647 87,95.5009931 C87,99.6363215 90.3658876,103 94.5004966,103 C98.6360988,103 102,99.6363215 102,95.5009931 C102,91.3656647 98.6360988,88 94.5004966,88 Z" id="Shape" fill="#F1C40F" fill-rule="nonzero"></path>
            <path d="M55.5004966,49 C51.3658876,49 48,52.364124 48,56.4980135 C48,60.6348828 51.3658876,64 55.5004966,64 C59.6351056,64 63,60.6338896 63,56.4980135 C63,52.364124 59.6351056,49 55.5004966,49 Z" id="Shape" fill="#F1C40F" fill-rule="nonzero"></path>
        </g>
    </g>
</svg>