<?xml version="1.0" encoding="UTF-8"?>
<svg width="150px" height="150px" viewBox="0 0 150 150" version="1.1" xmlns="http://www.w3.org/2000/svg" xmlns:xlink="http://www.w3.org/1999/xlink">
    <!-- Generator: Sketch 46.2 (44496) - http://www.bohemiancoding.com/sketch -->
    <title>transparent</title>
    <desc>Created with Sketch.</desc>
    <defs></defs>
    <g id="Icons" stroke="none" stroke-width="1" fill="none" fill-rule="evenodd">
        <g id="transparent">
            <g id="ingot" transform="translate(-0.065693, 15.510949)">
                <path d="M87.6262916,0.722627737 C62.2531314,0.722627737 41.6102475,21.3652678 41.6102475,46.7387713 C41.6102475,57.1790985 45.1074668,66.8165235 50.9885769,74.5463701 L41.6667938,83.8681733 C41.607651,83.9273163 41.5537011,83.9896328 41.5026363,84.0536804 C40.7395489,83.8947155 39.9554009,83.8113383 39.1579818,83.8113383 C36.1142874,83.8113383 33.2523491,84.9967949 31.0992598,87.1498889 L3.40337127,114.845837 C1.25085901,116.997777 0.0656934307,119.859433 0.0656934307,122.903423 C0.0656934307,125.947412 1.25085901,128.809357 3.40308276,130.96072 C5.55617203,133.113813 8.41811032,134.29927 11.4618048,134.29927 C14.5054992,134.29927 17.3674375,133.113813 19.5205268,130.96072 L47.2164153,103.264771 C49.3689276,101.11312 50.5540932,98.2514638 50.5540932,95.2071858 C50.5540932,94.4094764 50.4707161,93.6250382 50.3117516,92.8619492 C50.375799,92.8111728 50.4378269,92.7572228 50.4969698,92.6980798 L59.8184644,83.3765651 C67.5485828,89.2579764 77.1859869,92.7549148 87.6262916,92.7549148 C112.999452,92.7549148 133.642336,72.1122748 133.642336,46.7387713 C133.642336,21.3652678 112.999452,0.722627737 87.6262916,0.722627737 Z" id="Path" fill="#000000"></path>
                <path d="M16.4600992,127.900862 C15.1246242,129.23634 13.3497608,129.971733 11.4618048,129.971733 C9.57384871,129.971733 7.79898536,129.23634 6.46322182,127.900574 C5.12832379,126.56625 4.39322109,124.791671 4.39322109,122.903423 C4.39322109,121.015174 5.12832379,119.240595 6.46351033,117.905983 L31.4760432,92.893396 L41.4717666,102.889141 L16.4600992,127.900862 Z" id="Path" fill="#D08A4B"></path>
                <path d="M44.5166151,99.8139932 L34.5552234,89.85258 C35.8751193,88.7170343 37.5146753,88.1429143 39.1579818,88.1429143 C40.9680424,88.1429143 42.77868,88.8321467 44.1565648,90.210323 C45.4914628,91.5446469 46.2265655,93.3192256 46.2265655,95.2074743 C46.2265655,96.9171399 45.6218656,98.5327537 44.5166151,99.8139932 Z" id="Path" fill="#ECF0F1"></path>
                <path d="M48.4561077,88.6192319 C48.0874024,88.1010815 47.6754218,87.6086078 47.2167038,87.1501774 C46.7574089,86.6911699 46.2643592,86.2788999 45.7459214,85.9099053 L53.7781013,77.8777081 C54.6436068,78.8179376 55.5477716,79.7221043 56.4879991,80.5876117 L48.4561077,88.6192319 Z" id="Path" fill="#ECF0F1"></path>
                <path d="M87.6262916,88.4273778 C64.6390417,88.4273778 45.9377751,69.7260708 45.9377751,46.7387713 C45.9377751,23.7514717 64.6390417,5.05016475 87.6262916,5.05016475 C110.613542,5.05016475 129.314808,23.7514717 129.314808,46.7387713 C129.314808,69.7260708 110.613542,88.4273778 87.6262916,88.4273778 Z" id="Path" fill="#ECF0F1"></path>
                <g id="Group" transform="translate(59.334693, 27.471219)" fill-rule="nonzero" fill="#FED322">
                    <polygon id="Shape" points="54.0237723 16.9934806 35.5467892 16.9934806 29.8840704 33.9182162 59.6864911 33.9182162"></polygon>
                    <polygon id="Shape" points="24.2213517 16.9934806 5.74436853 16.9934806 0.0816497824 33.9182162 29.8840704 33.9182162"></polygon>
                    <polygon id="Shape" points="39.1224995 0.0688720546 20.6456414 0.0688720546 14.9829226 16.9934806 44.7852182 16.9934806"></polygon>
                </g>
                <g id="Group" transform="translate(59.334693, 27.471219)" fill-rule="nonzero" fill="#EEBF00">
                    <polygon id="Shape" points="29.5822363 0.0688720546 20.4591169 0.0688720546 14.8475584 16.9934806 29.5822363 16.9934806"></polygon>
                    <polygon id="Shape" points="14.815714 16.9934806 5.69247065 16.9934806 0.0809121119 33.9182162 14.815714 33.9182162"></polygon>
                    <polygon id="Shape" points="44.3170382 16.9934806 35.1937949 16.9934806 29.5822363 33.9182162 44.3170382 33.9182162"></polygon>
                </g>
                <path d="M118.980306,60.9277465 L113.36321,43.9638732 L104.199212,43.9638732 L98.5821154,27 L78.9215343,27 L73.304438,43.9638732 L64.1404397,43.9638732 L58.5233434,60.9277465 L57,60.9277465 L120.50365,60.9277465 L118.980306,60.9277465 Z M117.015414,60.9277465 L90.0506729,60.9277465 L95.0352133,45.8743484 L104.831892,45.8743484 L112.030874,45.8743484 L117.015414,60.9277465 Z M88.7518248,58.9158887 L84.4334526,45.8744758 L93.070073,45.8744758 L88.7518248,58.9158887 Z M80.2538706,28.9104752 L97.249655,28.9104752 L102.234195,43.9638732 L93.7027529,43.9638732 L83.8008967,43.9638732 L75.2694543,43.9638732 L80.2538706,28.9104752 Z M65.4729,45.8743484 L72.6718821,45.8743484 L82.4685604,45.8743484 L87.4531008,60.9277465 L60.4883597,60.9277465 L65.4729,45.8743484 Z" id="Shape" fill="#333333" fill-rule="nonzero"></path>
                <rect id="Rectangle-path" fill="#333333" fill-rule="nonzero" x="58.4008158" y="60.9277465" width="60.702018" height="3.29853091"></rect>
            </g>
            <rect id="Rectangle-2" fill="#D08A4B" x="26" y="55" width="11.7647059" height="4.70588235" rx="2.35294118"></rect>
            <rect id="Rectangle-2" fill="#D08A4B" x="138" y="55" width="11.7647059" height="4.70588235" rx="2.35294118"></rect>
            <rect id="Rectangle-2" fill="#D08A4B" transform="translate(52.882353, 18.352941) rotate(-135.000000) translate(-52.882353, -18.352941) " x="47" y="16" width="11.7647059" height="4.70588235" rx="2.35294118"></rect>
            <rect id="Rectangle-2" fill="#D08A4B" transform="translate(125.823232, 18.823232) scale(-1, 1) rotate(-135.000000) translate(-125.823232, -18.823232) " x="119.940879" y="16.4702911" width="11.7647059" height="4.70588235" rx="2.35294118"></rect>
            <rect id="Rectangle-2" fill="#D08A4B" transform="translate(135.823232, 99.823232) rotate(-135.000000) translate(-135.823232, -99.823232) " x="129.940879" y="97.4702911" width="11.7647059" height="4.70588235" rx="2.35294118"></rect>
            <rect id="Rectangle-2" fill="#D08A4B" transform="translate(90.352941, 118.882353) rotate(-90.000000) translate(-90.352941, -118.882353) " x="84.4705882" y="116.529412" width="11.7647059" height="4.70588235" rx="2.35294118"></rect>
            <rect id="Rectangle-2" fill="#D08A4B" transform="translate(89.352941, 6.882353) rotate(-90.000000) translate(-89.352941, -6.882353) " x="83.4705882" y="4.52941176" width="11.7647059" height="4.70588235" rx="2.35294118"></rect>
        </g>
    </g>
</svg>