<?xml version="1.0" encoding="UTF-8"?>
<svg width="150px" height="150px" viewBox="0 0 150 150" version="1.1" xmlns="http://www.w3.org/2000/svg" xmlns:xlink="http://www.w3.org/1999/xlink">
    <!-- Generator: Sketch 46.2 (44496) - http://www.bohemiancoding.com/sketch -->
    <title>user-green</title>
    <desc>Created with Sketch.</desc>
    <defs></defs>
    <g id="Icons" stroke="none" stroke-width="1" fill="none" fill-rule="evenodd">
        <g id="user-green" fill-rule="nonzero">
            <g id="Group">
                <path d="M32.7988429,126.33 L58.5696223,115.263801 C59.9666118,114.564377 61.1034332,112.304697 61.9037328,110.693472 C62.6248508,109.23799 61.5474156,107.524824 59.9241931,107.524824 L41.698288,107.524824 C41.698288,107.524824 35.1092486,106.879201 30.0274873,104.693146 C27.049694,103.413227 26.0259892,101.722715 27.8867565,99.0694325 C33.3304908,91.3106337 44.5827602,73.0406447 44.947561,54.1731716 C44.947561,54.1731716 45.57253,25.1286463 74.1881908,24.893617 C90.8813665,25.0323693 98.7655904,34.86962 102.439051,43.0446755 C104.48646,47.6065094 105.365941,52.5789366 105.693979,57.568354 C106.881703,75.5523434 116.027177,92.0015632 120.288843,99.029789 C121.733907,101.414062 121.035412,104.588374 118.645825,106.021203 C114.726336,108.368664 109.927367,107.524824 109.927367,107.524824 L91.5798612,107.524824 C89.7869638,107.524824 88.9951479,110.033691 90.403449,111.146541 C91.5515821,112.052678 92.6459848,112.871033 93.2370188,113.193844 L114.672606,126.182753 C117.766344,127.873265 120.235113,130.382132 121.914894,133.344068 C109.050713,143.756149 92.6855756,150 74.8555784,150 C56.2648725,150 39.266282,143.206804 26.1702128,131.98203 C27.8811007,129.645896 30.1123247,127.675048 32.7988429,126.33 Z" id="Shape" fill="#ECF0F1"></path>
                <path d="M75,0 C33.5773585,0 0,33.5568168 0,74.9477997 C0,97.6357714 10.1037736,117.953696 26.0433962,131.698839 C27.7358491,129.456062 29.9037736,127.558327 32.5132075,126.254518 L58.304717,115.201839 C59.7028302,114.503269 60.840566,112.24635 61.6415094,110.637094 C62.3632075,109.183389 61.2849057,107.472317 59.6603774,107.472317 L41.4198113,107.472317 C41.4198113,107.472317 34.8254717,106.827483 29.7396226,104.644098 C26.759434,103.365743 25.7349057,101.677296 27.5971698,99.0272551 C33.045283,91.2779354 44.3066038,73.0302674 44.6716981,54.1858451 C44.6716981,54.1858451 45.2971698,25.1768043 73.9358491,24.9420621 C90.6424528,25.0806448 98.5330189,34.9058771 102.209434,43.070945 C104.258491,47.6272056 105.138679,52.5935579 105.466981,57.5768795 C106.65566,75.5388975 115.808491,91.9680208 120.073585,98.98766 C121.519811,101.36902 120.820755,104.539454 118.429245,105.970532 C114.503774,108.315126 109.700943,107.472317 109.700943,107.472317 L91.3386792,107.472317 C89.5443396,107.472317 88.7518868,109.978119 90.1613208,111.089609 C91.3103774,111.994639 92.4056604,112.811994 92.9971698,113.134411 L114.45,126.107451 C117.523585,127.781756 119.974528,130.262104 121.65283,133.192139 C121.726415,133.262844 121.808491,133.327893 121.879245,133.404255 C139.010377,119.670425 150,98.6030223 150,74.9477997 C150,33.5568168 116.422642,0 75,0 Z" id="Shape" fill="#2ECC71"></path>
            </g>
        </g>
    </g>
</svg>