<?xml version="1.0" encoding="UTF-8"?>
<svg width="150px" height="150px" viewBox="0 0 150 150" version="1.1" xmlns="http://www.w3.org/2000/svg" xmlns:xlink="http://www.w3.org/1999/xlink">
    <!-- Generator: Sketch 46.2 (44496) - http://www.bohemiancoding.com/sketch -->
    <title>crypto101-vault</title>
    <desc>Created with Sketch.</desc>
    <defs>
        <rect id="path-1" x="0" y="0" width="148" height="115"></rect>
        <rect id="path-2" x="11" y="9" width="127" height="97" rx="11"></rect>
    </defs>
    <g id="Icons" stroke="none" stroke-width="1" fill="none" fill-rule="evenodd">
        <g id="crypto101-vault">
            <g id="Group" transform="translate(1.000000, 17.000000)">
                <g id="Rectangle">
                    <use fill="#BDC3C7" fill-rule="evenodd" xlink:href="#path-1"></use>
                    <rect stroke="#000000" stroke-width="5" x="2.5" y="2.5" width="143" height="110"></rect>
                </g>
                <g id="Rectangle-3">
                    <use fill="#E6E6E6" fill-rule="evenodd" xlink:href="#path-2"></use>
                    <rect stroke="#000000" stroke-width="5" x="13.5" y="11.5" width="122" height="92" rx="11"></rect>
                </g>
                <g id="Handles" transform="translate(92.000000, 30.000000)" fill="#000000">
                    <path d="M20.573913,9.94043855 C19.455946,9.68575648 18.6144928,8.57649988 18.6144928,7.24668192 C18.6144928,5.91686396 19.455946,4.80760736 20.573913,4.55292529 L20.573913,2.44927536 L20.573913,2.44927536 C20.573913,1.09657793 21.670491,2.48486487e-16 23.0231884,0 C24.3758858,-2.48486487e-16 25.4724638,1.09657793 25.4724638,2.44927536 L25.4724638,53.5250953 L25.4724638,53.5250953 C25.4724638,54.8777928 24.3758858,55.9743707 23.0231884,55.9743707 C21.670491,55.9743707 20.573913,54.8777928 20.573913,53.5250953 L20.573913,50.4219031 C19.455946,50.167221 18.6144928,49.0579644 18.6144928,47.7281465 C18.6144928,46.3983285 19.455946,45.2890719 20.573913,45.0343898 L20.573913,9.94043855 Z" id="Combined-Shape"></path>
                    <path d="M1.95942029,9.94043855 C0.841453292,9.68575648 0,8.57649988 0,7.24668192 C0,5.91686396 0.841453292,4.80760736 1.95942029,4.55292529 L1.95942029,2.44927536 L1.95942029,2.44927536 C1.95942029,1.09657793 3.05599822,2.48486487e-16 4.40869565,0 C5.76139308,-2.48486487e-16 6.85797101,1.09657793 6.85797101,2.44927536 L6.85797101,53.5250953 L6.85797101,53.5250953 C6.85797101,54.8777928 5.76139308,55.9743707 4.40869565,55.9743707 C3.05599822,55.9743707 1.95942029,54.8777928 1.95942029,53.5250953 L1.95942029,50.4219031 C0.841453292,50.167221 0,49.0579644 0,47.7281465 C0,46.3983285 0.841453292,45.2890719 1.95942029,45.0343898 L1.95942029,9.94043855 Z" id="Combined-Shape" transform="translate(3.428986, 27.987185) scale(-1, 1) translate(-3.428986, -27.987185) "></path>
                </g>
                <rect id="Rectangle-5" fill="#000000" x="5" y="22" width="17" height="6" rx="3"></rect>
                <rect id="Rectangle-5" fill="#000000" x="7" y="92" width="17" height="6" rx="3"></rect>
                <rect id="Rectangle-2" fill="#2ECC71" opacity="0.533061594" x="41" y="39" width="20" height="8" rx="3"></rect>
                <rect id="Rectangle-6" fill="#000000" x="41" y="55" width="5" height="5" rx="1"></rect>
                <rect id="Rectangle-6" fill="#000000" x="48.6304348" y="55" width="5" height="5" rx="1"></rect>
                <rect id="Rectangle-6" fill="#000000" x="56.2608696" y="55" width="5" height="5" rx="1"></rect>
                <rect id="Rectangle-6" fill="#000000" x="41" y="62.1391304" width="5" height="5" rx="1"></rect>
                <rect id="Rectangle-6" fill="#000000" x="48.6304348" y="62.1391304" width="5" height="5" rx="1"></rect>
                <rect id="Rectangle-6" fill="#000000" x="56.2608696" y="62.1391304" width="5" height="5" rx="1"></rect>
                <rect id="Rectangle-6" fill="#000000" x="41" y="69.2782609" width="5" height="5" rx="1"></rect>
                <rect id="Rectangle-6" fill="#000000" x="48.6304348" y="69.2782609" width="5" height="5" rx="1"></rect>
                <rect id="Rectangle-6" fill="#000000" x="56.2608696" y="69.2782609" width="5" height="5" rx="1"></rect>
                <rect id="Rectangle-3" stroke="#000000" stroke-width="4" x="37" y="35" width="28" height="43" rx="4"></rect>
                <path d="M37,50.5 L65,50.5" id="Line" stroke="#000000" stroke-width="4" stroke-linecap="square"></path>
            </g>
        </g>
    </g>
</svg>