<?xml version="1.0" encoding="UTF-8"?>
<svg width="150px" height="150px" viewBox="0 0 150 150" version="1.1" xmlns="http://www.w3.org/2000/svg" xmlns:xlink="http://www.w3.org/1999/xlink">
    <!-- Generator: Sketch 46.2 (44496) - http://www.bohemiancoding.com/sketch -->
    <title>vault</title>
    <desc>Created with Sketch.</desc>
    <defs>
        <rect id="path-1" x="0" y="0" width="125" height="97"></rect>
        <rect id="path-2" x="9" y="8" width="107" height="82" rx="11"></rect>
    </defs>
    <g id="Icons" stroke="none" stroke-width="1" fill="none" fill-rule="evenodd">
        <g id="vault">
            <g id="Group" transform="translate(13.000000, 27.000000)">
                <g id="Rectangle">
                    <use fill="#BDC3C7" fill-rule="evenodd" xlink:href="#path-1"></use>
                    <rect stroke="#000000" stroke-width="5" x="2.5" y="2.5" width="120" height="92"></rect>
                </g>
                <g id="Rectangle-3">
                    <use fill="#E6E6E6" fill-rule="evenodd" xlink:href="#path-2"></use>
                    <rect stroke="#000000" stroke-width="5" x="11.5" y="10.5" width="102" height="77" rx="11"></rect>
                </g>
                <g id="Handles" transform="translate(78.000000, 25.000000)" fill="#000000">
                    <path d="M17.4086957,8.34286807 C16.4627236,8.12911705 15.7507246,7.19813383 15.7507246,6.08203661 C15.7507246,4.9659394 16.4627236,4.03495618 17.4086957,3.82120515 L17.4086957,2.07246377 L17.4086957,2.07246377 C17.4086957,0.927873634 18.3365693,2.10257797e-16 19.4811594,0 L19.4811594,0 L19.4811594,0 C20.6257496,-2.10257797e-16 21.5536232,0.927873634 21.5536232,2.07246377 L21.5536232,44.9060259 L21.5536232,44.9060259 C21.5536232,46.0506161 20.6257496,46.9784897 19.4811594,46.9784897 C18.3365693,46.9784897 17.4086957,46.0506161 17.4086957,44.9060259 L17.4086957,42.3183829 C16.4627236,42.1046319 15.7507246,41.1736487 15.7507246,40.0575515 C15.7507246,38.9414543 16.4627236,38.0104711 17.4086957,37.79672 L17.4086957,8.34286807 Z" id="Combined-Shape"></path>
                    <path d="M1.65797101,8.34286807 C0.711998939,8.12911705 0,7.19813383 0,6.08203661 C0,4.9659394 0.711998939,4.03495618 1.65797101,3.82120515 L1.65797101,2.07246377 L1.65797101,2.07246377 C1.65797101,0.927873634 2.58584465,2.10257797e-16 3.73043478,0 L3.73043478,0 L3.73043478,0 C4.87502492,-2.10257797e-16 5.80289855,0.927873634 5.80289855,2.07246377 L5.80289855,44.9060259 L5.80289855,44.9060259 C5.80289855,46.0506161 4.87502492,46.9784897 3.73043478,46.9784897 C2.58584465,46.9784897 1.65797101,46.0506161 1.65797101,44.9060259 L1.65797101,42.3183829 C0.711998939,42.1046319 0,41.1736487 0,40.0575515 C0,38.9414543 0.711998939,38.0104711 1.65797101,37.79672 L1.65797101,8.34286807 Z" id="Combined-Shape" transform="translate(2.901449, 23.489245) scale(-1, 1) translate(-2.901449, -23.489245) "></path>
                </g>
                <rect id="Rectangle-5" fill="#000000" x="4" y="19" width="14" height="5" rx="2.5"></rect>
                <rect id="Rectangle-5" fill="#000000" x="6" y="78" width="14" height="5" rx="2.5"></rect>
                <rect id="Rectangle-2" fill="#2ECC71" opacity="0.533061594" x="35" y="33" width="17" height="7" rx="3"></rect>
                <rect id="Rectangle-6" fill="#000000" x="35" y="46" width="4" height="4" rx="1"></rect>
                <rect id="Rectangle-6" fill="#000000" x="41" y="46" width="4" height="4" rx="1"></rect>
                <rect id="Rectangle-6" fill="#000000" x="48" y="46" width="4" height="4" rx="1"></rect>
                <rect id="Rectangle-6" fill="#000000" x="35" y="52" width="4" height="4" rx="1"></rect>
                <rect id="Rectangle-6" fill="#000000" x="41" y="52" width="4" height="4" rx="1"></rect>
                <rect id="Rectangle-6" fill="#000000" x="48" y="52" width="4" height="4" rx="1"></rect>
                <rect id="Rectangle-6" fill="#000000" x="35" y="58" width="4" height="4" rx="1"></rect>
                <rect id="Rectangle-6" fill="#000000" x="41" y="58" width="4" height="4" rx="1"></rect>
                <rect id="Rectangle-6" fill="#000000" x="48" y="58" width="4" height="4" rx="1"></rect>
                <rect id="Rectangle-3" stroke="#000000" stroke-width="4" x="32" y="30" width="23" height="36" rx="4"></rect>
                <path d="M31,42.5 L55,42.5" id="Line" stroke="#000000" stroke-width="4" stroke-linecap="square"></path>
            </g>
        </g>
    </g>
</svg>