<?xml version="1.0" encoding="UTF-8"?>
<svg width="150px" height="150px" viewBox="0 0 150 150" version="1.1" xmlns="http://www.w3.org/2000/svg" xmlns:xlink="http://www.w3.org/1999/xlink">
    <!-- Generator: Sketch 46.2 (44496) - http://www.bohemiancoding.com/sketch -->
    <title>volatile</title>
    <desc>Created with Sketch.</desc>
    <defs></defs>
    <g id="Icons" stroke="none" stroke-width="1" fill="none" fill-rule="evenodd">
        <g id="volatile">
            <path d="M2.51307428,-0.402664921 C0.622953326,-0.374216785 -0.886777541,1.18393364 -0.860101467,3.07869414 L-0.860101467,147.272066 C-0.859930695,149.167988 0.673237913,150.704891 2.56454283,150.705052 L146.389484,150.705052 C147.623953,150.721683 148.771815,150.071021 149.393888,149.002016 C150.015962,147.93301 150.015962,146.611121 149.393888,145.542116 C148.771815,144.473111 147.623953,143.822449 146.389484,143.83908 L5.98917017,143.83908 L5.98917017,3.07869414 C6.00223328,2.15086662 5.64009356,1.25724751 4.9852503,0.601412746 C4.33040704,-0.0544220192 3.43862957,-0.416618654 2.51307428,-0.402664921 Z" id="Shape" fill="#333333"></path>
            <polygon id="Shape" fill="#E74C3C" points="123.237697 47.6705354 86.1638575 99.9811791 67.2815777 71.2146281 21.422799 116.154269 26.2105379 121.063341 66.1810328 81.8908421 86.1638575 111.105338 128.820887 51.6469558"></polygon>
        </g>
    </g>
</svg>