<?xml version="1.0" encoding="UTF-8"?>
<svg width="150px" height="150px" viewBox="0 0 150 150" version="1.1" xmlns="http://www.w3.org/2000/svg" xmlns:xlink="http://www.w3.org/1999/xlink">
    <!-- Generator: Sketch 46.2 (44496) - http://www.bohemiancoding.com/sketch -->
    <title>wallet-branded</title>
    <desc>Created with Sketch.</desc>
    <defs></defs>
    <g id="Icons" stroke="none" stroke-width="1" fill="none" fill-rule="evenodd">
        <g id="wallet-branded">
            <g id="Group" transform="translate(9.000000, 17.000000)">
                <path d="M5.86732329,5.93662918 C3.77425312,9.01101412 3.77425312,15.6047014 5.86732329,25.717691 C64.2140546,29.0176361 104.517233,29.8355736 126.77686,28.1715036 C126.669552,20.4157865 126.159274,13.3881778 125.246027,7.08867768 L110.69083,3.2231405 L14.3525597,3.2231405 C9.56520669,3.7550189 6.73679455,4.65951513 5.86732329,5.93662918 Z" id="Path-6" fill="#F1C40F"></path>
                <path d="M114.523558,0 L83.5713342,0 L83.5713342,6.17078202 L114.523558,6.17078202 C119.642973,6.17078202 123.809555,10.3234715 123.809555,15.4272842 L123.809555,27.8491506 C121.215841,25.8896394 118.021242,24.6837863 114.523558,24.6837863 L15.476442,24.6837863 C10.3570268,24.6837863 6.19044475,20.5310968 6.19044475,15.4272842 C6.19044475,10.3234715 10.3570268,6.17078202 15.476442,6.17078202 L83.5713342,6.17078202 L83.5713342,0 L15.476442,0 C6.94320283,0 0,6.9204909 0,15.4272842 L0,104.903294 C0,113.409429 6.94254251,120.330579 15.476442,120.330579 L114.523558,120.330579 C123.056797,120.330579 130,113.410088 130,104.903294 L130,95.6467922 L130,52.4513181 L130,40.109754 L130,15.4266259 C129.99934,6.9204909 123.056797,0 114.523558,0 Z" id="Shape" fill="#333333" fill-rule="nonzero"></path>
                <path d="M123.553719,90.2479339 L86.3930382,90.2479339 C77.8556608,90.2479339 70.9090909,83.2596039 70.9090909,74.6694215 C70.9090909,66.0792391 77.8550002,59.0909091 86.3930382,59.0909091 L123.553719,59.0909091 L123.553719,90.2479339 Z" id="Path" fill="#F1C40F"></path>
                <path d="M123.553719,52.4958224 L86.5726304,52.4958224 C74.6768825,52.4958224 65,62.136596 65,73.9821161 C65,85.8276363 74.6768825,95.4684098 86.5726304,95.4684098 L123.553719,95.4684098 L123.553719,104.675699 C123.553719,109.752444 119.40592,113.884298 114.308118,113.884298 L15.6918819,113.884298 C10.5947373,113.884298 6.44628099,109.753099 6.44628099,104.675699 L6.44628099,27.9338843 C9.02279452,29.8642654 12.224535,31.0095288 15.6918819,31.0095288 L114.308118,31.0095288 C119.405263,31.0095288 123.553719,35.1407276 123.553719,40.2181274 L123.553719,52.4958224 Z" id="Path" fill="#F9E79D"></path>
                <rect id="Rectangle-path" fill="#333333" fill-rule="nonzero" x="15.0413223" y="11.8181818" width="98.8429752" height="6.44628099"></rect>
                <path d="M77.3553719,73.4628099 C77.3553719,78.4245535 81.3929883,82.4628099 86.3553719,82.4628099 C91.3177555,82.4628099 95.3553719,78.4251935 95.3553719,73.4628099 C95.3553719,68.5004264 91.3177555,64.4628099 86.3553719,64.4628099 C81.3929883,64.4628099 77.3553719,68.5010663 77.3553719,73.4628099 Z" id="Shape" fill="#333333" fill-rule="nonzero"></path>
                <path d="M89.8016529,73.4090909 C89.8016529,75.3405116 88.2300872,76.9090909 86.3016529,76.9090909 C84.3732186,76.9090909 82.8016529,75.3412581 82.8016529,73.4090909 C82.8016529,71.4769237 84.3732186,69.9090909 86.3016529,69.9090909 C88.2300872,69.9090909 89.8016529,71.4776703 89.8016529,73.4090909 Z" id="Path" fill="#F9E79D"></path>
            </g>
            <path d="M41.7606614,79.0002578 L51.5210614,79.0002578 C53.0625212,79.0002578 54.3098592,77.770244 54.3098592,76.2501934 C54.3098592,74.7301427 53.0625212,73.5001289 51.5210614,73.5001289 L45.9437273,73.5001289 L45.9437273,70.7500645 C45.9437273,69.2300138 44.6963894,68 43.1549296,68 C41.6134698,68 40.3661318,69.2300138 40.3661318,70.7500645 L40.3661318,73.6390888 C35.6481564,74.3132632 32,78.2889587 32,83.1249678 C32,88.431481 36.3791471,92.7498066 41.7604,92.7498066 L44.5491977,92.7498066 C46.8558971,92.7498066 48.7322636,94.6001125 48.7322636,96.8747744 C48.7322636,99.1494363 46.8558971,100.999742 44.5491977,100.999742 L34.7887978,100.999742 C33.247338,100.999742 32,102.229756 32,103.749807 C32,105.269857 33.247338,106.499871 34.7887978,106.499871 L40.3661318,106.499871 L40.3661318,109.249936 C40.3661318,110.769986 41.6134698,112 43.1549296,112 C44.6963894,112 45.9437273,110.769986 45.9437273,109.249936 L45.9437273,106.360911 C50.6617028,105.686737 54.3098592,101.711041 54.3098592,96.8750322 C54.3098592,91.568519 49.930712,87.2501934 44.5494592,87.2501934 L41.7606614,87.2501934 C39.453962,87.2501934 37.5775955,85.3998875 37.5775955,83.1252256 C37.5775955,80.8505637 39.453962,79.0002578 41.7606614,79.0002578 Z" id="Shape" fill="#F1C40F" fill-rule="nonzero"></path>
        </g>
    </g>
</svg>