<?xml version="1.0" encoding="UTF-8"?>
<svg width="150px" height="150px" viewBox="0 0 150 150" version="1.1" xmlns="http://www.w3.org/2000/svg" xmlns:xlink="http://www.w3.org/1999/xlink">
    <!-- Generator: Sketch 46.2 (44496) - http://www.bohemiancoding.com/sketch -->
    <title>wallet-diy</title>
    <desc>Created with Sketch.</desc>
    <defs></defs>
    <g id="Icons" stroke="none" stroke-width="1" fill="none" fill-rule="evenodd">
        <g id="wallet-diy">
            <g id="Group" transform="translate(9.000000, 14.000000)">
                <path d="M5.86732329,5.93662918 C3.77425312,9.01101412 3.77425312,15.6047014 5.86732329,25.717691 C64.2140546,29.0176361 104.517233,29.8355736 126.77686,28.1715036 C126.669552,20.4157865 126.159274,13.3881778 125.246027,7.08867768 L110.69083,3.2231405 L14.3525597,3.2231405 C9.56520669,3.7550189 6.73679455,4.65951513 5.86732329,5.93662918 Z" id="Path-6" fill="#E67E22"></path>
                <path d="M114.523558,0 L83.5713342,0 L83.5713342,6.17078202 L114.523558,6.17078202 C119.642973,6.17078202 123.809555,10.3234715 123.809555,15.4272842 L123.809555,27.8491506 C121.215841,25.8896394 118.021242,24.6837863 114.523558,24.6837863 L15.476442,24.6837863 C10.3570268,24.6837863 6.19044475,20.5310968 6.19044475,15.4272842 C6.19044475,10.3234715 10.3570268,6.17078202 15.476442,6.17078202 L83.5713342,6.17078202 L83.5713342,0 L15.476442,0 C6.94320283,0 0,6.9204909 0,15.4272842 L0,104.903294 C0,113.409429 6.94254251,120.330579 15.476442,120.330579 L114.523558,120.330579 C123.056797,120.330579 130,113.410088 130,104.903294 L130,95.6467922 L130,52.4513181 L130,40.109754 L130,15.4266259 C129.99934,6.9204909 123.056797,0 114.523558,0 Z" id="Shape" fill="#333333" fill-rule="nonzero"></path>
                <path d="M123.553719,90.2479339 L86.3930382,90.2479339 C77.8556608,90.2479339 70.9090909,83.2596039 70.9090909,74.6694215 C70.9090909,66.0792391 77.8550002,59.0909091 86.3930382,59.0909091 L123.553719,59.0909091 L123.553719,90.2479339 Z" id="Path" fill="#E67E22"></path>
                <path d="M123.553719,52.4958224 L86.5726304,52.4958224 C74.6768825,52.4958224 65,62.136596 65,73.9821161 C65,85.8276363 74.6768825,95.4684098 86.5726304,95.4684098 L123.553719,95.4684098 L123.553719,104.675699 C123.553719,109.752444 119.40592,113.884298 114.308118,113.884298 L15.6918819,113.884298 C10.5947373,113.884298 6.44628099,109.753099 6.44628099,104.675699 L6.44628099,27.9338843 C9.02279452,29.8642654 12.224535,31.0095288 15.6918819,31.0095288 L114.308118,31.0095288 C119.405263,31.0095288 123.553719,35.1407276 123.553719,40.2181274 L123.553719,52.4958224 Z" id="Path" fill="#F2B986"></path>
                <rect id="Rectangle-path" fill="#333333" fill-rule="nonzero" x="15.0413223" y="11.8181818" width="98.8429752" height="6.44628099"></rect>
                <path d="M77.3553719,73.4628099 C77.3553719,78.4245535 81.3929883,82.4628099 86.3553719,82.4628099 C91.3177555,82.4628099 95.3553719,78.4251935 95.3553719,73.4628099 C95.3553719,68.5004264 91.3177555,64.4628099 86.3553719,64.4628099 C81.3929883,64.4628099 77.3553719,68.5010663 77.3553719,73.4628099 Z" id="Shape" fill="#333333" fill-rule="nonzero"></path>
                <path d="M89.8016529,73.4090909 C89.8016529,75.3405116 88.2300872,76.9090909 86.3016529,76.9090909 C84.3732186,76.9090909 82.8016529,75.3412581 82.8016529,73.4090909 C82.8016529,71.4769237 84.3732186,69.9090909 86.3016529,69.9090909 C88.2300872,69.9090909 89.8016529,71.4776703 89.8016529,73.4090909 Z" id="Path" fill="#F2B986"></path>
            </g>
            <path d="M60.3125,82.46875 L57.0964583,82.46875 C56.7237054,81.0126941 56.147699,79.6164062 55.3854167,78.3210417 L57.6608333,76.045625 C58.1654841,75.5415353 58.4490412,74.8575061 58.4490412,74.1442187 C58.4490412,73.4309314 58.1654841,72.7469022 57.6608333,72.2428125 L55.7616667,70.3436458 C55.257577,69.838995 54.5735478,69.5554379 53.8602604,69.5554379 C53.1469731,69.5554379 52.4629439,69.838995 51.9588542,70.3436458 L49.6789583,72.6145833 C48.3835938,71.852301 46.9873059,71.2762946 45.53125,70.9035417 L45.53125,67.6875 C45.53125,66.2032347 44.3280153,65 42.84375,65 L40.15625,65 C38.6719847,65 37.46875,66.2032347 37.46875,67.6875 L37.46875,70.9035417 C36.0126941,71.2762946 34.6164062,71.852301 33.3210417,72.6145833 L31.045625,70.3391667 C30.5415353,69.8345159 29.8575061,69.5509588 29.1442188,69.5509588 C28.4309314,69.5509588 27.7469022,69.8345159 27.2428125,70.3391667 L25.3436458,72.2383333 C24.838995,72.742423 24.5554379,73.4264522 24.5554379,74.1397396 C24.5554379,74.8530269 24.838995,75.5370561 25.3436458,76.0411458 L27.6145833,78.3210417 C26.852301,79.6164062 26.2762946,81.0126941 25.9035417,82.46875 L22.6875,82.46875 C21.2032347,82.46875 20,83.6719847 20,85.15625 L20,87.84375 C20,89.3280153 21.2032347,90.53125 22.6875,90.53125 L25.9035417,90.53125 C26.2762946,91.9873059 26.852301,93.3835938 27.6145833,94.6789583 L25.3391667,96.954375 C24.8345159,97.4584647 24.5509588,98.1424939 24.5509588,98.8557812 C24.5509588,99.5690686 24.8345159,100.253098 25.3391667,100.757187 L27.2383333,102.656354 C27.742423,103.161005 28.4264522,103.444562 29.1397396,103.444562 C29.8530269,103.444562 30.5370561,103.161005 31.0411458,102.656354 L33.3210417,100.385417 C34.6164062,101.147699 36.0126941,101.723705 37.46875,102.096458 L37.46875,105.3125 C37.46875,106.796765 38.6719847,108 40.15625,108 L42.84375,108 C44.3280153,108 45.53125,106.796765 45.53125,105.3125 L45.53125,102.096458 C46.9873059,101.723705 48.3835938,101.147699 49.6789583,100.385417 L51.954375,102.660833 C52.4584647,103.165484 53.1424939,103.449041 53.8557812,103.449041 C54.5690686,103.449041 55.2530978,103.165484 55.7571875,102.660833 L57.6563542,100.761667 C58.161005,100.257577 58.4445621,99.5735478 58.4445621,98.8602604 C58.4445621,98.1469731 58.161005,97.4629439 57.6563542,96.9588542 L55.3854167,94.6789583 C56.147699,93.3835938 56.7237054,91.9873059 57.0964583,90.53125 L60.3125,90.53125 C61.7967653,90.53125 63,89.3280153 63,87.84375 L63,85.15625 C63,83.6719847 61.7967653,82.46875 60.3125,82.46875 Z M41.500095,93 C38.8711288,93 36.5010276,91.416349 35.4949658,88.987501 C34.488904,86.5586529 35.0450083,83.7629279 36.9039681,81.9039681 C38.7629279,80.0450083 41.5586529,79.488904 43.987501,80.4949658 C46.416349,81.5010276 48,83.8711288 48,86.500095 C48,88.223977 47.3151905,89.8772533 46.0962219,91.0962219 C44.8772533,92.3151905 43.223977,93 41.500095,93 Z" id="Shape" fill="#E67E22" fill-rule="nonzero"></path>
        </g>
    </g>
</svg>