<?xml version="1.0" encoding="UTF-8"?>
<svg width="150px" height="150px" viewBox="0 0 150 150" version="1.1" xmlns="http://www.w3.org/2000/svg" xmlns:xlink="http://www.w3.org/1999/xlink">
    <!-- Generator: Sketch 46.2 (44496) - http://www.bohemiancoding.com/sketch -->
    <title>wallet-online</title>
    <desc>Created with Sketch.</desc>
    <defs></defs>
    <g id="Icons" stroke="none" stroke-width="1" fill="none" fill-rule="evenodd">
        <g id="wallet-online">
            <g id="Group" transform="translate(9.000000, 15.000000)">
                <path d="M5.86732329,5.93662918 C3.77425312,9.01101412 3.77425312,15.6047014 5.86732329,25.717691 C64.2140546,29.0176361 104.517233,29.8355736 126.77686,28.1715036 C126.669552,20.4157865 126.159274,13.3881778 125.246027,7.08867768 L110.69083,3.2231405 L14.3525597,3.2231405 C9.56520669,3.7550189 6.73679455,4.65951513 5.86732329,5.93662918 Z" id="Path-6" fill="#27AE60"></path>
                <path d="M114.523558,0 L83.5713342,0 L83.5713342,6.17078202 L114.523558,6.17078202 C119.642973,6.17078202 123.809555,10.3234715 123.809555,15.4272842 L123.809555,27.8491506 C121.215841,25.8896394 118.021242,24.6837863 114.523558,24.6837863 L15.476442,24.6837863 C10.3570268,24.6837863 6.19044475,20.5310968 6.19044475,15.4272842 C6.19044475,10.3234715 10.3570268,6.17078202 15.476442,6.17078202 L83.5713342,6.17078202 L83.5713342,0 L15.476442,0 C6.94320283,0 0,6.9204909 0,15.4272842 L0,104.903294 C0,113.409429 6.94254251,120.330579 15.476442,120.330579 L114.523558,120.330579 C123.056797,120.330579 130,113.410088 130,104.903294 L130,95.6467922 L130,52.4513181 L130,40.109754 L130,15.4266259 C129.99934,6.9204909 123.056797,0 114.523558,0 Z" id="Shape" fill="#333333" fill-rule="nonzero"></path>
                <path d="M123.553719,90.2479339 L86.3930382,90.2479339 C77.8556608,90.2479339 70.9090909,83.2596039 70.9090909,74.6694215 C70.9090909,66.0792391 77.8550002,59.0909091 86.3930382,59.0909091 L123.553719,59.0909091 L123.553719,90.2479339 Z" id="Path" fill="#27AE60"></path>
                <path d="M123.553719,52.4958224 L86.5726304,52.4958224 C74.6768825,52.4958224 65,62.136596 65,73.9821161 C65,85.8276363 74.6768825,95.4684098 86.5726304,95.4684098 L123.553719,95.4684098 L123.553719,104.675699 C123.553719,109.752444 119.40592,113.884298 114.308118,113.884298 L15.6918819,113.884298 C10.5947373,113.884298 6.44628099,109.753099 6.44628099,104.675699 L6.44628099,27.9338843 C9.02279452,29.8642654 12.224535,31.0095288 15.6918819,31.0095288 L114.308118,31.0095288 C119.405263,31.0095288 123.553719,35.1407276 123.553719,40.2181274 L123.553719,52.4958224 Z" id="Path" fill="#CAEBD8"></path>
                <rect id="Rectangle-path" fill="#333333" fill-rule="nonzero" x="15.0413223" y="11.8181818" width="98.8429752" height="6.44628099"></rect>
                <path d="M77.3553719,73.4628099 C77.3553719,78.4245535 81.3929883,82.4628099 86.3553719,82.4628099 C91.3177555,82.4628099 95.3553719,78.4251935 95.3553719,73.4628099 C95.3553719,68.5004264 91.3177555,64.4628099 86.3553719,64.4628099 C81.3929883,64.4628099 77.3553719,68.5010663 77.3553719,73.4628099 Z" id="Shape" fill="#333333" fill-rule="nonzero"></path>
                <path d="M89.8016529,73.4090909 C89.8016529,75.3405116 88.2300872,76.9090909 86.3016529,76.9090909 C84.3732186,76.9090909 82.8016529,75.3412581 82.8016529,73.4090909 C82.8016529,71.4769237 84.3732186,69.9090909 86.3016529,69.9090909 C88.2300872,69.9090909 89.8016529,71.4776703 89.8016529,73.4090909 Z" id="Path" fill="#CAEBD8"></path>
            </g>
            <g id="Group-2" transform="translate(25.000000, 73.000000)" fill-rule="nonzero" fill="#2ECC71">
                <path d="M6.41895803,12.9819133 C5.64982101,13.7649317 5.64982101,15.0392556 6.41895803,15.8299506 C7.18809506,16.6129689 8.43982786,16.6129689 9.21650545,15.8299506 C14.5401401,10.4102355 23.2042425,10.4102355 28.5278772,15.8299506 C28.9124457,16.2214597 29.4176632,16.4210526 29.9228806,16.4210526 C30.4280981,16.4210526 30.9333156,16.2214597 31.3178841,15.8299506 C32.0870211,15.0469322 32.0870211,13.7726083 31.3178841,12.9819133 C24.4559753,5.98848502 13.2808668,5.98848502 6.41895803,12.9819133 Z" id="Shape"></path>
                <path d="M11.9314731,18.5704048 C11.180737,19.3392671 11.180737,20.5905527 11.9314731,21.3669528 C12.6822091,22.1358151 13.9039951,22.1358151 14.6620913,21.3669528 C16.9805408,18.9849874 20.7636615,18.9849874 23.0821109,21.3669528 C23.457479,21.7513839 23.9506095,21.9473684 24.44374,21.9473684 C24.9368705,21.9473684 25.430001,21.7513839 25.805369,21.3669528 C26.5561051,20.5980906 26.5561051,19.3468049 25.805369,18.5779427 C21.9854475,14.6507149 15.7587547,14.6507149 11.9314731,18.5704048 Z" id="Shape"></path>
                <circle id="Oval" cx="19.6578947" cy="25.5" r="2.76315789"></circle>
                <path d="M36.8409274,7.67379482 C26.9295072,-1.71582634 10.8073349,-1.71582634 0.895914679,7.67379482 C0.122414405,8.4071343 0.122414405,9.60060835 0.895914679,10.3411374 C1.66941495,11.0744769 2.92824873,11.0744769 3.70933234,10.3411374 C12.0661686,2.41100562 25.6706735,2.41100562 34.0350931,10.3411374 C34.4218432,10.7078072 34.9299267,10.8947368 35.4380103,10.8947368 C35.9460938,10.8947368 36.4541773,10.7078072 36.8409274,10.3411374 C37.6144277,9.60779795 37.6144277,8.4143239 36.8409274,7.67379482 Z" id="Shape"></path>
            </g>
        </g>
    </g>
</svg>