<?xml version="1.0" encoding="UTF-8"?>
<svg width="200px" height="200px" viewBox="0 0 200 200" version="1.1" xmlns="http://www.w3.org/2000/svg" xmlns:xlink="http://www.w3.org/1999/xlink">
    <!-- Generator: Sketch 46.2 (44496) - http://www.bohemiancoding.com/sketch -->
    <title>crypto101-howto</title>
    <desc>Created with Sketch.</desc>
    <defs></defs>
    <g id="Icons" stroke="none" stroke-width="1" fill="none" fill-rule="evenodd">
        <g id="crypto101-howto" fill-rule="nonzero">
            <g id="Group-2" transform="translate(4.000000, 7.000000)">
                <circle id="Oval" stroke="#333333" stroke-width="5" fill="#ECF0F1" opacity="0.796308877" cx="94.8352079" cy="94.8352079" r="94.8352079"></circle>
                <path d="M131.435604,87.574198 C131.435604,67.1253069 114.691149,50.5290891 94.2426337,50.973802 C75.2757426,51.2702772 59.272099,66.384495 58.2348119,85.3513861 C57.6422376,95.5756436 61.1984356,104.911228 67.4217822,111.875386 C76.6087525,122.247881 81.6469505,131.731327 81.6469505,145.660396 L81.6469505,147.290257 L108.023089,147.290257 L108.023089,145.660396 C108.023089,131.583465 113.505624,122.099644 122.69297,111.43105 C128.175505,105.059465 131.435604,96.7615446 131.435604,87.574198 Z" id="Shape" fill="#F1C40F"></path>
                <ellipse id="Oval" fill="#333333" cx="94.8352079" cy="163.886851" rx="13.3361188" ry="3.11186139"></ellipse>
                <g id="Group" transform="translate(27.841584, 22.574257)" fill="#F1C40F">
                    <rect id="Rectangle-path" x="0.312653465" y="63.3700792" width="20.3006535" height="6.81629703" rx="3.40814851"></rect>
                    <rect id="Rectangle-path" x="113.373564" y="63.3700792" width="20.3006535" height="6.81629703" rx="3.40814851"></rect>
                    <rect id="Rectangle-path" x="63.5852871" y="0.0970693069" width="6.81629703" height="20.3006535" rx="3.40814851"></rect>
                    <rect id="Rectangle-path" transform="translate(27.074901, 26.782965) rotate(-135.000000) translate(-27.074901, -26.782965) " x="16.9248597" y="23.3748496" width="20.3000825" height="6.81623166" rx="3.40811583"></rect>
                    <rect id="Rectangle-path" transform="translate(106.959953, 106.646441) rotate(-135.000000) translate(-106.959953, -106.646441) " x="96.8099119" y="103.238325" width="20.3000825" height="6.81623166" rx="3.40811583"></rect>
                    <rect id="Rectangle-path" transform="translate(106.949726, 26.666520) rotate(-135.000000) translate(-106.949726, -26.666520) " x="103.54161" y="16.5164783" width="6.81623166" height="20.3000825" rx="3.40811583"></rect>
                    <rect id="Rectangle-path" transform="translate(26.981489, 106.656620) rotate(-135.000000) translate(-26.981489, -106.656620) " x="23.5733728" y="96.5065788" width="6.81623166" height="20.3000825" rx="3.40811583"></rect>
                </g>
                <path d="M107.282277,163.886851 L82.5363762,163.886851 C80.461802,163.886851 78.8319406,162.25699 78.8319406,160.182416 L78.8319406,138.844475 L111.13495,138.844475 L111.13495,160.182416 C111.13495,162.25699 109.356475,163.886851 107.282277,163.886851 Z" id="Shape" fill="#333333"></path>
                <path d="M106.387978,73.7512164 C103.21311,71.4507784 99.225731,70.3 94.4269534,70.3 C90.774269,70.3 87.6940741,71.1106359 85.1891534,72.7279914 C81.2168103,75.2628369 79.1045017,79.5655286 78.85,85.6355072 L88.0560569,85.6355072 C88.0560569,83.8687798 88.5695155,82.1652697 89.5964328,80.523858 C90.6244638,78.8835651 92.3669931,78.0645376 94.8251345,78.0645376 C97.3244862,78.0645376 99.0464103,78.7302772 99.9881224,80.0606375 C100.930948,81.3926761 101.402083,82.8679327 101.402083,84.4858477 C101.402083,85.8917331 100.699279,87.180135 99.8533534,88.3516129 C99.3877879,89.0341358 98.7740879,89.6618331 98.0116966,90.2363832 C98.0116966,90.2363832 93.019119,93.4531921 90.827731,96.0367093 C89.5563362,97.5365814 89.4421724,99.7805155 89.3302362,103.001241 C89.3224397,103.230054 89.4098724,103.703344 90.2079052,103.703344 C91.0059379,103.703344 96.657881,103.703344 97.3679241,103.703344 C98.0779672,103.703344 98.2261017,103.171312 98.2361259,102.94138 C98.2862466,101.767664 98.4176741,101.169617 98.6298517,100.492689 C99.0324879,99.2137976 100.12679,98.0965859 101.354747,97.1376971 L103.889183,95.3804803 C106.176357,93.5908156 108.001864,92.1211535 108.806579,90.9703751 C110.183228,89.0760942 111.15,86.7437679 111.15,83.9745149 C111.15,79.4597935 109.561731,76.0516544 106.387978,73.7512164 Z M94.278819,109.246885 C91.1061793,109.151779 88.4882086,111.356552 88.3879672,114.813922 C88.2888397,118.270174 90.7787241,120.55271 93.9513638,120.646696 C97.2643414,120.745718 99.8115862,118.611995 99.9107138,115.156303 C100.009841,111.698932 97.5917966,109.345347 94.278819,109.246885 Z" id="Shape" fill="#333333"></path>
            </g>
        </g>
    </g>
</svg>