<?xml version="1.0" encoding="UTF-8"?>
<svg width="200px" height="200px" viewBox="0 0 200 200" version="1.1" xmlns="http://www.w3.org/2000/svg" xmlns:xlink="http://www.w3.org/1999/xlink">
    <!-- Generator: Sketch 46.2 (44496) - http://www.bohemiancoding.com/sketch -->
    <title>crypto101-invest</title>
    <desc>Created with Sketch.</desc>
    <defs></defs>
    <g id="Icons" stroke="none" stroke-width="1" fill="none" fill-rule="evenodd">
        <g id="crypto101-invest" fill-rule="nonzero">
            <rect id="Rectangle-path" fill="#333333" x="3.33333333" y="1.66666667" width="193.333333" height="20"></rect>
            <rect id="Rectangle-path" fill="#ECF0F1" x="10" y="21.6666667" width="180" height="140"></rect>
            <rect id="Rectangle-path" fill="#2980B9" x="44" y="128.207911" width="20" height="10"></rect>
            <rect id="Rectangle-path" fill="#2980B9" x="74" y="128.207911" width="20" height="10"></rect>
            <rect id="Rectangle-path" fill="#2980B9" x="104" y="128.207911" width="20" height="10"></rect>
            <rect id="Rectangle-path" fill="#2980B9" x="134" y="128.207911" width="20" height="10"></rect>
            <rect id="Rectangle-path" fill="#71C285" x="44" y="112" width="20" height="16.6666667"></rect>
            <rect id="Rectangle-path" fill="#71C285" x="74" y="98.6658333" width="20" height="30.0008333"></rect>
            <rect id="Rectangle-path" fill="#F3D55B" x="104" y="108.666667" width="20" height="20"></rect>
            <rect id="Rectangle-path" fill="#71C285" x="134" y="80" width="20" height="48.6666667"></rect>
            <path d="M196.666667,165 L3.33333333,165 C1.49,165 0,163.51 0,161.666667 C0,159.823333 1.49,158.333333 3.33333333,158.333333 L196.666667,158.333333 C198.51,158.333333 200,159.823333 200,161.666667 C200,163.51 198.51,165 196.666667,165 Z" id="Shape" fill="#333333"></path>
            <path d="M100,175 C98.1566667,175 96.6666667,173.51 96.6666667,171.666667 L96.6666667,161.666667 C96.6666667,159.823333 98.1566667,158.333333 100,158.333333 C101.843333,158.333333 103.333333,159.823333 103.333333,161.666667 L103.333333,171.666667 C103.333333,173.51 101.843333,175 100,175 Z" id="Shape" fill="#333333"></path>
            <path d="M100,198.333333 C92.6466667,198.333333 86.6666667,192.353333 86.6666667,185 C86.6666667,177.646667 92.6466667,171.666667 100,171.666667 C107.353333,171.666667 113.333333,177.646667 113.333333,185 C113.333333,192.353333 107.353333,198.333333 100,198.333333 Z M100,178.333333 C96.3233333,178.333333 93.3333333,181.323333 93.3333333,185 C93.3333333,188.676667 96.3233333,191.666667 100,191.666667 C103.676667,191.666667 106.666667,188.676667 106.666667,185 C106.666667,181.323333 103.676667,178.333333 100,178.333333 Z" id="Shape" fill="#333333"></path>
            <path d="M152.555249,43.2777411 C152.581259,43.0832814 152.570112,43.0331182 152.555249,42.983884 C152.488984,42.7953076 152.472572,42.7460733 152.452755,42.697768 C152.371007,42.5218873 152.348712,42.4717241 152.322702,42.4231091 C152.225782,42.2593047 152.198533,42.2103801 152.166948,42.1633134 C152.048353,42.0019861 152.019555,41.9601835 151.986732,41.9202387 C151.931305,41.8527352 151.872162,41.7886378 151.811161,41.7260886 C151.68854,41.6050158 151.623824,41.5455631 151.55601,41.4898262 C151.39747,41.3712306 151.356287,41.3387174 151.312626,41.3093007 C151.135197,41.2018524 151.094633,41.1761515 151.052211,41.1532375 C150.868899,41.0652971 150.823999,41.0426927 150.776933,41.0231848 C150.593311,40.9563006 150.542838,40.9367927 150.490198,40.9210005 C150.305956,40.8736242 150.252077,40.8584514 150.19634,40.8476137 C149.999094,40.8175777 149.948621,40.8082882 149.8966,40.8030242 C149.718242,40.794354 145.158244,40.7891932 136.216605,40.7875417 C134.506412,40.7875417 133.120112,42.1741511 133.120112,43.8840344 C133.120112,45.5939177 134.506412,46.9805271 136.216605,46.9805271 L142.116662,46.9805271 L113.586299,73.462501 L103.737655,68.3520382 C103.157062,67.7714458 102.369314,67.4450755 101.548125,67.4450755 C100.726935,67.4450755 99.9391869,67.7714458 99.3585945,68.3520382 L83.0948538,82.3070891 L71.0914219,74.9209378 C69.8822415,73.7120671 67.9215423,73.7120671 66.7123619,74.9209378 L51.3141172,88.875679 C50.1049368,90.0848594 50.1049368,92.0455586 51.3141172,93.2550487 C51.9188622,93.859484 52.7112547,94.1620114 53.5036472,94.1620114 C54.2960397,94.1620114 55.0887418,93.859484 55.6931772,93.2550487 L68.9015822,81.4898374 L80.9050142,88.875679 C82.1141946,90.0845498 84.0748937,90.0845498 85.2840741,88.875679 L101.547815,74.9209378 L111.396459,80.0314006 C111.977052,80.611993 112.764799,80.9383633 113.585989,80.9383633 C114.407179,80.9383633 115.194927,80.611993 115.775519,80.0314006 L146.495412,51.3598967 L146.495412,57.2599539 C146.495412,58.9698372 147.881712,60.3564466 149.591905,60.3564466 C151.302098,60.3564466 152.688398,58.9698372 152.688398,57.2599539 L152.688398,43.8858923 C152.688811,43.8169437 152.644428,43.6142267 152.555249,43.2777411 Z" id="Shape" fill="#333333"></path>
        </g>
    </g>
</svg>