<?xml version="1.0" encoding="UTF-8"?>
<svg width="64px" height="64px" viewBox="0 0 64 64" version="1.1" xmlns="http://www.w3.org/2000/svg" xmlns:xlink="http://www.w3.org/1999/xlink">
    <!-- Generator: Sketch 46.2 (44496) - http://www.bohemiancoding.com/sketch -->
    <title>Simple</title>
    <desc>Created with Sketch.</desc>
    <defs></defs>
    <g id="Icons" stroke="none" stroke-width="1" fill="none" fill-rule="evenodd">
        <g id="Simple" fill-rule="nonzero">
            <g id="like" transform="translate(12.000000, 12.000000)">
                <path d="M9.54826255,38 L1.45173745,38 C1.20849421,38 1,37.8020942 1,37.5712042 L1,17.4287958 C1,17.1979058 1.20849421,17 1.45173745,17 L9.54826255,17 C9.79150579,17 10,17.1979058 10,17.4287958 L10,37.5712042 C10,37.8020942 9.79150579,38 9.54826255,38 Z" id="XMLID_742_" fill="#3498DB"></path>
                <path d="M0,17.617986 L0,37.4439944 C0,38.495802 0.849972722,39.3553437 1.89007092,39.3553437 L8.82405892,39.3553437 C9.51745772,39.3553437 10.1325696,38.9708119 10.4569013,38.4053239 C11.4746318,39.389273 12.8614294,40 14.3824332,40 L31.8739771,40 C35.7435897,40 38.2040371,37.9529335 38.6402073,34.3790495 L40.9888161,19.2579011 C41,19.2013523 41,19.1561132 41,19.0995644 C41,15.921522 38.438898,13.3428969 35.3074195,13.3428969 L26.4609929,13.3428969 L26.4609929,6.89633395 C26.4609929,4.18199167 25.6781233,2.21409352 24.1235679,1.07180781 C21.6743044,-0.749063469 18.2967812,0.291434405 18.1513912,0.336673443 C17.7264048,0.472390557 17.4468085,0.868232139 17.4468085,1.30931276 L17.4468085,8.53624908 C17.4468085,14.2363679 10.9042553,16.1816465 10.6358429,16.2608148 C10.5016367,16.2947441 10.3897981,16.3626027 10.2891435,16.441771 C9.94244408,16.0006903 9.4056192,15.7179464 8.81287507,15.7179464 L1.87888707,15.7179464 C0.849972722,15.7066366 0,16.5661783 0,17.617986 Z M11.1950355,18.228713 C11.530551,18.1382349 19.4934534,15.7971147 19.4934534,8.53624908 L19.4934534,2.1349252 C20.3657938,1.99920809 21.8644299,1.92003977 22.9492635,2.7230327 C23.9446263,3.46947682 24.4590835,4.871887 24.4590835,6.89633395 L24.4590835,14.372085 C24.4590835,14.937573 24.9176214,15.4012731 25.476814,15.4012731 L35.3297872,15.4012731 C37.3316967,15.4012731 38.964539,17.0298785 38.9980906,19.0430157 L36.6606656,34.0963055 C36.6606656,34.1076153 36.6606656,34.1189251 36.6606656,34.1302348 C36.3587016,36.6749307 34.748227,37.9642433 31.8963448,37.9642433 L14.393617,37.9642433 C12.3693399,37.9642433 10.7253137,36.3017086 10.7253137,34.2546422 L10.7253137,18.2400227 C10.8707038,18.273952 11.0384615,18.273952 11.1950355,18.228713 Z M2.02427714,17.7537031 L8.6898527,17.7537031 L8.6898527,37.3082772 L2.02427714,37.3082772 C2.02427714,37.3082772 2.02427714,17.7537031 2.02427714,17.7537031 Z" id="Shape" fill="#000000"></path>
            </g>
        </g>
    </g>
</svg>