<?xml version="1.0" encoding="UTF-8"?>
<svg width="128px" height="128px" viewBox="0 0 128 128" version="1.1" xmlns="http://www.w3.org/2000/svg" xmlns:xlink="http://www.w3.org/1999/xlink">
    <!-- Generator: Sketch 46.2 (44496) - http://www.bohemiancoding.com/sketch -->
    <title>star</title>
    <desc>Created with Sketch.</desc>
    <defs></defs>
    <g id="Icons" stroke="none" stroke-width="1" fill="none" fill-rule="evenodd">
        <g id="star">
            <circle id="Oval-6" fill="#F6DB6A" cx="64" cy="64" r="64"></circle>
            <g id="Group" transform="translate(29.000000, 31.000000)" fill="#FFFFFF">
                <path d="M54.879006,66.9962799 C54.5593014,66.9962799 54.2366904,66.9437915 53.925705,66.8329828 L35.0020986,60.0794813 L16.0813986,66.8329828 C15.2007577,67.1537449 14.2183926,67.0050279 13.4569144,66.4509842 C12.6983426,65.8998565 12.2594753,65.0046385 12.285633,64.0656802 L12.83785,43.9247326 L0.590257124,27.9536931 C0.0176952356,27.2101081 -0.150876285,26.2303255 0.139764268,25.3351075 C0.43040482,24.4369735 1.13956777,23.7429608 2.04055348,23.480519 L21.3013029,17.7826167 L32.6537229,1.16130482 C33.7087481,-0.387101605 36.280917,-0.387101605 37.3446614,1.16130482 L48.6999878,17.7826167 L67.9607373,23.480519 C68.861723,23.7458768 69.5708859,24.4398895 69.8615265,25.3351075 C70.1492606,26.2303255 69.9835955,27.2101081 69.4110336,27.9536931 L57.1634407,43.9247326 L57.7156578,64.0656802 C57.7418154,65.0046385 57.3029482,65.8998565 56.5443763,66.4509842 C56.0561002,66.8067386 55.4719127,66.9962799 54.879006,66.9962799 Z" id="Shape" fill-rule="nonzero"></path>
                <path d="M35.4941601,54.1657829 C35.8182735,54.1657829 36.1423869,54.2209322 36.4519006,54.3283282 L52.4940539,60 L52.0268635,43.0865755 C52.0093438,42.4334915 52.2166596,41.7949205 52.6196114,41.2782584 L63,27.8653642 L46.6716925,23.0789841 C46.0409853,22.8961206 45.4949565,22.498465 45.124124,21.9614848 L35.5,8 L25.875876,21.9614848 C25.5050435,22.498465 24.9590147,22.8961206 24.3283075,23.0789841 L8,27.8653642 L18.3803886,41.2782584 C18.7804205,41.7949205 18.9906562,42.4334915 18.9702166,43.0865755 L18.5030261,60 L34.5422595,54.3283282 C34.8459333,54.2209322 35.1700467,54.1657829 35.4941601,54.1657829 Z" id="Path"></path>
            </g>
        </g>
    </g>
</svg>