<?xml version="1.0" encoding="UTF-8"?>
<svg width="150px" height="150px" viewBox="0 0 150 150" version="1.1" xmlns="http://www.w3.org/2000/svg" xmlns:xlink="http://www.w3.org/1999/xlink">
    <!-- Generator: Sketch 46.2 (44496) - http://www.bohemiancoding.com/sketch -->
    <title>bank</title>
    <desc>Created with Sketch.</desc>
    <defs></defs>
    <g id="Icons" stroke="none" stroke-width="1" fill="none" fill-rule="evenodd">
        <g id="bank" fill-rule="nonzero">
            <g id="Group" transform="translate(0.000000, 31.000000)" fill="#E74C3C" opacity="0.5">
                <path d="M142.723881,32.9761768 L142.723881,25.2910448 L134.958022,25.2910448 L129.780784,25.2910448 L122.014925,25.2910448 L122.014925,32.9761768 C122.014925,34.3902411 123.174627,35.5378875 124.603545,35.5378875 C126.032463,35.5378875 127.192164,36.6855339 127.192164,38.0995982 L127.192164,79.086969 C127.192164,80.5010333 126.032463,81.6486797 124.603545,81.6486797 C123.174627,81.6486797 122.014925,82.7963261 122.014925,84.2103904 L122.014925,91.8955224 L129.780784,91.8955224 L134.958022,91.8955224 L142.723881,91.8955224 L142.723881,84.2103904 C142.723881,82.7963261 141.564179,81.6486797 140.135261,81.6486797 C138.706343,81.6486797 137.546642,80.5010333 137.546642,79.086969 L137.546642,38.0995982 C137.546642,36.6855339 138.706343,35.5378875 140.135261,35.5378875 C141.564179,35.5378875 142.723881,34.3902411 142.723881,32.9761768" id="XMLID_115_"></path>
                <rect id="XMLID_110_" x="0" y="101.529851" width="150" height="10.0746269"></rect>
                <path d="M113.619403,32.9761768 L113.619403,25.2910448 L105.853545,25.2910448 L100.676306,25.2910448 L92.9104478,25.2910448 L92.9104478,32.9761768 C92.9104478,34.3902411 94.0701493,35.5378875 95.4990672,35.5378875 C96.9279851,35.5378875 98.0876866,36.6855339 98.0876866,38.0995982 L98.0876866,79.086969 C98.0876866,80.5010333 96.9279851,81.6486797 95.4990672,81.6486797 C94.0701493,81.6486797 92.9104478,82.7963261 92.9104478,84.2103904 L92.9104478,91.8955224 L100.676306,91.8955224 L105.853545,91.8955224 L113.619403,91.8955224 L113.619403,84.2103904 C113.619403,82.7963261 112.459701,81.6486797 111.030784,81.6486797 C109.601866,81.6486797 108.442164,80.5010333 108.442164,79.086969 L108.442164,38.0995982 C108.442164,36.6855339 109.601866,35.5378875 111.030784,35.5378875 C112.459701,35.5378875 113.619403,34.3902411 113.619403,32.9761768" id="XMLID_114_"></path>
                <path d="M57.0895522,32.9761768 L57.0895522,25.2910448 L49.323694,25.2910448 L44.1464552,25.2910448 L36.380597,25.2910448 L36.380597,32.9761768 C36.380597,34.3902411 37.5402985,35.5378875 38.9692164,35.5378875 C40.3981343,35.5378875 41.5578358,36.6855339 41.5578358,38.0995982 L41.5578358,79.086969 C41.5578358,80.5010333 40.3981343,81.6486797 38.9692164,81.6486797 C37.5402985,81.6486797 36.380597,82.7963261 36.380597,84.2103904 L36.380597,91.8955224 L44.1464552,91.8955224 L49.323694,91.8955224 L57.0895522,91.8955224 L57.0895522,84.2103904 C57.0895522,82.7963261 55.9298507,81.6486797 54.5009328,81.6486797 C53.0720149,81.6486797 51.9123134,80.5010333 51.9123134,79.086969 L51.9123134,38.0995982 C51.9123134,36.6855339 53.0720149,35.5378875 54.5009328,35.5378875 C55.9298507,35.5378875 57.0895522,34.3902411 57.0895522,32.9761768" id="XMLID_112_"></path>
                <path d="M85.7089552,32.9751329 L85.7089552,25.2900009 L77.943097,25.2900009 L72.7658582,25.2900009 L65,25.2900009 L65,32.9751329 C65,34.3891972 66.1597015,35.5368436 67.5886194,35.5368436 C69.0175373,35.5368436 70.1772388,36.68449 70.1772388,38.0985543 L70.1772388,79.0859251 C70.1772388,80.4999894 69.0175373,81.6476358 67.5886194,81.6476358 C66.1597015,81.6476358 65,82.7952822 65,84.2093465 L65,91.8944785 L72.7658582,91.8944785 L77.943097,91.8944785 L85.7089552,91.8944785 L85.7089552,84.2093465 C85.7089552,82.7952822 84.5492537,81.6476358 83.1203358,81.6476358 C81.6914179,81.6476358 80.5317164,80.4999894 80.5317164,79.0859251 L80.5317164,38.0985543 C80.5317164,36.68449 81.6914179,35.5368436 83.1203358,35.5368436 C84.5492537,35.5368436 85.7089552,34.3891972 85.7089552,32.9751329" id="XMLID_112_"></path>
                <path d="M28.5447761,32.9761768 L28.5447761,25.2910448 L20.7789179,25.2910448 L15.6016791,25.2910448 L7.8358209,25.2910448 L7.8358209,32.9761768 C7.8358209,34.3902411 8.99552239,35.5378875 10.4244403,35.5378875 C11.8533582,35.5378875 13.0130597,36.6855339 13.0130597,38.0995982 L13.0130597,79.086969 C13.0130597,80.5010333 11.8533582,81.6486797 10.4244403,81.6486797 C8.99552239,81.6486797 7.8358209,82.7963261 7.8358209,84.2103904 L7.8358209,91.8955224 L15.6016791,91.8955224 L20.7789179,91.8955224 L28.5447761,91.8955224 L28.5447761,84.2103904 C28.5447761,82.7963261 27.3850746,81.6486797 25.9561567,81.6486797 C24.5272388,81.6486797 23.3675373,80.5010333 23.3675373,79.086969 L23.3675373,38.0995982 C23.3675373,36.6855339 24.5272388,35.5378875 25.9561567,35.5378875 C27.3850746,35.5378875 28.5447761,34.3902411 28.5447761,32.9761768" id="XMLID_111_"></path>
                <path d="M31.4903915,0.985074627 L26.3059701,15.9962898 C26.3059701,16.07475 26.3915131,16.1228385 26.4615028,16.0823429 L53.1716418,0.985074627 L31.4903915,0.985074627 Z" id="XMLID_107_"></path>
                <path d="M96.8283582,0.985074627 L123.538497,16.0823429 C123.608487,16.1228385 123.69403,16.07475 123.69403,15.9962898 L118.507016,0.985074627 L96.8283582,0.985074627 Z" id="XMLID_106_"></path>
            </g>
            <rect id="XMLID_109_" fill="#E74C3C" x="2.79850746" y="122.895522" width="144.402985" height="10.0746269"></rect>
            <path d="M75.7215429,19.2645862 L98.0841395,31.9850746 L115.858209,31.9850746 C115.858209,16.7204885 97.9753821,4 75.7215429,4 C53.4651142,4 35.261194,16.7204885 35.261194,31.9850746 L53.3589462,31.9850746 L75.7215429,19.2645862 Z" id="XMLID_105_" fill="#E74C3C"></path>
            <polygon id="XMLID_116_" fill="#C0392B" points="124.813433 47.0970149 75.5597015 19.1119403 26.3059701 47.0970149"></polygon>
            <polygon id="XMLID_108_" fill="#E74C3C" points="147.201493 56.2910448 2.79850746 56.2910448 7.95575693 46.2164179 142.044243 46.2164179"></polygon>
        </g>
    </g>
</svg>