<?xml version="1.0" encoding="UTF-8"?>
<svg width="150px" height="150px" viewBox="0 0 150 150" version="1.1" xmlns="http://www.w3.org/2000/svg" xmlns:xlink="http://www.w3.org/1999/xlink">
    <!-- Generator: Sketch 46.2 (44496) - http://www.bohemiancoding.com/sketch -->
    <title>card</title>
    <desc>Created with Sketch.</desc>
    <defs></defs>
    <g id="Icons" stroke="none" stroke-width="1" fill="none" fill-rule="evenodd">
        <g id="card">
            <g id="credit-card" transform="translate(0.000000, 21.000000)">
                <path d="M141.680172,108.563536 L8.31982759,108.563536 C3.72413793,108.563536 0,104.841358 0,100.248086 L0,8.31544988 C0,3.72217837 3.72413793,0 8.31982759,0 L141.680172,0 C146.275862,0 150,3.72217837 150,8.31544988 L150,100.248086 C150,104.841358 146.275862,108.563536 141.680172,108.563536" id="XMLID_115_" fill="#F0C41B" fill-rule="nonzero"></path>
                <rect id="XMLID_114_" fill="#34495E" fill-rule="nonzero" x="0" y="13.2596685" width="150" height="20.718232"></rect>
                <path d="M38.8749372,51.3812155 L15.8211954,51.3812155 C14.4072325,51.3812155 13.2596685,50.2674033 13.2596685,48.8950276 C13.2596685,47.5226519 14.4072325,46.4088398 15.8211954,46.4088398 L38.8749372,46.4088398 C40.2889001,46.4088398 41.4364641,47.5226519 41.4364641,48.8950276 C41.4364641,50.2674033 40.2889001,51.3812155 38.8749372,51.3812155" id="XMLID_113_" fill="#F9EAB0" fill-rule="nonzero"></path>
                <path d="M72.0241085,51.3812155 L48.9703666,51.3812155 C47.5564038,51.3812155 46.4088398,50.2674033 46.4088398,48.8950276 C46.4088398,47.5226519 47.5564038,46.4088398 48.9703666,46.4088398 L72.0241085,46.4088398 C73.4380713,46.4088398 74.5856354,47.5226519 74.5856354,48.8950276 C74.5856354,50.2674033 73.4380713,51.3812155 72.0241085,51.3812155" id="XMLID_112_" fill="#F9EAB0" fill-rule="nonzero"></path>
                <path d="M18.2320442,64.640884 L15.7458564,64.640884 C14.3734807,64.640884 13.2596685,63.5270718 13.2596685,62.1546961 C13.2596685,60.7823204 14.3734807,59.6685083 15.7458564,59.6685083 L18.2320442,59.6685083 C19.6044199,59.6685083 20.718232,60.7823204 20.718232,62.1546961 C20.718232,63.5270718 19.6044199,64.640884 18.2320442,64.640884" id="XMLID_111_" fill="#F9EAB0" fill-rule="nonzero"></path>
                <path d="M33.1491713,64.640884 L28.1767956,64.640884 C26.8044199,64.640884 25.6906077,63.5270718 25.6906077,62.1546961 C25.6906077,60.7823204 26.8044199,59.6685083 28.1767956,59.6685083 L33.1491713,59.6685083 C34.521547,59.6685083 35.6353591,60.7823204 35.6353591,62.1546961 C35.6353591,63.5270718 34.521547,64.640884 33.1491713,64.640884" id="XMLID_110_" fill="#F9E490" fill-rule="nonzero"></path>
                <path d="M46.4088398,64.640884 L43.9226519,64.640884 C42.5502762,64.640884 41.4364641,63.5270718 41.4364641,62.1546961 C41.4364641,60.7823204 42.5502762,59.6685083 43.9226519,59.6685083 L46.4088398,59.6685083 C47.7812155,59.6685083 48.8950276,60.7823204 48.8950276,62.1546961 C48.8950276,63.5270718 47.7812155,64.640884 46.4088398,64.640884" id="XMLID_109_" fill="#F9EAB0" fill-rule="nonzero"></path>
                <path d="M57.1823204,64.640884 C55.8099448,64.640884 54.6961326,63.5270718 54.6961326,62.1546961 C54.6961326,60.7823204 55.8099448,59.6685083 57.1823204,59.6685083 L62.1546961,59.6685083 C63.5270718,59.6685083 64.640884,60.7823204 64.640884,62.1546961 C64.640884,63.5270718 63.5270718,64.640884 62.1546961,64.640884 L57.1823204,64.640884 Z" id="XMLID_108_" fill="#F9EAB0" fill-rule="nonzero"></path>
                <rect id="Rectangle-8" fill="#ECF0F1" x="84.5303867" y="68.7845304" width="49.7237569" height="24.8618785" rx="12.4309392"></rect>
                <path d="M72.0994475,64.640884 C71.4530387,64.640884 70.8066298,64.3656833 70.3342541,63.9153549 C69.8867403,63.4400083 69.6132597,62.8145523 69.6132597,62.1390597 C69.6132597,61.4885854 69.8867403,60.8381111 70.3342541,60.3627645 C71.2541436,59.4370895 72.9198895,59.4370895 73.8646409,60.3627645 C74.3121547,60.8381111 74.5856354,61.4885854 74.5856354,62.1390597 C74.5856354,62.789534 74.3121547,63.4400083 73.8646409,63.9153549 C73.3922652,64.3656833 72.7458564,64.640884 72.0994475,64.640884" id="XMLID_107_" fill="#F9EAB0" fill-rule="nonzero"></path>
            </g>
        </g>
    </g>
</svg>