<?xml version="1.0" encoding="UTF-8"?>
<svg width="150px" height="150px" viewBox="0 0 150 150" version="1.1" xmlns="http://www.w3.org/2000/svg" xmlns:xlink="http://www.w3.org/1999/xlink">
    <!-- Generator: Sketch 46.2 (44496) - http://www.bohemiancoding.com/sketch -->
    <title>energy</title>
    <desc>Created with Sketch.</desc>
    <defs></defs>
    <g id="Icons" stroke="none" stroke-width="1" fill="none" fill-rule="evenodd">
        <g id="energy">
            <g id="Group">
                <path d="M101.972659,74.4326795 C101.688366,73.865359 101.26201,73.5816157 100.69359,73.5816157 L83.9236302,73.5816157 L100.551527,47.3404255 C100.83582,46.9148936 100.83582,46.3475731 100.551527,45.9220412 C100.267234,45.4965093 99.8408776,45.212766 99.272458,45.212766 L76.5335094,45.212766 C75.9650898,45.212766 75.5387335,45.4965093 75.2544404,45.9220412 L53.9366241,88.4752327 C53.652331,88.9007646 53.652331,89.4680851 53.9366241,89.893617 C54.2209171,90.3191489 54.7893367,90.6028923 55.215693,90.6028923 L69.8538714,90.6028923 L53.9366241,128.475233 C53.652331,129.042553 53.9366241,129.751828 54.5050436,130.17736 C54.6471069,130.319149 54.9314,130.319149 55.215693,130.319149 C55.6420494,130.319149 56.0684057,130.17736 56.3526988,129.893617 L101.830763,75.9928524 C102.114889,75.5673205 102.256952,75 101.972659,74.4326795 Z" id="Shape" fill="#333333" fill-rule="nonzero"></path>
                <path d="M60.1897392,120.815658 L73.264722,89.6100399 C73.4067853,89.184508 73.4067853,88.7589761 73.1226588,88.3334441 C72.8383657,88.0497008 72.4120094,87.7661237 71.9856531,87.7661237 L57.4895379,87.7661237 L77.3862221,48.0497008 L96.71432,48.0497008 L79.94436,74.2907247 C79.660067,74.7162566 79.660067,75.2835771 79.94436,75.709109 C80.2286531,76.134641 80.6550094,76.4183843 81.223429,76.4183843 L97.7092625,76.4183843 L60.1897392,120.815658 Z" id="Path" fill="#F0C41B"></path>
                <path d="M117.118956,43.75976 C116.370574,43.0092624 115.153745,43.0092624 114.406172,43.75976 C113.652935,44.5151257 113.652935,45.734583 114.406172,46.4850806 C124.929641,57.0439738 130.727378,71.0786853 130.727378,86.0091258 C130.727378,116.82821 105.725746,141.896454 74.9927184,141.896454 C44.2653544,141.896454 19.2629128,116.824153 19.2629128,86.0091258 C19.2629128,55.3498775 44.0137361,30.3984681 74.5242716,30.1412705 L63.3397991,41.3541108 C62.5865624,42.1046085 62.5865624,43.3248771 63.3397991,44.0794314 C63.7111585,44.4567086 64.2087316,44.6457529 64.696596,44.6457529 C65.1844603,44.6457529 65.67637,44.4567086 66.0533929,44.0794314 L81.1205537,28.9696828 L66.0525838,13.8607456 C65.2993471,13.1102479 64.0873723,13.1102479 63.3397991,13.8607456 C62.5865624,14.6161113 62.5865624,15.8355685 63.3397991,16.5860662 L73.0817141,26.3506489 C41.1181034,27.3818732 15.4255319,53.7036508 15.4255319,85.9993896 C15.4255319,118.944207 42.1464211,145.744681 74.9975728,145.744681 C107.854388,145.744681 134.574468,118.943396 134.574468,86.0042577 C134.575277,70.0425929 128.37139,55.0448104 117.118956,43.75976 Z" id="Shape" fill="#333333" fill-rule="nonzero" transform="translate(75.000000, 79.521277) rotate(-15.000000) translate(-75.000000, -79.521277) "></path>
            </g>
        </g>
    </g>
</svg>