<?xml version="1.0" encoding="UTF-8"?>
<svg width="150px" height="150px" viewBox="0 0 150 150" version="1.1" xmlns="http://www.w3.org/2000/svg" xmlns:xlink="http://www.w3.org/1999/xlink">
    <!-- Generator: Sketch 46.2 (44496) - http://www.bohemiancoding.com/sketch -->
    <title>file</title>
    <desc>Created with Sketch.</desc>
    <defs></defs>
    <g id="Icons" stroke="none" stroke-width="1" fill="none" fill-rule="evenodd">
        <g id="file" fill-rule="nonzero">
            <g id="user-card" transform="translate(26.000000, 43.000000)">
                <path d="M93,5 L93,58 L6,58 L6,5 L93,5 Z M99,0 L0,0 L0,64 L99,64 L99,0 Z" id="Shape" fill="#444444"></path>
                <polygon id="Shape" fill="#27AE60" points="49 19 87 19 87 25 49 25"></polygon>
                <polygon id="Shape" fill="#27AE60" points="49 31 87 31 87 37 49 37"></polygon>
                <polygon id="Shape" fill="#27AE60" points="49 43 87 43 87 49 49 49"></polygon>
                <path d="M34.08,28.3297576 L31.6,28.3297576 L31.6,27.7187657 C35.32,26.4967819 37.8,22.8308303 37.8,19.1648788 C37.8,14.2769434 33.46,10 28.5,10 C23.54,10 19.2,14.2769434 19.2,19.1648788 C19.2,23.4418223 21.68,26.4967819 25.4,27.7187657 L25.4,28.3297576 L22.92,28.3297576 C17.34,28.3297576 13,32.6067011 13,38.1056284 L13,49 L44,49 L44,38.1056284 C44,32.6067011 39.66,28.3297576 34.08,28.3297576 Z" id="Shape" fill="#27AE60"></path>
            </g>
        </g>
    </g>
</svg>