<?xml version="1.0" encoding="UTF-8"?>
<svg width="150px" height="150px" viewBox="0 0 150 150" version="1.1" xmlns="http://www.w3.org/2000/svg" xmlns:xlink="http://www.w3.org/1999/xlink">
    <!-- Generator: Sketch 46.2 (44496) - http://www.bohemiancoding.com/sketch -->
    <title>fork-please</title>
    <desc>Created with Sketch.</desc>
    <defs></defs>
    <g id="Icons" stroke="none" stroke-width="1" fill="none" fill-rule="evenodd">
        <g id="fork-please">
            <circle id="Oval-13" fill="#27AE60" cx="76" cy="76" r="75"></circle>
            <circle id="Oval-13" fill="#C8FFDF" cx="75" cy="74" r="40"></circle>
            <g id="kitchen-pack" transform="translate(83.500000, 76.500000) rotate(30.000000) translate(-83.500000, -76.500000) translate(71.000000, 21.000000)" fill-rule="nonzero">
                <path d="M24,22 L24,34.1667682 C24,38.7068357 20.2439644,42.5676269 15,44 L15,22 L24,22 Z" id="Shape" fill="#74C8EE"></path>
                <path d="M14.9997858,44.3671029 L14.9997858,104.465836 C14.9997858,106.416764 13.4319023,108 11.4998929,108 C9.56788348,108 8,106.416548 8,104.465836 L8,44.3671029 C3.92136104,42.9110448 1,38.9856143 1,34.3697889 L1,22 L15,22 L15,44.3671029 L14.9997858,44.3671029 Z" id="Shape" fill="#AEE6FF"></path>
                <path d="M23.2134739,0 C22.227322,0 21.4278221,0.792826172 21.4278221,1.77123047 L21.4278221,21.2551992 L17.8565184,21.2551992 L17.8565184,1.77123047 C17.8565184,0.792826172 17.0570185,0 16.0708666,0 C15.0847146,0 14.2852147,0.792826172 14.2852147,1.77123047 L14.2852147,21.2551992 L10.713911,21.2551992 L10.713911,1.77123047 C10.713911,0.792826172 9.91441111,0 8.9282592,0 C7.94210729,0 7.14260736,0.792826172 7.14260736,1.77123047 L7.14260736,21.2551992 L3.57130368,21.2551992 L3.57130368,1.77123047 C3.57130368,0.792826172 2.77180375,0 1.78565184,0 C0.79949993,0 0,0.792826172 0,1.77123047 L0,35.4254766 C0,40.240752 2.82251014,44.5951172 7.14282592,46.6288887 L7.14282592,105.686092 C7.14282592,108.616102 9.54591551,111 12.5,111 C15.4540845,111 17.8571741,108.616102 17.8571741,105.686092 L17.8571741,46.6288887 C22.1772713,44.595334 25,40.240752 25,35.4254766 L25,1.77123047 C24.9991258,0.792826172 24.1996258,0 23.2134739,0 Z M15.475285,43.7760586 C14.76168,44.026459 14.2847776,44.6954941 14.2847776,45.4460449 L14.2847776,105.686309 C14.2847776,106.663195 13.4837477,107.457539 12.4991258,107.457539 C11.5145038,107.457539 10.7134739,106.662979 10.7134739,105.686309 L10.7134739,45.4462617 C10.7134739,44.6954941 10.2365715,44.026459 9.5229665,43.7762754 C5.96280948,42.527959 3.57064799,39.1719434 3.57064799,35.4256934 L3.57064799,24.7980938 L7.14195167,24.7980938 L7.14195167,25.3884316 C7.14195167,26.3668359 7.9414516,27.1596621 8.92760351,27.1596621 C9.91375542,27.1596621 10.7132554,26.3668359 10.7132554,25.3884316 L10.7132554,24.797877 L14.284559,24.797877 L14.284559,25.3882148 C14.284559,26.3666191 15.084059,27.1594453 16.0702109,27.1594453 C17.0563628,27.1594453 17.8558627,26.3666191 17.8558627,25.3882148 L17.8558627,24.797877 L21.4271664,24.797877 L21.4271664,35.4254766 C21.4276035,39.1717266 19.035442,42.5273086 15.475285,43.7760586 Z" id="Shape" fill="#000000"></path>
            </g>
            <g id="kitchen-pack" transform="translate(67.500000, 76.500000) rotate(-30.000000) translate(-67.500000, -76.500000) translate(55.000000, 21.000000)" fill-rule="nonzero">
                <path d="M24,22 L24,34.1667682 C24,38.7068357 20.2439644,42.5676269 15,44 L15,22 L24,22 Z" id="Shape" fill="#74C8EE"></path>
                <path d="M14.9997858,44.3671029 L14.9997858,104.465836 C14.9997858,106.416764 13.4319023,108 11.4998929,108 C9.56788348,108 8,106.416548 8,104.465836 L8,44.3671029 C3.92136104,42.9110448 1,38.9856143 1,34.3697889 L1,22 L15,22 L15,44.3671029 L14.9997858,44.3671029 Z" id="Shape" fill="#AEE6FF"></path>
                <path d="M23.2134739,0 C22.227322,0 21.4278221,0.792826172 21.4278221,1.77123047 L21.4278221,21.2551992 L17.8565184,21.2551992 L17.8565184,1.77123047 C17.8565184,0.792826172 17.0570185,0 16.0708666,0 C15.0847146,0 14.2852147,0.792826172 14.2852147,1.77123047 L14.2852147,21.2551992 L10.713911,21.2551992 L10.713911,1.77123047 C10.713911,0.792826172 9.91441111,0 8.9282592,0 C7.94210729,0 7.14260736,0.792826172 7.14260736,1.77123047 L7.14260736,21.2551992 L3.57130368,21.2551992 L3.57130368,1.77123047 C3.57130368,0.792826172 2.77180375,0 1.78565184,0 C0.79949993,0 0,0.792826172 0,1.77123047 L0,35.4254766 C0,40.240752 2.82251014,44.5951172 7.14282592,46.6288887 L7.14282592,105.686092 C7.14282592,108.616102 9.54591551,111 12.5,111 C15.4540845,111 17.8571741,108.616102 17.8571741,105.686092 L17.8571741,46.6288887 C22.1772713,44.595334 25,40.240752 25,35.4254766 L25,1.77123047 C24.9991258,0.792826172 24.1996258,0 23.2134739,0 Z M15.475285,43.7760586 C14.76168,44.026459 14.2847776,44.6954941 14.2847776,45.4460449 L14.2847776,105.686309 C14.2847776,106.663195 13.4837477,107.457539 12.4991258,107.457539 C11.5145038,107.457539 10.7134739,106.662979 10.7134739,105.686309 L10.7134739,45.4462617 C10.7134739,44.6954941 10.2365715,44.026459 9.5229665,43.7762754 C5.96280948,42.527959 3.57064799,39.1719434 3.57064799,35.4256934 L3.57064799,24.7980938 L7.14195167,24.7980938 L7.14195167,25.3884316 C7.14195167,26.3668359 7.9414516,27.1596621 8.92760351,27.1596621 C9.91375542,27.1596621 10.7132554,26.3668359 10.7132554,25.3884316 L10.7132554,24.797877 L14.284559,24.797877 L14.284559,25.3882148 C14.284559,26.3666191 15.084059,27.1594453 16.0702109,27.1594453 C17.0563628,27.1594453 17.8558627,26.3666191 17.8558627,25.3882148 L17.8558627,24.797877 L21.4271664,24.797877 L21.4271664,35.4254766 C21.4276035,39.1717266 19.035442,42.5273086 15.475285,43.7760586 Z" id="Shape" fill="#000000"></path>
            </g>
        </g>
    </g>
</svg>