<?xml version="1.0" encoding="UTF-8"?>
<svg width="150px" height="150px" viewBox="0 0 150 150" version="1.1" xmlns="http://www.w3.org/2000/svg" xmlns:xlink="http://www.w3.org/1999/xlink">
    <!-- Generator: Sketch 46.2 (44496) - http://www.bohemiancoding.com/sketch -->
    <title>key</title>
    <desc>Created with Sketch.</desc>
    <defs></defs>
    <g id="Icons" stroke="none" stroke-width="1" fill="none" fill-rule="evenodd">
        <g id="key" fill-rule="nonzero">
            <path d="M140.283096,117.461411 C139.409786,116.65803 130.79573,117.213724 130.79573,117.213724 L130.697509,108.100023 L126.484164,103.284009 L116.497153,103.120664 L116.487544,103.106785 L116.487544,103.106785 C116.445374,103.242372 116.48274,93.0824076 116.48274,93.0824076 L111.820996,89.7050055 C111.820996,89.7050055 102.75427,89.4386354 102.679537,89.3687066 L101.95089,80.0542938 L93.5567616,70.1185286 C96.4574733,63.859098 98.1298932,56.903582 98.1298932,49.5461087 C98.1298932,22.4761799 76.1653025,0.530272401 49.0724199,0.530272401 C21.9645907,0.524934323 0,22.4708418 0,49.5407706 C0,76.6155037 21.9645907,98.5656817 49.0622776,98.5656817 C56.5782918,98.5656817 63.6741993,96.8233329 70.0409253,93.800913 L125.839324,149.93561 C125.839324,149.93561 149.461922,150.000735 149.461922,149.99166 L149.499288,126.149667 C149.499288,126.149667 145.790391,122.534187 140.283096,117.461411 Z M39.7014235,51.9701301 C33.2786477,51.9701301 28.0745552,46.7334752 28.0745552,40.2733329 C28.0745552,33.8131906 33.2781139,28.5717315 39.7014235,28.5717315 C46.1247331,28.5717315 51.3330961,33.8126567 51.3330961,40.2733329 C51.3330961,46.7340091 46.1241993,51.9701301 39.7014235,51.9701301 Z" id="Shape" fill="#F1C40F" transform="translate(74.749644, 75.261400) scale(1, -1) translate(-74.749644, -75.261400) "></path>
            <path d="M39.7104982,90.2012456 C30.6811388,90.2012456 23.361032,97.5213523 23.361032,106.550712 C23.361032,115.580071 30.6811388,122.900178 39.7104982,122.900178 C48.7446619,122.900178 56.0599644,115.580071 56.0599644,106.550712 C56.0599644,97.5213523 48.7446619,90.2012456 39.7104982,90.2012456 Z M39.7104982,113.558007 C35.8425267,113.558007 32.7037367,110.418683 32.7037367,106.551246 C32.7037367,102.679004 35.8430605,99.544484 39.7104982,99.544484 C43.5784698,99.544484 46.7172598,102.679004 46.7172598,106.551246 C46.7172598,110.418683 43.5784698,113.558007 39.7104982,113.558007 Z" id="Shape" fill="#CA9F30" transform="translate(39.710498, 106.550712) scale(1, -1) translate(-39.710498, -106.550712) "></path>
            <path d="M81.2663701,0.507651246 C76.8053381,4.39430605 71.6434164,7.46316726 65.9866548,9.55142349 L121.457829,64.0510676 L144.814057,64.0510676 L81.2663701,0.507651246 Z" id="Shape" fill="#CA9F30" transform="translate(105.400356, 32.279359) scale(1, -1) translate(-105.400356, -32.279359) "></path>
        </g>
    </g>
</svg>