<?xml version="1.0" encoding="UTF-8"?>
<svg width="150px" height="150px" viewBox="0 0 150 150" version="1.1" xmlns="http://www.w3.org/2000/svg" xmlns:xlink="http://www.w3.org/1999/xlink">
    <!-- Generator: Sketch 46.2 (44496) - http://www.bohemiancoding.com/sketch -->
    <title>lock</title>
    <desc>Created with Sketch.</desc>
    <defs></defs>
    <g id="Icons" stroke="none" stroke-width="1" fill="none" fill-rule="evenodd">
        <g id="lock">
            <path d="M75.4874515,21 C41.5313201,21 14,45.1843575 14,75 C14,87.8463687 19.1197715,99.6620112 27.6778209,108.938547 C26.096715,113.212291 23.2105693,118.039106 17.9653132,121.50838 C16.6602734,122.363128 17.0618241,124.374302 18.6178331,124.600559 C24.0638645,125.354749 33.4501122,125.530726 42.1085493,120.326816 C51.7206693,125.807263 63.1899612,129 75.5125485,129 C109.46868,129 137,104.815642 137,75 C137,45.1843575 109.443583,21 75.4874515,21 Z" id="Shape" stroke="#333333" stroke-width="5" fill="#E74C3C" fill-rule="nonzero"></path>
            <path d="M99.4801061,97.1731844 C99.4801061,99.9134078 97.2715772,102.125698 94.5360131,102.125698 L56.43889,102.125698 C53.7033259,102.125698 51.494797,99.9134078 51.494797,97.1731844 L51.494797,74.2206704 C51.494797,71.4804469 53.7033259,69.2681564 56.43889,69.2681564 L56.8655376,69.2681564 L56.8655376,63.1843575 C56.8655376,53.0027933 64.7459702,44.3296089 74.9102224,43.952514 C75.1611916,43.952514 75.3870639,43.9273743 75.6380331,43.9273743 C85.9779637,43.9273743 94.4105285,52.349162 94.4105285,62.7318436 L94.4105285,69.2681564 L94.5360131,69.2681564 C97.2715772,69.2681564 99.4801061,71.4804469 99.4801061,74.2206704 L99.4801061,97.1731844 L99.4801061,97.1731844 Z" id="Path" fill="#FFFFFF"></path>
            <path d="M76.5,52 C76.175772,52 75.8266033,52.0249633 75.4774347,52.0499266 C70.04038,52.5741557 66,57.3421439 66,62.8091043 L66,69 L86.9750594,69 L87,69 L86.9750594,62.5095448 C87,56.7180617 82.2862233,52 76.5,52 Z" id="Shape" fill="#E74C3C" fill-rule="nonzero"></path>
            <path d="M76,97 C73.25,97 71,94.75 71,92 L71,82 C71,79.25 73.25,77 76,77 C78.75,77 81,79.25 81,82 L81,92 C81,94.75 78.75,97 76,97 Z" id="Path" fill="#E74C3C"></path>
        </g>
    </g>
</svg>