<?xml version="1.0" encoding="UTF-8"?>
<svg width="150px" height="150px" viewBox="0 0 150 150" version="1.1" xmlns="http://www.w3.org/2000/svg" xmlns:xlink="http://www.w3.org/1999/xlink">
    <!-- Generator: Sketch 46.2 (44496) - http://www.bohemiancoding.com/sketch -->
    <title>no</title>
    <desc>Created with Sketch.</desc>
    <defs></defs>
    <g id="Icons" stroke="none" stroke-width="1" fill="none" fill-rule="evenodd">
        <g id="no">
            <circle id="Oval-12" fill="#E74C3C" cx="75" cy="75" r="75"></circle>
            <path d="M103.431642,55.5585789 L83.582765,75.4074559 L103.431642,95.2563328 C106.662854,98.9491471 106.662854,102.41116 103.200841,105.411572 C99.7388276,108.642785 96.2768142,108.642785 93.2764026,105.411572 L73.4275257,85.5626952 L53.5786487,105.411572 C49.8858344,108.642785 46.423821,108.642785 43.4234094,105.411572 C40.4229978,102.18036 40.1921969,98.9491471 43.4234094,95.2563328 L63.2722863,75.4074559 L43.4234094,55.5585789 C40.1921969,51.8657646 40.1921969,48.4037512 43.4234094,45.4033396 C46.6546219,42.4029279 49.8858344,42.1721271 53.5786487,45.4033396 L73.4275257,65.2522165 L93.2764026,45.4033396 C96.5076151,42.1721271 99.7388276,42.1721271 103.200841,45.4033396 C106.893655,48.4037512 106.893655,51.8657646 103.431642,55.5585789 L103.431642,55.5585789 Z" id="Shape" fill="#FFFFFF" fill-rule="nonzero"></path>
        </g>
    </g>
</svg>