<?xml version="1.0" encoding="UTF-8"?>
<svg width="150px" height="150px" viewBox="0 0 150 150" version="1.1" xmlns="http://www.w3.org/2000/svg" xmlns:xlink="http://www.w3.org/1999/xlink">
    <!-- Generator: Sketch 46.2 (44496) - http://www.bohemiancoding.com/sketch -->
    <title>password</title>
    <desc>Created with Sketch.</desc>
    <defs></defs>
    <g id="Icons" stroke="none" stroke-width="1" fill="none" fill-rule="evenodd">
        <g id="password">
            <g id="Group" transform="translate(23.000000, 9.000000)">
                <path d="M73.6971693,124.184458 L68.8929512,124.184458 L71.2952685,120.024239 C71.8955354,119.073513 71.5353475,117.885037 70.5744761,117.290522 C69.6134659,116.696285 68.4126544,117.052772 67.811832,118.003774 L65.4097924,122.163717 L63.0076139,118.003774 C62.4072082,117.052772 61.2059801,116.696285 60.2449698,117.290522 C59.2840985,117.885037 58.9236328,119.073513 59.5244552,120.024239 L61.9266336,124.184458 L57.1221378,124.184458 C56.0414352,124.184458 55.0802861,125.135183 55.0802861,126.204922 C55.0802861,127.274661 56.0414352,128.225663 57.1221378,128.225663 L61.9266336,128.225663 L59.5244552,132.385744 C58.9237717,133.33647 59.2842373,134.525223 60.2449698,135.11946 C61.2059801,135.713698 62.4070693,135.357211 63.0076139,134.406347 L65.4097924,130.246128 L67.811832,134.406347 C68.4126544,135.357211 69.6136047,135.713698 70.5744761,135.11946 C71.5353475,134.525223 71.8956743,133.33647 71.2952685,132.385744 L68.8929512,128.225663 L73.6971693,128.225663 C74.7785662,128.225663 75.7391598,127.2748 75.7391598,126.204922 C75.7391598,125.135183 74.7785662,124.184458 73.6971693,124.184458 Z M45.8700839,124.184458 L41.0655881,124.184458 L43.4677666,120.024239 C44.0684501,119.073513 43.7078456,117.885037 42.7472519,117.290522 C41.7862417,116.696285 40.5852913,117.052772 39.9846078,118.003774 L37.5825682,122.163717 L35.1802509,118.003774 C34.5797062,117.052772 33.378617,116.696285 32.4176068,117.290522 C31.4568742,117.885037 31.0964086,119.073513 31.6970921,120.024239 L34.0992706,124.184458 L29.2947748,124.184458 C28.2137944,124.184458 27.2530619,125.135183 27.2530619,126.204922 C27.2530619,127.274661 28.2137944,128.225663 29.2947748,128.225663 L34.0992706,128.225663 L31.6970921,132.385744 C31.0964086,133.33647 31.4568742,134.525223 32.4176068,135.11946 C33.3784782,135.713698 34.5795674,135.357211 35.1802509,134.406347 L37.5825682,130.246128 L39.9846078,134.406347 C40.5852913,135.357211 41.7862417,135.713698 42.7472519,135.11946 C43.7079844,134.525223 44.0684501,133.33647 43.4677666,132.385744 L41.0655881,128.225663 L45.8700839,128.225663 C46.9510642,128.225663 47.9119356,127.2748 47.9119356,126.204922 C47.9119356,125.135183 46.9510642,124.184458 45.8700839,124.184458 Z M18.7369921,124.184458 L13.9326351,124.184458 L16.3348136,120.024239 C16.9354971,119.073513 16.5750315,117.885037 15.6141601,117.290522 C14.6535664,116.696285 13.4523383,117.052772 12.8516548,118.003774 L10.4496152,122.163717 L8.04729788,118.003774 C7.44675327,117.052772 6.12541625,116.81516 5.16468372,117.290522 L5.16468372,117.290522 C4.20367347,117.885037 3.8433467,119.073513 4.44403017,120.142975 L6.84620865,124.303195 L2.0418517,124.303195 C0.960871389,124.303195 0,125.25392 0,126.323798 C0,127.393675 0.960871389,128.3444 2.0418517,128.3444 L6.84620865,128.3444 L4.44403017,132.504481 C3.84348556,133.33647 4.20381233,134.525223 5.16468372,135.11946 L5.16468372,135.11946 C6.12541625,135.713698 7.32650549,135.357211 7.92718896,134.406347 L10.3293674,130.246128 L12.7315459,134.406347 C13.3320905,135.357211 14.5331798,135.713698 15.4940511,135.11946 C16.4549225,134.525223 16.8152493,133.33647 16.2145658,132.385744 L13.8123874,128.225663 L18.6168832,128.225663 C19.6978635,128.225663 20.6587349,127.2748 20.6587349,126.204922 C20.6587349,125.135183 19.8181113,124.184458 18.7369921,124.184458 Z M100.849006,124.184458 L96.0446495,124.184458 L98.446828,120.024239 C99.0472337,119.073513 98.686907,117.885037 97.7263133,117.290522 C96.765303,116.81516 95.5643527,117.052772 94.9636692,118.122649 L92.5614907,122.28273 L90.1590345,118.122649 C89.5587676,117.05291 88.3576784,116.815298 87.3965293,117.290522 C86.4356579,117.885037 86.0753311,119.073513 86.6758758,120.024239 L89.0783319,124.184458 L84.2736973,124.184458 C83.1929947,124.184458 82.2318456,125.135183 82.2318456,126.204922 C82.2318456,127.274661 83.1929947,128.225663 84.2736973,128.225663 L89.0783319,128.225663 L86.6758758,132.385744 C86.07547,133.33647 86.4357968,134.525223 87.3965293,135.11946 C88.3576784,135.713698 89.5586288,135.357211 90.1590345,134.406347 L92.5614907,130.246128 L94.9636692,134.406347 C95.5642138,135.357211 96.765303,135.713698 97.7263133,135.11946 C98.6870458,134.525223 99.0473726,133.33647 98.446828,132.385744 L96.0446495,128.225663 L100.849006,128.225663 C101.930126,128.225663 102.890858,127.2748 102.890858,126.204922 C102.890858,125.135183 102.050235,124.184458 100.849006,124.184458 Z" id="Shape" fill="#333333" fill-rule="nonzero"></path>
                <g id="locked" transform="translate(10.125000, 0.000000)">
                    <path d="M18.125,51.875 L18.125,21.1510337 C18.125,9.51706731 28.390625,0 40.9375,0 L40.9375,0 C53.484375,0 63.75,9.51706731 63.75,21.1510337 L63.75,51.875 L18.125,51.875 Z" id="Shape" stroke="#333333" stroke-width="10" stroke-linecap="round"></path>
                    <rect id="Rectangle-path" fill="#F1C40F" fill-rule="nonzero" x="0" y="45.625" width="83.125" height="63.75"></rect>
                    <path d="M41.5625,85 L41.5625,85 C38.296875,85 35.625,82.328125 35.625,79.0625 L35.625,67.1875 C35.625,63.921875 38.296875,61.25 41.5625,61.25 L41.5625,61.25 C44.828125,61.25 47.5,63.921875 47.5,67.1875 L47.5,79.0625 C47.5,82.328125 44.828125,85 41.5625,85 Z" id="Shape" fill="#424A60" fill-rule="nonzero"></path>
                    <rect id="Rectangle-path" fill="#333333" fill-rule="nonzero" x="0" y="97.5" width="83.125" height="11.875"></rect>
                </g>
            </g>
        </g>
    </g>
</svg>