<?xml version="1.0" encoding="UTF-8"?>
<svg width="150px" height="150px" viewBox="0 0 150 150" version="1.1" xmlns="http://www.w3.org/2000/svg" xmlns:xlink="http://www.w3.org/1999/xlink">
    <!-- Generator: Sketch 46.2 (44496) - http://www.bohemiancoding.com/sketch -->
    <title>public-address</title>
    <desc>Created with Sketch.</desc>
    <defs></defs>
    <g id="Icons" stroke="none" stroke-width="1" fill="none" fill-rule="evenodd">
        <g id="public-address" fill-rule="nonzero">
            <g id="Group" transform="translate(7.000000, 28.000000)">
                <path d="M32,92 L135,92 L135,52.7240887 C135,36.8600593 122.376329,24 106.804234,24 L32,24 L32,92 Z" id="Shape" fill="#2980B9"></path>
                <path d="M61,92 L2,92 L2,52.7240887 C2,36.8600593 14.7521956,24 30.482833,24 L30.482833,24 C47.3368563,24 61,37.778732 61,54.7759453 L61,92 Z" id="Shape" fill="#A5D6F7"></path>
                <rect id="Rectangle-path" fill="#2980B9" x="71" y="2" width="20" height="11"></rect>
                <circle id="Oval" fill="#A5D6F7" cx="77.5" cy="50.5" r="6.5"></circle>
                <path d="M68.5264902,21.1839971 L30.9991934,21.1839971 C13.9063027,21.1839971 0,35.1731498 0,52.3684753 L0,91.2546591 C0,92.7709357 1.22176172,94 2.7290293,94 L134.270971,94 C135.778238,94 137,92.7709357 137,91.2546591 L137,52.3684753 C137,35.173419 123.093697,21.1842663 106.000807,21.1842663 L73.9845488,21.1842663 L73.9845488,16.006907 L91.000377,16.006907 C92.5076445,16.006907 93.7294062,14.7778427 93.7294062,13.261566 L93.7294062,2.74534094 C93.7294062,1.22906429 92.5076445,0 91.000377,0 L71.2555195,0 C69.748252,0 68.5264902,1.22906429 68.5264902,2.74534094 L68.5264902,21.1839971 L68.5264902,21.1839971 Z M88.2713477,10.5156867 L73.9845488,10.5156867 L73.9845488,5.49068188 L88.2713477,5.49068188 L88.2713477,10.5156867 Z M50.1708984,72.4758219 C50.1708984,70.9595452 49.0059608,69.7304809 47.4986933,69.7304809 C45.9914257,69.7304809 44.769664,70.9595452 44.769664,72.4758219 L44.7128398,88.5087798 L34.7376611,88.5093181 L34.7376611,68.6267964 C34.7376611,67.1105197 33.5158994,65.8814554 32.0086318,65.8814554 C30.5013643,65.8814554 29.2796025,67.1105197 29.2796025,68.6267964 L29.2796025,88.5093181 L19.0162422,88.5087798 L19.079715,72.4758219 C19.079715,70.9595452 17.8579533,69.7304809 16.3506857,69.7304809 C14.8434182,69.7304809 13.6216564,70.9595452 13.6216564,72.4758219 L13.5581836,88.5087798 L5.45805859,88.5087798 L5.45805859,52.3684753 C5.45805859,38.2011271 16.9154863,26.6752173 30.9989258,26.6752173 C46.1957578,26.6752173 58.5592051,39.1122928 58.5592051,54.3999576 L58.5592051,88.5093181 L50.1708984,88.5093181 L50.1708984,72.4758219 Z M68.5264902,50.772253 C68.5264902,55.8863556 72.6624453,60.0470316 77.7461621,60.0470316 C82.8298789,60.0470316 86.965834,55.8863556 86.965834,50.772253 C86.965834,45.6581503 82.8298789,41.4974743 77.7461621,41.4974743 C76.406666,41.4974743 75.1340645,41.7887243 73.9845488,42.3076985 L73.9845488,26.674679 L106.000807,26.674679 C120.083979,26.674679 131.541674,38.2005888 131.541674,52.367937 L131.541674,88.5085106 L64.0175312,88.5085106 L64.0175312,54.3996884 C64.0175312,42.8293644 58.1048574,32.6240393 49.1613262,26.6749482 L68.5267578,26.6749482 L68.5267578,50.7719838 L68.5264902,50.7719838 L68.5264902,50.772253 Z M77.7461621,46.9884254 C79.8201602,46.9884254 81.5077754,48.6858584 81.5077754,50.7725221 C81.5077754,52.8591858 79.8204277,54.5566189 77.7461621,54.5566189 C75.6718965,54.5566189 73.9845488,52.8591858 73.9845488,50.7725221 C73.9845488,48.6858584 75.6721641,46.9884254 77.7461621,46.9884254 Z" id="Shape" fill="#4D3D36"></path>
                <path d="M32,42 C22.0584371,42 14,45.5108863 14,49.8422096 L14,53.1577904 C14,57.4891137 22.0584371,61 32,61 C41.9415629,61 50,57.4891137 50,53.1577904 L50,49.8422096 C50,45.5108863 41.9415629,42 32,42 Z" id="Shape" fill="#4D3D36"></path>
            </g>
        </g>
    </g>
</svg>