<?xml version="1.0" encoding="UTF-8"?>
<svg width="150px" height="150px" viewBox="0 0 150 150" version="1.1" xmlns="http://www.w3.org/2000/svg" xmlns:xlink="http://www.w3.org/1999/xlink">
    <!-- Generator: Sketch 46.2 (44496) - http://www.bohemiancoding.com/sketch -->
    <title>rocket</title>
    <desc>Created with Sketch.</desc>
    <defs></defs>
    <g id="Icons" stroke="none" stroke-width="1" fill="none" fill-rule="evenodd">
        <g id="rocket" fill-rule="nonzero">
            <g id="startup">
                <g id="Group" transform="translate(2.000000, 43.000000)" fill="#2ECC71">
                    <path d="M102.975128,34.9429688 L102.975128,52.4255411 C102.975128,64.8794958 98.0138636,76.823119 89.1824915,85.6297649 L71.9244318,102.838643 L69.7503125,60.6532861 L102.975128,34.9429688 Z" id="Shape"></path>
                    <path d="M68.8809574,0.695031161 L50.5735852,0.167776204 C38.08425,0.167776204 26.1064034,5.11498584 17.2750313,13.9213399 L0.0169715909,31.1305099 L42.3221733,33.2981785 L68.8809574,0.695031161 Z" id="Shape"></path>
                </g>
                <path d="M39,82.5801912 C41.1985383,86.6593286 44.6830031,92.0996588 50.0360935,97.5408771 C55.5407972,103.136036 61.0689613,106.746838 65.1713159,109 C81.0786807,96.5387812 96.9863387,84.0772663 112.89341,71.6160475 C132.637733,56.1485407 144.703448,32.7456772 145.925151,7.54673805 L145.995239,6.10028578 C146.108436,3.77015361 144.187611,1.85951036 141.881154,2.00812252 L139.140093,2.18456246 C115.303093,3.7207149 93.1845712,15.2372696 78.1250088,33.9538172 L39,82.5801912 Z" id="Shape" fill="#ECF0F1" opacity="0.708616395"></path>
                <g id="Group" transform="translate(33.000000, 33.000000)">
                    <path d="M10.3699931,54.7082535 L0.144920415,66.7729014 C1.46646367,69.5481549 3.63104498,73.2110282 7.15793772,76.7455352 C10.784519,80.3803099 14.5646505,82.5891549 17.3993772,83.9228028 C21.1631419,80.8875634 25.9770588,76.808831 29.7408235,73.7735915" id="Shape" fill="#E74C3C"></path>
                    <ellipse id="Oval" fill="#F1C40F" cx="76.2587889" cy="9.83302817" rx="9.7287128" ry="9.66976056"></ellipse>
                </g>
                <path d="M26.2792798,115 L19.2473006,118.501691 C15.2428733,120.495587 12.5951196,124.462295 12.2896997,128.925648 L12.01122,132.998069 C11.8170748,135.830637 14.1690719,138.182668 17.001893,137.988813 L21.0745493,137.710036 C25.5375457,137.404612 29.5044909,134.756821 31.498359,130.752337 L35,123.719965" id="Shape" fill="#E74C3C"></path>
                <path d="M107.5,31 C104.159584,31 101.018762,32.300852 98.6570001,34.6620477 C93.781,39.5371705 93.781,47.4692664 98.6570001,52.3440967 C101.095439,54.7816582 104.297134,56 107.5,56 C110.701988,56 113.905146,54.781073 116.343,52.3440967 L116.343,52.3440967 C121.219,47.4689738 121.219,39.536878 116.343,34.6620477 C113.981238,32.3005594 110.840416,31 107.5,31 Z M112.188113,48.1896213 C109.603051,50.77377 105.396656,50.77377 102.81218,48.1896213 C100.227118,45.6054726 100.227118,41.4003792 102.81218,38.8159379 C104.06447,37.5639483 105.729117,36.8746079 107.5,36.8746079 C109.270883,36.8746079 110.93553,37.5639483 112.18782,38.8159379 C114.772882,41.4003792 114.772882,45.6054726 112.188113,48.1896213 Z" id="Shape" fill="#000000"></path>
                <path d="M37.3633306,120.066502 C35.9037011,119.339626 34.131798,119.933888 33.4049237,121.393226 L29.8887575,128.454679 C28.3597339,131.524786 25.2846323,133.577797 21.8625598,133.811856 L17.7730098,134.091785 C17.0817147,134.13795 16.6271242,133.793625 16.4168835,133.583384 C16.2066427,133.373143 15.8614363,132.91767 15.9084831,132.226962 L16.1884121,128.1377 C16.4227643,124.715916 18.4757726,121.640516 21.5455815,120.11149 L28.6067301,116.595319 C30.0663595,115.868444 30.6603264,114.096244 29.9334521,112.636906 C29.2068718,111.177569 27.4346747,110.583307 25.9750452,111.310182 L18.9138966,114.826354 C13.9763266,117.285145 10.6748118,122.230955 10.2978487,127.734272 L10.0179197,131.823534 C9.86678164,134.030918 10.6771641,136.193902 12.2414729,137.758213 C13.6816955,139.198438 15.6300244,140 17.6527462,140 C17.8265256,140 18.0014812,139.994119 18.1761428,139.982063 L22.2656928,139.702134 C27.7690016,139.325464 32.7148048,136.024239 35.1735924,131.086073 L38.6897585,124.024914 C39.4166328,122.565283 38.822666,120.793377 37.3633306,120.066502 Z" id="Shape" fill="#000000"></path>
                <path d="M147.970474,1.97082029 C146.590242,0.603129439 144.688798,-0.112101264 142.75747,0.0143239406 L140.018687,0.189963619 C115.461345,1.76688966 92.4790673,13.6900536 76.9648651,32.902559 L70.5181198,40.8856181 L53.6474173,40.3872847 C53.6187052,40.3864006 53.5897002,40.3861059 53.561281,40.3861059 C40.1814426,40.3861059 27.6023201,45.6270053 18.1410973,55.1433753 L0.861686954,72.524336 C0.0398763456,73.3509623 -0.221169377,74.5872181 0.19603501,75.6781881 C0.613239398,76.7694527 1.62988211,77.5115009 2.79067128,77.5710298 L39.3675425,79.4612192 L37.8762712,81.3080881 C37.1247759,82.2387426 37.0058258,83.5339379 37.575673,84.5871866 C38.1487431,85.6469186 38.7493534,86.6898528 39.3757459,87.7159894 L30.701762,98.0737205 C29.9602281,98.9592863 29.8005536,100.198489 30.2924681,101.245549 C32.1871737,105.27259 34.7018263,108.890885 37.7675753,111.999943 C40.9077415,115.185033 44.5796675,117.789569 48.6808101,119.74194 C49.0816075,119.932904 49.5114101,120.026323 49.9385758,120.026323 C50.601005,120.026323 51.2578675,119.801174 51.7922641,119.365316 C53.6608944,117.840552 55.8151809,116.031994 57.898859,114.283259 C59.3839777,113.036689 60.9036681,111.761533 62.3234521,110.58569 C63.171045,111.098758 64.0291852,111.596208 64.9002166,112.072733 C65.3408594,112.313796 65.8239844,112.432559 66.3053516,112.432559 C66.9458072,112.432559 67.5821611,112.222734 68.1089402,111.811337 L70.1138065,110.246493 L72.0011876,147.192712 C72.0609556,148.360303 72.7983878,149.382904 73.8830021,149.802553 C74.2263753,149.935167 74.5832257,150 74.9377322,150 C75.7038765,150 76.4562507,149.698525 77.0181875,149.133 L94.2978909,131.752039 C103.759114,122.235375 108.969188,109.582835 108.969188,96.1242969 L108.969188,79.9174108 L115.785968,74.5966484 C136.215506,58.6505696 148.65722,34.6050261 149.921724,8.62508863 L149.991747,7.18519691 C150.087258,5.23901497 149.350119,3.33880584 147.970474,1.97082029 Z M9.69915405,72.0033109 L22.300836,59.3277843 C30.640529,50.9392215 41.7263293,46.3148292 53.5187989,46.303336 L65.8488878,46.667582 L43.9603065,73.7738532 L9.69915405,72.0033109 Z M54.1299564,109.739908 C52.594445,111.028326 51.0202602,112.349749 49.5594589,113.558303 C46.7339539,112.019098 44.1779911,110.098555 41.9443069,107.832921 C39.7809381,105.638899 37.939555,103.140748 36.4547292,100.388864 L42.8053769,92.8054143 C44.7255718,95.3966889 46.8274147,97.8512239 49.0980144,100.150748 C49.0997723,100.152516 49.1015302,100.15399 49.1032881,100.155758 C49.1038741,100.156347 49.10446,100.157231 49.105046,100.157821 C49.1059249,100.158705 49.1068039,100.159294 49.1076828,100.160178 C51.6252652,102.708722 54.3332849,105.047441 57.2059598,107.162484 C56.1916609,108.009445 55.1524587,108.881749 54.1299564,109.739908 Z M103.087309,96.1242969 C103.087309,108.002077 98.4889785,119.168753 90.1387382,127.567925 L77.5370562,140.243452 L75.7785866,105.825147 L103.087016,84.5096811 L103.087016,96.1242969 L103.087309,96.1242969 Z M144.046877,8.33599044 C142.866458,32.5887062 131.251535,55.0358107 112.180255,69.9218628 L66.0475286,105.930649 C62.2217878,103.682108 58.6559209,101.027178 55.3924098,98.0192015 L70.9455785,82.3748928 C72.0940625,81.2196788 72.0940625,79.3459925 70.9455785,78.1904838 C69.7968015,77.0349751 67.9343238,77.0349751 66.7855468,78.1904838 L51.2470272,93.8200576 C48.3901733,90.6387986 45.8599927,87.1772824 43.7057063,83.4749984 L81.5312609,36.633134 C96.0138783,18.6981421 117.468262,7.5674195 140.393116,6.09570045 L143.131899,5.92006077 C143.4908,5.89766376 143.731044,6.07683981 143.841791,6.18646726 C143.951952,6.29580002 144.134771,6.53362085 144.117193,6.89639341 L144.046877,8.33599044 Z" id="Shape" fill="#000000"></path>
            </g>
        </g>
    </g>
</svg>