<?xml version="1.0" encoding="UTF-8"?>
<svg width="150px" height="150px" viewBox="0 0 150 150" version="1.1" xmlns="http://www.w3.org/2000/svg" xmlns:xlink="http://www.w3.org/1999/xlink">
    <!-- Generator: Sketch 46.2 (44496) - http://www.bohemiancoding.com/sketch -->
    <title>third-party</title>
    <desc>Created with Sketch.</desc>
    <defs></defs>
    <g id="Icons" stroke="none" stroke-width="1" fill="none" fill-rule="evenodd">
        <g id="third-party">
            <g id="Group" transform="translate(5.000000, 9.000000)">
                <path d="M134.4125,0.863636364 L1.9325,0.863636364 C0.8975,0.863636364 0.2075,1.55454545 0.2075,2.59090909 L0.2075,13.6454545 L0.2075,36.4454545 C0.2075,37.4818182 0.8975,38.1727273 1.9325,38.1727273 L6.4175,38.1727273 L6.4175,130.754545 C6.4175,131.790909 7.1075,132.481818 8.1425,132.481818 L128.2025,132.481818 C129.2375,132.481818 129.9275,131.790909 129.9275,130.754545 L129.9275,82.0454545 L129.9275,38.1727273 L134.4125,38.1727273 C135.4475,38.1727273 136.1375,37.4818182 136.1375,36.4454545 L136.1375,13.6454545 L136.1375,2.59090909 C136.1375,1.72727273 135.275,0.863636364 134.4125,0.863636364 Z" id="Path" fill="#333333"></path>
                <polygon id="Path" fill="#E74C3C" points="3.6575 15.3727273 14.6975 15.3727273 14.6975 34.7181818 8.1425 34.7181818 3.6575 34.7181818 3.6575 15.3727273"></polygon>
                <polygon id="Path" fill="#ECF0F1" points="116.99 34.7181818 105.4325 34.7181818 105.4325 15.3727273 116.99 15.3727273"></polygon>
                <polygon id="Path" fill="#E74C3C" points="101.81 34.7181818 90.77 34.7181818 90.77 15.3727273 101.81 15.3727273"></polygon>
                <polygon id="Path" fill="#ECF0F1" points="87.4925 34.7181818 75.935 34.7181818 75.935 15.3727273 87.4925 15.3727273"></polygon>
                <polygon id="Path" fill="#E74C3C" points="72.485 34.7181818 61.445 34.7181818 61.445 15.3727273 72.485 15.3727273"></polygon>
                <polygon id="Path" fill="#ECF0F1" points="58.1675 34.7181818 47.4725 34.7181818 47.4725 15.3727273 58.1675 15.3727273"></polygon>
                <polygon id="Path" fill="#E74C3C" points="44.0225 34.7181818 32.465 34.7181818 32.465 15.3727273 44.0225 15.3727273"></polygon>
                <polygon id="Path" fill="#ECF0F1" points="29.015 34.7181818 17.975 34.7181818 17.975 15.3727273 29.015 15.3727273"></polygon>
                <polygon id="Path" fill="#FFFFFF" points="126.4775 95 9.8675 95 9.8675 38.1727273 126.4775 38.1727273"></polygon>
                <g id="Group-2" transform="translate(46.000000, 48.000000)" fill-rule="nonzero" fill="#333333">
                    <path d="M7.28882668,46.937509 C7.27298905,36.3153216 8.57651352,36.6990285 10.1022047,33.5835788 L10.1022047,46.937509 L33.8986752,46.937509 L33.8986752,33.6011281 C34.1591161,34.1346286 34.4221967,34.7466625 34.6817577,35.4604826 C35.9223716,38.8883108 36.7164525,38.1593204 36.7120532,46.937509 C36.7120532,49.3571267 43.7395591,49.5067349 43.7395591,46.937509 C43.7224016,33.6952025 41.8614808,32.7192729 38.9693546,28.313068 C37.5241714,26.1255406 35.8339449,24.7224694 34.2717392,23.9454716 C32.8093986,23.2097148 31.5203919,23.0289564 30.7210318,23.0109683 C30.6471229,23.0061423 30.573654,23 30.4984252,23 L13.5024546,23 C13.4325051,23 13.3647553,23.0061423 13.2956856,23.0105296 C12.4972054,23.026324 11.2011598,23.2048887 9.72782083,23.9454716 C7.36185572,25.115575 4.81111833,27.6751488 3.02630605,32.211219 C1.21949708,36.7643998 0.268359746,36.9966754 0.26220067,46.937509 C0.263080538,49.5067349 7.28794681,49.3562492 7.28882668,46.937509 Z" id="Shape"></path>
                    <circle id="Oval" cx="22" cy="10" r="10"></circle>
                </g>
                <polygon id="Path" fill="#F3D39D" points="126.4375 129 10 129 10 99 126.4375 99"></polygon>
                <polygon id="Path" fill="#E74C3C" points="132.6875 34.7181818 128.2025 34.7181818 120.44 34.7181818 120.44 15.3727273 132.6875 15.3727273"></polygon>
                <polygon id="Path" fill="#F9BA48" points="132.6875 11.9181818 3.6575 11.9181818 3.6575 4.31818182 132.6875 4.31818182"></polygon>
            </g>
            <path d="M79.1117444,131.999056 C79.0295346,131.999056 78.9465775,131.985738 78.8666098,131.957622 L74.0005396,130.244048 L69.1352168,131.957622 C68.9087663,132.03901 68.6561581,132.001276 68.4603494,131.860697 C68.2652881,131.720859 68.1524365,131.493714 68.1591628,131.255471 L68.3011614,126.145081 L65.1517804,122.092728 C65.0045502,121.904057 64.9612032,121.655456 65.0359394,121.428311 C65.1106755,121.200426 65.2930317,121.024333 65.5247138,120.957744 L70.4774779,119.512007 L73.3966716,115.294659 C73.6679638,114.90178 74.3293787,114.90178 74.6029129,115.294659 L77.522854,119.512007 L82.4756182,120.957744 C82.7073002,121.025073 82.8896564,121.201166 82.9643925,121.428311 C83.0383813,121.655456 82.9957817,121.904057 82.8485515,122.092728 L79.6991705,126.145081 L79.8411691,131.255471 C79.8478954,131.493714 79.7350438,131.720859 79.5399825,131.860697 C79.4144258,131.950964 79.2642061,131.999056 79.1117444,131.999056 Z" id="Shape" fill="#F5A623" fill-rule="nonzero"></path>
            <path d="M50.1117444,131.999056 C50.0295346,131.999056 49.9465775,131.985738 49.8666098,131.957622 L45.0005396,130.244048 L40.1352168,131.957622 C39.9087663,132.03901 39.6561581,132.001276 39.4603494,131.860697 C39.2652881,131.720859 39.1524365,131.493714 39.1591628,131.255471 L39.3011614,126.145081 L36.1517804,122.092728 C36.0045502,121.904057 35.9612032,121.655456 36.0359394,121.428311 C36.1106755,121.200426 36.2930317,121.024333 36.5247138,120.957744 L41.4774779,119.512007 L44.3966716,115.294659 C44.6679638,114.90178 45.3293787,114.90178 45.6029129,115.294659 L48.522854,119.512007 L53.4756182,120.957744 C53.7073002,121.025073 53.8896564,121.201166 53.9643925,121.428311 C54.0383813,121.655456 53.9957817,121.904057 53.8485515,122.092728 L50.6991705,126.145081 L50.8411691,131.255471 C50.8478954,131.493714 50.7350438,131.720859 50.5399825,131.860697 C50.4144258,131.950964 50.2642061,131.999056 50.1117444,131.999056 Z" id="Shape" fill="#F5A623" fill-rule="nonzero"></path>
            <path d="M108.111744,131.999056 C108.029535,131.999056 107.946578,131.985738 107.86661,131.957622 L103.00054,130.244048 L98.1352168,131.957622 C97.9087663,132.03901 97.6561581,132.001276 97.4603494,131.860697 C97.2652881,131.720859 97.1524365,131.493714 97.1591628,131.255471 L97.3011614,126.145081 L94.1517804,122.092728 C94.0045502,121.904057 93.9612032,121.655456 94.0359394,121.428311 C94.1106755,121.200426 94.2930317,121.024333 94.5247138,120.957744 L99.4774779,119.512007 L102.396672,115.294659 C102.667964,114.90178 103.329379,114.90178 103.602913,115.294659 L106.522854,119.512007 L111.475618,120.957744 C111.7073,121.025073 111.889656,121.201166 111.964393,121.428311 C112.038381,121.655456 111.995782,121.904057 111.848552,122.092728 L108.69917,126.145081 L108.841169,131.255471 C108.847895,131.493714 108.735044,131.720859 108.539982,131.860697 C108.414426,131.950964 108.264206,131.999056 108.111744,131.999056 Z" id="Shape" fill="#F5A623" fill-rule="nonzero"></path>
        </g>
    </g>
</svg>