<?xml version="1.0" encoding="UTF-8"?>
<svg width="150px" height="150px" viewBox="0 0 150 150" version="1.1" xmlns="http://www.w3.org/2000/svg" xmlns:xlink="http://www.w3.org/1999/xlink">
    <!-- Generator: Sketch 46.2 (44496) - http://www.bohemiancoding.com/sketch -->
    <title>time</title>
    <desc>Created with Sketch.</desc>
    <defs></defs>
    <g id="Icons" stroke="none" stroke-width="1" fill="none" fill-rule="evenodd">
        <g id="time">
            <g id="Group" transform="translate(21.000000, 18.000000)">
                <path d="M81.510943,99.8156033 C81.4718663,85.0511736 74.7788185,67.6188937 63.6042685,63.907234 C61.5204647,63.2153191 60.1286943,61.2570213 60.1684959,59.0702128 L60.2108652,56.707234 C60.2493829,54.6353191 61.5679698,52.8021277 63.5246654,52.0948936 C74.634434,48.0914894 81.511115,29.2604255 81.511115,14.1097872 C81.511115,14.072766 81.5188186,14.0370213 81.5188186,14 L28.4992999,14 C28.4992999,14.0370213 28.5082873,14.0714894 28.5082873,14.1085106 C28.5082873,33.7655319 37.9656496,49.1753191 46.7258427,52.1778723 C48.7621415,52.8748936 50.1269495,54.7834043 50.119246,56.9255319 L50.1115425,59.0944681 C50.1038389,61.2634043 48.6915258,63.1808511 46.6128577,63.8421277 C35.31386,67.4380436 28.5476393,84.9291196 28.5084584,99.8156033 L7.09219858,99.8156028 L7.09219858,99.8156028 C3.17528546,99.8156028 -3.69961906e-13,102.990888 -3.69482223e-13,106.907801 C-3.69002539e-13,110.824715 3.17528546,114 7.09219858,114 L7.09219858,114 L101.907801,114 C105.824715,114 109,110.824715 109,106.907801 C109,102.990888 105.824715,99.8156028 101.907801,99.8156028 L101.907801,99.8156028 L81.5109425,99.8156028 Z M62.1739805,66.9085106 C71.5222095,70.0144681 77.1008463,84.6212766 77.1008463,96.9506383 C77.1008463,96.9825532 77.1085498,97.0131915 77.1085498,97.0438298 L32.9095686,97.0438298 C32.9108525,97.0131915 32.918556,96.9825532 32.918556,96.9506383 C32.918556,84.5165957 38.5626729,69.8612766 48.0097638,66.8561702 L62.1739805,66.9085106 Z" id="Shape"></path>
                <path d="M33.008947,96.9073878 C33.008947,96.9391043 33.0012781,96.9695522 33,97 L77,97 C77,96.9695522 76.9923312,96.9391043 76.9923312,96.9073878 C76.9923312,84.6546708 71.438809,70.1373959 62.1326652,67.0520151 L48.032215,67 C38.6276543,69.987694 33.008947,84.5506407 33.008947,96.9073878 Z" id="Shape" fill="#F1C40F" fill-rule="nonzero"></path>
                <path d="M107,6.99997762 C107,3.1344897 103.842804,0 99.9550499,0 L10.0449501,0 C6.15462772,0 3,3.1344897 3,6.99997762 C3,10.8654655 6.15462772,13.9999552 10.0449501,13.9999552 L18.4418834,13.9999552 C18.4418834,14.0369517 18.4328959,14.0726723 18.4328959,14.1096688 C18.4328959,27.0877574 23.4787595,48.3581468 36.5440797,57.9708371 C27.6849298,64.4439346 18.4328959,78.2168084 18.4328959,99.8877798 C18.4328959,99.9260519 18.4418834,99.9617726 18.4444513,100.000045 L10.0449501,100.000045 C6.15462772,100.000045 3,103.13581 3,107.000022 C3,110.86551 6.15462772,114 10.0449501,114 L99.9550499,114 C103.842804,114 107,110.86551 107,107.000022 C107,103.13581 103.842804,100.000045 99.9550499,100.000045 L91.5542648,100.000045 C91.5542648,99.9617726 91.5658202,99.9260519 91.5658202,99.8877798 C91.5658202,86.9607207 86.6522018,66.9647941 73.6266836,57.8432632 C86.5687461,48.1629588 91.5658202,26.9729409 91.5658202,14.108393 C91.5658202,14.0713966 91.5542648,14.0356759 91.5542648,13.9986795 L99.9550499,13.9986795 C103.842804,13.9999552 107,10.8654655 107,6.99997762 Z M81.5010555,14.1096688 C81.5010555,29.2501343 74.6255849,48.0685542 63.5144134,52.0692704 C61.5576968,52.7760295 60.2390958,54.6079902 60.2005778,56.6785139 L60.1582079,59.039906 C60.1184059,61.2252462 61.5101912,63.1822292 63.5940174,63.8736795 C74.8014839,67.5937332 81.5010555,85.1070725 81.5010555,99.8877798 C81.5010555,99.9260519 81.5087592,99.9617726 81.5138949,100.000045 L28.4848212,100.000045 C28.4861051,99.9617726 28.4963766,99.9260519 28.4963766,99.8877798 C28.4963766,84.9820501 35.2678485,67.4125783 46.6011407,63.8086168 C48.6798311,63.1477842 50.0921594,61.2316249 50.099863,59.064145 L50.1075666,56.8966652 C50.1152702,54.7559758 48.7517315,52.8500224 46.714127,52.1521934 C37.9525561,49.1516562 28.4963766,33.7534915 28.4963766,14.108393 C28.4963766,14.0713966 28.487389,14.0356759 28.487389,13.9986795 L81.5087592,13.9986795 C81.5074752,14.0382274 81.5010555,14.0726723 81.5010555,14.1096688 Z" id="Shape" fill="#9A5800" fill-rule="nonzero"></path>
                <rect id="Rectangle-10" fill="#513004" x="4" y="100" width="105" height="14" rx="7"></rect>
                <rect id="Rectangle-10" fill="#513004" x="3" y="0" width="105" height="14" rx="7"></rect>
            </g>
        </g>
    </g>
</svg>