<?xml version="1.0" encoding="UTF-8"?>
<svg width="150px" height="150px" viewBox="0 0 150 150" version="1.1" xmlns="http://www.w3.org/2000/svg" xmlns:xlink="http://www.w3.org/1999/xlink">
    <!-- Generator: Sketch 46.2 (44496) - http://www.bohemiancoding.com/sketch -->
    <title>trustless</title>
    <desc>Created with Sketch.</desc>
    <defs></defs>
    <g id="Icons" stroke="none" stroke-width="1" fill="none" fill-rule="evenodd">
        <g id="trustless">
            <g id="Group" transform="translate(19.000000, 0.000000)">
                <path d="M1.14676936,128.377794 C2.54371702,130.369503 4.93848442,131.166186 7.33325183,130.767844 L26.690955,126.186914 L31.6800538,145.506489 C32.2787456,147.896539 34.2743851,149.489906 36.6691526,149.888248 C36.8687165,149.888248 37.2678444,149.888248 37.4674084,149.888248 C39.4630479,149.888248 41.4586874,148.892394 42.6560711,147.099856 L56.4259837,124.195205 L68.9985125,145.108147 C69.9963323,146.900685 71.9919718,148.09571 74.1871753,148.09571 C74.3867392,148.09571 74.7858671,148.09571 74.9854311,148.09571 C77.3801985,147.697368 79.375838,146.104001 79.9745298,143.713951 L84.9636286,124.394376 L104.321332,128.975306 C106.716099,129.572819 109.110867,128.576965 110.507814,126.585256 C111.904762,124.593547 112.104326,122.004326 110.707378,120.012617 L89.1544715,84.1618601 C91.549239,83.3651766 93.7444424,81.9709805 95.340954,79.7801009 C98.1348493,75.7966835 98.5339772,70.8174117 95.9396459,66.4356525 C95.340954,65.4397981 95.1413901,64.2447729 95.540518,63.0497477 C95.9396459,61.8547224 96.7379017,61.0580389 97.9352854,60.4605263 C102.525256,58.4688176 105.319152,54.2862293 105.319152,49.3069575 C105.319152,44.3276857 102.525256,40.1450973 97.9352854,38.1533886 C96.9374656,37.7550469 95.9396459,36.7591925 95.7400819,35.7633381 C95.540518,34.7674838 95.540518,33.3732877 96.1392098,32.3774333 C98.5339772,28.194845 98.3344133,23.0164023 95.540518,19.2321557 C92.7466227,15.2487383 87.9570878,13.4562004 83.167553,14.6512257 C81.9701693,14.8503965 80.7727856,14.6512257 79.7749659,14.053713 C78.7771461,13.2570296 78.1784543,12.2611752 78.1784543,11.06615 C77.7793264,6.28604903 74.5863032,2.30263158 69.7967683,0.7092646 C65.2067975,-0.884102379 60.2176987,0.510093727 57.0246755,4.2943403 C55.4281639,6.08687815 52.4347046,6.08687815 50.838193,4.2943403 C47.6451698,0.7092646 42.6560711,-0.684931507 38.0661002,0.7092646 C33.4761293,2.30263158 30.2831061,6.08687815 29.6844143,11.06615 C29.4848503,12.2611752 28.8861585,13.2570296 28.0879027,14.053713 C27.0900829,14.8503965 25.8926992,15.0495674 24.6953155,14.6512257 C19.9057807,13.6553713 15.1162459,15.4479092 12.3223506,19.2321557 C9.52845528,23.2155732 9.12932738,28.194845 11.7236587,32.5766042 C12.3223506,33.5724585 12.5219145,34.7674838 12.1227866,35.962509 C11.7236587,37.1575342 10.9254029,37.9542177 9.72801924,38.5517304 C5.13804837,40.5434391 2.34415307,44.7260274 2.34415307,49.7052992 C2.34415307,54.684571 5.13804837,58.8671593 9.72801924,60.8588681 C10.725839,61.2572098 11.7236587,62.2530642 11.9232227,63.2489185 C12.1227866,64.2447729 12.1227866,65.638969 11.5240948,66.6348234 C9.12932738,70.8174117 9.32889133,75.9958544 12.1227866,79.7801009 C14.717118,83.3651766 18.907961,85.1577145 23.0988039,84.5602019 L0.947205412,121.805155 C-0.250178291,123.796864 -0.250178291,126.386085 1.14676936,128.377794 Z" id="Shape" fill="#000000" fill-rule="nonzero"></path>
                <path d="M83.167553,115.630858 C80.9723496,115.232516 78.9767101,116.427541 78.3780182,118.41925 L73.5884834,136.942141 L61.2155185,116.626712 L73.3889195,96.5104542 C75.9832508,94.5187455 77.7793264,91.5311824 78.1784543,87.9461067 C78.3780182,86.7510815 78.9767101,85.7552271 79.7749659,84.9585436 C79.9745298,84.7593727 80.1740938,84.7593727 80.3736577,84.5602019 L101.727,119.813446 L83.167553,115.630858 Z" id="Path" fill="#2ECC71"></path>
                <path d="M30.0835422,89.1411319 C30.881798,93.5228911 33.8752572,96.908796 38.2656642,98.3029921 C42.855635,99.896359 47.8447338,98.5021629 51.037757,94.7179164 C52.6342686,92.9253785 55.6277279,92.9253785 57.2242395,94.7179164 C58.8207511,96.5104542 60.8163906,97.7054795 63.011594,98.3029921 L38.4652281,138.93385 L33.6756933,120.410959 C33.0770014,118.220079 31.0813619,117.025054 28.8861585,117.622567 L10.3267111,122.004326 L30.0835422,89.1411319 Z" id="Path" fill="#27AE60"></path>
                <path d="M18.907961,75 C18.5088331,74.4024874 17.5110133,72.6099495 18.708397,70.4190699 C20.5044726,67.4315068 20.9036005,63.8464311 19.7062168,60.4605263 C18.708397,57.0746215 16.1140657,54.4854001 12.9210424,53.091204 C10.725839,52.0953497 10.526275,49.9044701 10.526275,49.3069575 C10.526275,48.7094448 10.725839,46.5185652 13.1206064,45.5227109 C16.3136296,44.1285148 18.708397,41.5392934 19.9057807,38.1533886 C20.9036005,34.7674838 20.5044726,31.1824081 18.708397,28.194845 C17.5110133,26.0039654 18.5088331,24.2114275 18.907961,23.8130858 C19.3070889,23.4147441 20.7040365,21.6222062 23.0988039,22.2197188 C26.4913911,23.0164023 30.0835422,22.2197188 32.8774375,20.2280101 C35.6713328,18.2363014 37.4674084,15.0495674 37.8665363,11.6636626 C38.0661002,9.27361211 40.0617397,8.27775775 40.6604316,8.07858688 C41.2591234,7.87941601 43.2547629,7.48107426 45.0508385,9.27361211 C47.2460419,11.8628335 50.6386291,13.4562004 54.0312163,13.4562004 C57.4238034,13.4562004 60.8163906,12.0620043 63.011594,9.27361211 L63.011594,9.27361211 C64.6081056,7.48107426 66.8033091,7.87941601 67.4020009,8.07858688 C68.0006928,8.27775775 69.9963323,9.07444124 70.1958962,11.6636626 C70.5950241,15.0495674 72.3910997,18.2363014 75.184995,20.2280101 C77.9788903,22.2197188 81.5710414,23.0164023 84.9636286,22.2197188 C87.358396,21.6222062 88.7553436,23.2155732 89.1544715,23.8130858 C89.5535994,24.4105984 90.5514192,26.2031363 89.3540355,28.3940159 C87.5579599,31.3815789 87.158832,34.9666547 88.3562157,38.3525595 C89.3540355,41.7384643 91.9483669,44.3276857 95.1413901,45.7218818 C97.3365935,46.7177361 97.5361575,48.9086157 97.5361575,49.5061283 C97.5361575,50.103641 97.3365935,52.2945205 94.9418261,53.2903749 C91.7488029,54.684571 89.3540355,57.2737924 88.1566518,60.6596972 C87.158832,64.045602 87.5579599,67.6306777 89.3540355,70.6182408 C90.5514192,72.8091204 89.5535994,74.6016583 89.1544715,75 C88.7553436,75.3983417 87.358396,77.1908796 84.9636286,76.593367 C81.5710414,75.7966835 77.9788903,76.593367 75.184995,78.5850757 C72.3910997,80.5767844 70.5950241,83.7635184 70.1958962,87.1494232 C69.9963323,89.5394737 68.0006928,90.535328 67.4020009,90.7344989 C66.8033091,90.9336698 64.8076696,91.3320115 63.011594,89.5394737 C60.8163906,86.9502523 57.4238034,85.3568854 54.0312163,85.3568854 C50.6386291,85.3568854 47.2460419,86.7510815 45.0508385,89.5394737 C43.4543269,91.3320115 41.2591234,90.9336698 40.6604316,90.7344989 C40.0617397,90.535328 38.0661002,89.7386446 37.8665363,87.1494232 C37.4674084,83.7635184 35.6713328,80.5767844 32.8774375,78.5850757 C30.881798,76.9917087 28.2874666,76.1950252 25.6931353,76.1950252 C24.8948795,76.1950252 23.8970597,76.1950252 23.0988039,76.3941961 C20.7040365,76.9917087 19.3070889,75.3983417 18.907961,75 Z" id="Path" fill="#F1C40F"></path>
                <path d="M35.6996337,52.7380952 C35.3919414,52.4285714 35.2380952,51.9642857 35.2380952,51.6547619 C35.2380952,51.3452381 35.3919414,50.8809524 35.6996337,50.5714286 L37.8534799,48.4047619 C38.4688645,47.7857143 39.3919414,47.7857143 40.007326,48.4047619 L40.1611722,48.5595238 L48.6227106,57.6904762 C48.9304029,58 49.3919414,58 49.6996337,57.6904762 L70.3150183,36.1785714 L70.4688645,36.1785714 L70.4688645,36.1785714 C71.0842491,35.5595238 72.007326,35.5595238 72.6227106,36.1785714 L74.7765568,38.3452381 C75.3919414,38.9642857 75.3919414,39.8928571 74.7765568,40.5119048 L74.7765568,40.5119048 L50.1611722,66.202381 C49.8534799,66.5119048 49.5457875,66.6666667 49.0842491,66.6666667 C48.6227106,66.6666667 48.3150183,66.5119048 48.007326,66.202381 L36.007326,53.202381 L35.6996337,52.7380952 Z" id="check" fill="#000000" fill-rule="nonzero"></path>
            </g>
        </g>
    </g>
</svg>