<?xml version="1.0" encoding="UTF-8"?>
<svg width="150px" height="150px" viewBox="0 0 150 150" version="1.1" xmlns="http://www.w3.org/2000/svg" xmlns:xlink="http://www.w3.org/1999/xlink">
    <!-- Generator: Sketch 46.2 (44496) - http://www.bohemiancoding.com/sketch -->
    <title>unit-of-account</title>
    <desc>Created with Sketch.</desc>
    <defs></defs>
    <g id="Icons" stroke="none" stroke-width="1" fill="none" fill-rule="evenodd">
        <g id="unit-of-account">
            <g id="Group" transform="translate(60.549020, 12.745098)"></g>
            <g id="Group-3" transform="translate(19.000000, 10.000000)" fill-rule="nonzero">
                <g id="Group" transform="translate(13.000000, 2.000000)" fill="#BFAB92">
                    <path d="M70.4319729,3.77625703 C70.5901958,3.45085944 70.3144578,3.0884498 69.9583283,3.14576707 C65.5997741,3.84848193 64.4230873,0.128514056 59.1932831,0.128514056 C53.6303916,0.128514056 53.6303916,3.21285141 48.0675,3.21285141 C42.5048645,3.21285141 42.5048645,0.128514056 36.9422289,0.128514056 C31.3788253,0.128514056 31.3788253,3.21285141 25.8154217,3.21285141 C20.8867018,3.21285141 20.3244729,1.59897189 16.3916867,1.23090763 C15.6120934,1.15791165 15.0406476,1.95392771 15.3581175,2.67257831 L28.5699849,31.5535422 L56.4371837,31.5535422 L70.4319729,3.77625703 Z" id="Shape"></path>
                    <path d="M29.0740964,40.1858313 L55.9328163,40.1858313 C72.7264608,45.8224578 84.8310241,61.7386667 84.8310241,80.4942651 L84.8310241,108.410088 C84.8310241,119.158233 76.1518072,127.871486 65.4456476,127.871486 L19.5612651,127.871486 C8.85510542,127.871486 0.175888554,119.158233 0.175888554,108.410088 L0.175888554,80.4942651 C0.175888554,61.7386667 12.2801958,45.8224578 29.0740964,40.1858313 Z" id="Shape"></path>
                </g>
                <g id="Group" transform="translate(28.000000, 2.000000)" fill="#B39A7C">
                    <path d="M27.6212821,40.1858313 L40.8887179,40.1858313 C57.7076923,45.8224578 69.8305128,61.7386667 69.8305128,80.4942651 L69.8305128,108.410088 C69.8305128,119.158233 61.1382051,127.871486 50.4158974,127.871486 L27.6212821,127.871486 L27.6212821,40.1858313 Z" id="Shape"></path>
                    <path d="M27.6982051,1.81281928 C26.2141026,0.997269076 24.8266667,0.128514056 21.8697436,0.128514056 C16.2979487,0.128514056 16.2979487,3.21285141 10.7261538,3.21285141 C5.79,3.21285141 5.22692308,1.59897189 1.28820513,1.23090763 C0.507435897,1.15791165 -0.0648717949,1.95392771 0.253076923,2.67257831 L13.4848718,31.5535422 L27.6984615,31.5535422 L27.6984615,1.81281928 L27.6982051,1.81281928 Z" id="Shape"></path>
                </g>
                <rect id="Rectangle-path" fill="#5E4C36" transform="translate(48.000000, 23.000000) rotate(-106.894624) translate(-48.000000, -23.000000) " x="37" y="21" width="22" height="4"></rect>
                <rect id="Rectangle-path" fill="#5E4C36" transform="translate(61.000000, 25.000000) rotate(-165.161954) translate(-61.000000, -25.000000) " x="59" y="16" width="4" height="18"></rect>
                <polygon id="Shape" fill="#F1C40F" points="42 33 42 42 42.506771 42 69.4934862 42 70 42 70 33"></polygon>
                <circle id="Oval" fill="#2ECC71" cx="55.5" cy="84.5" r="21.5"></circle>
                <path d="M55,63 C43.3646403,63.2251914 34,72.7612891 34,84.5 C34,96.2387109 43.3646403,105.774809 55,106 L55,63 Z" id="Shape" fill="#27AE60"></path>
                <path d="M70.7653948,40.6260398 L70.7653948,33.6587468 L84.4763708,6.41617302 L84.4888457,6.39084299 C84.8457818,5.65524872 84.8017376,4.80247109 84.3707157,4.10960525 C83.9376571,3.4131574 83.1917067,2.99738672 82.3754893,2.99738672 C82.2499761,2.99738672 82.1234446,3.00762108 81.9986952,3.02757807 C81.7369761,3.07005064 81.4836585,3.09128693 81.2453617,3.09128693 C80.1231264,3.09128693 79.2880692,2.61973902 78.1327372,1.96678717 C76.5822805,1.09047053 74.6522293,0 71.5968876,0 C68.3388919,0 66.6405181,0.942584097 65.1419979,1.7743813 C63.8374757,2.49846192 62.806893,3.0703065 60.5333991,3.0703065 C58.2599052,3.0703065 57.2295771,2.49846192 55.9250549,1.7743813 C54.4267893,0.942584097 52.7284155,0 49.4704198,0 C46.2121694,0 44.513541,0.942584097 43.0152754,1.7743813 C41.7102441,2.49846192 40.6796614,3.0703065 38.4056583,3.0703065 C35.9799192,3.0703065 34.8459727,2.65069795 33.533049,2.1650778 C32.4225249,1.75416845 31.163829,1.2885053 29.2121376,1.1055662 C28.1000859,1.0016875 27.0761226,1.51673141 26.4831811,2.43296204 C25.9411578,3.27038814 25.8581612,4.31582751 26.2716163,5.25227099 L39.2351144,33.6206238 L39.2351144,40.6262957 C22.2686885,47.1576052 11,63.5136396 11,81.9196154 L11,109.708192 C11,121.448532 20.5041212,131 32.1862648,131 L77.8137352,131 C89.4958788,131 99,121.448532 99,109.708192 L99,81.9191037 C99.0002546,63.5131279 87.7315661,47.1573493 70.7653948,40.6260398 Z M43.0542278,35.1197009 L66.946536,35.1197009 L66.946536,39.875094 L43.0542278,39.875094 L43.0542278,35.1197009 L43.0542278,35.1197009 Z M32.2137606,5.76654733 C33.6600897,6.30154824 35.2991439,6.90818963 38.4056583,6.90818963 C41.6639086,6.90818963 43.362537,5.96560554 44.8610572,5.13380833 C46.1658339,4.40972772 47.1964166,3.83788313 49.4701652,3.83788313 C51.7436591,3.83788313 52.7742418,4.40972772 54.078764,5.13380833 C55.5772842,5.96534968 57.2754034,6.90818963 60.5333991,6.90818963 C63.7916494,6.90818963 65.4900232,5.96560554 66.9882888,5.13380833 C68.292811,4.40972772 69.3231391,3.83788313 71.5968876,3.83788313 C73.6521974,3.83788313 74.8612481,4.52102633 76.2612418,5.31214197 C77.3226299,5.91187517 78.4957833,6.57506138 79.9907393,6.82580307 L67.6817936,31.2818178 L42.3688699,31.2818178 L30.445629,5.19009728 C31.0805779,5.34719463 31.6238742,5.54829971 32.2137606,5.76654733 Z M95.1813958,109.707936 C95.1813958,119.332068 87.3904147,127.161861 77.8139898,127.161861 L32.186774,127.161861 C22.6103491,127.161861 14.819368,119.332068 14.819368,109.707936 L14.819368,81.9191037 C14.819368,64.6235554 25.7132992,49.3091224 41.9607612,43.7129771 L68.0405117,43.7129771 C84.2877192,49.3093783 95.1816504,64.6235554 95.1816504,81.9191037 L95.1813958,109.707936 L95.1813958,109.707936 Z" id="Shape" fill="#333333"></path>
                <path d="M55.5,60 C42.5419406,60 32,70.542198 32,83.5 C32,96.457802 42.542198,107 55.5,107 C68.4580594,107 79,96.457802 79,83.5 C79,70.542198 68.4580594,60 55.5,60 Z M55.5,103.138175 C44.6714929,103.138175 35.8620826,94.3285071 35.8620826,83.5002575 C35.8620826,72.6720078 44.6717504,63.86234 55.5,63.86234 C66.3282496,63.86234 75.1379174,72.6720078 75.1379174,83.5002575 C75.1379174,94.3285071 66.3285071,103.138175 55.5,103.138175 Z" id="Shape" fill="#333333"></path>
                <rect id="Rectangle-path" fill="#2ECC71" transform="translate(12.500000, 42.000000) rotate(-135.000000) translate(-12.500000, -42.000000) " x="8" y="40" width="9" height="4" rx="2"></rect>
                <rect id="Rectangle-path" fill="#2ECC71" transform="translate(23.500000, 35.000000) rotate(-110.176471) translate(-23.500000, -35.000000) " x="19" y="33" width="9" height="4" rx="2"></rect>
                <rect id="Rectangle-path" fill="#2ECC71" transform="translate(5.500000, 53.000000) rotate(20.176471) translate(-5.500000, -53.000000) " x="1" y="51" width="9" height="4" rx="2"></rect>
                <g id="Group-2" transform="translate(95.000000, 44.000000) rotate(93.000000) translate(-95.000000, -44.000000) translate(82.000000, 31.000000)" fill="#2ECC71">
                    <rect id="Rectangle-path" transform="translate(11.342640, 11.462090) rotate(-135.000000) translate(-11.342640, -11.462090) " x="6.88185565" y="9.55032484" width="8.92156863" height="3.82352941" rx="1.91176471"></rect>
                    <rect id="Rectangle-path" transform="translate(22.065022, 5.005070) rotate(-110.176471) translate(-22.065022, -5.005070) " x="17.6042381" y="3.09330579" width="8.92156863" height="3.82352941" rx="1.91176471"></rect>
                    <rect id="Rectangle-path" transform="translate(4.885621, 22.184472) rotate(20.176471) translate(-4.885621, -22.184472) " x="0.424836601" y="20.2727073" width="8.92156863" height="3.82352941" rx="1.91176471"></rect>
                </g>
            </g>
            <path d="M74.3081974,109.993449 C75.3615602,109.993449 76.2150816,109.139674 76.2150816,108.086565 L76.2150816,105.650076 L77.2686987,105.650076 C80.9805124,105.650076 84,102.630588 84,98.9187742 L84,98.821396 C84,96.2725274 82.5759389,94.0501174 80.4816715,92.9077666 C81.1978972,91.838386 81.6163947,90.5536545 81.6163947,89.1725618 L81.6163947,89.0749293 C81.6163947,85.8187338 79.2917757,83.0954489 76.2153358,82.4763472 L76.2153358,79.9068842 C76.2153358,78.8537756 75.3618145,78 74.3084516,78 C73.2550888,78 72.4015674,78.8537756 72.4015674,79.9068842 L72.4015674,82.3433738 L68.9068842,82.3433738 C67.8535214,82.3433738 67,83.1971494 67,84.250258 L67,93.9964704 L67,103.742683 C67,104.795791 67.8535214,105.649567 68.9068842,105.649567 L72.4013131,105.649567 L72.4013131,108.086057 C72.4013131,109.139674 73.2548345,109.993449 74.3081974,109.993449 Z M70.8137685,86.1573965 L74.8850934,86.1573965 C76.4937409,86.1573965 77.8026263,87.4660275 77.8026263,89.0749293 L77.8026263,89.1725618 C77.8026263,90.7812093 76.4939952,92.0900947 74.8850934,92.0900947 L70.8137685,92.0900947 L70.8137685,86.1573965 Z M70.8137685,95.9036089 L74.8850934,95.9036089 L77.2686987,95.9036089 C78.8773462,95.9036089 80.1862315,97.21224 80.1862315,98.8211417 L80.1862315,98.91852 C80.1862315,100.527422 78.8776005,101.836053 77.2686987,101.836053 L70.8137685,101.836053 L70.8137685,95.9036089 Z" id="Shape" fill="#333333" fill-rule="nonzero"></path>
        </g>
    </g>
</svg>