<?xml version="1.0" encoding="UTF-8"?>
<svg width="150px" height="150px" viewBox="0 0 150 150" version="1.1" xmlns="http://www.w3.org/2000/svg" xmlns:xlink="http://www.w3.org/1999/xlink">
    <!-- Generator: Sketch 46.2 (44496) - http://www.bohemiancoding.com/sketch -->
    <title>waller-cold</title>
    <desc>Created with Sketch.</desc>
    <defs></defs>
    <g id="Icons" stroke="none" stroke-width="1" fill="none" fill-rule="evenodd">
        <g id="waller-cold">
            <g id="Group" transform="translate(9.000000, 14.000000)">
                <path d="M5.86732329,5.93662918 C3.77425312,9.01101412 3.77425312,15.6047014 5.86732329,25.717691 C64.2140546,29.0176361 104.517233,29.8355736 126.77686,28.1715036 C126.669552,20.4157865 126.159274,13.3881778 125.246027,7.08867768 L110.69083,3.2231405 L14.3525597,3.2231405 C9.56520669,3.7550189 6.73679455,4.65951513 5.86732329,5.93662918 Z" id="Path-6" fill="#2980B9"></path>
                <path d="M114.523558,0 L83.5713342,0 L83.5713342,6.17078202 L114.523558,6.17078202 C119.642973,6.17078202 123.809555,10.3234715 123.809555,15.4272842 L123.809555,27.8491506 C121.215841,25.8896394 118.021242,24.6837863 114.523558,24.6837863 L15.476442,24.6837863 C10.3570268,24.6837863 6.19044475,20.5310968 6.19044475,15.4272842 C6.19044475,10.3234715 10.3570268,6.17078202 15.476442,6.17078202 L83.5713342,6.17078202 L83.5713342,0 L15.476442,0 C6.94320283,0 0,6.9204909 0,15.4272842 L0,104.903294 C0,113.409429 6.94254251,120.330579 15.476442,120.330579 L114.523558,120.330579 C123.056797,120.330579 130,113.410088 130,104.903294 L130,95.6467922 L130,52.4513181 L130,40.109754 L130,15.4266259 C129.99934,6.9204909 123.056797,0 114.523558,0 Z" id="Shape" fill="#333333" fill-rule="nonzero"></path>
                <path d="M123.553719,90.2479339 L86.3930382,90.2479339 C77.8556608,90.2479339 70.9090909,83.2596039 70.9090909,74.6694215 C70.9090909,66.0792391 77.8550002,59.0909091 86.3930382,59.0909091 L123.553719,59.0909091 L123.553719,90.2479339 Z" id="Path" fill="#2980B9"></path>
                <path d="M123.553719,52.4958224 L86.5726304,52.4958224 C74.6768825,52.4958224 65,62.136596 65,73.9821161 C65,85.8276363 74.6768825,95.4684098 86.5726304,95.4684098 L123.553719,95.4684098 L123.553719,104.675699 C123.553719,109.752444 119.40592,113.884298 114.308118,113.884298 L15.6918819,113.884298 C10.5947373,113.884298 6.44628099,109.753099 6.44628099,104.675699 L6.44628099,27.9338843 C9.02279452,29.8642654 12.224535,31.0095288 15.6918819,31.0095288 L114.308118,31.0095288 C119.405263,31.0095288 123.553719,35.1407276 123.553719,40.2181274 L123.553719,52.4958224 Z" id="Path" fill="#B6DAF2"></path>
                <rect id="Rectangle-path" fill="#333333" fill-rule="nonzero" x="15.0413223" y="11.8181818" width="98.8429752" height="6.44628099"></rect>
                <path d="M77.3553719,73.4628099 C77.3553719,78.4245535 81.3929883,82.4628099 86.3553719,82.4628099 C91.3177555,82.4628099 95.3553719,78.4251935 95.3553719,73.4628099 C95.3553719,68.5004264 91.3177555,64.4628099 86.3553719,64.4628099 C81.3929883,64.4628099 77.3553719,68.5010663 77.3553719,73.4628099 Z" id="Shape" fill="#333333" fill-rule="nonzero"></path>
                <path d="M89.8016529,73.4090909 C89.8016529,75.3405116 88.2300872,76.9090909 86.3016529,76.9090909 C84.3732186,76.9090909 82.8016529,75.3412581 82.8016529,73.4090909 C82.8016529,71.4769237 84.3732186,69.9090909 86.3016529,69.9090909 C88.2300872,69.9090909 89.8016529,71.4776703 89.8016529,73.4090909 Z" id="Path" fill="#B6DAF2"></path>
            </g>
            <path d="M63.3250284,97.149586 L58.5068343,94.380676 L62.5745374,91.9713713 C63.2284848,91.6580317 63.4308758,90.7846865 63.0589759,90.1426066 C62.6803849,89.4850626 61.8632374,89.3463921 61.2429369,89.705934 L55.8194815,92.8652509 L47.2000828,87.877106 L55.8194177,82.9403605 L61.2428732,86.0945438 C61.4122546,86.2178135 61.6301946,86.2897472 61.8725413,86.2897472 C62.3321907,86.2897472 62.7439188,86.0740094 63.0589122,85.6630047 C63.4220818,85.0105943 63.2284211,84.1475796 62.5744737,83.8342401 L58.5067706,81.4249354 L63.3249647,78.6560888 C63.9529759,78.2964835 64.1689404,77.4899384 63.8094032,76.8272608 C63.4659884,76.1902511 62.6162774,75.9693797 61.9690849,76.3443858 L57.1266115,79.1389638 L57.0542835,74.3203543 C57.0429404,73.5754758 56.4731739,72.9744013 55.722683,72.9744013 C54.9723195,72.9744013 54.3854747,73.6216782 54.3911462,74.3203543 L54.4391949,80.6800568 L45.8684186,85.6168024 L45.8684186,75.5994439 L51.2676585,72.5377287 C51.8979638,72.183257 52.1726192,71.3561775 51.8002095,70.7089641 C51.4220645,70.0514201 50.6458286,69.8561532 49.9841705,70.2260891 L45.8684186,72.5377921 L45.8684186,67.0718425 C45.8684186,66.3269639 45.2630298,65.7259528 44.5125388,65.7259528 C43.7620479,65.7259528 43.1809383,66.3269639 43.1809383,67.0718425 L43.1809383,72.5890647 L38.9195745,70.2260257 C38.2558135,69.8612868 37.5001608,70.0667575 37.127751,70.7089007 C36.7496698,71.3664447 36.9846881,72.1729898 37.6360228,72.5376653 L43.1809383,75.6456462 L43.1809383,85.565403 L34.4160552,80.5361894 L34.4646137,74.320291 C34.5374516,73.6216782 33.9077835,72.9743379 33.1572925,72.9743379 L33.108734,72.9743379 C32.4067378,72.9743379 31.7849079,73.5754124 31.7771334,74.320291 L31.7285749,78.9950329 L27.0075617,76.2980567 C26.3484525,75.917917 25.5349374,76.143922 25.1914589,76.775798 C24.8319217,77.4436093 25.0178716,78.22962 25.6759612,78.6097597 L30.4455329,81.3529383 L26.2808402,83.8341767 C25.6273389,84.1475796 25.423291,85.0208615 25.8210633,85.6630047 C26.0772384,86.079143 26.4502216,86.2897472 26.9589394,86.2897472 C27.2249281,86.2897472 27.4465004,86.222947 27.6608718,86.0945438 L33.1086702,82.8940947 L41.8493378,87.877106 L33.1086702,92.9114532 L27.6608718,89.705934 C27.0069244,89.3257943 26.1639683,89.505597 25.8209996,90.1426066 C25.4614623,90.8052843 25.6567162,91.6015622 26.2807127,91.9713713 L30.4454692,94.4268783 L25.6758337,97.1957883 C25.0193373,97.575928 24.8064954,98.3773395 25.1913315,99.0297499 C25.4605065,99.4818233 25.8210633,99.7027581 26.329335,99.7027581 C26.4502216,99.7027581 26.6924409,99.6308244 27.0075617,99.5075547 L31.7285749,96.8105784 L31.7771334,101.48532 C31.7849079,102.230199 32.4067378,102.805542 33.108734,102.805542 L33.1572925,102.805542 C33.9077835,102.805542 34.4702853,102.183933 34.4646137,101.433921 L34.4160552,95.2231562 L43.1809383,90.2402083 L43.1809383,100.108566 L37.6360228,103.216483 C36.9743646,103.586356 36.7429149,104.392901 37.127751,105.045311 C37.3968623,105.502518 37.7574191,105.72339 38.2656271,105.72339 C38.5079101,105.72339 38.7310118,105.682321 38.9195745,105.574389 L43.1809383,103.170154 L43.1809383,108.779908 C43.1809383,109.524786 43.7620479,110.105263 44.5125388,110.105263 C45.2630298,110.105263 45.8684186,109.524786 45.8684186,108.779908 L45.8684186,103.262622 L49.9841705,105.574389 C50.1726057,105.682258 50.3957711,105.72339 50.6138386,105.72339 C51.1462621,105.72339 51.5388727,105.507652 51.8002095,105.045311 C52.1679673,104.398034 51.9303999,103.586292 51.2676585,103.216483 L45.8684186,100.206168 L45.8684186,90.188809 L54.4391949,95.1255545 L54.3911462,101.433921 C54.3849011,102.183933 54.9722557,102.805542 55.7227467,102.805542 C56.4732377,102.805542 57.0429404,102.230199 57.0542835,101.48532 L57.1266115,96.641043 L61.9690849,99.461289 C62.1560544,99.5691579 62.4049648,99.6051564 62.6715271,99.6051564 C63.1798625,99.6051564 63.5527183,99.3945522 63.8093394,98.978414 C64.2067294,98.3362707 63.9530396,97.5091912 63.3250284,97.149586 Z" id="Shape" fill="#3498DB" fill-rule="nonzero"></path>
        </g>
    </g>
</svg>
