<?xml version="1.0" encoding="UTF-8"?>
<svg width="128px" height="128px" viewBox="0 0 128 128" version="1.1" xmlns="http://www.w3.org/2000/svg" xmlns:xlink="http://www.w3.org/1999/xlink">
    <!-- Generator: Sketch 46.2 (44496) - http://www.bohemiancoding.com/sketch -->
    <title>ideation-green</title>
    <desc>Created with Sketch.</desc>
    <defs></defs>
    <g id="Icons" stroke="none" stroke-width="1" fill="none" fill-rule="evenodd">
        <g id="ideation-green">
            <circle id="Oval-15" fill="#2ECC71" cx="64" cy="64" r="64"></circle>
            <g id="Group" transform="translate(16.000000, 18.000000)" fill-rule="nonzero" fill="#FFFFFF">
                <path d="M47.5,26 C36.2564892,26.0044127 26.4582174,33.7975602 23.7330681,44.9032525 C21.0079189,56.0089449 26.055043,67.5779605 35.9754979,72.9653449 L35.9754979,82.1032989 C35.9754979,87.569096 40.3276308,92 45.6962588,92 L49.3037412,92 C54.6723692,92 59.0245021,87.569096 59.0245021,82.1032989 L59.0245021,72.9653449 C68.944957,67.5779605 73.9920811,56.0089449 71.2669319,44.9032525 C68.5417826,33.7975602 58.7435108,26.0044127 47.5,26 Z" id="Shape"></path>
                <path d="M48,14 C49.1045695,14 50,13.1360422 50,12.0702963 L50,1.92970365 C50,0.863957754 49.1045695,0 48,0 C46.8954305,0 46,0.863957754 46,1.92970365 L46,12.0702963 C46,13.1360422 46.8954305,14 48,14 Z" id="Shape"></path>
                <path d="M93.7931034,45 L82.2068966,45 C80.9880612,45 80,45.8954305 80,47 C80,48.1045695 80.9880612,49 82.2068966,49 L93.7931034,49 C95.0119388,49 96,48.1045695 96,47 C96,45.8954305 95.0119388,45 93.7931034,45 Z" id="Shape"></path>
                <path d="M13.7931034,45 L2.20689655,45 C0.988061242,45 0,45.8954305 0,47 C0,48.1045695 0.988061242,49 2.20689655,49 L13.7931034,49 C15.0119388,49 16,48.1045695 16,47 C16,45.8954305 15.0119388,45 13.7931034,45 Z" id="Shape"></path>
                <path d="M24.3508177,25.3508177 C24.7664572,24.9356403 25,24.3722614 25,23.784785 C25,23.1973086 24.7664572,22.6339297 24.3508177,22.2187523 L16.7807373,14.6486719 C15.9158413,13.783776 14.5135679,13.783776 13.648672,14.648672 C12.783776,15.5135679 12.783776,16.9158413 13.6486719,17.7807373 L21.2187523,25.3508177 C21.6339297,25.7664572 22.1973086,26 22.784785,26 C23.3722614,26 23.9356403,25.7664572 24.3508177,25.3508177 Z" id="Shape"></path>
                <path d="M83.3508204,14.6491796 C82.9356447,14.2335418 82.3722682,14 81.7847943,14 C81.1973204,14 80.6339439,14.2335418 80.2187682,14.6491796 L72.6487198,22.219228 C72.0892325,22.7787153 71.8707278,23.5941857 72.0755143,24.3584595 C72.2803009,25.1227333 72.8772667,25.7196991 73.6415405,25.9244857 C74.4058143,26.1292722 75.2212847,25.9107675 75.780772,25.3512802 L83.3508204,17.7812318 C83.7664582,17.3660561 84,16.8026796 84,16.2152057 C84,15.6277318 83.7664582,15.0643553 83.3508204,14.6491796 Z" id="Shape"></path>
            </g>
        </g>
    </g>
</svg>