<?xml version="1.0" encoding="UTF-8"?>
<svg width="64px" height="64px" viewBox="0 0 64 64" version="1.1" xmlns="http://www.w3.org/2000/svg" xmlns:xlink="http://www.w3.org/1999/xlink">
    <!-- Generator: Sketch 46.2 (44496) - http://www.bohemiancoding.com/sketch -->
    <title>cart</title>
    <desc>Created with Sketch.</desc>
    <defs></defs>
    <g id="Icons" stroke="none" stroke-width="1" fill="none" fill-rule="evenodd">
        <g id="cart">
            <rect id="Rectangle-19" fill="#2980B9" x="2" y="3" width="59" height="56" rx="8"></rect>
            <path d="M26,43 C23.7943992,43 22,44.7943992 22,47 C22,49.2056008 23.7943992,51 26,51 C28.2056008,51 30,49.2056008 30,47 C29.9999112,44.7943992 28.205512,43 26,43 Z" id="Shape" fill="#FFFFFF" fill-rule="nonzero"></path>
            <path d="M38,43 C35.7943992,43 34,44.7943992 34,47 C34,49.2056008 35.7943992,51 38,51 C40.2056008,51 42,49.2056008 42,47 C41.9999112,44.7943992 40.205512,43 38,43 Z" id="Shape" fill="#FFFFFF" fill-rule="nonzero"></path>
            <path d="M39.0814746,24 L25.9185254,24 C25.4112211,24 25,24.4476971 25,25 C25,25.5523029 25.4112942,26 25.9185254,26 L39.0814746,26 C39.5887789,26 40,25.5523029 40,25 C40,24.4476175 39.5887789,24 39.0814746,24 Z" id="Shape" fill="#FFFFFF" fill-rule="nonzero"></path>
            <path d="M38.1199328,28 L26.8801372,28 C26.3940349,28 26,28.4476971 26,29 C26,29.5523029 26.3940349,30 26.8801372,30 L38.1198628,30 C38.6059651,30 39,29.5523029 39,29 C39,28.4477766 38.6059651,28 38.1199328,28 Z" id="Shape" fill="#FFFFFF" fill-rule="nonzero"></path>
            <path d="M51.0636139,17.7237135 C50.6609925,17.2217556 49.5255531,16.9417629 48.8880273,16.9417629 L16.0019067,16.9417629 L15.3377578,13.6668371 C15.1990995,12.9836829 14.7403765,12.4100654 14.1104092,12.1322141 L9.47640015,10.0890644 C8.94141931,9.85301448 8.31968254,10.1023726 8.08763355,10.6456201 C7.85533261,11.1890382 8.10081911,11.8206658 8.635548,12.0563744 L13.2696411,14.0996094 L18.3780782,39.2880197 C18.5793049,40.2799923 19.4490477,41 20.4461949,41 L45.7394509,41 C46.3225548,41 46.7952192,40.5198811 46.7952192,39.927581 C46.7952192,39.3352809 46.3225548,38.855162 45.7394509,38.855162 L20.9850929,38.8473222 L20.3636921,35.7833654 L45.9349666,35.7912052 C46.9320298,35.7912052 47.8018566,35.0711976 48.0029993,34.0792249 L50.956144,19.5191174 C51.0847241,18.8851011 51.4663193,18.2255862 51.0636139,17.7237135 Z M46.0880632,34 L19.9119368,34 L17,19 L49,19.0000879 L46.0880632,34 Z" id="Shape" fill="#FFFFFF" fill-rule="nonzero"></path>
        </g>
    </g>
</svg>