<svg xmlns="http://www.w3.org/2000/svg" xmlns:xlink="http://www.w3.org/1999/xlink" style="display: none;"><symbol viewBox="0 0 56 56" id="bulb" xmlns="http://www.w3.org/2000/svg"><title>bulb</title><g transform="translate(1 3)" fill-rule="nonzero" fill="#BDC3C7"><path d="M26.5 14c-6.195.002-11.594 4.253-13.096 10.31-1.502 6.059 1.28 12.369 6.746 15.307v4.985c0 2.981 2.398 5.398 5.356 5.398h1.988c2.958 0 5.356-2.417 5.356-5.398v-4.985c5.467-2.938 8.248-9.248 6.746-15.306C38.094 18.253 32.696 14.002 26.5 14zM27.5 8c.828 0 1.5-.494 1.5-1.103V1.103C29 .493 28.328 0 27.5 0S26 .494 26 1.103v5.794C26 7.507 26.672 8 27.5 8zM52.759 25H46.24c-.685 0-1.241.672-1.241 1.5s.556 1.5 1.241 1.5h6.518c.685 0 1.241-.672 1.241-1.5s-.556-1.5-1.241-1.5zM7.759 25H1.24C.556 25 0 25.672 0 26.5S.556 28 1.241 28H7.76C8.444 28 9 27.328 9 26.5S8.444 25 7.759 25zM12.865 11.744L8.256 7.135c-.484-.485-1.352-.403-1.938.183-.586.586-.668 1.454-.183 1.938l4.609 4.609c.484.485 1.352.403 1.938-.183.586-.586.668-1.454.183-1.938zM45.744 7.135l-4.609 4.609c-.485.484-.403 1.352.183 1.938.586.586 1.454.668 1.938.183l4.609-4.609c.485-.484.403-1.352-.183-1.938-.586-.586-1.454-.668-1.938-.183z"/></g></symbol><symbol viewBox="0 0 128 128" id="bulb-circle" xmlns="http://www.w3.org/2000/svg"><title>bulb-circle</title><g fill="none" fill-rule="evenodd"><circle fill="#27AE60" cx="64" cy="64" r="64"/><g transform="translate(16 18)" fill-rule="nonzero" fill="#FFF"><path d="M47.5 26c-11.244.004-21.042 7.798-23.767 18.903-2.725 11.106 2.322 22.675 12.242 28.062v9.138c0 5.466 4.353 9.897 9.721 9.897h3.608c5.368 0 9.72-4.43 9.72-9.897v-9.138c9.921-5.387 14.968-16.956 12.243-28.062C68.542 33.798 58.744 26.004 47.5 26zM48 14c1.105 0 2-.864 2-1.93V1.93C50 .864 49.105 0 48 0s-2 .864-2 1.93v10.14c0 1.066.895 1.93 2 1.93zM93.793 45H82.207C80.988 45 80 45.895 80 47s.988 2 2.207 2h11.586C95.012 49 96 48.105 96 47s-.988-2-2.207-2zM13.793 45H2.207C.988 45 0 45.895 0 47s.988 2 2.207 2h11.586C15.012 49 16 48.105 16 47s-.988-2-2.207-2zM24.35 25.35a2.213 2.213 0 0 0 0-3.131l-7.57-7.57a2.215 2.215 0 0 0-3.131 3.132l7.57 7.57a2.213 2.213 0 0 0 3.132 0zM83.35 14.65a2.213 2.213 0 0 0-3.131 0l-7.57 7.57a2.215 2.215 0 1 0 3.132 3.131l7.57-7.57a2.213 2.213 0 0 0 0-3.132z"/></g></g></symbol><symbol viewBox="0 0 56 56" id="chip" xmlns="http://www.w3.org/2000/svg"><title>chip</title><path d="M28 0C12.536 0 0 12.536 0 28s12.536 28 28 28 28-12.536 28-28S43.464 0 28 0zm6.936 37.764a7.849 7.849 0 0 1-5.243-2c.104 2.584.446 6.051 1.487 7.914h-6.36c1.041-1.863 1.383-5.33 1.486-7.914a7.85 7.85 0 0 1-5.242 2 7.885 7.885 0 0 1-.768-15.732 7.885 7.885 0 1 1 15.386-.002 7.885 7.885 0 0 1-.746 15.734z" fill-rule="nonzero" fill="#BDC3C7"/></symbol><symbol viewBox="0 0 128 128" id="code-circle" xmlns="http://www.w3.org/2000/svg"><title>code-circle</title><g fill="none" fill-rule="evenodd"><circle fill="#27AE60" cx="64" cy="64" r="64"/><path d="M73.909 35.448a3.925 3.925 0 0 0-3.433 2.622L52.168 87.893a3.943 3.943 0 0 0 .654 3.88 3.919 3.919 0 0 0 6.702-1.135l18.308-49.822a3.942 3.942 0 0 0-.486-3.769 3.92 3.92 0 0 0-3.437-1.599zM43.79 44.667a3.917 3.917 0 0 0-1.716.574L15.92 60.974a3.936 3.936 0 0 0-1.917 3.38c0 1.387.728 2.671 1.917 3.38l26.154 15.734c1.206.775 2.74.83 3.998.14a3.935 3.935 0 0 0 2.042-3.448 3.935 3.935 0 0 0-2.036-3.453L25.565 64.375 46.079 52a3.938 3.938 0 0 0 1.798-4.59 3.924 3.924 0 0 0-4.086-2.744zm41.887 0a3.926 3.926 0 0 0-3.609 3.01A3.938 3.938 0 0 0 83.921 52l20.514 12.374-20.514 12.332a3.935 3.935 0 0 0-2.036 3.453 3.935 3.935 0 0 0 2.042 3.448 3.915 3.915 0 0 0 3.998-.14l26.154-15.734a3.936 3.936 0 0 0 1.917-3.38c0-1.387-.728-2.67-1.917-3.38L87.925 45.241a3.916 3.916 0 0 0-2.247-.574z" fill="#FFF" fill-rule="nonzero"/></g></symbol><symbol viewBox="0 0 56 56" id="document" xmlns="http://www.w3.org/2000/svg"><title>document</title><g transform="translate(8)" fill="none" fill-rule="evenodd"><path d="M1.273 0C.588 0-.001.716 0 1.302v53.396C0 55.38.606 56 1.273 56h38.182c.666 0 1.272-.62 1.272-1.302V13.023c0-.346-.137-.692-.378-.936L28.895.367A1.272 1.272 0 0 0 28 0H1.273z" fill="#BDC3C7"/><path d="M3.055 3.055h24.181v10.234c0 .67.607 1.279 1.273 1.279h10.182v38.377H3.055V3.055z" fill="#BDC3C7"/><path fill="#FFF" d="M29.527 5.09l7.128 7.128h-7.128zM7.41 22.4c-.718 0-1.3.684-1.3 1.527 0 .844.582 1.528 1.3 1.528h20.816c.719 0 1.301-.684 1.301-1.528 0-.843-.582-1.527-1.3-1.527H7.41zM7.359 32.582c-.69 0-1.25.684-1.25 1.527 0 .844.56 1.527 1.25 1.527H32.35c.69 0 1.25-.683 1.25-1.527 0-.843-.56-1.527-1.25-1.527H7.36zM7.359 42.764c-.69 0-1.25.683-1.25 1.527 0 .843.56 1.527 1.25 1.527H32.35c.69 0 1.25-.684 1.25-1.527 0-.844-.56-1.527-1.25-1.527H7.36z"/></g></symbol><symbol viewBox="0 0 52 52" id="facebook" xmlns="http://www.w3.org/2000/svg"><title>facebook</title><g fill="none" fill-rule="evenodd"><circle fill="#BDC3C7" cx="26" cy="26" r="26"/><path d="M13.545 12c-.853 0-1.545.692-1.545 1.545v24.91c0 .854.692 1.545 1.545 1.545h13.41V29.157h-3.651v-4.224h3.65v-3.121c0-3.616 2.21-5.583 5.436-5.583 1.546 0 2.874.113 3.262.165v3.78H33.41c-1.75 0-2.091.84-2.091 2.066v2.696h4.181l-.542 4.235H31.32V40h7.134C39.31 40 40 39.31 40 38.455v-24.91c0-.853-.69-1.545-1.545-1.545h-24.91z" fill="#FFF" fill-rule="nonzero"/></g></symbol><symbol viewBox="0 0 52 52" id="github" xmlns="http://www.w3.org/2000/svg"><title>github</title><g fill="none" fill-rule="evenodd"><circle fill="#BDC3C7" cx="26" cy="26" r="26"/><path d="M25.924 11C17.678 11 11 17.682 11 25.924c0 6.595 4.276 12.188 10.204 14.159.746.14 1.02-.321 1.02-.718 0-.354-.012-1.293-.019-2.537-4.151.9-5.027-2.002-5.027-2.002-.679-1.723-1.66-2.183-1.66-2.183-1.352-.925.105-.906.105-.906 1.498.104 2.285 1.537 2.285 1.537 1.331 2.282 3.494 1.623 4.347 1.241.134-.965.519-1.623.945-1.996-3.314-.373-6.798-1.657-6.798-7.375 0-1.63.579-2.96 1.536-4.005-.168-.376-.671-1.894.13-3.95 0 0 1.25-.4 4.105 1.53a14.307 14.307 0 0 1 3.73-.503c1.27.007 2.538.171 3.732.503 2.835-1.93 4.085-1.53 4.085-1.53.802 2.056.299 3.574.15 3.95.95 1.045 1.53 2.376 1.53 4.005 0 5.733-3.49 6.996-6.81 7.362.523.448 1.008 1.364 1.008 2.761 0 1.998-.02 3.602-.02 4.087 0 .392.262.858 1.027.709 5.97-1.958 10.243-7.554 10.243-14.14 0-8.24-6.682-14.923-14.924-14.923" fill="#FFF" fill-rule="nonzero"/></g></symbol><symbol viewBox="0 0 52 52" id="linkedin" xmlns="http://www.w3.org/2000/svg"><title>linkedin</title><g fill="none" fill-rule="evenodd"><circle fill="#BDC3C7" cx="26" cy="26" r="26"/><path d="M35.855 36.86h-4.146v-6.497c0-1.549-.032-3.543-2.161-3.543-2.162 0-2.492 1.686-2.492 3.43v6.61H22.91V23.5h3.982v1.821h.054c.557-1.05 1.91-2.158 3.932-2.158 4.201 0 4.978 2.765 4.978 6.364v7.334h-.001zM18.227 21.673a2.406 2.406 0 0 1-2.407-2.41 2.408 2.408 0 1 1 2.407 2.41zm2.078 15.189h-4.157V23.5h4.157v13.36zM37.93 13H14.066C12.924 13 12 13.903 12 15.017v23.966c0 1.115.924 2.017 2.066 2.017h23.86c1.14 0 2.074-.902 2.074-2.017V15.017C40 13.903 39.067 13 37.926 13h.003z" fill="#FFF" fill-rule="nonzero"/></g></symbol><symbol viewBox="0 0 56 56" id="loading" xmlns="http://www.w3.org/2000/svg"><title>loading</title><path d="M52.5 22.75h-4.188a20.843 20.843 0 0 0-2.229-5.402l2.964-2.963a3.5 3.5 0 0 0 0-4.953L46.573 6.96a3.5 3.5 0 0 0-4.952 0l-2.97 2.958a20.843 20.843 0 0 0-5.401-2.229V3.5a3.5 3.5 0 0 0-3.5-3.5h-3.5a3.5 3.5 0 0 0-3.5 3.5v4.188a20.843 20.843 0 0 0-5.402 2.229l-2.963-2.964a3.5 3.5 0 0 0-4.953 0L6.96 9.427a3.5 3.5 0 0 0 0 4.952l2.958 2.97a20.843 20.843 0 0 0-2.229 5.401H3.5a3.5 3.5 0 0 0-3.5 3.5v3.5a3.5 3.5 0 0 0 3.5 3.5h4.188a20.843 20.843 0 0 0 2.229 5.402l-2.964 2.963a3.5 3.5 0 0 0 0 4.953l2.474 2.473a3.5 3.5 0 0 0 4.952 0l2.97-2.958a20.843 20.843 0 0 0 5.401 2.229V52.5a3.5 3.5 0 0 0 3.5 3.5h3.5a3.5 3.5 0 0 0 3.5-3.5v-4.188a20.843 20.843 0 0 0 5.402-2.229l2.963 2.964a3.5 3.5 0 0 0 4.953 0l2.473-2.474a3.5 3.5 0 0 0 0-4.952l-2.958-2.97a20.843 20.843 0 0 0 2.229-5.401H52.5a3.5 3.5 0 0 0 3.5-3.5v-3.5a3.5 3.5 0 0 0-3.5-3.5zM28 36.655a8.654 8.654 0 1 1 0-17.31 8.654 8.654 0 0 1 0 17.31z" fill-rule="nonzero" fill="#BDC3C7"/></symbol><symbol viewBox="0 0 128 128" id="loading-circle" xmlns="http://www.w3.org/2000/svg"><title>loading-circle</title><g fill="none" fill-rule="evenodd"><circle fill="#27AE60" cx="64" cy="64" r="64"/><path d="M101.688 56.531H95.33a31.636 31.636 0 0 0-3.382-8.199l4.498-4.498a5.312 5.312 0 0 0 0-7.517l-3.754-3.754a5.313 5.313 0 0 0-7.518 0l-4.506 4.49a31.636 31.636 0 0 0-8.2-3.383v-6.358A5.313 5.313 0 0 0 67.157 22h-5.312a5.313 5.313 0 0 0-5.313 5.313v6.357a31.636 31.636 0 0 0-8.199 3.382l-4.498-4.498a5.312 5.312 0 0 0-7.517 0l-3.754 3.754a5.313 5.313 0 0 0 0 7.518l4.49 4.506a31.636 31.636 0 0 0-3.383 8.2h-6.358A5.313 5.313 0 0 0 22 61.843v5.312a5.313 5.313 0 0 0 5.313 5.313h6.357a31.636 31.636 0 0 0 3.382 8.199l-4.498 4.498a5.312 5.312 0 0 0 0 7.517l3.754 3.754a5.313 5.313 0 0 0 7.518 0l4.506-4.49a31.636 31.636 0 0 0 8.2 3.383v6.358A5.312 5.312 0 0 0 61.843 107h5.312a5.312 5.312 0 0 0 5.313-5.313V95.33a31.636 31.636 0 0 0 8.199-3.382l4.498 4.498a5.312 5.312 0 0 0 7.517 0l3.754-3.754a5.313 5.313 0 0 0 0-7.518l-4.49-4.506a31.636 31.636 0 0 0 3.383-8.2h6.358A5.312 5.312 0 0 0 107 67.157v-5.312a5.312 5.312 0 0 0-5.313-5.313zM64.5 77.781a13.281 13.281 0 1 1 0-26.562 13.281 13.281 0 0 1 0 26.562z" fill="#FFF" fill-rule="nonzero"/></g></symbol><symbol viewBox="0 0 52 52" id="medium" xmlns="http://www.w3.org/2000/svg"><title>medium</title><g fill="none" fill-rule="evenodd"><circle fill="#BDC3C7" cx="26" cy="26" r="26"/><path d="M14.557 19.692a1.1 1.1 0 0 0-.378-.947l-2.8-3.259V15h8.696l6.723 14.237L32.707 15H41v.486l-2.396 2.218a.666.666 0 0 0-.267.65v16.294a.666.666 0 0 0 .267.648l2.337 2.218V38H29.18v-.486l2.421-2.272c.237-.23.237-.297.237-.65v-13.17L25.1 37.945h-.909l-7.843-16.521v11.073c-.066.466.095.934.433 1.27l3.15 3.694v.486H11v-.487l3.15-3.693c.338-.336.487-.809.407-1.27V19.692z" fill="#FFF" fill-rule="nonzero"/></g></symbol><symbol viewBox="0 0 52 52" id="no" xmlns="http://www.w3.org/2000/svg"><title>no</title><path d="M52 26c0 14.36-11.642 26-26.002 26C11.64 52 0 40.358 0 26 0 11.638 11.642 0 25.998 0 40.358 0 52 11.638 52 26zm-16.116-5.64l-4.142-4.142-5.574 5.663-5.574-5.663-4.142 4.142 5.65 5.654-5.646 5.74 4.021 4.027 5.691-5.695 5.69 5.695 4.026-4.028-5.65-5.74 5.65-5.653z" fill-rule="nonzero" fill="#E74C3C"/></symbol><symbol viewBox="0 0 52 52" id="reddit" xmlns="http://www.w3.org/2000/svg"><title>reddit</title><g fill="none" fill-rule="evenodd"><circle fill="#BDC3C7" cx="26" cy="26" r="26"/><path d="M12.981 28.652a5.394 5.394 0 0 0-.123 1.145c0 4.658 5.955 8.454 13.276 8.454 7.318 0 13.273-3.793 13.273-8.454 0-.37-.04-.738-.111-1.094l-.02-.043a.617.617 0 0 1-.04-.223c-.408-1.59-1.51-3.032-3.105-4.198a.572.572 0 0 1-.17-.095c-.036-.027-.062-.056-.091-.086-2.425-1.67-5.893-2.716-9.735-2.716-3.808 0-7.242 1.026-9.666 2.666a.537.537 0 0 1-.242.168c-1.632 1.166-2.763 2.62-3.185 4.224a.614.614 0 0 1-.05.231l-.01.02zm13.22 7.36c-2.426 0-4.135-.526-5.225-1.62a.608.608 0 0 1 0-.854.635.635 0 0 1 .859 0c.852.85 2.28 1.275 4.367 1.275 2.086 0 3.505-.405 4.354-1.256.223-.222.609-.222.85 0a.652.652 0 0 1 0 .872c-1.093 1.093-2.792 1.62-5.223 1.62l.019-.037zm-4.877-10.244a2.292 2.292 0 0 0-2.269 2.268c0 1.231 1.032 2.232 2.269 2.232a2.232 2.232 0 0 0 2.233-2.232c0-1.233-1-2.268-2.233-2.268zm9.784 0c-1.236 0-2.27 1.035-2.27 2.268 0 1.231 1.034 2.232 2.27 2.232a2.232 2.232 0 0 0 2.233-2.232c0-1.233-1-2.268-2.233-2.268zm6.152-2.158c1.403 1.127 2.435 2.463 2.961 3.928a2.426 2.426 0 0 0 .973-1.96 2.46 2.46 0 0 0-3.934-1.965v-.003zm-23.593-.486a2.46 2.46 0 0 0-1.587 4.339c.543-1.46 1.586-2.777 2.994-3.89a2.463 2.463 0 0 0-1.405-.446v-.003h-.002zm12.468 16.34c-7.989 0-14.486-4.335-14.486-9.661 0-.372.031-.736.092-1.094A3.683 3.683 0 0 1 10 25.579c0-2.024 1.66-3.67 3.686-3.67.912 0 1.763.332 2.431.922 2.51-1.611 5.894-2.626 9.62-2.695l2.452-7.472.546.128s.022 0 .022.003l5.712 1.343a3.026 3.026 0 0 1 5.811 1.182 3.025 3.025 0 0 1-3.017 3.023 3.025 3.025 0 0 1-3.017-3.017l-5.21-1.234-1.984 6.056c3.585.143 6.828 1.156 9.259 2.734a3.602 3.602 0 0 1 2.48-.972 3.674 3.674 0 0 1 3.676 3.667c0 1.335-.73 2.551-1.864 3.2.039.344.08.667.08 1.012-.02 5.327-6.502 9.663-14.502 9.663l-.046.012zM37.2 13.51a1.811 1.811 0 1 0 0 3.623c.99 0 1.8-.812 1.8-1.805a1.81 1.81 0 0 0-1.823-1.801l.023-.017z" fill="#FFF" fill-rule="nonzero"/></g></symbol><symbol viewBox="0 0 128 128" id="rocket-circle" xmlns="http://www.w3.org/2000/svg"><title>rocket-green</title><g fill="none" fill-rule="evenodd"><circle fill="#27AE60" cx="64" cy="64" r="64"/><path d="M78.987 65.32v9.165c0 6.53-2.601 12.791-7.231 17.408l-9.048 9.022-1.14-22.116 17.419-13.48zM61.112 47.364l-9.598-.276a24.724 24.724 0 0 0-17.457 7.21l-9.048 9.023 22.18 1.136 13.923-17.093z" fill="#FFF" fill-rule="nonzero"/><path d="M44 68.173a34.527 34.527 0 0 0 5.776 7.83A34.236 34.236 0 0 0 57.697 82l24.976-19.565c10.334-8.096 16.648-20.344 17.288-33.532l.037-.757c.059-1.22-.947-2.22-2.154-2.142l-1.434.093c-12.476.804-24.052 6.83-31.933 16.626L44 68.173z" fill="#FFF" fill-rule="nonzero" opacity=".709"/><path d="M46.426 70.657l-5.35 6.32a18.864 18.864 0 0 0 3.67 5.223 18.954 18.954 0 0 0 5.358 3.76c1.97-1.59 4.489-3.727 6.458-5.317" fill="#FFF" fill-rule="nonzero"/><ellipse fill="#FFF" fill-rule="nonzero" cx="80.903" cy="47.151" rx="5.091" ry="5.065"/><path d="M38.45 85l-3.669 1.827a6.577 6.577 0 0 0-3.63 5.439l-.145 2.124a2.443 2.443 0 0 0 2.604 2.604l2.125-.145a6.577 6.577 0 0 0 5.438-3.63L43 89.549" fill="#FFF" fill-rule="nonzero"/><path d="M43.153 87.69a1.527 1.527 0 0 0-2.047.686l-1.819 3.652a5.04 5.04 0 0 1-4.151 2.771l-2.115.145a.896.896 0 0 1-.702-.263.895.895 0 0 1-.263-.702l.145-2.115a5.04 5.04 0 0 1 2.77-4.151l3.653-1.819a1.527 1.527 0 1 0-1.361-2.734l-3.652 1.82a8.105 8.105 0 0 0-4.457 6.676l-.145 2.115a3.958 3.958 0 0 0 4.22 4.22l2.115-.145a8.104 8.104 0 0 0 6.677-4.457l1.819-3.652a1.527 1.527 0 0 0-.687-2.047z" fill="#FFF" fill-rule="nonzero"/><path d="M29.044 62.442l6.552-6.592c4.337-4.362 10.102-6.766 16.234-6.772l6.411.19L46.86 63.361l-17.815-.92z" fill="#FFF"/><path d="M100.945 26.025a3.53 3.53 0 0 0-2.711-1.018l-1.424.092c-12.77.82-24.72 7.02-32.788 17.01l-3.353 4.152-8.772-.26h-.045c-6.958 0-13.499 2.725-18.419 7.674l-8.985 9.038a1.545 1.545 0 0 0-.346 1.64 1.53 1.53 0 0 0 1.35.984l19.02.983-.776.96a1.546 1.546 0 0 0-.157 1.705c.298.551.61 1.094.936 1.627l-4.51 5.386a1.546 1.546 0 0 0-.213 1.65 20.16 20.16 0 0 0 3.887 5.592 20.027 20.027 0 0 0 5.675 4.026 1.52 1.52 0 0 0 1.618-.196c.972-.793 2.092-1.733 3.175-2.643.773-.648 1.563-1.311 2.301-1.922.44.266.887.525 1.34.773a1.52 1.52 0 0 0 1.669-.136l1.042-.814.982 19.212a1.538 1.538 0 0 0 1.527 1.46c.398 0 .79-.157 1.081-.45l8.986-9.039c4.92-4.949 7.629-11.528 7.629-18.526v-8.428l3.545-2.767c10.623-8.292 17.093-20.795 17.75-34.305l.037-.749c.05-1.012-.334-2-1.051-2.711z" fill="#FFF" fill-rule="nonzero"/><path d="M52.148 82.065c-.799.67-1.617 1.357-2.377 1.985-1.47-.8-2.798-1.799-3.96-2.977a16.99 16.99 0 0 1-2.855-3.87l3.303-3.944a35.611 35.611 0 0 0 3.272 3.82l.003.002v.001l.002.001a35.52 35.52 0 0 0 4.211 3.641c-.527.44-1.068.895-1.6 1.34zM77.605 74.985c0 6.176-2.39 11.983-6.733 16.35l-6.553 6.592-.914-17.898 14.2-11.084v6.04zM98.904 29.335c-.613 12.611-6.653 24.284-16.57 32.024l-23.99 18.725a32.4 32.4 0 0 1-5.54-4.114l8.088-8.135c.597-.6.597-1.575 0-2.176-.598-.6-1.566-.6-2.164 0l-8.08 8.127a32.564 32.564 0 0 1-3.921-5.379l19.67-24.358c7.53-9.326 18.686-15.114 30.607-15.88l1.425-.09a.482.482 0 0 1 .512.508l-.037.748z" fill="#FFF"/><path d="M80.5 41c-1.737 0-3.37.676-4.598 1.904a6.508 6.508 0 0 0 0 9.195A6.483 6.483 0 0 0 80.5 54c1.665 0 3.33-.634 4.598-1.901a6.508 6.508 0 0 0 0-9.195A6.461 6.461 0 0 0 80.5 41z" fill="#FFF" fill-rule="nonzero"/><path d="M82.938 49.939a3.452 3.452 0 0 1-4.876 0 3.45 3.45 0 0 1 0-4.875 3.425 3.425 0 0 1 2.438-1.01c.92 0 1.786.36 2.438 1.01a3.45 3.45 0 0 1 0 4.875z" fill="#FFF"/></g></symbol><symbol viewBox="0 0 52 52" id="slack" xmlns="http://www.w3.org/2000/svg"><title>slack</title><g fill="none" fill-rule="evenodd"><circle fill="#BDC3C7" cx="26" cy="26" r="26"/><path fill="#FFF" fill-rule="nonzero" d="M23 24.538L24.465 29 29 27.446 27.535 23 23 24.562z"/><path d="M35.098 28.74l-2.073.694.72 2.147a1.66 1.66 0 0 1-1.048 2.099 1.68 1.68 0 0 1-2.12-1.048l-.72-2.143-4.28 1.43.719 2.145a1.665 1.665 0 0 1-1.639 2.185 1.688 1.688 0 0 1-1.541-1.133l-.719-2.16-2.081.7c-.2.06-.38.08-.58.08a1.692 1.692 0 0 1-1.54-1.14c-.3-.88.18-1.818 1.04-2.099l2.08-.7L20 25.68l-2.068.7c-.188.064-.38.088-.57.085-.66-.021-1.3-.45-1.522-1.13a1.667 1.667 0 0 1 1.061-2.1l2.08-.692-.72-2.14a1.664 1.664 0 0 1 1.062-2.1 1.652 1.652 0 0 1 2.098 1.044l.719 2.144 4.26-1.432-.72-2.14c-.279-.86.18-1.8 1.052-2.099.87-.281 1.812.18 2.1 1.055l.72 2.161 2.073-.68a1.663 1.663 0 0 1 2.1 1.039c.29.872-.18 1.812-1.045 2.1l-2.076.698 1.38 4.115 2.068-.688c.869-.282 1.81.18 2.1 1.06.293.88-.18 1.82-1.04 2.098l-.014-.038zm5.561-7.141c-3.3-10.99-8.065-13.56-19.06-10.259-10.99 3.299-13.56 8.061-10.259 19.061 3.3 10.993 8.061 13.56 19.061 10.258 10.993-3.3 13.56-8.06 10.258-19.06z" fill="#FFF" fill-rule="nonzero"/></g></symbol><symbol viewBox="0 0 128 128" id="software-circle" xmlns="http://www.w3.org/2000/svg"><title>software-circle</title><g fill="none" fill-rule="evenodd"><circle fill="#27AE60" cx="64" cy="64" r="64"/><rect fill="#FFF" x="26" y="26" width="77" height="77" rx="4"/><rect fill="#27AE60" x="30" y="47" width="69" height="5" rx="2.5"/><circle fill="#27AE60" cx="38.5" cy="38.5" r="2.5"/><circle fill="#27AE60" cx="46.5" cy="38.5" r="2.5"/><circle fill="#27AE60" cx="54.5" cy="38.5" r="2.5"/></g></symbol><symbol viewBox="0 0 56 56" id="star" xmlns="http://www.w3.org/2000/svg"><title>star</title><path d="M43.903 54.886c-.256 0-.514-.041-.762-.129L28 49.426l-15.136 5.331a2.282 2.282 0 0 1-2.1-.301 2.242 2.242 0 0 1-.936-1.883l.441-15.9L.472 24.067A2.225 2.225 0 0 1 .112 22c.232-.709.8-1.257 1.52-1.464l15.409-4.498 9.082-13.12c.844-1.223 2.902-1.223 3.753 0l9.084 13.12 15.409 4.498c.72.21 1.288.758 1.52 1.464.23.707.098 1.48-.36 2.067L45.73 36.674l.442 15.899c.02.74-.33 1.447-.937 1.883-.391.28-.858.43-1.333.43z" fill-rule="nonzero" fill="#BDC3C7"/></symbol><symbol viewBox="0 0 52 52" id="telegram" xmlns="http://www.w3.org/2000/svg"><title>telegram</title><g fill="none" fill-rule="evenodd"><circle fill="#BDC3C7" cx="26" cy="26" r="26"/><path d="M21.943 37.045c-.865 0-.719-.329-1.017-1.15l-2.549-8.388 19.608-11.634"/><path d="M21.943 37.045c.67 0 .964-.306 1.34-.67l3.564-3.463-4.45-2.684" fill="#FFF" fill-rule="nonzero"/><path d="M22.398 30.228l10.775 7.961c1.23.679 2.12.329 2.425-1.142l4.387-20.67c.451-1.802-.683-2.617-1.859-2.085l-25.762 9.936c-1.758.705-1.75 1.687-.32 2.125l6.612 2.06 15.302-9.652c.72-.436 1.385-.202.84.281" fill="#FFF" fill-rule="nonzero"/></g></symbol><symbol viewBox="0 0 128 128" id="test-circle" xmlns="http://www.w3.org/2000/svg"><title>test-circle</title><g fill="none" fill-rule="evenodd"><circle fill="#27AE60" cx="64" cy="64" r="64"/><path d="M101.688 56.531H95.33a31.636 31.636 0 0 0-3.382-8.199l4.498-4.498a5.312 5.312 0 0 0 0-7.517l-3.754-3.754a5.313 5.313 0 0 0-7.518 0l-4.506 4.49a31.636 31.636 0 0 0-8.2-3.383v-6.358A5.313 5.313 0 0 0 67.157 22h-5.312a5.313 5.313 0 0 0-5.313 5.313v6.357a31.636 31.636 0 0 0-8.199 3.382l-4.498-4.498a5.312 5.312 0 0 0-7.517 0l-3.754 3.754a5.313 5.313 0 0 0 0 7.518l4.49 4.506a31.636 31.636 0 0 0-3.383 8.2h-6.358A5.313 5.313 0 0 0 22 61.843v5.312a5.313 5.313 0 0 0 5.313 5.313h6.357a31.636 31.636 0 0 0 3.382 8.199l-4.498 4.498a5.312 5.312 0 0 0 0 7.517l3.754 3.754a5.313 5.313 0 0 0 7.518 0l4.506-4.49a31.636 31.636 0 0 0 8.2 3.383v6.358A5.312 5.312 0 0 0 61.843 107h5.312a5.312 5.312 0 0 0 5.313-5.313V95.33a31.636 31.636 0 0 0 8.199-3.382l4.498 4.498a5.312 5.312 0 0 0 7.517 0l3.754-3.754a5.313 5.313 0 0 0 0-7.518l-4.49-4.506a31.636 31.636 0 0 0 3.383-8.2h6.358A5.312 5.312 0 0 0 107 67.157v-5.312a5.312 5.312 0 0 0-5.313-5.313zM64.5 77.781a13.281 13.281 0 1 1 0-26.562 13.281 13.281 0 0 1 0 26.562z" fill="#FFF" fill-rule="nonzero"/></g></symbol><symbol viewBox="0 0 56 56" id="time" xmlns="http://www.w3.org/2000/svg"><title>time</title><path d="M28 0C12.536 0 0 12.536 0 28c0 15.462 12.536 28 28 28 15.463 0 28-12.537 28-28C56 12.535 43.463 0 28 0zm1.933 31.423c-.001.074-.012.147-.023.22-.007.056-.01.113-.023.167-.012.057-.034.112-.052.169-.022.068-.042.136-.07.2-.006.012-.008.024-.013.035a1.92 1.92 0 0 1-.144.254l-.012.015c-.06.09-.13.171-.204.247a1.854 1.854 0 0 1-.267.228c-.022.017-.043.034-.066.05-.093.06-.19.113-.29.157-.022.01-.045.015-.067.024a1.946 1.946 0 0 1-.356.101c-.115.02-.23.035-.348.035-.023 0-.048-.007-.071-.008a1.948 1.948 0 0 1-.33-.036c-.034-.007-.067-.022-.1-.03a1.965 1.965 0 0 1-.29-.1c-.011-.005-.022-.006-.033-.01l-10.736-5.065a1.937 1.937 0 0 1 1.651-3.503l7.974 3.76V11.62a1.937 1.937 0 0 1 3.873 0v19.768c0 .012-.003.023-.003.035z" fill-rule="nonzero" fill="#BDC3C7"/></symbol><symbol viewBox="0 0 52 52" id="twitter" xmlns="http://www.w3.org/2000/svg"><title>twitter</title><g fill="none" fill-rule="evenodd"><circle fill="#BDC3C7" cx="26" cy="26" r="26"/><path d="M41.405 16.046c-1.16.51-2.4.857-3.704 1.016a6.5 6.5 0 0 0 2.836-3.57 13.324 13.324 0 0 1-4.1 1.552 6.45 6.45 0 0 0-11.158 4.402 6.6 6.6 0 0 0 .166 1.474c-5.362-.253-10.114-2.828-13.295-6.72a6.322 6.322 0 0 0-.873 3.244 6.451 6.451 0 0 0 2.869 5.37 6.43 6.43 0 0 1-2.921-.807v.08a6.454 6.454 0 0 0 5.173 6.328 6.55 6.55 0 0 1-2.9.112 6.472 6.472 0 0 0 6.036 4.48 12.937 12.937 0 0 1-8 2.76c-.511 0-1.021-.03-1.534-.089a18.349 18.349 0 0 0 9.908 2.897c11.87 0 18.353-9.828 18.353-18.337 0-.274 0-.55-.02-.826a13.026 13.026 0 0 0 3.225-3.34l-.061-.026z" fill="#FFF" fill-rule="nonzero"/></g></symbol><symbol viewBox="0 0 52 52" id="yes" xmlns="http://www.w3.org/2000/svg"><title>yes</title><path d="M52 25.999c0 14.36-11.641 25.999-26.001 25.999C11.639 51.998 0 40.358 0 25.999 0 11.637 11.641 0 25.999 0 40.357 0 52 11.637 52 25.999zm-13.643-5.997l-4.14-4.142-11.265 11.264-5.405-5.406-4.142 4.142 9.547 9.562 15.405-15.42z" fill-rule="nonzero" fill="#27AE60"/></symbol></svg>
