<svg xmlns="http://www.w3.org/2000/svg" xmlns:xlink="http://www.w3.org/1999/xlink" style="display: none"><symbol viewBox="0 0 56 56" id="bulb" xmlns="http://www.w3.org/2000/svg"><path d="M27.5 17c6.195.002 11.594 4.253 13.096 10.31 1.502 6.059-1.28 12.369-6.746 15.307v4.985c0 2.981-2.398 5.398-5.356 5.398h-1.988c-2.958 0-5.356-2.417-5.356-5.398v-4.985c-5.467-2.938-8.248-9.248-6.746-15.306C15.906 21.253 21.304 17.002 27.5 17zm0-6c-.828 0-1.5-.494-1.5-1.103V4.103C26 3.493 26.672 3 27.5 3s1.5.494 1.5 1.103v5.794c0 .61-.672 1.103-1.5 1.103zm26.259 17c.685 0 1.241.672 1.241 1.5s-.556 1.5-1.241 1.5H47.24c-.684 0-1.24-.672-1.24-1.5s.556-1.5 1.241-1.5h6.518zm-45 0c.685 0 1.241.672 1.241 1.5S9.444 31 8.759 31H2.24C1.556 31 1 30.328 1 29.5S1.556 28 2.241 28H8.76zm5.106-14.256c.485.484.403 1.352-.183 1.938-.586.586-1.454.668-1.938.183l-4.609-4.609c-.485-.484-.403-1.352.183-1.938.586-.586 1.454-.668 1.938-.183l4.609 4.609zm30.879-4.609c.484-.485 1.352-.403 1.938.183.586.586.668 1.454.183 1.938l-4.609 4.609c-.484.485-1.352.403-1.938-.183-.586-.586-.668-1.454-.183-1.938l4.609-4.609z" fill="#D8D8D8"/></symbol><symbol viewBox="0 0 128 128" id="bulb-circle" xmlns="http://www.w3.org/2000/svg"><path d="M64 128c35.346 0 64-28.654 64-64 0-35.346-28.654-64-64-64C28.654 0 0 28.654 0 64c0 35.346 28.654 64 64 64zm-.5-84c-11.244.004-21.042 7.798-23.767 18.903-2.725 11.106 2.322 22.675 12.242 28.062v9.138c0 5.466 4.353 9.897 9.721 9.897h3.608c5.368 0 9.72-4.43 9.72-9.897v-9.138c9.921-5.387 14.968-16.956 12.243-28.062C84.542 51.798 74.744 44.004 63.5 44zm.5-12c1.105 0 2-.864 2-1.93V19.93c0-1.066-.895-1.93-2-1.93s-2 .864-2 1.93v10.14c0 1.066.895 1.93 2 1.93zm45.793 31H98.207C96.988 63 96 63.895 96 65s.988 2 2.207 2h11.586c1.219 0 2.207-.895 2.207-2s-.988-2-2.207-2zm-80 0H18.207C16.988 63 16 63.895 16 65s.988 2 2.207 2h11.586C31.012 67 32 66.105 32 65s-.988-2-2.207-2zm10.558-19.65a2.213 2.213 0 0 0 0-3.131l-7.57-7.57a2.215 2.215 0 0 0-3.132 3.132l7.57 7.57a2.213 2.213 0 0 0 3.132 0zm59-10.7a2.213 2.213 0 0 0-3.132 0l-7.57 7.57a2.215 2.215 0 1 0 3.132 3.131l7.57-7.57a2.213 2.213 0 0 0 0-3.132z" fill="#D8D8D8" fill-rule="evenodd"/></symbol><symbol viewBox="0 0 56 56" id="chart" xmlns="http://www.w3.org/2000/svg"><path d="M8 37a5 5 0 0 1 5 5v10a5 5 0 0 1-10 0V42a5 5 0 0 1 5-5zm13-19a5 5 0 0 1 5 5v28a5 5 0 0 1-10 0V23a5 5 0 0 1 5-5zm15 8a5 5 0 0 1 5 5v20a5 5 0 0 1-10 0V31a5 5 0 0 1 5-5zM49 3a5 5 0 0 1 5 5v43a5 5 0 0 1-10 0V8a5 5 0 0 1 5-5z" fill="#D8D8D8" fill-rule="evenodd"/></symbol><symbol viewBox="0 0 56 56" id="chip" xmlns="http://www.w3.org/2000/svg"><path d="M46.126 6.716A27.814 27.814 0 0 0 32.216.324c-9.237-1.417-18.975 1.83-25.5 9.452-10.037 11.727-8.668 29.371 3.06 39.41a27.816 27.816 0 0 0 13.909 6.391c9.237 1.418 18.976-1.83 25.5-9.452 10.038-11.727 8.668-29.371-3.06-39.409zm5.417 29.343L43 33.114a15.963 15.963 0 0 0 .003-10.318l8.533-2.937a25.031 25.031 0 0 1 1.271 6.173 24.861 24.861 0 0 1-1.264 10.027zm.48-16.439v-.001.001zm-5.274-8.03l-6.801 5.908a16.049 16.049 0 0 0-1.65-1.636 15.833 15.833 0 0 0-7.286-3.524l1.715-8.813A24.819 24.819 0 0 1 44.16 9.032a25.369 25.369 0 0 1 2.589 2.559zm-27.28-7.068a24.604 24.604 0 0 1 3.716-1.016l1.713 8.832a15.837 15.837 0 0 0-8.936 5.156l-6.808-5.92a24.872 24.872 0 0 1 10.314-7.052zM4.36 19.842l8.54 2.945a15.964 15.964 0 0 0-.002 10.318l-8.54 2.94a25.08 25.08 0 0 1-1.266-6.164A24.88 24.88 0 0 1 4.36 19.842zm4.779 24.48l6.815-5.92a16.02 16.02 0 0 0 1.65 1.637 15.832 15.832 0 0 0 7.285 3.524l-1.724 8.862a24.878 24.878 0 0 1-11.427-5.53 25.241 25.241 0 0 1-2.6-2.573zm27.29 7.084a24.93 24.93 0 0 1-3.707 1.019l-1.719-8.862a15.837 15.837 0 0 0 8.937-5.156l6.81 5.923a24.92 24.92 0 0 1-10.321 7.076z" fill="#A0A0A0"/></symbol><symbol viewBox="0 0 128 128" id="code-circle" xmlns="http://www.w3.org/2000/svg"><path d="M64 128c35.346 0 64-28.654 64-64 0-35.346-28.654-64-64-64C28.654 0 0 28.654 0 64c0 35.346 28.654 64 64 64zm9.909-92.552a3.925 3.925 0 0 0-3.433 2.622L52.168 87.893a3.943 3.943 0 0 0 .654 3.88 3.919 3.919 0 0 0 6.702-1.135l18.308-49.822a3.942 3.942 0 0 0-.486-3.769 3.92 3.92 0 0 0-3.437-1.599zM43.79 44.667a3.917 3.917 0 0 0-1.716.574L15.92 60.974a3.936 3.936 0 0 0-1.917 3.38c0 1.387.728 2.671 1.917 3.38l26.154 15.734c1.206.775 2.74.83 3.998.14a3.935 3.935 0 0 0 2.042-3.448 3.935 3.935 0 0 0-2.036-3.453L25.565 64.375 46.079 52a3.938 3.938 0 0 0 1.798-4.59 3.924 3.924 0 0 0-4.086-2.744zm41.887 0a3.926 3.926 0 0 0-3.609 3.01A3.938 3.938 0 0 0 83.921 52l20.514 12.374-20.514 12.332a3.935 3.935 0 0 0-2.036 3.453 3.935 3.935 0 0 0 2.042 3.448 3.915 3.915 0 0 0 3.998-.14l26.154-15.734a3.936 3.936 0 0 0 1.917-3.38c0-1.387-.728-2.67-1.917-3.38L87.925 45.241a3.916 3.916 0 0 0-2.247-.574z" fill="#D8D8D8" fill-rule="evenodd"/></symbol><symbol viewBox="0 0 56 56" id="document" xmlns="http://www.w3.org/2000/svg"><path d="M9.273 0C8.588 0 7.999.716 8 1.302v53.396C8 55.38 8.606 56 9.273 56h38.182c.666 0 1.272-.62 1.272-1.302V13.023c0-.346-.137-.692-.378-.936L36.895.367A1.272 1.272 0 0 0 36 0H9.273zm28.254 5.09l7.128 7.128h-7.128V5.091zM15.41 22.4c-.718 0-1.3.684-1.3 1.527 0 .844.582 1.528 1.3 1.528h20.816c.719 0 1.301-.684 1.301-1.528 0-.843-.582-1.527-1.3-1.527H15.41zm-.051 10.182c-.69 0-1.25.684-1.25 1.527 0 .844.56 1.527 1.25 1.527H40.35c.69 0 1.25-.683 1.25-1.527 0-.843-.56-1.527-1.25-1.527H15.36zm0 10.182c-.69 0-1.25.683-1.25 1.527 0 .843.56 1.527 1.25 1.527H40.35c.69 0 1.25-.684 1.25-1.527 0-.844-.56-1.527-1.25-1.527H15.36z" fill="#D8D8D8" fill-rule="evenodd"/></symbol><symbol viewBox="0 0 52 52" id="facebook" xmlns="http://www.w3.org/2000/svg"><path d="M26 52c14.36 0 26-11.64 26-26S40.36 0 26 0 0 11.64 0 26s11.64 26 26 26zM13.545 12c-.853 0-1.545.692-1.545 1.545v24.91c0 .854.692 1.545 1.545 1.545h13.41V29.157h-3.651v-4.224h3.65v-3.121c0-3.616 2.21-5.583 5.436-5.583 1.546 0 2.874.113 3.262.165v3.78H33.41c-1.75 0-2.091.84-2.091 2.066v2.696H35.5l-.542 4.235H31.32V40h7.134C39.31 40 40 39.31 40 38.455v-24.91c0-.853-.69-1.545-1.545-1.545h-24.91z" fill="#D8D8D8" fill-rule="evenodd"/></symbol><symbol viewBox="0 0 54 54" id="flame" xmlns="http://www.w3.org/2000/svg"><g fill="none"><path d="M15.173 49.12c-2.484-2.816-4.969-5.746-6.55-9.238-1.58-3.718-2.033-7.999-1.242-12.055.79-4.056 2.597-10.487 5.195-13.754-.226 2.817.79 8.347 2.71 10.487-1.129-5.408 3.589-11.266 7.203-15.547C26.103 4.732 31.072 1.915 36.267 0c-2.598 2.704-2.937 6.985-1.92 10.59 1.016 3.605 4.153 6.937 5.082 10.027.929 3.09.816 6.647.929 10.365 1.374-1.519 1.611-2.118 2.823-4.289 1.212-2.17 1.016-4.393.452-6.534 2.032 2.479 3.162 4.957 3.726 8.112.565 3.154.452 4.739.113 7.893-.451 3.493-1.355 7.098-3.275 10.027-2.258 3.492-5.872 5.97-9.825 7.323-7.002 1.24-13.89.225-19.199-4.394z" fill="#F3705A"/><path d="M24.708 53.132c9.333 3.627 18.551-4.749 13.43-13.25 0-.113-.761 2.277-2.924 4.204 1.138-2.72 1.432-7.724-2.686-12.144-2.558-2.746-2.834-6.58-2.151-9.527-2.732 2.04-5.594 5.1-6.39 8.388-.798 3.287-2.352 6.914-.872 9.974-1.707-1.247-2.96-3.287-3.073-5.44-1.821 2.153-2.96 4.987-2.846 7.82 0 4.42 3.529 8.388 7.512 9.975z" fill="#FFD15C"/></g></symbol><symbol viewBox="0 0 56 56" id="gear" xmlns="http://www.w3.org/2000/svg"><path d="M52.5 22.75h-4.188a20.843 20.843 0 0 0-2.229-5.402l2.964-2.963a3.5 3.5 0 0 0 0-4.953L46.573 6.96a3.5 3.5 0 0 0-4.952 0l-2.97 2.958a20.843 20.843 0 0 0-5.401-2.229V3.5a3.5 3.5 0 0 0-3.5-3.5h-3.5a3.5 3.5 0 0 0-3.5 3.5v4.188a20.843 20.843 0 0 0-5.402 2.229l-2.963-2.964a3.5 3.5 0 0 0-4.953 0L6.96 9.427a3.5 3.5 0 0 0 0 4.952l2.958 2.97a20.843 20.843 0 0 0-2.229 5.401H3.5a3.5 3.5 0 0 0-3.5 3.5v3.5a3.5 3.5 0 0 0 3.5 3.5h4.188a20.843 20.843 0 0 0 2.229 5.402l-2.964 2.963a3.5 3.5 0 0 0 0 4.953l2.474 2.473a3.5 3.5 0 0 0 4.952 0l2.97-2.958a20.843 20.843 0 0 0 5.401 2.229V52.5a3.5 3.5 0 0 0 3.5 3.5h3.5a3.5 3.5 0 0 0 3.5-3.5v-4.188a20.843 20.843 0 0 0 5.402-2.229l2.963 2.964a3.5 3.5 0 0 0 4.953 0l2.473-2.474a3.5 3.5 0 0 0 0-4.952l-2.958-2.97a20.843 20.843 0 0 0 2.229-5.401H52.5a3.5 3.5 0 0 0 3.5-3.5v-3.5a3.5 3.5 0 0 0-3.5-3.5zM28 36.655a8.654 8.654 0 1 1 0-17.31 8.654 8.654 0 0 1 0 17.31z" fill="#D8D8D8"/></symbol><symbol viewBox="0 0 128 128" id="gear-circle" xmlns="http://www.w3.org/2000/svg"><path d="M64 128c35.346 0 64-28.654 64-64 0-35.346-28.654-64-64-64C28.654 0 0 28.654 0 64c0 35.346 28.654 64 64 64zm37.688-71.469H95.33a31.636 31.636 0 0 0-3.382-8.199l4.498-4.498a5.312 5.312 0 0 0 0-7.517l-3.754-3.754a5.313 5.313 0 0 0-7.518 0l-4.506 4.49a31.636 31.636 0 0 0-8.2-3.383v-6.358A5.313 5.313 0 0 0 67.157 22h-5.312a5.313 5.313 0 0 0-5.313 5.313v6.357a31.636 31.636 0 0 0-8.199 3.382l-4.498-4.498a5.312 5.312 0 0 0-7.517 0l-3.754 3.754a5.313 5.313 0 0 0 0 7.518l4.49 4.506a31.636 31.636 0 0 0-3.383 8.2h-6.358A5.313 5.313 0 0 0 22 61.843v5.312a5.313 5.313 0 0 0 5.313 5.313h6.357a31.636 31.636 0 0 0 3.382 8.199l-4.498 4.498a5.312 5.312 0 0 0 0 7.517l3.754 3.754a5.313 5.313 0 0 0 7.518 0l4.506-4.49a31.636 31.636 0 0 0 8.2 3.383v6.358A5.312 5.312 0 0 0 61.843 107h5.312a5.312 5.312 0 0 0 5.313-5.313V95.33a31.636 31.636 0 0 0 8.199-3.382l4.498 4.498a5.312 5.312 0 0 0 7.517 0l3.754-3.754a5.313 5.313 0 0 0 0-7.518l-4.49-4.506a31.636 31.636 0 0 0 3.383-8.2h6.358A5.312 5.312 0 0 0 107 67.157v-5.312a5.312 5.312 0 0 0-5.313-5.313zM64.5 77.781a13.281 13.281 0 1 1 0-26.562 13.281 13.281 0 0 1 0 26.562z" fill="#D8D8D8" fill-rule="evenodd"/></symbol><symbol viewBox="0 0 52 52" id="github" xmlns="http://www.w3.org/2000/svg"><path d="M26 52c14.36 0 26-11.64 26-26S40.36 0 26 0 0 11.64 0 26s11.64 26 26 26zm-.076-41C17.678 11 11 17.682 11 25.924c0 6.595 4.276 12.188 10.204 14.159.746.14 1.02-.321 1.02-.718 0-.354-.012-1.293-.019-2.537-4.151.9-5.027-2.002-5.027-2.002-.679-1.723-1.66-2.183-1.66-2.183-1.352-.925.105-.906.105-.906 1.498.104 2.285 1.537 2.285 1.537 1.331 2.282 3.494 1.623 4.347 1.241.134-.965.519-1.623.945-1.996-3.314-.373-6.798-1.657-6.798-7.375 0-1.63.579-2.96 1.536-4.005-.168-.376-.671-1.894.13-3.95 0 0 1.25-.4 4.105 1.53a14.307 14.307 0 0 1 3.73-.503 14.29 14.29 0 0 1 3.732.503c2.835-1.93 4.085-1.53 4.085-1.53.802 2.056.299 3.574.15 3.95.95 1.045 1.53 2.376 1.53 4.005 0 5.733-3.49 6.996-6.81 7.362.523.448 1.008 1.364 1.008 2.761 0 1.998-.02 3.602-.02 4.087 0 .392.262.858 1.027.709 5.97-1.958 10.243-7.554 10.243-14.14 0-8.24-6.682-14.923-14.924-14.923" fill="#D8D8D8" fill-rule="evenodd"/></symbol><symbol viewBox="0 0 52 52" id="linkedin" xmlns="http://www.w3.org/2000/svg"><path d="M26 52C11.64 52 0 40.36 0 26S11.64 0 26 0s26 11.64 26 26-11.64 26-26 26zm11.93-39H14.065C12.924 13 12 13.903 12 15.017v23.966c0 1.115.924 2.017 2.066 2.017h23.86c1.14 0 2.074-.902 2.074-2.017V15.017C40 13.903 39.067 13 37.926 13h.003zm-2.075 23.86h-4.146v-6.497c0-1.549-.032-3.543-2.161-3.543-2.162 0-2.492 1.686-2.492 3.43v6.61H22.91V23.5h3.982v1.821h.054c.557-1.05 1.91-2.158 3.932-2.158 4.201 0 4.978 2.765 4.978 6.364v7.334h-.001zM18.227 21.673a2.406 2.406 0 0 1-2.407-2.41 2.408 2.408 0 1 1 2.407 2.41zm2.078 15.189h-4.157V23.5h4.157v13.36z" fill="#D8D8D8"/></symbol><symbol viewBox="0 0 52 52" id="medium" xmlns="http://www.w3.org/2000/svg"><path d="M26 52c14.36 0 26-11.64 26-26S40.36 0 26 0 0 11.64 0 26s11.64 26 26 26zM14.557 19.692a1.1 1.1 0 0 0-.378-.947l-2.8-3.259V15h8.696l6.723 14.237L32.707 15H41v.486l-2.396 2.218a.666.666 0 0 0-.267.65v16.294a.666.666 0 0 0 .267.648l2.337 2.218V38H29.18v-.486l2.421-2.272c.237-.23.237-.297.237-.65v-13.17L25.1 37.945h-.909l-7.843-16.521v11.073c-.066.466.095.934.433 1.27l3.15 3.694v.486H11v-.487l3.15-3.693a1.44 1.44 0 0 0 .407-1.27V19.692z" fill="#D8D8D8" fill-rule="evenodd"/></symbol><symbol viewBox="0 0 52 52" id="no" xmlns="http://www.w3.org/2000/svg"><path d="M52 26c0 14.36-11.642 26-26.002 26C11.64 52 0 40.358 0 26 0 11.638 11.642 0 25.998 0 40.358 0 52 11.638 52 26zm-16.116-5.64l-4.142-4.142-5.574 5.663-5.574-5.663-4.142 4.142 5.65 5.654-5.646 5.74 4.021 4.027 5.691-5.695 5.69 5.695 4.026-4.028-5.65-5.74 5.65-5.653z" fill="#E74C3C"/></symbol><symbol viewBox="0 0 52 52" id="reddit" xmlns="http://www.w3.org/2000/svg"><path d="M26 52c14.36 0 26-11.64 26-26S40.36 0 26 0 0 11.64 0 26s11.64 26 26 26zM12.981 28.652a5.394 5.394 0 0 0-.123 1.145c0 4.658 5.955 8.454 13.276 8.454 7.318 0 13.273-3.793 13.273-8.454 0-.37-.04-.738-.111-1.094l-.02-.043a.617.617 0 0 1-.04-.223c-.408-1.59-1.51-3.032-3.105-4.198a.572.572 0 0 1-.17-.095c-.036-.027-.062-.056-.091-.086-2.425-1.67-5.893-2.716-9.735-2.716-3.808 0-7.242 1.026-9.666 2.666a.537.537 0 0 1-.242.168c-1.632 1.166-2.763 2.62-3.185 4.224a.614.614 0 0 1-.05.231l-.01.02zm13.22 7.36c-2.426 0-4.135-.526-5.225-1.62a.608.608 0 0 1 0-.854.635.635 0 0 1 .859 0c.852.85 2.28 1.275 4.367 1.275 2.086 0 3.505-.405 4.354-1.256.223-.222.609-.222.85 0a.652.652 0 0 1 0 .872c-1.093 1.093-2.792 1.62-5.223 1.62l.019-.037zm-4.877-10.244a2.292 2.292 0 0 0-2.269 2.268c0 1.231 1.032 2.232 2.269 2.232a2.232 2.232 0 0 0 2.233-2.232c0-1.233-1-2.268-2.233-2.268zm9.784 0c-1.236 0-2.27 1.035-2.27 2.268 0 1.231 1.034 2.232 2.27 2.232a2.232 2.232 0 0 0 2.233-2.232c0-1.233-1-2.268-2.233-2.268zm6.152-2.158c1.403 1.127 2.435 2.463 2.961 3.928a2.426 2.426 0 0 0 .973-1.96 2.46 2.46 0 0 0-3.934-1.965v-.003zm-23.593-.486a2.46 2.46 0 0 0-1.587 4.339c.543-1.46 1.586-2.777 2.994-3.89a2.463 2.463 0 0 0-1.405-.446v-.003h-.002zm12.468 16.34c-7.989 0-14.486-4.335-14.486-9.661 0-.372.031-.736.092-1.094A3.683 3.683 0 0 1 10 25.579c0-2.024 1.66-3.67 3.686-3.67a3.65 3.65 0 0 1 2.431.922c2.51-1.611 5.894-2.626 9.62-2.695l2.452-7.472.546.128s.022 0 .022.003l5.712 1.343a3.026 3.026 0 0 1 5.811 1.182 3.025 3.025 0 0 1-3.017 3.023 3.025 3.025 0 0 1-3.017-3.017l-5.21-1.234-1.984 6.056c3.585.143 6.828 1.156 9.259 2.734a3.602 3.602 0 0 1 2.48-.972 3.674 3.674 0 0 1 3.676 3.667c0 1.335-.73 2.551-1.864 3.2.039.344.08.667.08 1.012-.02 5.327-6.502 9.663-14.502 9.663l-.046.012zM37.2 13.51a1.811 1.811 0 1 0 0 3.623c.99 0 1.8-.812 1.8-1.805a1.81 1.81 0 0 0-1.823-1.801l.023-.017z" fill="#D8D8D8" fill-rule="evenodd"/></symbol><symbol viewBox="0 0 128 128" id="rocket-circle" xmlns="http://www.w3.org/2000/svg"><path d="M64 128c35.346 0 64-28.654 64-64 0-35.346-28.654-64-64-64C28.654 0 0 28.654 0 64c0 35.346 28.654 64 64 64zM38.45 85l-3.669 1.827a6.577 6.577 0 0 0-3.63 5.439l-.145 2.124a2.443 2.443 0 0 0 2.604 2.604l2.125-.145a6.577 6.577 0 0 0 5.438-3.63L43 89.549m57.945-63.524a3.53 3.53 0 0 0-2.711-1.018l-1.424.092c-12.77.82-24.72 7.02-32.788 17.01l-3.353 4.152-8.772-.26c-7.003 0-13.544 2.725-18.464 7.674l-8.985 9.038a1.545 1.545 0 0 0-.346 1.64 1.53 1.53 0 0 0 1.35.984l19.02.983-.776.96a1.546 1.546 0 0 0-.157 1.705c.298.551.61 1.094.936 1.627l-4.51 5.386a1.546 1.546 0 0 0-.213 1.65 20.16 20.16 0 0 0 3.887 5.592 20.027 20.027 0 0 0 5.675 4.026 1.52 1.52 0 0 0 1.618-.196c.972-.793 2.092-1.733 3.175-2.643.773-.648 1.563-1.311 2.301-1.922.44.266.887.525 1.34.773a1.52 1.52 0 0 0 1.669-.136l1.042-.814.982 19.212a1.538 1.538 0 0 0 1.527 1.46c.398 0 .79-.157 1.081-.45l8.986-9.039c4.92-4.949 7.629-11.528 7.629-18.526v-8.428l3.545-2.767c10.623-8.292 17.093-20.795 17.75-34.305l.037-.749c.05-1.012-.334-2-1.051-2.711z" fill="#D8D8D8" fill-rule="evenodd"/></symbol><symbol viewBox="0 0 52 52" id="slack" xmlns="http://www.w3.org/2000/svg"><path d="M26 52c14.36 0 26-11.64 26-26S40.36 0 26 0 0 11.64 0 26s11.64 26 26 26zm-3-27.462L24.465 29 29 27.446 27.535 23 23 24.562v-.024zm12.098 4.202l-2.073.694.72 2.147a1.66 1.66 0 0 1-1.048 2.099 1.68 1.68 0 0 1-2.12-1.048l-.72-2.143-4.28 1.43.719 2.145a1.665 1.665 0 0 1-1.639 2.185 1.688 1.688 0 0 1-1.541-1.133l-.719-2.16-2.081.7c-.2.06-.38.08-.58.08a1.692 1.692 0 0 1-1.54-1.14c-.3-.88.18-1.818 1.04-2.099l2.08-.7L20 25.68l-2.068.7c-.188.064-.38.088-.57.085-.66-.021-1.3-.45-1.522-1.13a1.667 1.667 0 0 1 1.061-2.1l2.08-.692-.72-2.14a1.664 1.664 0 0 1 1.062-2.1 1.652 1.652 0 0 1 2.098 1.044l.719 2.144 4.26-1.432-.72-2.14c-.279-.86.18-1.8 1.052-2.099.87-.281 1.812.18 2.1 1.055l.72 2.161 2.073-.68a1.663 1.663 0 0 1 2.1 1.039 1.66 1.66 0 0 1-1.045 2.1l-2.076.698 1.38 4.115 2.068-.688c.869-.282 1.81.18 2.1 1.06.293.88-.18 1.82-1.04 2.098l-.014-.038zm5.561-7.141c-3.3-10.99-8.065-13.56-19.06-10.259-10.99 3.299-13.56 8.061-10.259 19.061 3.3 10.993 8.061 13.56 19.061 10.258 10.993-3.3 13.56-8.06 10.258-19.06z" fill="#D8D8D8" fill-rule="evenodd"/></symbol><symbol viewBox="0 0 128 128" id="software-circle" xmlns="http://www.w3.org/2000/svg"><path d="M64 128c35.346 0 64-28.654 64-64 0-35.346-28.654-64-64-64C28.654 0 0 28.654 0 64c0 35.346 28.654 64 64 64zM30 26h69a4 4 0 0 1 4 4v69a4 4 0 0 1-4 4H30a4 4 0 0 1-4-4V30a4 4 0 0 1 4-4zm2.5 21h64a2.5 2.5 0 1 1 0 5h-64a2.5 2.5 0 1 1 0-5zm6-6a2.5 2.5 0 1 0 0-5 2.5 2.5 0 0 0 0 5zm8 0a2.5 2.5 0 1 0 0-5 2.5 2.5 0 0 0 0 5zm8 0a2.5 2.5 0 1 0 0-5 2.5 2.5 0 0 0 0 5z" fill="#D8D8D8" fill-rule="evenodd"/></symbol><symbol viewBox="0 0 56 56" id="star" xmlns="http://www.w3.org/2000/svg"><path d="M43.903 54.886c-.256 0-.514-.041-.762-.129L28 49.426l-15.136 5.331a2.282 2.282 0 0 1-2.1-.301 2.242 2.242 0 0 1-.936-1.883l.441-15.9L.472 24.067A2.225 2.225 0 0 1 .112 22c.232-.709.8-1.257 1.52-1.464l15.409-4.498 9.082-13.12c.844-1.223 2.902-1.223 3.753 0l9.084 13.12 15.409 4.498c.72.21 1.288.758 1.52 1.464.23.707.098 1.48-.36 2.067L45.73 36.674l.442 15.899c.02.74-.33 1.447-.937 1.883-.391.28-.858.43-1.333.43z" fill="#D8D8D8"/></symbol><symbol viewBox="0 0 52 52" id="telegram" xmlns="http://www.w3.org/2000/svg"><path d="M26 52c14.36 0 26-11.64 26-26S40.36 0 26 0 0 11.64 0 26s11.64 26 26 26zm-4.057-14.955c.67 0 .964-.306 1.34-.67l3.207-3.126-4.092-3.021m0 0l10.775 7.961c1.23.679 2.12.329 2.425-1.142l4.387-20.67c.451-1.802-.683-2.617-1.859-2.085l-25.762 9.936c-1.758.705-1.75 1.687-.32 2.125l6.612 2.06 15.302-9.652c.72-.436 1.385-.202.84.281" fill="#D8D8D8" fill-rule="evenodd"/></symbol><symbol viewBox="0 0 56 56" id="time" xmlns="http://www.w3.org/2000/svg"><path d="M28 0C12.536 0 0 12.536 0 28c0 15.462 12.536 28 28 28 15.463 0 28-12.537 28-28C56 12.535 43.463 0 28 0zm1.933 31.423c-.001.074-.012.147-.023.22-.007.056-.01.113-.023.167-.012.057-.034.112-.052.169-.022.068-.042.136-.07.2-.006.012-.008.024-.013.035a1.92 1.92 0 0 1-.144.254l-.012.015c-.06.09-.13.171-.204.247a1.854 1.854 0 0 1-.267.228c-.022.017-.043.034-.066.05-.093.06-.19.113-.29.157-.022.01-.045.015-.067.024a1.946 1.946 0 0 1-.356.101c-.115.02-.23.035-.348.035-.023 0-.048-.007-.071-.008a1.948 1.948 0 0 1-.33-.036c-.034-.007-.067-.022-.1-.03a1.965 1.965 0 0 1-.29-.1c-.011-.005-.022-.006-.033-.01l-10.736-5.065a1.937 1.937 0 0 1 1.651-3.503l7.974 3.76V11.62a1.937 1.937 0 0 1 3.873 0v19.768c0 .012-.003.023-.003.035z" fill="#D8D8D8"/></symbol><symbol viewBox="0 0 52 52" id="twitter" xmlns="http://www.w3.org/2000/svg"><path d="M26 52c14.36 0 26-11.64 26-26S40.36 0 26 0 0 11.64 0 26s11.64 26 26 26zm15.405-35.954c-1.16.51-2.4.857-3.704 1.016a6.5 6.5 0 0 0 2.836-3.57 13.324 13.324 0 0 1-4.1 1.552 6.45 6.45 0 0 0-11.158 4.402 6.6 6.6 0 0 0 .166 1.474c-5.362-.253-10.114-2.828-13.295-6.72a6.322 6.322 0 0 0-.873 3.244 6.451 6.451 0 0 0 2.869 5.37 6.43 6.43 0 0 1-2.921-.807v.08a6.454 6.454 0 0 0 5.173 6.328 6.55 6.55 0 0 1-2.9.112 6.472 6.472 0 0 0 6.036 4.48 12.937 12.937 0 0 1-8 2.76A13.4 13.4 0 0 1 10 35.678a18.349 18.349 0 0 0 9.908 2.897c11.87 0 18.353-9.828 18.353-18.337 0-.274 0-.55-.02-.826a13.026 13.026 0 0 0 3.225-3.34l-.061-.026z" fill="#D8D8D8" fill-rule="evenodd"/></symbol><symbol viewBox="0 0 52 52" id="yes" xmlns="http://www.w3.org/2000/svg"><path d="M52 25.999c0 14.36-11.641 25.999-26.001 25.999C11.639 51.998 0 40.358 0 25.999 0 11.637 11.641 0 25.999 0 40.357 0 52 11.637 52 25.999zm-13.643-5.997l-4.14-4.142-11.265 11.264-5.405-5.406-4.142 4.142 9.547 9.562 15.405-15.42z" fill="#27AE60"/></symbol></svg>
