<svg width="128" height="128" xmlns="http://www.w3.org/2000/svg"><path d="M64 128c35.346 0 64-28.654 64-64 0-35.346-28.654-64-64-64C28.654 0 0 28.654 0 64c0 35.346 28.654 64 64 64zm-.5-84c-11.244.004-21.042 7.798-23.767 18.903-2.725 11.106 2.322 22.675 12.242 28.062v9.138c0 5.466 4.353 9.897 9.721 9.897h3.608c5.368 0 9.72-4.43 9.72-9.897v-9.138c9.921-5.387 14.968-16.956 12.243-28.062C84.542 51.798 74.744 44.004 63.5 44zm.5-12c1.105 0 2-.864 2-1.93V19.93c0-1.066-.895-1.93-2-1.93s-2 .864-2 1.93v10.14c0 1.066.895 1.93 2 1.93zm45.793 31H98.207C96.988 63 96 63.895 96 65s.988 2 2.207 2h11.586c1.219 0 2.207-.895 2.207-2s-.988-2-2.207-2zm-80 0H18.207C16.988 63 16 63.895 16 65s.988 2 2.207 2h11.586C31.012 67 32 66.105 32 65s-.988-2-2.207-2zm10.558-19.65a2.213 2.213 0 0 0 0-3.131l-7.57-7.57a2.215 2.215 0 0 0-3.132 3.132l7.57 7.57a2.213 2.213 0 0 0 3.132 0zm59-10.7a2.213 2.213 0 0 0-3.132 0l-7.57 7.57a2.215 2.215 0 1 0 3.132 3.131l7.57-7.57a2.213 2.213 0 0 0 0-3.132z" fill="#D8D8D8" fill-rule="evenodd"/></svg>