<?xml version="1.0" encoding="UTF-8"?>
<svg width="56px" height="56px" viewBox="0 0 56 56" version="1.1" xmlns="http://www.w3.org/2000/svg" xmlns:xlink="http://www.w3.org/1999/xlink">
    <!-- Generator: Sketch 47.1 (45422) - http://www.bohemiancoding.com/sketch -->
    <title>bulb</title>
    <desc>Created with Sketch.</desc>
    <defs></defs>
    <g id="Icons" stroke="none" stroke-width="1" fill="none" fill-rule="evenodd">
        <g id="bulb" fill-rule="nonzero" fill="#BDC3C7">
            <g id="Group" transform="translate(1.000000, 3.000000)">
                <path d="M26.5,14 C20.3045961,14.0024069 14.9055484,18.2532147 13.4039355,24.310865 C11.9023226,30.3685154 14.683391,36.6788876 20.1497642,39.6174608 L20.1497642,44.6017994 C20.1497642,47.5831433 22.5478782,50 25.5061018,50 L27.4938982,50 C30.4521218,50 32.8502358,47.5831433 32.8502358,44.6017994 L32.8502358,39.6174608 C38.316609,36.6788876 41.0976774,30.3685154 39.5960645,24.310865 C38.0944516,18.2532147 32.6954039,14.0024069 26.5,14 Z" id="Shape"></path>
                <path d="M27.5,8 C28.3284271,8 29,7.50630986 29,6.8973122 L29,1.1026878 C29,0.493690145 28.3284271,0 27.5,0 C26.6715729,0 26,0.493690145 26,1.1026878 L26,6.8973122 C26,7.50630986 26.6715729,8 27.5,8 Z" id="Shape"></path>
                <path d="M52.7586207,25 L46.2413793,25 C45.5557844,25 45,25.6715729 45,26.5 C45,27.3284271 45.5557844,28 46.2413793,28 L52.7586207,28 C53.4442156,28 54,27.3284271 54,26.5 C54,25.6715729 53.4442156,25 52.7586207,25 Z" id="Shape"></path>
                <path d="M7.75862069,25 L1.24137931,25 C0.555784448,25 0,25.6715729 0,26.5 C0,27.3284271 0.555784448,28 1.24137931,28 L7.75862069,28 C8.44421555,28 9,27.3284271 9,26.5 C9,25.6715729 8.44421555,25 7.75862069,25 Z" id="Shape"></path>
                <path d="M12.7586207,9 L6.24137931,9 C5.55578445,9 5,9.67157288 5,10.5 C5,11.3284271 5.55578445,12 6.24137931,12 L12.7586207,12 C13.4442156,12 14,11.3284271 14,10.5 C14,9.67157288 13.4442156,9 12.7586207,9 Z" id="Shape" transform="translate(9.500000, 10.500000) rotate(45.000000) translate(-9.500000, -10.500000) "></path>
                <path d="M47.7586207,9 L41.2413793,9 C40.5557844,9 40,9.67157288 40,10.5 C40,11.3284271 40.5557844,12 41.2413793,12 L47.7586207,12 C48.4442156,12 49,11.3284271 49,10.5 C49,9.67157288 48.4442156,9 47.7586207,9 Z" id="Shape" transform="translate(44.500000, 10.500000) rotate(-45.000000) translate(-44.500000, -10.500000) "></path>
            </g>
        </g>
    </g>
</svg>