<svg width="56" height="56" xmlns="http://www.w3.org/2000/svg"><path d="M27.5 17c6.195.002 11.594 4.253 13.096 10.31 1.502 6.059-1.28 12.369-6.746 15.307v4.985c0 2.981-2.398 5.398-5.356 5.398h-1.988c-2.958 0-5.356-2.417-5.356-5.398v-4.985c-5.467-2.938-8.248-9.248-6.746-15.306C15.906 21.253 21.304 17.002 27.5 17zm0-6c-.828 0-1.5-.494-1.5-1.103V4.103C26 3.493 26.672 3 27.5 3s1.5.494 1.5 1.103v5.794c0 .61-.672 1.103-1.5 1.103zm26.259 17c.685 0 1.241.672 1.241 1.5s-.556 1.5-1.241 1.5H47.24C46.556 31 46 30.328 46 29.5s.556-1.5 1.241-1.5h6.518zm-45 0c.685 0 1.241.672 1.241 1.5S9.444 31 8.759 31H2.24C1.556 31 1 30.328 1 29.5S1.556 28 2.241 28H8.76zm5.106-14.256c.485.484.403 1.352-.183 1.938-.586.586-1.454.668-1.938.183l-4.609-4.609c-.485-.484-.403-1.352.183-1.938.586-.586 1.454-.668 1.938-.183l4.609 4.609zm30.879-4.609c.484-.485 1.352-.403 1.938.183.586.586.668 1.454.183 1.938l-4.609 4.609c-.484.485-1.352.403-1.938-.183-.586-.586-.668-1.454-.183-1.938l4.609-4.609z" fill-rule="nonzero" fill="#D8D8D8"/></svg>