<svg width="56" height="56" xmlns="http://www.w3.org/2000/svg"><path d="M46.126 6.716A27.814 27.814 0 0 0 32.216.324c-9.237-1.417-18.975 1.83-25.5 9.452-10.037 11.727-8.668 29.371 3.06 39.41a27.816 27.816 0 0 0 13.909 6.391c9.237 1.418 18.976-1.83 25.5-9.452 10.038-11.727 8.668-29.371-3.06-39.409zm5.417 29.343L43 33.114a15.963 15.963 0 0 0 .003-10.318l8.533-2.937a25.031 25.031 0 0 1 1.271 6.173 24.861 24.861 0 0 1-1.264 10.027zm.48-16.439v-.001.001zm-5.274-8.03l-6.801 5.908a16.049 16.049 0 0 0-1.65-1.636 15.833 15.833 0 0 0-7.286-3.524l1.715-8.813A24.819 24.819 0 0 1 44.16 9.032a25.369 25.369 0 0 1 2.589 2.559zm-27.28-7.068a24.604 24.604 0 0 1 3.716-1.016l1.713 8.832a15.837 15.837 0 0 0-8.936 5.156l-6.808-5.92a24.872 24.872 0 0 1 10.314-7.052zM4.36 19.842l8.54 2.945a15.964 15.964 0 0 0-.002 10.318l-8.54 2.94a25.08 25.08 0 0 1-1.266-6.164A24.88 24.88 0 0 1 4.36 19.842zm4.779 24.48l6.815-5.92a16.02 16.02 0 0 0 1.65 1.637 15.832 15.832 0 0 0 7.285 3.524l-1.724 8.862a24.878 24.878 0 0 1-11.427-5.53 25.241 25.241 0 0 1-2.6-2.573zm27.29 7.084a24.93 24.93 0 0 1-3.707 1.019l-1.719-8.862a15.837 15.837 0 0 0 8.937-5.156l6.81 5.923a24.92 24.92 0 0 1-10.321 7.076z" fill="#A0A0A0"/></svg>