<svg width="128" height="128" xmlns="http://www.w3.org/2000/svg"><path d="M64 128c35.346 0 64-28.654 64-64 0-35.346-28.654-64-64-64C28.654 0 0 28.654 0 64c0 35.346 28.654 64 64 64zm9.909-92.552a3.925 3.925 0 0 0-3.433 2.622L52.168 87.893a3.943 3.943 0 0 0 .654 3.88 3.919 3.919 0 0 0 6.702-1.135l18.308-49.822a3.942 3.942 0 0 0-.486-3.769 3.92 3.92 0 0 0-3.437-1.599zM43.79 44.667a3.917 3.917 0 0 0-1.716.574L15.92 60.974a3.936 3.936 0 0 0-1.917 3.38c0 1.387.728 2.671 1.917 3.38l26.154 15.734c1.206.775 2.74.83 3.998.14a3.935 3.935 0 0 0 2.042-3.448 3.935 3.935 0 0 0-2.036-3.453L25.565 64.375 46.079 52a3.938 3.938 0 0 0 1.798-4.59 3.924 3.924 0 0 0-4.086-2.744zm41.887 0a3.926 3.926 0 0 0-3.609 3.01A3.938 3.938 0 0 0 83.921 52l20.514 12.374-20.514 12.332a3.935 3.935 0 0 0-2.036 3.453 3.935 3.935 0 0 0 2.042 3.448 3.915 3.915 0 0 0 3.998-.14l26.154-15.734a3.936 3.936 0 0 0 1.917-3.38c0-1.387-.728-2.67-1.917-3.38L87.925 45.241a3.916 3.916 0 0 0-2.247-.574z" fill="#D8D8D8" fill-rule="evenodd"/></svg>