<?xml version="1.0" encoding="UTF-8"?>
<svg width="56px" height="56px" viewBox="0 0 56 56" version="1.1" xmlns="http://www.w3.org/2000/svg" xmlns:xlink="http://www.w3.org/1999/xlink">
    <!-- Generator: Sketch 47.1 (45422) - http://www.bohemiancoding.com/sketch -->
    <title>document</title>
    <desc>Created with Sketch.</desc>
    <defs></defs>
    <g id="Icons" stroke="none" stroke-width="1" fill="none" fill-rule="evenodd">
        <g id="document">
            <g id="Group" transform="translate(8.000000, 0.000000)">
                <path d="M1.27272757,3.76999299e-05 C0.588382134,1.8165057e-05 -0.000508761064,0.715723813 3.2983308e-07,1.30236256 L3.2983308e-07,54.6976751 C6.39661952e-05,55.3795724 0.606327588,55.9999349 1.27272757,56 L39.4545455,56 C40.1209455,55.9999349 40.7272091,55.3795724 40.7272727,54.6976751 L40.7272727,13.0232863 C40.7272727,12.6765748 40.5904545,12.3310355 40.3494636,12.0872403 L28.8949185,0.366316566 C28.6581276,0.131904603 28.3295094,-0.00258648466 28.0000003,3.76999299e-05 L1.27272757,3.76999299e-05 Z" id="Path" fill="#BDC3C7"></path>
                <path d="M3.05454545,3.05454545 L27.2363638,3.05454545 L27.2363638,13.2885794 C27.2364275,13.9583777 27.8426911,14.5677697 28.5090911,14.5678336 L38.6909091,14.5678336 L38.6909091,52.9454545 L3.05454545,52.9454545 L3.05454545,3.05454545 Z" id="Path" fill="#BDC3C7"></path>
                <polygon id="Path" fill="#FFFFFF" points="29.5272727 5.09090909 36.6545455 12.2181818 29.5272727 12.2181818"></polygon>
                <path d="M7.41010101,22.4 C6.69155313,22.4 6.10909091,23.08376 6.10909091,23.9272727 C6.10909091,24.7707855 6.69155313,25.4545455 7.41010101,25.4545455 L28.2262626,25.4545455 C28.9448105,25.4545455 29.5272727,24.7707855 29.5272727,23.9272727 C29.5272727,23.08376 28.9448105,22.4 28.2262626,22.4 L7.41010101,22.4 Z" id="Path" fill="#FFFFFF"></path>
                <path d="M7.35867769,32.5818182 C6.66853091,32.5818182 6.10909091,33.2655782 6.10909091,34.1090909 C6.10909091,34.9526036 6.66853091,35.6363636 7.35867769,35.6363636 L32.3504132,35.6363636 C33.04056,35.6363636 33.6,34.9526036 33.6,34.1090909 C33.6,33.2655782 33.04056,32.5818182 32.3504132,32.5818182 L7.35867769,32.5818182 Z" id="Path" fill="#FFFFFF"></path>
                <path d="M7.35867769,42.7636364 C6.66853091,42.7636364 6.10909091,43.4473964 6.10909091,44.2909091 C6.10909091,45.1344218 6.66853091,45.8181818 7.35867769,45.8181818 L32.3504132,45.8181818 C33.04056,45.8181818 33.6,45.1344218 33.6,44.2909091 C33.6,43.4473964 33.04056,42.7636364 32.3504132,42.7636364 L7.35867769,42.7636364 Z" id="Path" fill="#FFFFFF"></path>
            </g>
        </g>
    </g>
</svg>