<svg width="56" height="56" xmlns="http://www.w3.org/2000/svg"><path d="M9.273 0C8.588 0 7.999.716 8 1.302v53.396C8 55.38 8.606 56 9.273 56h38.182c.666 0 1.272-.62 1.272-1.302V13.023c0-.346-.137-.692-.378-.936L36.895.367A1.272 1.272 0 0 0 36 0H9.273zm28.254 5.09l7.128 7.128h-7.128V5.091zM15.41 22.4c-.718 0-1.3.684-1.3 1.527 0 .844.582 1.528 1.3 1.528h20.816c.719 0 1.301-.684 1.301-1.528 0-.843-.582-1.527-1.3-1.527H15.41zm-.051 10.182c-.69 0-1.25.684-1.25 1.527 0 .844.56 1.527 1.25 1.527H40.35c.69 0 1.25-.683 1.25-1.527 0-.843-.56-1.527-1.25-1.527H15.36zm0 10.182c-.69 0-1.25.683-1.25 1.527 0 .843.56 1.527 1.25 1.527H40.35c.69 0 1.25-.684 1.25-1.527 0-.844-.56-1.527-1.25-1.527H15.36z" fill="#D8D8D8" fill-rule="evenodd"/></svg>