<svg width="52" height="52" xmlns="http://www.w3.org/2000/svg"><path d="M26 52c14.36 0 26-11.64 26-26S40.36 0 26 0 0 11.64 0 26s11.64 26 26 26zM13.545 12c-.853 0-1.545.692-1.545 1.545v24.91c0 .854.692 1.545 1.545 1.545h13.41V29.157h-3.651v-4.224h3.65v-3.121c0-3.616 2.21-5.583 5.436-5.583 1.546 0 2.874.113 3.262.165v3.78H33.41c-1.75 0-2.091.84-2.091 2.066v2.696H35.5l-.542 4.235H31.32V40h7.134C39.31 40 40 39.31 40 38.455v-24.91c0-.853-.69-1.545-1.545-1.545h-24.91z" fill="#D8D8D8" fill-rule="evenodd"/></svg>