<svg width="54" height="54" xmlns="http://www.w3.org/2000/svg"><g fill-rule="nonzero" fill="none"><path d="M15.173 49.12c-2.484-2.816-4.969-5.746-6.55-9.238-1.58-3.718-2.033-7.999-1.242-12.055.79-4.056 2.597-10.487 5.195-13.754-.226 2.817.79 8.347 2.71 10.487-1.129-5.408 3.589-11.266 7.203-15.547C26.103 4.732 31.072 1.915 36.267 0c-2.598 2.704-2.937 6.985-1.92 10.59 1.016 3.605 4.153 6.937 5.082 10.027.929 3.09.816 6.647.929 10.365 1.374-1.519 1.611-2.118 2.823-4.289 1.212-2.17 1.016-4.393.452-6.534 2.032 2.479 3.162 4.957 3.726 8.112.565 3.154.452 4.739.113 7.893-.451 3.493-1.355 7.098-3.275 10.027-2.258 3.492-5.872 5.97-9.825 7.323-7.002 1.24-13.89.225-19.199-4.394z" fill="#F3705A"/><path d="M24.708 53.132c9.333 3.627 18.551-4.749 13.43-13.25 0-.113-.761 2.277-2.924 4.204 1.138-2.72 1.432-7.724-2.686-12.144-2.558-2.746-2.834-6.58-2.151-9.527-2.732 2.04-5.594 5.1-6.39 8.388-.798 3.287-2.352 6.914-.872 9.974-1.707-1.247-2.96-3.287-3.073-5.44-1.821 2.153-2.96 4.987-2.846 7.82 0 4.42 3.529 8.388 7.512 9.975z" fill="#FFD15C"/></g></svg>