<svg width="56" height="56" xmlns="http://www.w3.org/2000/svg"><path d="M52.5 22.75h-4.188a20.843 20.843 0 0 0-2.229-5.402l2.964-2.963a3.5 3.5 0 0 0 0-4.953L46.573 6.96a3.5 3.5 0 0 0-4.952 0l-2.97 2.958a20.843 20.843 0 0 0-5.401-2.229V3.5a3.5 3.5 0 0 0-3.5-3.5h-3.5a3.5 3.5 0 0 0-3.5 3.5v4.188a20.843 20.843 0 0 0-5.402 2.229l-2.963-2.964a3.5 3.5 0 0 0-4.953 0L6.96 9.427a3.5 3.5 0 0 0 0 4.952l2.958 2.97a20.843 20.843 0 0 0-2.229 5.401H3.5a3.5 3.5 0 0 0-3.5 3.5v3.5a3.5 3.5 0 0 0 3.5 3.5h4.188a20.843 20.843 0 0 0 2.229 5.402l-2.964 2.963a3.5 3.5 0 0 0 0 4.953l2.474 2.473a3.5 3.5 0 0 0 4.952 0l2.97-2.958a20.843 20.843 0 0 0 5.401 2.229V52.5a3.5 3.5 0 0 0 3.5 3.5h3.5a3.5 3.5 0 0 0 3.5-3.5v-4.188a20.843 20.843 0 0 0 5.402-2.229l2.963 2.964a3.5 3.5 0 0 0 4.953 0l2.473-2.474a3.5 3.5 0 0 0 0-4.952l-2.958-2.97a20.843 20.843 0 0 0 2.229-5.401H52.5a3.5 3.5 0 0 0 3.5-3.5v-3.5a3.5 3.5 0 0 0-3.5-3.5zM28 36.655a8.654 8.654 0 1 1 0-17.31 8.654 8.654 0 0 1 0 17.31z" fill-rule="nonzero" fill="#D8D8D8"/></svg>