<svg width="128" height="128" xmlns="http://www.w3.org/2000/svg"><path d="M64 128c35.346 0 64-28.654 64-64 0-35.346-28.654-64-64-64C28.654 0 0 28.654 0 64c0 35.346 28.654 64 64 64zm37.688-71.469H95.33a31.636 31.636 0 0 0-3.382-8.199l4.498-4.498a5.312 5.312 0 0 0 0-7.517l-3.754-3.754a5.313 5.313 0 0 0-7.518 0l-4.506 4.49a31.636 31.636 0 0 0-8.2-3.383v-6.358A5.313 5.313 0 0 0 67.157 22h-5.312a5.313 5.313 0 0 0-5.313 5.313v6.357a31.636 31.636 0 0 0-8.199 3.382l-4.498-4.498a5.312 5.312 0 0 0-7.517 0l-3.754 3.754a5.313 5.313 0 0 0 0 7.518l4.49 4.506a31.636 31.636 0 0 0-3.383 8.2h-6.358A5.313 5.313 0 0 0 22 61.843v5.312a5.313 5.313 0 0 0 5.313 5.313h6.357a31.636 31.636 0 0 0 3.382 8.199l-4.498 4.498a5.312 5.312 0 0 0 0 7.517l3.754 3.754a5.313 5.313 0 0 0 7.518 0l4.506-4.49a31.636 31.636 0 0 0 8.2 3.383v6.358A5.312 5.312 0 0 0 61.843 107h5.312a5.312 5.312 0 0 0 5.313-5.313V95.33a31.636 31.636 0 0 0 8.199-3.382l4.498 4.498a5.312 5.312 0 0 0 7.517 0l3.754-3.754a5.313 5.313 0 0 0 0-7.518l-4.49-4.506a31.636 31.636 0 0 0 3.383-8.2h6.358A5.312 5.312 0 0 0 107 67.157v-5.312a5.312 5.312 0 0 0-5.313-5.313zM64.5 77.781a13.281 13.281 0 1 1 0-26.562 13.281 13.281 0 0 1 0 26.562z" fill="#D8D8D8" fill-rule="evenodd"/></svg>