<svg width="52" height="52" xmlns="http://www.w3.org/2000/svg"><path d="M26 52c14.36 0 26-11.64 26-26S40.36 0 26 0 0 11.64 0 26s11.64 26 26 26zm-.076-41C17.678 11 11 17.682 11 25.924c0 6.595 4.276 12.188 10.204 14.159.746.14 1.02-.321 1.02-.718 0-.354-.012-1.293-.019-2.537-4.151.9-5.027-2.002-5.027-2.002-.679-1.723-1.66-2.183-1.66-2.183-1.352-.925.105-.906.105-.906 1.498.104 2.285 1.537 2.285 1.537 1.331 2.282 3.494 1.623 4.347 1.241.134-.965.519-1.623.945-1.996-3.314-.373-6.798-1.657-6.798-7.375 0-1.63.579-2.96 1.536-4.005-.168-.376-.671-1.894.13-3.95 0 0 1.25-.4 4.105 1.53a14.307 14.307 0 0 1 3.73-.503c1.27.007 2.538.171 3.732.503 2.835-1.93 4.085-1.53 4.085-1.53.802 2.056.299 3.574.15 3.95.95 1.045 1.53 2.376 1.53 4.005 0 5.733-3.49 6.996-6.81 7.362.523.448 1.008 1.364 1.008 2.761 0 1.998-.02 3.602-.02 4.087 0 .392.262.858 1.027.709 5.97-1.958 10.243-7.554 10.243-14.14 0-8.24-6.682-14.923-14.924-14.923" fill="#D8D8D8" fill-rule="evenodd"/></svg>