<svg width="52" height="52" xmlns="http://www.w3.org/2000/svg"><path d="M26 52C11.64 52 0 40.36 0 26S11.64 0 26 0s26 11.64 26 26-11.64 26-26 26zm11.93-39H14.065C12.924 13 12 13.903 12 15.017v23.966c0 1.115.924 2.017 2.066 2.017h23.86c1.14 0 2.074-.902 2.074-2.017V15.017C40 13.903 39.067 13 37.926 13h.003zm-2.075 23.86h-4.146v-6.497c0-1.549-.032-3.543-2.161-3.543-2.162 0-2.492 1.686-2.492 3.43v6.61H22.91V23.5h3.982v1.821h.054c.557-1.05 1.91-2.158 3.932-2.158 4.201 0 4.978 2.765 4.978 6.364v7.334h-.001zM18.227 21.673a2.406 2.406 0 0 1-2.407-2.41 2.408 2.408 0 1 1 2.407 2.41zm2.078 15.189h-4.157V23.5h4.157v13.36z" fill="#D8D8D8"/></svg>