<?xml version="1.0" encoding="UTF-8"?>
<svg width="56px" height="56px" viewBox="0 0 56 56" version="1.1" xmlns="http://www.w3.org/2000/svg" xmlns:xlink="http://www.w3.org/1999/xlink">
    <!-- Generator: Sketch 47.1 (45422) - http://www.bohemiancoding.com/sketch -->
    <title>loading</title>
    <desc>Created with Sketch.</desc>
    <defs></defs>
    <g id="Icons" stroke="none" stroke-width="1" fill="none" fill-rule="evenodd">
        <g id="loading" fill-rule="nonzero" fill="#BDC3C7">
            <path d="M52.5,22.75 L48.3116667,22.75 C47.826221,20.8537411 47.0760731,19.0353197 46.0833333,17.3483333 L49.0466667,14.385 C49.7038863,13.7285111 50.07317,12.8376824 50.07317,11.90875 C50.07317,10.9798176 49.7038863,10.0889889 49.0466667,9.4325 L46.5733333,6.95916667 C45.9168444,6.30194702 45.0260157,5.93266337 44.0970833,5.93266337 C43.168151,5.93266337 42.2773222,6.30194702 41.6208333,6.95916667 L38.6516667,9.91666667 C36.9646803,8.92392688 35.1462589,8.17377897 33.25,7.68833333 L33.25,3.5 C33.25,1.56700338 31.6829966,2.59052039e-16 29.75,0 L26.25,0 C24.3170034,-2.59052039e-16 22.75,1.56700338 22.75,3.5 L22.75,7.68833333 C20.8537411,8.17377897 19.0353197,8.92392688 17.3483333,9.91666667 L14.385,6.95333333 C13.7285111,6.29611368 12.8376824,5.92683004 11.90875,5.92683004 C10.9798176,5.92683004 10.0889889,6.29611368 9.4325,6.95333333 L6.95916667,9.42666667 C6.30194702,10.0831556 5.93266337,10.9739843 5.93266337,11.9029167 C5.93266337,12.831849 6.30194702,13.7226778 6.95916667,14.3791667 L9.91666667,17.3483333 C8.92392688,19.0353197 8.17377897,20.8537411 7.68833333,22.75 L3.5,22.75 C1.56700338,22.75 2.59052039e-16,24.3170034 0,26.25 L0,29.75 C2.59052039e-16,31.6829966 1.56700338,33.25 3.5,33.25 L7.68833333,33.25 C8.17377897,35.1462589 8.92392688,36.9646803 9.91666667,38.6516667 L6.95333333,41.615 C6.29611368,42.2714889 5.92683004,43.1623176 5.92683004,44.09125 C5.92683004,45.0201824 6.29611368,45.9110111 6.95333333,46.5675 L9.42666667,49.0408333 C10.0831556,49.698053 10.9739843,50.0673366 11.9029167,50.0673366 C12.831849,50.0673366 13.7226778,49.698053 14.3791667,49.0408333 L17.3483333,46.0833333 C19.0353197,47.0760731 20.8537411,47.826221 22.75,48.3116667 L22.75,52.5 C22.75,54.4329966 24.3170034,56 26.25,56 L29.75,56 C31.6829966,56 33.25,54.4329966 33.25,52.5 L33.25,48.3116667 C35.1462589,47.826221 36.9646803,47.0760731 38.6516667,46.0833333 L41.615,49.0466667 C42.2714889,49.7038863 43.1623176,50.07317 44.09125,50.07317 C45.0201824,50.07317 45.9110111,49.7038863 46.5675,49.0466667 L49.0408333,46.5733333 C49.698053,45.9168444 50.0673366,45.0260157 50.0673366,44.0970833 C50.0673366,43.168151 49.698053,42.2773222 49.0408333,41.6208333 L46.0833333,38.6516667 C47.0760731,36.9646803 47.826221,35.1462589 48.3116667,33.25 L52.5,33.25 C54.4329966,33.25 56,31.6829966 56,29.75 L56,26.25 C56,24.3170034 54.4329966,22.75 52.5,22.75 Z M28.0001265,36.6545455 C24.4997408,36.6545455 21.3440256,34.545964 20.0044859,31.3120292 C18.6649463,28.0780945 19.4053817,24.3556746 21.8805281,21.8805281 C24.3556746,19.4053817 28.0780945,18.6649463 31.3120292,20.0044859 C34.545964,21.3440256 36.6545455,24.4997408 36.6545455,28.0001265 C36.6545455,30.2954211 35.7427432,32.4967064 34.1197248,34.1197248 C32.4967064,35.7427432 30.2954211,36.6545455 28.0001265,36.6545455 Z" id="Shape"></path>
        </g>
    </g>
</svg>