<svg width="52" height="52" xmlns="http://www.w3.org/2000/svg"><path d="M26 52c14.36 0 26-11.64 26-26S40.36 0 26 0 0 11.64 0 26s11.64 26 26 26zM14.557 19.692a1.1 1.1 0 0 0-.378-.947l-2.8-3.259V15h8.696l6.723 14.237L32.707 15H41v.486l-2.396 2.218a.666.666 0 0 0-.267.65v16.294a.666.666 0 0 0 .267.648l2.337 2.218V38H29.18v-.486l2.421-2.272c.237-.23.237-.297.237-.65v-13.17L25.1 37.945h-.909l-7.843-16.521v11.073c-.066.466.095.934.433 1.27l3.15 3.694v.486H11v-.487l3.15-3.693c.338-.336.487-.809.407-1.27V19.692z" fill="#D8D8D8" fill-rule="evenodd"/></svg>