<svg width="52" height="52" xmlns="http://www.w3.org/2000/svg"><path d="M26 52c14.36 0 26-11.64 26-26S40.36 0 26 0 0 11.64 0 26s11.64 26 26 26zM12.981 28.652a5.394 5.394 0 0 0-.123 1.145c0 4.658 5.955 8.454 13.276 8.454 7.318 0 13.273-3.793 13.273-8.454 0-.37-.04-.738-.111-1.094l-.02-.043a.617.617 0 0 1-.04-.223c-.408-1.59-1.51-3.032-3.105-4.198a.572.572 0 0 1-.17-.095c-.036-.027-.062-.056-.091-.086-2.425-1.67-5.893-2.716-9.735-2.716-3.808 0-7.242 1.026-9.666 2.666a.537.537 0 0 1-.242.168c-1.632 1.166-2.763 2.62-3.185 4.224a.614.614 0 0 1-.05.231l-.01.02zm13.22 7.36c-2.426 0-4.135-.526-5.225-1.62a.608.608 0 0 1 0-.854.635.635 0 0 1 .859 0c.852.85 2.28 1.275 4.367 1.275 2.086 0 3.505-.405 4.354-1.256.223-.222.609-.222.85 0a.652.652 0 0 1 0 .872c-1.093 1.093-2.792 1.62-5.223 1.62l.019-.037zm-4.877-10.244a2.292 2.292 0 0 0-2.269 2.268c0 1.231 1.032 2.232 2.269 2.232a2.232 2.232 0 0 0 2.233-2.232c0-1.233-1-2.268-2.233-2.268zm9.784 0c-1.236 0-2.27 1.035-2.27 2.268 0 1.231 1.034 2.232 2.27 2.232a2.232 2.232 0 0 0 2.233-2.232c0-1.233-1-2.268-2.233-2.268zm6.152-2.158c1.403 1.127 2.435 2.463 2.961 3.928a2.426 2.426 0 0 0 .973-1.96 2.46 2.46 0 0 0-3.934-1.965v-.003zm-23.593-.486a2.46 2.46 0 0 0-1.587 4.339c.543-1.46 1.586-2.777 2.994-3.89a2.463 2.463 0 0 0-1.405-.446v-.003h-.002zm12.468 16.34c-7.989 0-14.486-4.335-14.486-9.661 0-.372.031-.736.092-1.094A3.683 3.683 0 0 1 10 25.579c0-2.024 1.66-3.67 3.686-3.67a3.65 3.65 0 0 1 2.431.922c2.51-1.611 5.894-2.626 9.62-2.695l2.452-7.472.546.128s.022 0 .022.003l5.712 1.343a3.026 3.026 0 0 1 5.811 1.182 3.025 3.025 0 0 1-3.017 3.023 3.025 3.025 0 0 1-3.017-3.017l-5.21-1.234-1.984 6.056c3.585.143 6.828 1.156 9.259 2.734a3.602 3.602 0 0 1 2.48-.972 3.674 3.674 0 0 1 3.676 3.667c0 1.335-.73 2.551-1.864 3.2.039.344.08.667.08 1.012-.02 5.327-6.502 9.663-14.502 9.663l-.046.012zM37.2 13.51a1.811 1.811 0 1 0 0 3.623c.99 0 1.8-.812 1.8-1.805a1.81 1.81 0 0 0-1.823-1.801l.023-.017z" fill="#D8D8D8" fill-rule="evenodd"/></svg>