<svg width="128" height="128" xmlns="http://www.w3.org/2000/svg"><path d="M64 128c35.346 0 64-28.654 64-64 0-35.346-28.654-64-64-64C28.654 0 0 28.654 0 64c0 35.346 28.654 64 64 64zM38.45 85l-3.669 1.827a6.577 6.577 0 0 0-3.63 5.439l-.145 2.124a2.443 2.443 0 0 0 2.604 2.604l2.125-.145a6.577 6.577 0 0 0 5.438-3.63L43 89.549m57.945-63.524a3.53 3.53 0 0 0-2.711-1.018l-1.424.092c-12.77.82-24.72 7.02-32.788 17.01l-3.353 4.152-8.772-.26c-7.003 0-13.544 2.725-18.464 7.674l-8.985 9.038a1.545 1.545 0 0 0-.346 1.64 1.53 1.53 0 0 0 1.35.984l19.02.983-.776.96a1.546 1.546 0 0 0-.157 1.705c.298.551.61 1.094.936 1.627l-4.51 5.386a1.546 1.546 0 0 0-.213 1.65 20.16 20.16 0 0 0 3.887 5.592 20.027 20.027 0 0 0 5.675 4.026 1.52 1.52 0 0 0 1.618-.196c.972-.793 2.092-1.733 3.175-2.643.773-.648 1.563-1.311 2.301-1.922.44.266.887.525 1.34.773a1.52 1.52 0 0 0 1.669-.136l1.042-.814.982 19.212a1.538 1.538 0 0 0 1.527 1.46c.398 0 .79-.157 1.081-.45l8.986-9.039c4.92-4.949 7.629-11.528 7.629-18.526v-8.428l3.545-2.767c10.623-8.292 17.093-20.795 17.75-34.305l.037-.749c.05-1.012-.334-2-1.051-2.711z" fill="#D8D8D8" fill-rule="evenodd"/></svg>