<svg width="52" height="52" xmlns="http://www.w3.org/2000/svg"><path d="M26 52c14.36 0 26-11.64 26-26S40.36 0 26 0 0 11.64 0 26s11.64 26 26 26zm-3-27.462L24.465 29 29 27.446 27.535 23 23 24.562v-.024zm12.098 4.202l-2.073.694.72 2.147a1.66 1.66 0 0 1-1.048 2.099 1.68 1.68 0 0 1-2.12-1.048l-.72-2.143-4.28 1.43.719 2.145a1.665 1.665 0 0 1-1.639 2.185 1.688 1.688 0 0 1-1.541-1.133l-.719-2.16-2.081.7c-.2.06-.38.08-.58.08a1.692 1.692 0 0 1-1.54-1.14c-.3-.88.18-1.818 1.04-2.099l2.08-.7L20 25.68l-2.068.7c-.188.064-.38.088-.57.085-.66-.021-1.3-.45-1.522-1.13a1.667 1.667 0 0 1 1.061-2.1l2.08-.692-.72-2.14a1.664 1.664 0 0 1 1.062-2.1 1.652 1.652 0 0 1 2.098 1.044l.719 2.144 4.26-1.432-.72-2.14c-.279-.86.18-1.8 1.052-2.099.87-.281 1.812.18 2.1 1.055l.72 2.161 2.073-.68a1.663 1.663 0 0 1 2.1 1.039 1.66 1.66 0 0 1-1.045 2.1l-2.076.698 1.38 4.115 2.068-.688c.869-.282 1.81.18 2.1 1.06.293.88-.18 1.82-1.04 2.098l-.014-.038zm5.561-7.141c-3.3-10.99-8.065-13.56-19.06-10.259-10.99 3.299-13.56 8.061-10.259 19.061 3.3 10.993 8.061 13.56 19.061 10.258 10.993-3.3 13.56-8.06 10.258-19.06z" fill="#D8D8D8" fill-rule="evenodd"/></svg>