<?xml version="1.0" encoding="UTF-8"?>
<svg width="56px" height="56px" viewBox="0 0 56 56" version="1.1" xmlns="http://www.w3.org/2000/svg" xmlns:xlink="http://www.w3.org/1999/xlink">
    <!-- Generator: Sketch 47.1 (45422) - http://www.bohemiancoding.com/sketch -->
    <title>star</title>
    <desc>Created with Sketch.</desc>
    <defs></defs>
    <g id="Icons" stroke="none" stroke-width="1" fill="none" fill-rule="evenodd">
        <g id="star" fill-rule="nonzero" fill="#BDC3C7">
            <path d="M43.9032048,54.8859523 C43.6474411,54.8859523 43.3893523,54.8445187 43.140564,54.7570478 L28.0016789,49.4259256 L12.8651189,54.7570478 C12.1606062,55.0102531 11.3747141,54.8928579 10.7655315,54.4555033 C10.158674,54.0204506 9.80758025,53.3137776 9.82850637,52.5725767 L10.27028,36.6735866 L0.4722057,24.0662652 C0.0141561884,23.4792893 -0.120701028,22.7058623 0.111811414,21.9991893 C0.344323856,21.2902145 0.911654215,20.7423704 1.63244279,20.5352024 L17.0410423,16.0373558 L26.1229783,2.91671823 C26.9669985,1.69442726 29.0247336,1.69442726 29.8757291,2.91671823 L38.9599903,16.0373558 L54.3685898,20.5352024 C55.0893784,20.7446722 55.6567087,21.2925164 55.8892212,21.9991893 C56.1194085,22.7058623 55.9868764,23.4792893 55.5288269,24.0662652 L45.7307526,36.6735866 L46.1725262,52.5725767 C46.1934523,53.3137776 45.8423585,54.0204506 45.2355011,54.4555033 C44.8448802,54.736331 44.3775302,54.8859523 43.9032048,54.8859523 Z" id="Shape"></path>
        </g>
    </g>
</svg>