<svg width="56" height="56" xmlns="http://www.w3.org/2000/svg"><path d="M43.903 54.886c-.256 0-.514-.041-.762-.129L28 49.426l-15.136 5.331a2.282 2.282 0 0 1-2.1-.301 2.242 2.242 0 0 1-.936-1.883l.441-15.9L.472 24.067A2.225 2.225 0 0 1 .112 22c.232-.709.8-1.257 1.52-1.464l15.409-4.498 9.082-13.12c.844-1.223 2.902-1.223 3.753 0l9.084 13.12 15.409 4.498c.72.21 1.288.758 1.52 1.464.23.707.098 1.48-.36 2.067L45.73 36.674l.442 15.899c.02.74-.33 1.447-.937 1.883-.391.28-.858.43-1.333.43z" fill="#D8D8D8"/></svg>