<svg width="52" height="52" xmlns="http://www.w3.org/2000/svg"><path d="M26 52c14.36 0 26-11.64 26-26S40.36 0 26 0 0 11.64 0 26s11.64 26 26 26zm15.405-35.954c-1.16.51-2.4.857-3.704 1.016a6.5 6.5 0 0 0 2.836-3.57 13.324 13.324 0 0 1-4.1 1.552 6.45 6.45 0 0 0-11.158 4.402 6.6 6.6 0 0 0 .166 1.474c-5.362-.253-10.114-2.828-13.295-6.72a6.322 6.322 0 0 0-.873 3.244 6.451 6.451 0 0 0 2.869 5.37 6.43 6.43 0 0 1-2.921-.807v.08a6.454 6.454 0 0 0 5.173 6.328 6.55 6.55 0 0 1-2.9.112 6.472 6.472 0 0 0 6.036 4.48 12.937 12.937 0 0 1-8 2.76A13.4 13.4 0 0 1 10 35.678a18.349 18.349 0 0 0 9.908 2.897c11.87 0 18.353-9.828 18.353-18.337 0-.274 0-.55-.02-.826a13.026 13.026 0 0 0 3.225-3.34l-.061-.026z" fill="#D8D8D8" fill-rule="evenodd"/></svg>