<?xml version="1.0" encoding="UTF-8"?>
<svg width="128px" height="128px" viewBox="0 0 128 128" version="1.1" xmlns="http://www.w3.org/2000/svg" xmlns:xlink="http://www.w3.org/1999/xlink">
    <!-- Generator: Sketch 46.2 (44496) - http://www.bohemiancoding.com/sketch -->
    <title>telegram-footer</title>
    <desc>Created with Sketch.</desc>
    <defs></defs>
    <g id="Icons" stroke="none" stroke-width="1" fill="none" fill-rule="evenodd">
        <g id="telegram-footer" fill-rule="nonzero">
            <g id="Telegram_logo">
                <circle id="Oval" fill="#ECF0F1" cx="64" cy="64" r="64"></circle>
                <path d="M52.2666667,93.3333333 C50.19328,93.3333333 50.5456,92.5504533 49.8305067,90.5762667 L43.7333333,70.5098133 L90.6666667,42.6666667" id="Shape" fill="#6E7070"></path>
                <path d="M52.2666667,93.3333333 C53.8666667,93.3333333 54.5736,92.6016 55.4666667,91.7333333 L64,83.4357333 L53.3557333,77.0170667" id="Shape" fill="#6E7070"></path>
                <path d="M53.3546667,77.0186667 L79.1466667,96.0741333 C82.0898667,97.69808 84.21408,96.85728 84.9472,93.3416 L95.4458667,43.868 C96.5207467,39.55856 93.8031467,37.604 90.98752,38.8822933 L29.33952,62.6534933 C25.1314667,64.3413333 25.156,66.6890133 28.57248,67.7350933 L44.3927467,72.6728533 L81.0183467,49.5661867 C82.74736,48.5177067 84.33424,49.081392 83.0317867,50.2373333" id="Shape" fill="#333333"></path>
            </g>
        </g>
    </g>
</svg>