<?xml version="1.0" encoding="UTF-8"?>
<svg width="128px" height="128px" viewBox="0 0 128 128" version="1.1" xmlns="http://www.w3.org/2000/svg" xmlns:xlink="http://www.w3.org/1999/xlink">
    <!-- Generator: Sketch 46.2 (44496) - http://www.bohemiancoding.com/sketch -->
    <title>twitter-footer</title>
    <desc>Created with Sketch.</desc>
    <defs></defs>
    <g id="Icons" stroke="none" stroke-width="1" fill="none" fill-rule="evenodd">
        <g id="twitter-footer" fill-rule="nonzero">
            <g id="Twitter">
                <circle id="twitter-back" fill="#ECF0F1" cx="64" cy="64" r="64"></circle>
                <path d="M99.8398,41.7695 C97.2031,42.9395 94.3691,43.7295 91.3936,44.085 C94.4287,42.2646 96.7617,39.3828 97.8594,35.9487 C95.0186,37.6338 91.8711,38.8584 88.5215,39.5176 C85.8389,36.6592 82.0166,34.874 77.7871,34.874 C69.6641,34.874 63.0806,41.458 63.0806,49.5791 C63.0806,50.7324 63.2109,51.8545 63.4614,52.9307 C51.2393,52.3174 40.4033,46.4629 33.1504,37.5659 C31.8843,39.7373 31.1592,42.2637 31.1592,44.959 C31.1592,50.0605 33.7554,54.5615 37.7012,57.1987 C35.2905,57.123 33.0229,56.4609 31.0405,55.3594 C31.0391,55.4209 31.0391,55.4824 31.0391,55.5449 C31.0391,62.6699 36.1084,68.6133 42.8359,69.9648 C41.6016,70.3008 40.3022,70.4805 38.9614,70.4805 C38.0137,70.4805 37.0923,70.3877 36.1943,70.2168 C38.0659,76.0586 43.4966,80.3105 49.9321,80.4287 C44.8989,84.374 38.5581,86.7246 31.6675,86.7246 C30.4805,86.7246 29.3105,86.6553 28.1602,86.5195 C34.6685,90.6924 42.3979,93.126 50.7031,93.126 C77.7529,93.126 92.5449,70.7178 92.5449,51.2842 C92.5449,50.6465 92.5303,50.0127 92.502,49.3818 C95.375,47.3086 97.8691,44.7188 99.8398,41.7695 Z" id="twitter-twitter" fill="#333333"></path>
            </g>
        </g>
    </g>
</svg>