<?xml version="1.0" encoding="UTF-8"?>
<svg width="200px" height="200px" viewBox="0 0 200 200" version="1.1" xmlns="http://www.w3.org/2000/svg" xmlns:xlink="http://www.w3.org/1999/xlink">
    <!-- Generator: Sketch 46.2 (44496) - http://www.bohemiancoding.com/sketch -->
    <title>crypto101-token</title>
    <desc>Created with Sketch.</desc>
    <defs>
        <linearGradient x1="100%" y1="50%" x2="50%" y2="50%" id="linearGradient-1">
            <stop stop-color="#27AE60" offset="0%"></stop>
            <stop stop-color="#2ECC71" offset="100%"></stop>
        </linearGradient>
        <path d="M39,9.90395441 C37.3604579,7.65888789 35.1744017,5.30691345 32.113923,3.06184693 C23.2603954,-3.2457209 13.6417481,1.67204385 9.26963573,4.66546587 C8.28591044,5.30691345 8.61381887,6.80362446 9.81614977,6.91053239 C12.4394172,7.3381641 16.3743184,8.30033547 19.8720083,10.3315861 C10.6905723,11.2937575 3.58588961,18.135865 0.306805319,21.9845504 C-0.45831435,22.8398139 0.306805319,24.122709 1.50913623,23.9088931 C5.77194581,23.1605376 13.6417481,22.1983663 20.3092195,23.5881694 C14.1882622,28.1852103 14.297565,35.9894892 14.844079,40.0519905 C14.9533818,41.0141618 16.2650156,41.3348856 16.8115296,40.5865301 C19.1068886,37.5931081 23.9162122,32.7822513 30.1464724,31.9269878 C31.4581061,31.7844439 32.8426084,31.748808 34.2999792,31.8200799 C35.4017984,31.8200799 36.968472,31.8200799 39,31.8200799 C39,15.8767339 39,10.9217971 39,9.90395441 Z" id="path-2"></path>
        <linearGradient x1="100%" y1="50%" x2="25.5685975%" y2="50%" id="linearGradient-3">
            <stop stop-color="#27AE60" offset="0%"></stop>
            <stop stop-color="#2ECC71" offset="100%"></stop>
        </linearGradient>
        <path d="M78,9.90395441 C76.3604579,7.65888789 74.1744017,5.30691345 71.113923,3.06184693 C62.2603954,-3.2457209 52.6417481,1.67204385 48.2696357,4.66546587 C47.2859104,5.30691345 47.6138189,6.80362446 48.8161498,6.91053239 C51.4394172,7.3381641 55.3743184,8.30033547 58.8720083,10.3315861 C49.6905723,11.2937575 42.5858896,18.135865 39.3068053,21.9845504 C38.5416857,22.8398139 39.3068053,24.122709 40.5091362,23.9088931 C44.7719458,23.1605376 52.6417481,22.1983663 59.3092195,23.5881694 C53.1882622,28.1852103 53.297565,35.9894892 53.844079,40.0519905 C53.9533818,41.0141618 55.2650156,41.3348856 55.8115296,40.5865301 C58.1068886,37.5931081 62.9162122,32.7822513 69.1464724,31.9269878 C70.4581061,31.7844439 71.8426084,31.748808 73.2999792,31.8200799 C74.4017984,31.8200799 75.968472,31.8200799 78,31.8200799 C78,15.8767339 78,10.9217971 78,9.90395441 Z" id="path-4"></path>
        <linearGradient x1="50%" y1="-53.1958719%" x2="50%" y2="143.675649%" id="linearGradient-5">
            <stop stop-color="#F9D423" offset="0%"></stop>
            <stop stop-color="#FF4E50" offset="100%"></stop>
        </linearGradient>
    </defs>
    <g id="Icons" stroke="none" stroke-width="1" fill="none" fill-rule="evenodd">
        <g id="crypto101-token">
            <circle id="Oval" stroke="#333333" stroke-width="5" fill="#F1C40F" opacity="0.936537591" cx="101" cy="100" r="95"></circle>
            <circle id="Oval" stroke="#333333" stroke-width="5" fill="#F8E082" cx="101" cy="100" r="53.4375"></circle>
            <path d="M100.600473,46.3432667 L100.600473,5.25410271 C120.284073,6.72653062 132.33515,9.01510979 136.753705,12.1198402 C121.517417,50.71875 137.146029,12.1198402 121.909741,50.71875 C118.47507,48.9429683 111.371981,47.4844739 100.600473,46.3432667 Z" id="Path-17" fill="#2ECC71"></path>
            <path d="M146.810912,80.7131181 L146.810912,39.623954 C166.494512,41.0963819 178.545589,43.3849611 182.964143,46.4896915 C167.727856,85.0886013 183.356468,46.4896915 168.12018,85.0886013 C164.685509,83.3128196 157.58242,81.8543252 146.810912,80.7131181 Z" id="Path-17" fill="#2ECC71" transform="translate(164.887528, 62.356278) rotate(45.000000) translate(-164.887528, -62.356278) "></path>
            <path d="M154.936958,135.839706 L154.936958,94.7505419 C174.620558,96.2229698 186.671635,98.511549 191.090189,101.616279 C175.853902,140.215189 191.482514,101.616279 176.246226,140.215189 C172.811555,138.439408 165.708466,136.980913 154.936958,135.839706 Z" id="Path-17" fill="#2ECC71" transform="translate(173.013574, 117.482866) rotate(90.000000) translate(-173.013574, -117.482866) "></path>
            <path d="M120.092162,182.838118 L120.092162,141.748954 C139.775762,143.221382 151.826839,145.509961 156.245393,148.614692 C141.009106,187.213601 156.637718,148.614692 141.40143,187.213601 C137.966759,185.43782 130.86367,183.979325 120.092162,182.838118 Z" id="Path-17" fill="#2ECC71" transform="translate(138.168778, 164.481278) rotate(135.000000) translate(-138.168778, -164.481278) "></path>
            <path d="M64.1875,189.776664 L64.1875,148.6875 C83.8710997,150.159928 95.9221768,152.448507 100.340731,155.553238 C85.1044437,194.152147 100.733055,155.553238 85.4967681,194.152147 C82.0620968,192.376366 74.9590075,190.917871 64.1875,189.776664 Z" id="Path-17" fill="#2ECC71" transform="translate(82.264116, 171.419824) rotate(180.000000) translate(-82.264116, -171.419824) "></path>
            <path d="M18.5609121,155.525618 L18.5609121,114.436454 C38.2445118,115.908882 50.2955888,118.197461 54.7141432,121.302192 C39.4778558,159.901101 55.1064676,121.302192 39.8701801,159.901101 C36.4355089,158.12532 29.3324196,156.666825 18.5609121,155.525618 Z" id="Path-17" fill="#2ECC71" transform="translate(36.637528, 137.168778) rotate(225.000000) translate(-36.637528, -137.168778) "></path>
            <path d="M11.2494581,100.280225 L11.2494581,59.1910608 C30.9330578,60.6634887 42.9841348,62.9520679 47.4026892,66.0567983 C32.1664018,104.655708 47.7950135,66.0567983 32.5587261,104.655708 C29.1240549,102.879926 22.0209655,101.421432 11.2494581,100.280225 Z" id="Path-17" fill="#2ECC71" transform="translate(29.326074, 81.923384) rotate(270.000000) translate(-29.326074, -81.923384) "></path>
            <path d="M45.8734121,53.9943681 L45.8734121,12.905204 C65.5570118,14.3776319 77.6080888,16.6662111 82.0266432,19.7709415 C66.7903558,58.3698513 82.4189676,19.7709415 67.1826801,58.3698513 C63.7480089,56.5940696 56.6449196,55.1355752 45.8734121,53.9943681 Z" id="Path-17" fill="#2ECC71" transform="translate(63.950028, 35.637528) rotate(315.000000) translate(-63.950028, -35.637528) "></path>
            <circle id="Oval" stroke="#333333" stroke-width="5" cx="101" cy="100" r="53.4375"></circle>
            <circle id="Oval" stroke="#333333" stroke-width="5" opacity="0.936537591" cx="101" cy="100" r="95"></circle>
            <g id="Group" transform="translate(63.000000, 64.000000)" fill-rule="nonzero">
                <g id="Shape">
                    <use fill="url(#linearGradient-1)" fill-rule="evenodd" xlink:href="#path-2"></use>
                    <path stroke="#27AE60" stroke-width="1" d="M38.5,10.0678308 C36.716296,7.65271549 34.5435038,5.46421142 31.823803,3.46906971 C24.8178373,-1.5222293 16.8562635,0.0771479102 9.54273604,5.08429306 C8.94299149,5.47536229 9.14717115,6.34907599 9.89659537,6.41704631 C13.4755003,7.0004612 17.0716866,8.12712583 20.1231069,9.89920958 L21.4487859,10.6690853 L19.9241206,10.828863 C12.5237779,11.6043842 5.88520839,16.2081092 0.679451098,22.3179198 C0.234237813,22.8155866 0.683457996,23.5478825 1.4226811,23.4164244 C8.03212685,22.2561063 14.8058519,21.9302714 20.4112492,23.0986901 L21.4932556,23.3242292 L20.6094838,23.987971 C15.7653075,27.6261073 14.4678502,33.5050799 15.3408837,39.9955534 C15.3973827,40.4929037 16.122626,40.6820644 16.4147522,40.2822808 C19.8866973,35.7544501 24.7182799,32.1674577 30.0924522,31.4299146 C31.4308218,31.2844651 32.8414892,31.2481557 34.2999792,31.3200799 L39,31.3200799 L38.5,31.8200799 L38.5,15.2649534 C38.5,11.3460241 38.5,11.16795 38.5,10.0678308 Z"></path>
                </g>
                <g id="Shape" transform="translate(58.500000, 20.500000) scale(-1, 1) translate(-58.500000, -20.500000) ">
                    <use fill="url(#linearGradient-3)" fill-rule="evenodd" xlink:href="#path-4"></use>
                    <path stroke="#27AE60" stroke-width="1" d="M77.5,10.0678308 C75.716296,7.65271549 73.5435038,5.46421142 70.823803,3.46906971 C63.8178373,-1.5222293 55.8562635,0.0771479102 48.542736,5.08429306 C47.9429915,5.47536229 48.1471712,6.34907599 48.8965954,6.41704631 C52.4755003,7.0004612 56.0716866,8.12712583 59.1231069,9.89920958 L60.4487859,10.6690853 L58.9241206,10.828863 C51.5237779,11.6043842 44.8852084,16.2081092 39.6794511,22.3179198 C39.2342378,22.8155866 39.683458,23.5478825 40.4226811,23.4164244 C47.0321268,22.2561063 53.8058519,21.9302714 59.4112492,23.0986901 L60.4932556,23.3242292 L59.6094838,23.987971 C54.7653075,27.6261073 53.4678502,33.5050799 54.3408837,39.9955534 C54.3973827,40.4929037 55.122626,40.6820644 55.4147522,40.2822808 C58.8866973,35.7544501 63.7182799,32.1674577 69.0924522,31.4299146 C70.4308218,31.2844651 71.8414892,31.2481557 73.2999792,31.3200799 L78,31.3200799 L77.5,31.8200799 L77.5,15.2649534 C77.5,11.3460241 77.5,11.16795 77.5,10.0678308 Z"></path>
                </g>
                <path d="M47.8520093,69.94446 C48.4971303,72.184273 46.9752838,74 44.4125993,74 L30.5856484,74 C28.0409937,74 26.5031135,72.1773424 27.1462384,69.94446 L31.9256359,49.249818 C29.1315109,47.8032643 28.2823394,45.5648118 28.2823394,42.4210526 C28.2823394,37.7702338 32.4088344,34 37.4991237,34 C42.5894133,34 46.7159081,37.7702338 46.7159081,42.4210526 C46.7159081,45.5648118 45.7334909,47.8032643 42.9393659,49.249818 L47.8520093,69.94446 Z" id="Shape" fill="url(#linearGradient-5)"></path>
            </g>
        </g>
    </g>
</svg>