<?xml version="1.0" encoding="UTF-8"?>
<svg width="200px" height="200px" viewBox="0 0 200 200" version="1.1" xmlns="http://www.w3.org/2000/svg" xmlns:xlink="http://www.w3.org/1999/xlink">
    <!-- Generator: Sketch 46.2 (44496) - http://www.bohemiancoding.com/sketch -->
    <title>crypto101-vault</title>
    <desc>Created with Sketch.</desc>
    <defs>
        <rect id="path-1" x="0" y="0" width="200" height="154.882155"></rect>
        <rect id="path-2" x="14.8148148" y="12.1212121" width="171.043771" height="131.313131" rx="11"></rect>
    </defs>
    <g id="Icons" stroke="none" stroke-width="1" fill="none" fill-rule="evenodd">
        <g id="crypto101-vault">
            <g id="Group" transform="translate(0.000000, 23.000000)">
                <g id="Rectangle">
                    <use fill="#BDC3C7" fill-rule="evenodd" xlink:href="#path-1"></use>
                    <rect stroke="#000000" stroke-width="5" x="2.5" y="2.5" width="195" height="149.882155"></rect>
                </g>
                <g id="Rectangle-3">
                    <use fill="#E6E6E6" fill-rule="evenodd" xlink:href="#path-2"></use>
                    <rect stroke="#000000" stroke-width="5" x="17.3148148" y="14.6212121" width="166.043771" height="126.313131" rx="11"></rect>
                </g>
                <g id="Handles" transform="translate(123.905724, 40.404040)" fill="#000000">
                    <path d="M28.2828283,13.393926 C26.7459661,13.0507628 25.5892256,11.5561304 25.5892256,9.76430976 C25.5892256,7.97248909 26.7459661,6.47785676 28.2828283,6.13469355 L28.2828283,2.5 L28.2828283,2.5 C28.2828283,1.11928813 29.4021164,2.53632657e-16 30.7828283,0 L32.516835,0 C33.8975469,-2.53632657e-16 35.016835,1.11928813 35.016835,2.5 L35.016835,72.9208754 C35.016835,74.3015873 33.8975469,75.4208754 32.516835,75.4208754 L30.7828283,75.4208754 C29.4021164,75.4208754 28.2828283,74.3015873 28.2828283,72.9208754 L28.2828283,67.9393805 C26.7459661,67.5962173 25.5892256,66.101585 25.5892256,64.3097643 C25.5892256,62.5179436 26.7459661,61.0233113 28.2828283,60.6801481 L28.2828283,13.393926 Z" id="Combined-Shape"></path>
                    <path d="M2.69360269,13.393926 C1.15674052,13.0507628 0,11.5561304 0,9.76430976 C0,7.97248909 1.15674052,6.47785676 2.69360269,6.13469355 L2.69360269,2.5 C2.69360269,1.11928813 3.81289082,-1.90456553e-16 5.19360269,-4.4408921e-16 L5.19360269,0 L6.92760943,0 L6.92760943,-4.4408921e-16 C8.3083213,-6.97721867e-16 9.42760943,1.11928813 9.42760943,2.5 L9.42760943,72.9208754 C9.42760943,74.3015873 8.3083213,75.4208754 6.92760943,75.4208754 L5.19360269,75.4208754 L5.19360269,75.4208754 C3.81289082,75.4208754 2.69360269,74.3015873 2.69360269,72.9208754 L2.69360269,67.9393805 C1.15674052,67.5962173 0,66.101585 0,64.3097643 C0,62.5179436 1.15674052,61.0233113 2.69360269,60.6801481 L2.69360269,13.393926 Z" id="Combined-Shape" transform="translate(4.713805, 37.710438) scale(-1, 1) translate(-4.713805, -37.710438) "></path>
                </g>
                <rect id="Rectangle-5" fill="#000000" x="7.40740741" y="29.6296296" width="23.5690236" height="8.08080808" rx="4.04040404"></rect>
                <rect id="Rectangle-5" fill="#000000" x="9.42760943" y="124.579125" width="23.5690236" height="8.08080808" rx="4.04040404"></rect>
                <rect id="Rectangle-2" fill="#2ECC71" opacity="0.533061594" x="55.2188552" y="51.1784512" width="28.2828283" height="12.1212121" rx="3"></rect>
                <g id="Digipad" transform="translate(55.218855, 73.400673)" fill="#000000">
                    <rect id="Rectangle-6" x="0" y="0" width="8.08080808" height="8.08080808" rx="1"></rect>
                    <rect id="Rectangle-6" x="10.1010101" y="0" width="8.08080808" height="8.08080808" rx="1"></rect>
                    <rect id="Rectangle-6" x="20.2020202" y="0" width="8.08080808" height="8.08080808" rx="1"></rect>
                    <rect id="Rectangle-6" x="0" y="10.7744108" width="8.08080808" height="8.08080808" rx="1"></rect>
                    <rect id="Rectangle-6" x="10.1010101" y="10.7744108" width="8.08080808" height="8.08080808" rx="1"></rect>
                    <rect id="Rectangle-6" x="20.2020202" y="10.7744108" width="8.08080808" height="8.08080808" rx="1"></rect>
                    <rect id="Rectangle-6" x="0" y="21.5488215" width="8.08080808" height="8.08080808" rx="1"></rect>
                    <rect id="Rectangle-6" x="10.1010101" y="21.5488215" width="8.08080808" height="8.08080808" rx="1"></rect>
                    <rect id="Rectangle-6" x="20.2020202" y="21.5488215" width="8.08080808" height="8.08080808" rx="1"></rect>
                </g>
                <rect id="Rectangle-3" stroke="#000000" stroke-width="4" x="49.8114478" y="47.1178451" width="39.7710438" height="59.973064" rx="4"></rect>
                <path d="M49.8316498,68.013468 L90.2356902,68.013468" id="Line" stroke="#000000" stroke-width="4" stroke-linecap="square"></path>
            </g>
        </g>
    </g>
</svg>